<?xml version="1.0" encoding="UTF-8" standalone="no"?>
<!DOCTYPE svg PUBLIC "-//W3C//DTD SVG 1.1//EN"
 "http://www.w3.org/Graphics/SVG/1.1/DTD/svg11.dtd">
<!-- Generated by graphviz version 2.43.0 (0)
 -->
<!-- Title: G Pages: 1 -->
<svg width="433pt" height="168pt"
 viewBox="0.00 0.00 433.20 168.20" xmlns="http://www.w3.org/2000/svg" xmlns:xlink="http://www.w3.org/1999/xlink">
<g id="graph0" class="graph" transform="scale(1 1) rotate(0) translate(21.6 146.6)">
<title>G</title>
<polygon fill="#202020" stroke="transparent" points="-21.6,21.6 -21.6,-146.6 411.6,-146.6 411.6,21.6 -21.6,21.6"/>
<!-- auth/index.ts -->
<g id="node1" class="node">
<title>auth/index.ts</title>
<path fill="none" stroke="#c6c5fe" d="M230.33,-43C230.33,-43 152.67,-43 152.67,-43 148.83,-43 145,-39.17 145,-35.33 145,-35.33 145,-27.67 145,-27.67 145,-23.83 148.83,-20 152.67,-20 152.67,-20 230.33,-20 230.33,-20 234.17,-20 238,-23.83 238,-27.67 238,-27.67 238,-35.33 238,-35.33 238,-39.17 234.17,-43 230.33,-43"/>
<text text-anchor="middle" x="191.5" y="-27.8" font-family="Arial" font-size="14.00" fill="#c6c5fe">auth/index.ts</text>
</g>
<!-- auth/providers.ts -->
<g id="node2" class="node">
<title>auth/providers.ts</title>
<path fill="none" stroke="#cfffac" d="M382.33,-64C382.33,-64 281.67,-64 281.67,-64 277.83,-64 274,-60.17 274,-56.33 274,-56.33 274,-48.67 274,-48.67 274,-44.83 277.83,-41 281.67,-41 281.67,-41 382.33,-41 382.33,-41 386.17,-41 390,-44.83 390,-48.67 390,-48.67 390,-56.33 390,-56.33 390,-60.17 386.17,-64 382.33,-64"/>
<text text-anchor="middle" x="332" y="-48.8" font-family="Arial" font-size="14.00" fill="#cfffac">auth/providers.ts</text>
</g>
<!-- auth/index.ts&#45;&gt;auth/providers.ts -->
<g id="edge1" class="edge">
<title>auth/index.ts&#45;&gt;auth/providers.ts</title>
<path fill="none" stroke="#757575" d="M238.23,-38.43C246.39,-39.67 255.04,-40.98 263.65,-42.29"/>
<polygon fill="#757575" stroke="#757575" points="263.29,-45.77 273.7,-43.81 264.34,-38.85 263.29,-45.77"/>
</g>
<!-- env.ts -->
<g id="node3" class="node">
<title>env.ts</title>
<path fill="none" stroke="#cfffac" d="M351.33,-23C351.33,-23 312.67,-23 312.67,-23 308.83,-23 305,-19.17 305,-15.33 305,-15.33 305,-7.67 305,-7.67 305,-3.83 308.83,0 312.67,0 312.67,0 351.33,0 351.33,0 355.17,0 359,-3.83 359,-7.67 359,-7.67 359,-15.33 359,-15.33 359,-19.17 355.17,-23 351.33,-23"/>
<text text-anchor="middle" x="332" y="-7.8" font-family="Arial" font-size="14.00" fill="#cfffac">env.ts</text>
</g>
<!-- auth/index.ts&#45;&gt;env.ts -->
<g id="edge2" class="edge">
<title>auth/index.ts&#45;&gt;env.ts</title>
<path fill="none" stroke="#757575" d="M238.23,-24.9C256.5,-22.26 277.25,-19.26 294.49,-16.77"/>
<polygon fill="#757575" stroke="#757575" points="295.31,-20.19 304.71,-15.3 294.31,-13.26 295.31,-20.19"/>
</g>
<!-- context.ts -->
<g id="node4" class="node">
<title>context.ts</title>
<path fill="none" stroke="#c6c5fe" d="M83.83,-43C83.83,-43 25.17,-43 25.17,-43 21.33,-43 17.5,-39.17 17.5,-35.33 17.5,-35.33 17.5,-27.67 17.5,-27.67 17.5,-23.83 21.33,-20 25.17,-20 25.17,-20 83.83,-20 83.83,-20 87.67,-20 91.5,-23.83 91.5,-27.67 91.5,-27.67 91.5,-35.33 91.5,-35.33 91.5,-39.17 87.67,-43 83.83,-43"/>
<text text-anchor="middle" x="54.5" y="-27.8" font-family="Arial" font-size="14.00" fill="#c6c5fe">context.ts</text>
</g>
<!-- context.ts&#45;&gt;auth/index.ts -->
<g id="edge3" class="edge">
<title>context.ts&#45;&gt;auth/index.ts</title>
<path fill="none" stroke="#757575" d="M91.68,-31.5C104.75,-31.5 119.84,-31.5 134.22,-31.5"/>
<polygon fill="#757575" stroke="#757575" points="134.54,-35 144.54,-31.5 134.54,-28 134.54,-35"/>
</g>
<!-- index.ts -->
<g id="node5" class="node">
<title>index.ts</title>
<path fill="none" stroke="#cfffac" d="M215.33,-84C215.33,-84 167.67,-84 167.67,-84 163.83,-84 160,-80.17 160,-76.33 160,-76.33 160,-68.67 160,-68.67 160,-64.83 163.83,-61 167.67,-61 167.67,-61 215.33,-61 215.33,-61 219.17,-61 223,-64.83 223,-68.67 223,-68.67 223,-76.33 223,-76.33 223,-80.17 219.17,-84 215.33,-84"/>
<text text-anchor="middle" x="191.5" y="-68.8" font-family="Arial" font-size="14.00" fill="#cfffac">index.ts</text>
</g>
<!-- routers/index.ts -->
<g id="node6" class="node">
<title>routers/index.ts</title>
<path fill="none" stroke="#c6c5fe" d="M101.33,-84C101.33,-84 7.67,-84 7.67,-84 3.83,-84 0,-80.17 0,-76.33 0,-76.33 0,-68.67 0,-68.67 0,-64.83 3.83,-61 7.67,-61 7.67,-61 101.33,-61 101.33,-61 105.17,-61 109,-64.83 109,-68.67 109,-68.67 109,-76.33 109,-76.33 109,-80.17 105.17,-84 101.33,-84"/>
<text text-anchor="middle" x="54.5" y="-68.8" font-family="Arial" font-size="14.00" fill="#c6c5fe">routers/index.ts</text>
</g>
<!-- routers/index.ts&#45;&gt;index.ts -->
<g id="edge4" class="edge">
<title>routers/index.ts&#45;&gt;index.ts</title>
<path fill="none" stroke="#757575" d="M109.24,-72.5C122.69,-72.5 136.89,-72.5 149.59,-72.5"/>
<polygon fill="#757575" stroke="#757575" points="149.87,-76 159.87,-72.5 149.87,-69 149.87,-76"/>
</g>
<!-- types.ts -->
<g id="node7" class="node">
<title>types.ts</title>
<path fill="none" stroke="#cfffac" d="M78.33,-125C78.33,-125 30.67,-125 30.67,-125 26.83,-125 23,-121.17 23,-117.33 23,-117.33 23,-109.67 23,-109.67 23,-105.83 26.83,-102 30.67,-102 30.67,-102 78.33,-102 78.33,-102 82.17,-102 86,-105.83 86,-109.67 86,-109.67 86,-117.33 86,-117.33 86,-121.17 82.17,-125 78.33,-125"/>
<text text-anchor="middle" x="54.5" y="-109.8" font-family="Arial" font-size="14.00" fill="#cfffac">types.ts</text>
</g>
</g>
</svg>
