<?xml version="1.0" encoding="UTF-8" standalone="no"?>
<!DOCTYPE svg PUBLIC "-//W3C//DTD SVG 1.1//EN"
 "http://www.w3.org/Graphics/SVG/1.1/DTD/svg11.dtd">
<!-- Generated by graphviz version 2.43.0 (0)
 -->
<!-- Title: G Pages: 1 -->
<svg width="1122pt" height="230pt"
 viewBox="0.00 0.00 1122.20 230.20" xmlns="http://www.w3.org/2000/svg" xmlns:xlink="http://www.w3.org/1999/xlink">
<g id="graph0" class="graph" transform="scale(1 1) rotate(0) translate(21.6 208.6)">
<title>G</title>
<polygon fill="#202020" stroke="transparent" points="-21.6,21.6 -21.6,-208.6 1100.6,-208.6 1100.6,21.6 -21.6,21.6"/>
<!-- ../../db/src/env.ts -->
<g id="node1" class="node">
<title>../../db/src/env.ts</title>
<path fill="none" stroke="#cfffac" d="M592.83,-187C592.83,-187 493.17,-187 493.17,-187 489.33,-187 485.5,-183.17 485.5,-179.33 485.5,-179.33 485.5,-171.67 485.5,-171.67 485.5,-167.83 489.33,-164 493.17,-164 493.17,-164 592.83,-164 592.83,-164 596.67,-164 600.5,-167.83 600.5,-171.67 600.5,-171.67 600.5,-179.33 600.5,-179.33 600.5,-183.17 596.67,-187 592.83,-187"/>
<text text-anchor="middle" x="543" y="-171.8" font-family="Arial" font-size="14.00" fill="#cfffac">../../db/src/env.ts</text>
</g>
<!-- ../../db/src/index.ts -->
<g id="node2" class="node">
<title>../../db/src/index.ts</title>
<path fill="none" stroke="#c6c5fe" d="M401.33,-146C401.33,-146 290.67,-146 290.67,-146 286.83,-146 283,-142.17 283,-138.33 283,-138.33 283,-130.67 283,-130.67 283,-126.83 286.83,-123 290.67,-123 290.67,-123 401.33,-123 401.33,-123 405.17,-123 409,-126.83 409,-130.67 409,-130.67 409,-138.33 409,-138.33 409,-142.17 405.17,-146 401.33,-146"/>
<text text-anchor="middle" x="346" y="-130.8" font-family="Arial" font-size="14.00" fill="#c6c5fe">../../db/src/index.ts</text>
</g>
<!-- ../../db/src/index.ts&#45;&gt;../../db/src/env.ts -->
<g id="edge1" class="edge">
<title>../../db/src/index.ts&#45;&gt;../../db/src/env.ts</title>
<path fill="none" stroke="#757575" d="M401.84,-146.03C425.3,-150.96 452.87,-156.76 477.33,-161.9"/>
<polygon fill="#757575" stroke="#757575" points="476.73,-165.35 487.24,-163.99 478.17,-158.5 476.73,-165.35"/>
</g>
<!-- ../../db/src/schema/index.ts -->
<g id="node3" class="node">
<title>../../db/src/schema/index.ts</title>
<path fill="none" stroke="#c6c5fe" d="M624.33,-146C624.33,-146 461.67,-146 461.67,-146 457.83,-146 454,-142.17 454,-138.33 454,-138.33 454,-130.67 454,-130.67 454,-126.83 457.83,-123 461.67,-123 461.67,-123 624.33,-123 624.33,-123 628.17,-123 632,-126.83 632,-130.67 632,-130.67 632,-138.33 632,-138.33 632,-142.17 628.17,-146 624.33,-146"/>
<text text-anchor="middle" x="543" y="-130.8" font-family="Arial" font-size="14.00" fill="#c6c5fe">../../db/src/schema/index.ts</text>
</g>
<!-- ../../db/src/index.ts&#45;&gt;../../db/src/schema/index.ts -->
<g id="edge2" class="edge">
<title>../../db/src/index.ts&#45;&gt;../../db/src/schema/index.ts</title>
<path fill="none" stroke="#757575" d="M409.24,-134.5C420.18,-134.5 431.82,-134.5 443.47,-134.5"/>
<polygon fill="#757575" stroke="#757575" points="443.7,-138 453.7,-134.5 443.7,-131 443.7,-138"/>
</g>
<!-- ../../db/src/schema/auth.ts -->
<g id="node4" class="node">
<title>../../db/src/schema/auth.ts</title>
<path fill="none" stroke="#c6c5fe" d="M832.33,-166C832.33,-166 675.67,-166 675.67,-166 671.83,-166 668,-162.17 668,-158.33 668,-158.33 668,-150.67 668,-150.67 668,-146.83 671.83,-143 675.67,-143 675.67,-143 832.33,-143 832.33,-143 836.17,-143 840,-146.83 840,-150.67 840,-150.67 840,-158.33 840,-158.33 840,-162.17 836.17,-166 832.33,-166"/>
<text text-anchor="middle" x="754" y="-150.8" font-family="Arial" font-size="14.00" fill="#c6c5fe">../../db/src/schema/auth.ts</text>
</g>
<!-- ../../db/src/schema/index.ts&#45;&gt;../../db/src/schema/auth.ts -->
<g id="edge3" class="edge">
<title>../../db/src/schema/index.ts&#45;&gt;../../db/src/schema/auth.ts</title>
<path fill="none" stroke="#757575" d="M632.03,-142.92C640.53,-143.74 649.18,-144.56 657.74,-145.38"/>
<polygon fill="#757575" stroke="#757575" points="657.46,-148.87 667.74,-146.34 658.12,-141.9 657.46,-148.87"/>
</g>
<!-- ../../db/src/schema/metadata.ts -->
<g id="node5" class="node">
<title>../../db/src/schema/metadata.ts</title>
<path fill="none" stroke="#cfffac" d="M1071.33,-146C1071.33,-146 883.67,-146 883.67,-146 879.83,-146 876,-142.17 876,-138.33 876,-138.33 876,-130.67 876,-130.67 876,-126.83 879.83,-123 883.67,-123 883.67,-123 1071.33,-123 1071.33,-123 1075.17,-123 1079,-126.83 1079,-130.67 1079,-130.67 1079,-138.33 1079,-138.33 1079,-142.17 1075.17,-146 1071.33,-146"/>
<text text-anchor="middle" x="977.5" y="-130.8" font-family="Arial" font-size="14.00" fill="#cfffac">../../db/src/schema/metadata.ts</text>
</g>
<!-- ../../db/src/schema/index.ts&#45;&gt;../../db/src/schema/metadata.ts -->
<g id="edge4" class="edge">
<title>../../db/src/schema/index.ts&#45;&gt;../../db/src/schema/metadata.ts</title>
<path fill="none" stroke="#757575" d="M632.06,-133.7C644.14,-133.62 656.37,-133.55 668,-133.5 744.44,-133.19 763.56,-133.22 840,-133.5 848.35,-133.53 856.98,-133.57 865.66,-133.62"/>
<polygon fill="#757575" stroke="#757575" points="865.84,-137.12 875.87,-133.68 865.89,-130.12 865.84,-137.12"/>
</g>
<!-- ../../db/src/schema/auth.ts&#45;&gt;../../db/src/schema/metadata.ts -->
<g id="edge5" class="edge">
<title>../../db/src/schema/auth.ts&#45;&gt;../../db/src/schema/metadata.ts</title>
<path fill="none" stroke="#757575" d="M840,-146.82C848.42,-146.06 857.05,-145.29 865.68,-144.51"/>
<polygon fill="#757575" stroke="#757575" points="866.15,-147.98 875.8,-143.59 865.52,-141.01 866.15,-147.98"/>
</g>
<!-- ../../email/src/env.ts -->
<g id="node6" class="node">
<title>../../email/src/env.ts</title>
<path fill="none" stroke="#cfffac" d="M601.83,-105C601.83,-105 484.17,-105 484.17,-105 480.33,-105 476.5,-101.17 476.5,-97.33 476.5,-97.33 476.5,-89.67 476.5,-89.67 476.5,-85.83 480.33,-82 484.17,-82 484.17,-82 601.83,-82 601.83,-82 605.67,-82 609.5,-85.83 609.5,-89.67 609.5,-89.67 609.5,-97.33 609.5,-97.33 609.5,-101.17 605.67,-105 601.83,-105"/>
<text text-anchor="middle" x="543" y="-89.8" font-family="Arial" font-size="14.00" fill="#cfffac">../../email/src/env.ts</text>
</g>
<!-- ../../email/src/index.ts -->
<g id="node7" class="node">
<title>../../email/src/index.ts</title>
<path fill="none" stroke="#c6c5fe" d="M410.33,-105C410.33,-105 281.67,-105 281.67,-105 277.83,-105 274,-101.17 274,-97.33 274,-97.33 274,-89.67 274,-89.67 274,-85.83 277.83,-82 281.67,-82 281.67,-82 410.33,-82 410.33,-82 414.17,-82 418,-85.83 418,-89.67 418,-89.67 418,-97.33 418,-97.33 418,-101.17 414.17,-105 410.33,-105"/>
<text text-anchor="middle" x="346" y="-89.8" font-family="Arial" font-size="14.00" fill="#c6c5fe">../../email/src/index.ts</text>
</g>
<!-- ../../email/src/index.ts&#45;&gt;../../email/src/env.ts -->
<g id="edge6" class="edge">
<title>../../email/src/index.ts&#45;&gt;../../email/src/env.ts</title>
<path fill="none" stroke="#757575" d="M418.23,-93.5C433.85,-93.5 450.44,-93.5 466.23,-93.5"/>
<polygon fill="#757575" stroke="#757575" points="466.47,-97 476.47,-93.5 466.47,-90 466.47,-97"/>
</g>
<!-- auth/index.ts -->
<g id="node8" class="node">
<title>auth/index.ts</title>
<path fill="none" stroke="#c6c5fe" d="M230.33,-84C230.33,-84 152.67,-84 152.67,-84 148.83,-84 145,-80.17 145,-76.33 145,-76.33 145,-68.67 145,-68.67 145,-64.83 148.83,-61 152.67,-61 152.67,-61 230.33,-61 230.33,-61 234.17,-61 238,-64.83 238,-68.67 238,-68.67 238,-76.33 238,-76.33 238,-80.17 234.17,-84 230.33,-84"/>
<text text-anchor="middle" x="191.5" y="-68.8" font-family="Arial" font-size="14.00" fill="#c6c5fe">auth/index.ts</text>
</g>
<!-- auth/index.ts&#45;&gt;../../db/src/index.ts -->
<g id="edge7" class="edge">
<title>auth/index.ts&#45;&gt;../../db/src/index.ts</title>
<path fill="none" stroke="#757575" d="M220.17,-84.06C226.11,-86.71 232.31,-89.6 238,-92.5 254.51,-100.91 257,-106.15 274,-113.5 279.09,-115.7 284.48,-117.75 289.92,-119.65"/>
<polygon fill="#757575" stroke="#757575" points="289.13,-123.07 299.73,-122.89 291.33,-116.43 289.13,-123.07"/>
</g>
<!-- auth/index.ts&#45;&gt;../../email/src/index.ts -->
<g id="edge8" class="edge">
<title>auth/index.ts&#45;&gt;../../email/src/index.ts</title>
<path fill="none" stroke="#757575" d="M238.26,-78.8C246.41,-79.92 255.13,-81.12 263.93,-82.34"/>
<polygon fill="#757575" stroke="#757575" points="263.5,-85.81 273.88,-83.71 264.46,-78.88 263.5,-85.81"/>
</g>
<!-- auth/providers.ts -->
<g id="node9" class="node">
<title>auth/providers.ts</title>
<path fill="none" stroke="#cfffac" d="M396.33,-64C396.33,-64 295.67,-64 295.67,-64 291.83,-64 288,-60.17 288,-56.33 288,-56.33 288,-48.67 288,-48.67 288,-44.83 291.83,-41 295.67,-41 295.67,-41 396.33,-41 396.33,-41 400.17,-41 404,-44.83 404,-48.67 404,-48.67 404,-56.33 404,-56.33 404,-60.17 400.17,-64 396.33,-64"/>
<text text-anchor="middle" x="346" y="-48.8" font-family="Arial" font-size="14.00" fill="#cfffac">auth/providers.ts</text>
</g>
<!-- auth/index.ts&#45;&gt;auth/providers.ts -->
<g id="edge9" class="edge">
<title>auth/index.ts&#45;&gt;auth/providers.ts</title>
<path fill="none" stroke="#757575" d="M238.26,-66.5C250.7,-64.87 264.44,-63.07 277.81,-61.31"/>
<polygon fill="#757575" stroke="#757575" points="278.47,-64.76 287.93,-59.99 277.56,-57.82 278.47,-64.76"/>
</g>
<!-- env.ts -->
<g id="node10" class="node">
<title>env.ts</title>
<path fill="none" stroke="#cfffac" d="M365.33,-23C365.33,-23 326.67,-23 326.67,-23 322.83,-23 319,-19.17 319,-15.33 319,-15.33 319,-7.67 319,-7.67 319,-3.83 322.83,0 326.67,0 326.67,0 365.33,0 365.33,0 369.17,0 373,-3.83 373,-7.67 373,-7.67 373,-15.33 373,-15.33 373,-19.17 369.17,-23 365.33,-23"/>
<text text-anchor="middle" x="346" y="-7.8" font-family="Arial" font-size="14.00" fill="#cfffac">env.ts</text>
</g>
<!-- auth/index.ts&#45;&gt;env.ts -->
<g id="edge10" class="edge">
<title>auth/index.ts&#45;&gt;env.ts</title>
<path fill="none" stroke="#757575" d="M212.77,-60.93C228.97,-52.03 252.44,-39.87 274,-31.5 285.26,-27.13 297.87,-23.26 309.3,-20.12"/>
<polygon fill="#757575" stroke="#757575" points="310.21,-23.5 318.98,-17.55 308.41,-16.73 310.21,-23.5"/>
</g>
<!-- context.ts -->
<g id="node11" class="node">
<title>context.ts</title>
<path fill="none" stroke="#c6c5fe" d="M83.83,-84C83.83,-84 25.17,-84 25.17,-84 21.33,-84 17.5,-80.17 17.5,-76.33 17.5,-76.33 17.5,-68.67 17.5,-68.67 17.5,-64.83 21.33,-61 25.17,-61 25.17,-61 83.83,-61 83.83,-61 87.67,-61 91.5,-64.83 91.5,-68.67 91.5,-68.67 91.5,-76.33 91.5,-76.33 91.5,-80.17 87.67,-84 83.83,-84"/>
<text text-anchor="middle" x="54.5" y="-68.8" font-family="Arial" font-size="14.00" fill="#c6c5fe">context.ts</text>
</g>
<!-- context.ts&#45;&gt;auth/index.ts -->
<g id="edge11" class="edge">
<title>context.ts&#45;&gt;auth/index.ts</title>
<path fill="none" stroke="#757575" d="M91.68,-72.5C104.75,-72.5 119.84,-72.5 134.22,-72.5"/>
<polygon fill="#757575" stroke="#757575" points="134.54,-76 144.54,-72.5 134.54,-69 134.54,-76"/>
</g>
<!-- index.ts -->
<g id="node12" class="node">
<title>index.ts</title>
<path fill="none" stroke="#cfffac" d="M215.33,-125C215.33,-125 167.67,-125 167.67,-125 163.83,-125 160,-121.17 160,-117.33 160,-117.33 160,-109.67 160,-109.67 160,-105.83 163.83,-102 167.67,-102 167.67,-102 215.33,-102 215.33,-102 219.17,-102 223,-105.83 223,-109.67 223,-109.67 223,-117.33 223,-117.33 223,-121.17 219.17,-125 215.33,-125"/>
<text text-anchor="middle" x="191.5" y="-109.8" font-family="Arial" font-size="14.00" fill="#cfffac">index.ts</text>
</g>
<!-- routers/index.ts -->
<g id="node13" class="node">
<title>routers/index.ts</title>
<path fill="none" stroke="#c6c5fe" d="M101.33,-125C101.33,-125 7.67,-125 7.67,-125 3.83,-125 0,-121.17 0,-117.33 0,-117.33 0,-109.67 0,-109.67 0,-105.83 3.83,-102 7.67,-102 7.67,-102 101.33,-102 101.33,-102 105.17,-102 109,-105.83 109,-109.67 109,-109.67 109,-117.33 109,-117.33 109,-121.17 105.17,-125 101.33,-125"/>
<text text-anchor="middle" x="54.5" y="-109.8" font-family="Arial" font-size="14.00" fill="#c6c5fe">routers/index.ts</text>
</g>
<!-- routers/index.ts&#45;&gt;index.ts -->
<g id="edge12" class="edge">
<title>routers/index.ts&#45;&gt;index.ts</title>
<path fill="none" stroke="#757575" d="M109.24,-113.5C122.69,-113.5 136.89,-113.5 149.59,-113.5"/>
<polygon fill="#757575" stroke="#757575" points="149.87,-117 159.87,-113.5 149.87,-110 149.87,-117"/>
</g>
<!-- types.ts -->
<g id="node14" class="node">
<title>types.ts</title>
<path fill="none" stroke="#cfffac" d="M78.33,-166C78.33,-166 30.67,-166 30.67,-166 26.83,-166 23,-162.17 23,-158.33 23,-158.33 23,-150.67 23,-150.67 23,-146.83 26.83,-143 30.67,-143 30.67,-143 78.33,-143 78.33,-143 82.17,-143 86,-146.83 86,-150.67 86,-150.67 86,-158.33 86,-158.33 86,-162.17 82.17,-166 78.33,-166"/>
<text text-anchor="middle" x="54.5" y="-150.8" font-family="Arial" font-size="14.00" fill="#cfffac">types.ts</text>
</g>
</g>
</svg>
