<?xml version="1.0" encoding="UTF-8" standalone="no"?>
<!DOCTYPE svg PUBLIC "-//W3C//DTD SVG 1.1//EN"
 "http://www.w3.org/Graphics/SVG/1.1/DTD/svg11.dtd">
<!-- Generated by graphviz version 2.43.0 (0)
 -->
<!-- Title: G Pages: 1 -->
<svg width="106pt" height="107pt"
 viewBox="0.00 0.00 106.20 107.20" xmlns="http://www.w3.org/2000/svg" xmlns:xlink="http://www.w3.org/1999/xlink">
<g id="graph0" class="graph" transform="scale(1 1) rotate(0) translate(21.6 85.6)">
<title>G</title>
<polygon fill="#202020" stroke="transparent" points="-21.6,21.6 -21.6,-85.6 84.6,-85.6 84.6,21.6 -21.6,21.6"/>
<!-- env.ts -->
<g id="node1" class="node">
<title>env.ts</title>
<path fill="none" stroke="#cfffac" d="M50.83,-23C50.83,-23 12.17,-23 12.17,-23 8.33,-23 4.5,-19.17 4.5,-15.33 4.5,-15.33 4.5,-7.67 4.5,-7.67 4.5,-3.83 8.33,0 12.17,0 12.17,0 50.83,0 50.83,0 54.67,0 58.5,-3.83 58.5,-7.67 58.5,-7.67 58.5,-15.33 58.5,-15.33 58.5,-19.17 54.67,-23 50.83,-23"/>
<text text-anchor="middle" x="31.5" y="-7.8" font-family="Arial" font-size="14.00" fill="#cfffac">env.ts</text>
</g>
<!-- index.ts -->
<g id="node2" class="node">
<title>index.ts</title>
<path fill="none" stroke="#cfffac" d="M55.33,-64C55.33,-64 7.67,-64 7.67,-64 3.83,-64 0,-60.17 0,-56.33 0,-56.33 0,-48.67 0,-48.67 0,-44.83 3.83,-41 7.67,-41 7.67,-41 55.33,-41 55.33,-41 59.17,-41 63,-44.83 63,-48.67 63,-48.67 63,-56.33 63,-56.33 63,-60.17 59.17,-64 55.33,-64"/>
<text text-anchor="middle" x="31.5" y="-48.8" font-family="Arial" font-size="14.00" fill="#cfffac">index.ts</text>
</g>
</g>
</svg>
