<?xml version="1.0" encoding="UTF-8" standalone="no"?>
<!DOCTYPE svg PUBLIC "-//W3C//DTD SVG 1.1//EN"
 "http://www.w3.org/Graphics/SVG/1.1/DTD/svg11.dtd">
<!-- Generated by graphviz version 2.43.0 (0)
 -->
<!-- Title: G Pages: 1 -->
<svg width="270pt" height="148pt"
 viewBox="0.00 0.00 270.20 148.20" xmlns="http://www.w3.org/2000/svg" xmlns:xlink="http://www.w3.org/1999/xlink">
<g id="graph0" class="graph" transform="scale(1 1) rotate(0) translate(21.6 126.6)">
<title>G</title>
<polygon fill="#202020" stroke="transparent" points="-21.6,21.6 -21.6,-126.6 248.6,-126.6 248.6,21.6 -21.6,21.6"/>
<!-- client/env.ts -->
<g id="node1" class="node">
<title>client/env.ts</title>
<path fill="none" stroke="#cfffac" d="M219.33,-23C219.33,-23 147.67,-23 147.67,-23 143.83,-23 140,-19.17 140,-15.33 140,-15.33 140,-7.67 140,-7.67 140,-3.83 143.83,0 147.67,0 147.67,0 219.33,0 219.33,0 223.17,0 227,-3.83 227,-7.67 227,-7.67 227,-15.33 227,-15.33 227,-19.17 223.17,-23 219.33,-23"/>
<text text-anchor="middle" x="183.5" y="-7.8" font-family="Arial" font-size="14.00" fill="#cfffac">client/env.ts</text>
</g>
<!-- client/index.ts -->
<g id="node2" class="node">
<title>client/index.ts</title>
<path fill="none" stroke="#cfffac" d="M93.33,-64C93.33,-64 10.67,-64 10.67,-64 6.83,-64 3,-60.17 3,-56.33 3,-56.33 3,-48.67 3,-48.67 3,-44.83 6.83,-41 10.67,-41 10.67,-41 93.33,-41 93.33,-41 97.17,-41 101,-44.83 101,-48.67 101,-48.67 101,-56.33 101,-56.33 101,-60.17 97.17,-64 93.33,-64"/>
<text text-anchor="middle" x="52" y="-48.8" font-family="Arial" font-size="14.00" fill="#cfffac">client/index.ts</text>
</g>
<!-- server/env.ts -->
<g id="node3" class="node">
<title>server/env.ts</title>
<path fill="none" stroke="#c6c5fe" d="M90.83,-23C90.83,-23 13.17,-23 13.17,-23 9.33,-23 5.5,-19.17 5.5,-15.33 5.5,-15.33 5.5,-7.67 5.5,-7.67 5.5,-3.83 9.33,0 13.17,0 13.17,0 90.83,0 90.83,0 94.67,0 98.5,-3.83 98.5,-7.67 98.5,-7.67 98.5,-15.33 98.5,-15.33 98.5,-19.17 94.67,-23 90.83,-23"/>
<text text-anchor="middle" x="52" y="-7.8" font-family="Arial" font-size="14.00" fill="#c6c5fe">server/env.ts</text>
</g>
<!-- server/env.ts&#45;&gt;client/env.ts -->
<g id="edge1" class="edge">
<title>server/env.ts&#45;&gt;client/env.ts</title>
<path fill="none" stroke="#757575" d="M98.66,-11.5C108.71,-11.5 119.43,-11.5 129.73,-11.5"/>
<polygon fill="#757575" stroke="#757575" points="129.86,-15 139.86,-11.5 129.86,-8 129.86,-15"/>
</g>
<!-- server/index.ts -->
<g id="node4" class="node">
<title>server/index.ts</title>
<path fill="none" stroke="#cfffac" d="M96.33,-105C96.33,-105 7.67,-105 7.67,-105 3.83,-105 0,-101.17 0,-97.33 0,-97.33 0,-89.67 0,-89.67 0,-85.83 3.83,-82 7.67,-82 7.67,-82 96.33,-82 96.33,-82 100.17,-82 104,-85.83 104,-89.67 104,-89.67 104,-97.33 104,-97.33 104,-101.17 100.17,-105 96.33,-105"/>
<text text-anchor="middle" x="52" y="-89.8" font-family="Arial" font-size="14.00" fill="#cfffac">server/index.ts</text>
</g>
</g>
</svg>
