<?xml version="1.0" encoding="UTF-8" standalone="no"?>
<!DOCTYPE svg PUBLIC "-//W3C//DTD SVG 1.1//EN"
 "http://www.w3.org/Graphics/SVG/1.1/DTD/svg11.dtd">
<!-- Generated by graphviz version 2.43.0 (0)
 -->
<!-- Title: G Pages: 1 -->
<svg width="807pt" height="252pt"
 viewBox="0.00 0.00 807.20 251.85" xmlns="http://www.w3.org/2000/svg" xmlns:xlink="http://www.w3.org/1999/xlink">
<g id="graph0" class="graph" transform="scale(1 1) rotate(0) translate(21.6 230.25)">
<title>G</title>
<polygon fill="#202020" stroke="transparent" points="-21.6,21.6 -21.6,-230.25 785.6,-230.25 785.6,21.6 -21.6,21.6"/>
<!-- env.ts -->
<g id="node1" class="node">
<title>env.ts</title>
<path fill="none" stroke="#cfffac" d="M404.83,-208.65C404.83,-208.65 366.17,-208.65 366.17,-208.65 362.33,-208.65 358.5,-204.82 358.5,-200.98 358.5,-200.98 358.5,-193.32 358.5,-193.32 358.5,-189.48 362.33,-185.65 366.17,-185.65 366.17,-185.65 404.83,-185.65 404.83,-185.65 408.67,-185.65 412.5,-189.48 412.5,-193.32 412.5,-193.32 412.5,-200.98 412.5,-200.98 412.5,-204.82 408.67,-208.65 404.83,-208.65"/>
<text text-anchor="middle" x="385.5" y="-193.45" font-family="Arial" font-size="14.00" fill="#cfffac">env.ts</text>
</g>
<!-- index.ts -->
<g id="node2" class="node">
<title>index.ts</title>
<path fill="none" stroke="#c6c5fe" d="M251.83,-208.65C251.83,-208.65 204.17,-208.65 204.17,-208.65 200.33,-208.65 196.5,-204.82 196.5,-200.98 196.5,-200.98 196.5,-193.32 196.5,-193.32 196.5,-189.48 200.33,-185.65 204.17,-185.65 204.17,-185.65 251.83,-185.65 251.83,-185.65 255.67,-185.65 259.5,-189.48 259.5,-193.32 259.5,-193.32 259.5,-200.98 259.5,-200.98 259.5,-204.82 255.67,-208.65 251.83,-208.65"/>
<text text-anchor="middle" x="228" y="-193.45" font-family="Arial" font-size="14.00" fill="#c6c5fe">index.ts</text>
</g>
<!-- index.ts&#45;&gt;env.ts -->
<g id="edge1" class="edge">
<title>index.ts&#45;&gt;env.ts</title>
<path fill="none" stroke="#757575" d="M259.72,-197.15C285.19,-197.15 321.46,-197.15 348.33,-197.15"/>
<polygon fill="#757575" stroke="#757575" points="348.49,-200.65 358.49,-197.15 348.49,-193.65 348.49,-200.65"/>
</g>
<!-- schema/index.ts -->
<g id="node3" class="node">
<title>schema/index.ts</title>
<path fill="none" stroke="#c6c5fe" d="M435.33,-126.65C435.33,-126.65 335.67,-126.65 335.67,-126.65 331.83,-126.65 328,-122.82 328,-118.98 328,-118.98 328,-111.32 328,-111.32 328,-107.48 331.83,-103.65 335.67,-103.65 335.67,-103.65 435.33,-103.65 435.33,-103.65 439.17,-103.65 443,-107.48 443,-111.32 443,-111.32 443,-118.98 443,-118.98 443,-122.82 439.17,-126.65 435.33,-126.65"/>
<text text-anchor="middle" x="385.5" y="-111.45" font-family="Arial" font-size="14.00" fill="#c6c5fe">schema/index.ts</text>
</g>
<!-- index.ts&#45;&gt;schema/index.ts -->
<g id="edge2" class="edge">
<title>index.ts&#45;&gt;schema/index.ts</title>
<path fill="none" stroke="#757575" d="M259.79,-189.28C270.26,-186.11 281.87,-182.03 292,-177.15 317.3,-164.96 343.66,-146.65 361.74,-133.08"/>
<polygon fill="#757575" stroke="#757575" points="364.08,-135.7 369.91,-126.85 359.84,-130.13 364.08,-135.7"/>
</g>
<!-- schema/auth.ts -->
<g id="node4" class="node">
<title>schema/auth.ts</title>
<path fill="none" stroke="#c6c5fe" d="M580.33,-106.65C580.33,-106.65 486.67,-106.65 486.67,-106.65 482.83,-106.65 479,-102.82 479,-98.98 479,-98.98 479,-91.32 479,-91.32 479,-87.48 482.83,-83.65 486.67,-83.65 486.67,-83.65 580.33,-83.65 580.33,-83.65 584.17,-83.65 588,-87.48 588,-91.32 588,-91.32 588,-98.98 588,-98.98 588,-102.82 584.17,-106.65 580.33,-106.65"/>
<text text-anchor="middle" x="533.5" y="-91.45" font-family="Arial" font-size="14.00" fill="#c6c5fe">schema/auth.ts</text>
</g>
<!-- schema/index.ts&#45;&gt;schema/auth.ts -->
<g id="edge3" class="edge">
<title>schema/index.ts&#45;&gt;schema/auth.ts</title>
<path fill="none" stroke="#757575" d="M443.37,-107.36C451.68,-106.22 460.28,-105.04 468.72,-103.89"/>
<polygon fill="#757575" stroke="#757575" points="469.46,-107.32 478.9,-102.49 468.51,-100.38 469.46,-107.32"/>
</g>
<!-- schema/metadata.ts -->
<g id="node5" class="node">
<title>schema/metadata.ts</title>
<path fill="none" stroke="#cfffac" d="M756.33,-126.65C756.33,-126.65 631.67,-126.65 631.67,-126.65 627.83,-126.65 624,-122.82 624,-118.98 624,-118.98 624,-111.32 624,-111.32 624,-107.48 627.83,-103.65 631.67,-103.65 631.67,-103.65 756.33,-103.65 756.33,-103.65 760.17,-103.65 764,-107.48 764,-111.32 764,-111.32 764,-118.98 764,-118.98 764,-122.82 760.17,-126.65 756.33,-126.65"/>
<text text-anchor="middle" x="694" y="-111.45" font-family="Arial" font-size="14.00" fill="#cfffac">schema/metadata.ts</text>
</g>
<!-- schema/index.ts&#45;&gt;schema/metadata.ts -->
<g id="edge4" class="edge">
<title>schema/index.ts&#45;&gt;schema/metadata.ts</title>
<path fill="none" stroke="#757575" d="M443.24,-115.86C455.06,-115.98 467.44,-116.09 479,-116.15 527.44,-116.41 539.56,-116.38 588,-116.15 596.32,-116.11 605.01,-116.05 613.68,-115.99"/>
<polygon fill="#757575" stroke="#757575" points="613.84,-119.49 623.81,-115.9 613.78,-112.49 613.84,-119.49"/>
</g>
<!-- schema/auth.ts&#45;&gt;schema/metadata.ts -->
<g id="edge5" class="edge">
<title>schema/auth.ts&#45;&gt;schema/metadata.ts</title>
<path fill="none" stroke="#757575" d="M588.16,-101.92C596.42,-102.96 605.1,-104.06 613.78,-105.15"/>
<polygon fill="#757575" stroke="#757575" points="613.58,-108.66 623.94,-106.44 614.46,-101.71 613.58,-108.66"/>
</g>
<!-- types.ts -->
<g id="node6" class="node">
<title>types.ts</title>
<path fill="none" stroke="#cfffac" d="M87.83,-126.65C87.83,-126.65 40.17,-126.65 40.17,-126.65 36.33,-126.65 32.5,-122.82 32.5,-118.98 32.5,-118.98 32.5,-111.32 32.5,-111.32 32.5,-107.48 36.33,-103.65 40.17,-103.65 40.17,-103.65 87.83,-103.65 87.83,-103.65 91.67,-103.65 95.5,-107.48 95.5,-111.32 95.5,-111.32 95.5,-118.98 95.5,-118.98 95.5,-122.82 91.67,-126.65 87.83,-126.65"/>
<text text-anchor="middle" x="64" y="-111.45" font-family="Arial" font-size="14.00" fill="#cfffac">types.ts</text>
</g>
<!-- zod/accounts.ts -->
<g id="node7" class="node">
<title>zod/accounts.ts</title>
<path fill="none" stroke="#c6c5fe" d="M275.33,-167.65C275.33,-167.65 180.67,-167.65 180.67,-167.65 176.83,-167.65 173,-163.82 173,-159.98 173,-159.98 173,-152.32 173,-152.32 173,-148.48 176.83,-144.65 180.67,-144.65 180.67,-144.65 275.33,-144.65 275.33,-144.65 279.17,-144.65 283,-148.48 283,-152.32 283,-152.32 283,-159.98 283,-159.98 283,-163.82 279.17,-167.65 275.33,-167.65"/>
<text text-anchor="middle" x="228" y="-152.45" font-family="Arial" font-size="14.00" fill="#c6c5fe">zod/accounts.ts</text>
</g>
<!-- zod/accounts.ts&#45;&gt;schema/index.ts -->
<g id="edge6" class="edge">
<title>zod/accounts.ts&#45;&gt;schema/index.ts</title>
<path fill="none" stroke="#757575" d="M272.73,-144.62C290.86,-139.84 312.06,-134.25 331.1,-129.23"/>
<polygon fill="#757575" stroke="#757575" points="332.05,-132.6 340.83,-126.67 330.27,-125.83 332.05,-132.6"/>
</g>
<!-- zod/factory.ts -->
<g id="node8" class="node">
<title>zod/factory.ts</title>
<path fill="none" stroke="#cfffac" d="M425.83,-85.65C425.83,-85.65 345.17,-85.65 345.17,-85.65 341.33,-85.65 337.5,-81.82 337.5,-77.98 337.5,-77.98 337.5,-70.32 337.5,-70.32 337.5,-66.48 341.33,-62.65 345.17,-62.65 345.17,-62.65 425.83,-62.65 425.83,-62.65 429.67,-62.65 433.5,-66.48 433.5,-70.32 433.5,-70.32 433.5,-77.98 433.5,-77.98 433.5,-81.82 429.67,-85.65 425.83,-85.65"/>
<text text-anchor="middle" x="385.5" y="-70.45" font-family="Arial" font-size="14.00" fill="#cfffac">zod/factory.ts</text>
</g>
<!-- zod/accounts.ts&#45;&gt;zod/factory.ts -->
<g id="edge7" class="edge">
<title>zod/accounts.ts&#45;&gt;zod/factory.ts</title>
<path fill="none" stroke="#757575" d="M275.41,-144.64C281.23,-142.28 286.91,-139.48 292,-136.15 312.3,-122.89 308.03,-108.9 328,-95.15 330.67,-93.31 333.53,-91.61 336.48,-90.04"/>
<polygon fill="#757575" stroke="#757575" points="338.02,-93.18 345.54,-85.71 335.01,-86.86 338.02,-93.18"/>
</g>
<!-- zod/api.ts -->
<g id="node9" class="node">
<title>zod/api.ts</title>
<path fill="none" stroke="#cfffac" d="M93.33,-167.65C93.33,-167.65 34.67,-167.65 34.67,-167.65 30.83,-167.65 27,-163.82 27,-159.98 27,-159.98 27,-152.32 27,-152.32 27,-148.48 30.83,-144.65 34.67,-144.65 34.67,-144.65 93.33,-144.65 93.33,-144.65 97.17,-144.65 101,-148.48 101,-152.32 101,-152.32 101,-159.98 101,-159.98 101,-163.82 97.17,-167.65 93.33,-167.65"/>
<text text-anchor="middle" x="64" y="-152.45" font-family="Arial" font-size="14.00" fill="#cfffac">zod/api.ts</text>
</g>
<!-- zod/index.ts -->
<g id="node10" class="node">
<title>zod/index.ts</title>
<path fill="none" stroke="#c6c5fe" d="M100.83,-85.65C100.83,-85.65 27.17,-85.65 27.17,-85.65 23.33,-85.65 19.5,-81.82 19.5,-77.98 19.5,-77.98 19.5,-70.32 19.5,-70.32 19.5,-66.48 23.33,-62.65 27.17,-62.65 27.17,-62.65 100.83,-62.65 100.83,-62.65 104.67,-62.65 108.5,-66.48 108.5,-70.32 108.5,-70.32 108.5,-77.98 108.5,-77.98 108.5,-81.82 104.67,-85.65 100.83,-85.65"/>
<text text-anchor="middle" x="64" y="-70.45" font-family="Arial" font-size="14.00" fill="#c6c5fe">zod/index.ts</text>
</g>
<!-- zod/index.ts&#45;&gt;zod/accounts.ts -->
<g id="edge8" class="edge">
<title>zod/index.ts&#45;&gt;zod/accounts.ts</title>
<path fill="none" stroke="#757575" d="M108.77,-85.37C115.5,-88.03 122.14,-91.26 128,-95.15 148.2,-108.56 143.7,-122.89 164,-136.15 166.31,-137.66 168.74,-139.06 171.24,-140.36"/>
<polygon fill="#757575" stroke="#757575" points="170.04,-143.66 180.59,-144.64 172.96,-137.29 170.04,-143.66"/>
</g>
<!-- zod/index.ts&#45;&gt;zod/factory.ts -->
<g id="edge9" class="edge">
<title>zod/index.ts&#45;&gt;zod/factory.ts</title>
<path fill="none" stroke="#757575" d="M78.22,-62.4C96.15,-47.32 129.89,-21.95 164,-12.15 218.68,3.56 237.57,4.4 292,-12.15 319.82,-20.61 346.87,-40.53 364.46,-55.52"/>
<polygon fill="#757575" stroke="#757575" points="362.48,-58.44 372.3,-62.41 367.1,-53.18 362.48,-58.44"/>
</g>
<!-- zod/sessions.ts -->
<g id="node11" class="node">
<title>zod/sessions.ts</title>
<path fill="none" stroke="#c6c5fe" d="M274.83,-126.65C274.83,-126.65 181.17,-126.65 181.17,-126.65 177.33,-126.65 173.5,-122.82 173.5,-118.98 173.5,-118.98 173.5,-111.32 173.5,-111.32 173.5,-107.48 177.33,-103.65 181.17,-103.65 181.17,-103.65 274.83,-103.65 274.83,-103.65 278.67,-103.65 282.5,-107.48 282.5,-111.32 282.5,-111.32 282.5,-118.98 282.5,-118.98 282.5,-122.82 278.67,-126.65 274.83,-126.65"/>
<text text-anchor="middle" x="228" y="-111.45" font-family="Arial" font-size="14.00" fill="#c6c5fe">zod/sessions.ts</text>
</g>
<!-- zod/index.ts&#45;&gt;zod/sessions.ts -->
<g id="edge10" class="edge">
<title>zod/index.ts&#45;&gt;zod/sessions.ts</title>
<path fill="none" stroke="#757575" d="M108.84,-85.25C128.17,-90.14 151.1,-95.94 171.59,-101.13"/>
<polygon fill="#757575" stroke="#757575" points="170.88,-104.56 181.43,-103.62 172.59,-97.77 170.88,-104.56"/>
</g>
<!-- zod/users.ts -->
<g id="node12" class="node">
<title>zod/users.ts</title>
<path fill="none" stroke="#c6c5fe" d="M264.83,-85.65C264.83,-85.65 191.17,-85.65 191.17,-85.65 187.33,-85.65 183.5,-81.82 183.5,-77.98 183.5,-77.98 183.5,-70.32 183.5,-70.32 183.5,-66.48 187.33,-62.65 191.17,-62.65 191.17,-62.65 264.83,-62.65 264.83,-62.65 268.67,-62.65 272.5,-66.48 272.5,-70.32 272.5,-70.32 272.5,-77.98 272.5,-77.98 272.5,-81.82 268.67,-85.65 264.83,-85.65"/>
<text text-anchor="middle" x="228" y="-70.45" font-family="Arial" font-size="14.00" fill="#c6c5fe">zod/users.ts</text>
</g>
<!-- zod/index.ts&#45;&gt;zod/users.ts -->
<g id="edge11" class="edge">
<title>zod/index.ts&#45;&gt;zod/users.ts</title>
<path fill="none" stroke="#757575" d="M108.84,-74.15C128.73,-74.15 152.44,-74.15 173.38,-74.15"/>
<polygon fill="#757575" stroke="#757575" points="173.41,-77.65 183.41,-74.15 173.41,-70.65 173.41,-77.65"/>
</g>
<!-- zod/verifications.ts -->
<g id="node13" class="node">
<title>zod/verifications.ts</title>
<path fill="none" stroke="#c6c5fe" d="M284.33,-44.65C284.33,-44.65 171.67,-44.65 171.67,-44.65 167.83,-44.65 164,-40.82 164,-36.98 164,-36.98 164,-29.32 164,-29.32 164,-25.48 167.83,-21.65 171.67,-21.65 171.67,-21.65 284.33,-21.65 284.33,-21.65 288.17,-21.65 292,-25.48 292,-29.32 292,-29.32 292,-36.98 292,-36.98 292,-40.82 288.17,-44.65 284.33,-44.65"/>
<text text-anchor="middle" x="228" y="-29.45" font-family="Arial" font-size="14.00" fill="#c6c5fe">zod/verifications.ts</text>
</g>
<!-- zod/index.ts&#45;&gt;zod/verifications.ts -->
<g id="edge12" class="edge">
<title>zod/index.ts&#45;&gt;zod/verifications.ts</title>
<path fill="none" stroke="#757575" d="M108.84,-63.06C128.17,-58.16 151.1,-52.36 171.59,-47.17"/>
<polygon fill="#757575" stroke="#757575" points="172.59,-50.53 181.43,-44.68 170.88,-43.74 172.59,-50.53"/>
</g>
<!-- zod/sessions.ts&#45;&gt;schema/index.ts -->
<g id="edge13" class="edge">
<title>zod/sessions.ts&#45;&gt;schema/index.ts</title>
<path fill="none" stroke="#757575" d="M282.51,-115.15C293.86,-115.15 305.97,-115.15 317.74,-115.15"/>
<polygon fill="#757575" stroke="#757575" points="317.97,-118.65 327.97,-115.15 317.97,-111.65 317.97,-118.65"/>
</g>
<!-- zod/sessions.ts&#45;&gt;zod/factory.ts -->
<g id="edge14" class="edge">
<title>zod/sessions.ts&#45;&gt;zod/factory.ts</title>
<path fill="none" stroke="#757575" d="M272.73,-103.62C290.86,-98.84 312.06,-93.25 331.1,-88.23"/>
<polygon fill="#757575" stroke="#757575" points="332.05,-91.6 340.83,-85.67 330.27,-84.83 332.05,-91.6"/>
</g>
<!-- zod/users.ts&#45;&gt;schema/index.ts -->
<g id="edge15" class="edge">
<title>zod/users.ts&#45;&gt;schema/index.ts</title>
<path fill="none" stroke="#757575" d="M272.73,-85.68C290.86,-90.46 312.06,-96.05 331.1,-101.07"/>
<polygon fill="#757575" stroke="#757575" points="330.27,-104.47 340.83,-103.64 332.05,-97.7 330.27,-104.47"/>
</g>
<!-- zod/users.ts&#45;&gt;zod/factory.ts -->
<g id="edge16" class="edge">
<title>zod/users.ts&#45;&gt;zod/factory.ts</title>
<path fill="none" stroke="#757575" d="M272.73,-74.15C289.63,-74.15 309.2,-74.15 327.2,-74.15"/>
<polygon fill="#757575" stroke="#757575" points="327.29,-77.65 337.29,-74.15 327.29,-70.65 327.29,-77.65"/>
</g>
<!-- zod/verifications.ts&#45;&gt;schema/index.ts -->
<g id="edge17" class="edge">
<title>zod/verifications.ts&#45;&gt;schema/index.ts</title>
<path fill="none" stroke="#757575" d="M275.78,-44.74C281.47,-47.08 287.02,-49.86 292,-53.15 312.5,-66.72 307.73,-81.24 328,-95.15 330.1,-96.59 332.32,-97.94 334.61,-99.2"/>
<polygon fill="#757575" stroke="#757575" points="333.2,-102.41 343.73,-103.64 336.27,-96.12 333.2,-102.41"/>
</g>
<!-- zod/verifications.ts&#45;&gt;zod/factory.ts -->
<g id="edge18" class="edge">
<title>zod/verifications.ts&#45;&gt;zod/factory.ts</title>
<path fill="none" stroke="#757575" d="M272.73,-44.68C290.86,-49.46 312.06,-55.05 331.1,-60.07"/>
<polygon fill="#757575" stroke="#757575" points="330.27,-63.47 340.83,-62.64 332.05,-56.7 330.27,-63.47"/>
</g>
<!-- zod/refinements.ts -->
<g id="node14" class="node">
<title>zod/refinements.ts</title>
<path fill="none" stroke="#cfffac" d="M120.33,-208.65C120.33,-208.65 7.67,-208.65 7.67,-208.65 3.83,-208.65 0,-204.82 0,-200.98 0,-200.98 0,-193.32 0,-193.32 0,-189.48 3.83,-185.65 7.67,-185.65 7.67,-185.65 120.33,-185.65 120.33,-185.65 124.17,-185.65 128,-189.48 128,-193.32 128,-193.32 128,-200.98 128,-200.98 128,-204.82 124.17,-208.65 120.33,-208.65"/>
<text text-anchor="middle" x="64" y="-193.45" font-family="Arial" font-size="14.00" fill="#cfffac">zod/refinements.ts</text>
</g>
</g>
</svg>
