<?xml version="1.0" encoding="UTF-8" standalone="no"?>
<!DOCTYPE svg PUBLIC "-//W3C//DTD SVG 1.1//EN"
 "http://www.w3.org/Graphics/SVG/1.1/DTD/svg11.dtd">
<!-- Generated by graphviz version 2.43.0 (0)
 -->
<!-- Title: G Pages: 1 -->
<svg width="196pt" height="66pt"
 viewBox="0.00 0.00 196.20 66.20" xmlns="http://www.w3.org/2000/svg" xmlns:xlink="http://www.w3.org/1999/xlink">
<g id="graph0" class="graph" transform="scale(1 1) rotate(0) translate(21.6 44.6)">
<title>G</title>
<polygon fill="#202020" stroke="transparent" points="-21.6,21.6 -21.6,-44.6 174.6,-44.6 174.6,21.6 -21.6,21.6"/>
<!-- env.ts -->
<g id="node1" class="node">
<title>env.ts</title>
<path fill="none" stroke="#cfffac" d="M145.33,-23C145.33,-23 106.67,-23 106.67,-23 102.83,-23 99,-19.17 99,-15.33 99,-15.33 99,-7.67 99,-7.67 99,-3.83 102.83,0 106.67,0 106.67,0 145.33,0 145.33,0 149.17,0 153,-3.83 153,-7.67 153,-7.67 153,-15.33 153,-15.33 153,-19.17 149.17,-23 145.33,-23"/>
<text text-anchor="middle" x="126" y="-7.8" font-family="Arial" font-size="14.00" fill="#cfffac">env.ts</text>
</g>
<!-- index.ts -->
<g id="node2" class="node">
<title>index.ts</title>
<path fill="none" stroke="#c6c5fe" d="M55.33,-23C55.33,-23 7.67,-23 7.67,-23 3.83,-23 0,-19.17 0,-15.33 0,-15.33 0,-7.67 0,-7.67 0,-3.83 3.83,0 7.67,0 7.67,0 55.33,0 55.33,0 59.17,0 63,-3.83 63,-7.67 63,-7.67 63,-15.33 63,-15.33 63,-19.17 59.17,-23 55.33,-23"/>
<text text-anchor="middle" x="31.5" y="-7.8" font-family="Arial" font-size="14.00" fill="#c6c5fe">index.ts</text>
</g>
<!-- index.ts&#45;&gt;env.ts -->
<g id="edge1" class="edge">
<title>index.ts&#45;&gt;env.ts</title>
<path fill="none" stroke="#757575" d="M63.04,-11.5C71.27,-11.5 80.26,-11.5 88.77,-11.5"/>
<polygon fill="#757575" stroke="#757575" points="88.83,-15 98.83,-11.5 88.83,-8 88.83,-15"/>
</g>
</g>
</svg>
