<?xml version="1.0" encoding="UTF-8" standalone="no"?>
<!DOCTYPE svg PUBLIC "-//W3C//DTD SVG 1.1//EN"
 "http://www.w3.org/Graphics/SVG/1.1/DTD/svg11.dtd">
<!-- Generated by graphviz version 2.43.0 (0)
 -->
<!-- Title: G Pages: 1 -->
<svg width="302pt" height="576pt"
 viewBox="0.00 0.00 301.80 575.80" xmlns="http://www.w3.org/2000/svg" xmlns:xlink="http://www.w3.org/1999/xlink">
<g id="graph0" class="graph" transform="scale(1 1) rotate(0) translate(14.4 561.4)">
<title>G</title>
<polygon fill="#202020" stroke="transparent" points="-14.4,14.4 -14.4,-561.4 287.4,-561.4 287.4,14.4 -14.4,14.4"/>
<text text-anchor="middle" x="136.5" y="-531.8" font-family="Times,serif" font-size="14.00" fill="#eeeeee">Workspace dependency graph: apps</text>
<!-- @md&#45;oss/api -->
<g id="node1" class="node">
<title>@md&#45;oss/api</title>
<path fill="#0f172a" stroke="#64748b" d="M198.5,-341C198.5,-341 168.5,-341 168.5,-341 162.5,-341 156.5,-335 156.5,-329 156.5,-329 156.5,-317 156.5,-317 156.5,-311 162.5,-305 168.5,-305 168.5,-305 198.5,-305 198.5,-305 204.5,-305 210.5,-311 210.5,-317 210.5,-317 210.5,-329 210.5,-329 210.5,-335 204.5,-341 198.5,-341"/>
<text text-anchor="middle" x="183.5" y="-320.5" font-family="Helvetica,sans-Serif" font-size="10.00" fill="#e2e8f0">api</text>
</g>
<!-- @md&#45;oss/auth -->
<g id="node2" class="node">
<title>@md&#45;oss/auth</title>
<path fill="#0f172a" stroke="#64748b" d="M198.5,-402C198.5,-402 168.5,-402 168.5,-402 162.5,-402 156.5,-396 156.5,-390 156.5,-390 156.5,-378 156.5,-378 156.5,-372 162.5,-366 168.5,-366 168.5,-366 198.5,-366 198.5,-366 204.5,-366 210.5,-372 210.5,-378 210.5,-378 210.5,-390 210.5,-390 210.5,-396 204.5,-402 198.5,-402"/>
<text text-anchor="middle" x="183.5" y="-381.5" font-family="Helvetica,sans-Serif" font-size="10.00" fill="#e2e8f0">auth</text>
</g>
<!-- @md&#45;oss/authz -->
<g id="node3" class="node">
<title>@md&#45;oss/authz</title>
<path fill="#0f172a" stroke="#64748b" d="M198.5,-463C198.5,-463 168.5,-463 168.5,-463 162.5,-463 156.5,-457 156.5,-451 156.5,-451 156.5,-439 156.5,-439 156.5,-433 162.5,-427 168.5,-427 168.5,-427 198.5,-427 198.5,-427 204.5,-427 210.5,-433 210.5,-439 210.5,-439 210.5,-451 210.5,-451 210.5,-457 204.5,-463 198.5,-463"/>
<text text-anchor="middle" x="183.5" y="-442.5" font-family="Helvetica,sans-Serif" font-size="10.00" fill="#e2e8f0">authz</text>
</g>
<!-- @md&#45;oss/cache -->
<g id="node4" class="node">
<title>@md&#45;oss/cache</title>
<path fill="#0f172a" stroke="#64748b" d="M198.5,-219C198.5,-219 168.5,-219 168.5,-219 162.5,-219 156.5,-213 156.5,-207 156.5,-207 156.5,-195 156.5,-195 156.5,-189 162.5,-183 168.5,-183 168.5,-183 198.5,-183 198.5,-183 204.5,-183 210.5,-189 210.5,-195 210.5,-195 210.5,-207 210.5,-207 210.5,-213 204.5,-219 198.5,-219"/>
<text text-anchor="middle" x="183.5" y="-198.5" font-family="Helvetica,sans-Serif" font-size="10.00" fill="#e2e8f0">cache</text>
</g>
<!-- @md&#45;oss/cli -->
<g id="node5" class="node">
<title>@md&#45;oss/cli</title>
<path fill="#1e293b" stroke="#38bdf8" d="M87,-97C87,-97 57,-97 57,-97 51,-97 45,-91 45,-85 45,-85 45,-73 45,-73 45,-67 51,-61 57,-61 57,-61 87,-61 87,-61 93,-61 99,-67 99,-73 99,-73 99,-85 99,-85 99,-91 93,-97 87,-97"/>
<text text-anchor="middle" x="72" y="-76.5" font-family="Helvetica,sans-Serif" font-size="10.00" fill="#e2e8f0">cli</text>
</g>
<!-- @md&#45;oss/common -->
<g id="node6" class="node">
<title>@md&#45;oss/common</title>
<path fill="#0f172a" stroke="#64748b" d="M201,-280C201,-280 166,-280 166,-280 160,-280 154,-274 154,-268 154,-268 154,-256 154,-256 154,-250 160,-244 166,-244 166,-244 201,-244 201,-244 207,-244 213,-250 213,-256 213,-256 213,-268 213,-268 213,-274 207,-280 201,-280"/>
<text text-anchor="middle" x="183.5" y="-259.5" font-family="Helvetica,sans-Serif" font-size="10.00" fill="#e2e8f0">common</text>
</g>
<!-- @md&#45;oss/cli&#45;&gt;@md&#45;oss/common -->
<g id="edge1" class="edge">
<title>@md&#45;oss/cli&#45;&gt;@md&#45;oss/common</title>
<path fill="none" stroke="#94a3b8" stroke-width="1.1" d="M77.32,-97.24C85.29,-127.82 104.68,-190.18 139,-232 141.62,-235.19 144.66,-238.19 147.9,-240.96"/>
<polygon fill="#94a3b8" stroke="#94a3b8" stroke-width="1.1" points="146.87,-243.27 153.88,-245.7 149.91,-239.43 146.87,-243.27"/>
</g>
<!-- @md&#45;oss/config -->
<g id="node7" class="node">
<title>@md&#45;oss/config</title>
<path fill="#0f172a" stroke="#64748b" d="M198.5,-36C198.5,-36 168.5,-36 168.5,-36 162.5,-36 156.5,-30 156.5,-24 156.5,-24 156.5,-12 156.5,-12 156.5,-6 162.5,0 168.5,0 168.5,0 198.5,0 198.5,0 204.5,0 210.5,-6 210.5,-12 210.5,-12 210.5,-24 210.5,-24 210.5,-30 204.5,-36 198.5,-36"/>
<text text-anchor="middle" x="183.5" y="-15.5" font-family="Helvetica,sans-Serif" font-size="10.00" fill="#e2e8f0">config</text>
</g>
<!-- @md&#45;oss/cli&#45;&gt;@md&#45;oss/config -->
<g id="edge2" class="edge">
<title>@md&#45;oss/cli&#45;&gt;@md&#45;oss/config</title>
<path fill="none" stroke="#94a3b8" stroke-width="1.1" d="M99.23,-64.39C114.53,-55.86 133.96,-45.04 150.2,-35.99"/>
<polygon fill="#94a3b8" stroke="#94a3b8" stroke-width="1.1" points="151.56,-38.04 156.49,-32.49 149.18,-33.76 151.56,-38.04"/>
</g>
<!-- @md&#45;oss/utils -->
<g id="node11" class="node">
<title>@md&#45;oss/utils</title>
<path fill="#0f172a" stroke="#64748b" d="M198.5,-97C198.5,-97 168.5,-97 168.5,-97 162.5,-97 156.5,-91 156.5,-85 156.5,-85 156.5,-73 156.5,-73 156.5,-67 162.5,-61 168.5,-61 168.5,-61 198.5,-61 198.5,-61 204.5,-61 210.5,-67 210.5,-73 210.5,-73 210.5,-85 210.5,-85 210.5,-91 204.5,-97 198.5,-97"/>
<text text-anchor="middle" x="183.5" y="-76.5" font-family="Helvetica,sans-Serif" font-size="10.00" fill="#e2e8f0">utils</text>
</g>
<!-- @md&#45;oss/cli&#45;&gt;@md&#45;oss/utils -->
<g id="edge3" class="edge">
<title>@md&#45;oss/cli&#45;&gt;@md&#45;oss/utils</title>
<path fill="none" stroke="#94a3b8" stroke-width="1.1" d="M99.23,-79C114.26,-79 133.28,-79 149.34,-79"/>
<polygon fill="#94a3b8" stroke="#94a3b8" stroke-width="1.1" points="149.49,-81.45 156.49,-79 149.49,-76.55 149.49,-81.45"/>
</g>
<!-- @md&#45;oss/db -->
<g id="node8" class="node">
<title>@md&#45;oss/db</title>
<path fill="#0f172a" stroke="#64748b" d="M198.5,-158C198.5,-158 168.5,-158 168.5,-158 162.5,-158 156.5,-152 156.5,-146 156.5,-146 156.5,-134 156.5,-134 156.5,-128 162.5,-122 168.5,-122 168.5,-122 198.5,-122 198.5,-122 204.5,-122 210.5,-128 210.5,-134 210.5,-134 210.5,-146 210.5,-146 210.5,-152 204.5,-158 198.5,-158"/>
<text text-anchor="middle" x="183.5" y="-137.5" font-family="Helvetica,sans-Serif" font-size="10.00" fill="#e2e8f0">db</text>
</g>
<!-- @md&#45;oss/design&#45;system -->
<g id="node9" class="node">
<title>@md&#45;oss/design&#45;system</title>
<path fill="#0f172a" stroke="#64748b" d="M216,-524C216,-524 151,-524 151,-524 145,-524 139,-518 139,-512 139,-512 139,-500 139,-500 139,-494 145,-488 151,-488 151,-488 216,-488 216,-488 222,-488 228,-494 228,-500 228,-500 228,-512 228,-512 228,-518 222,-524 216,-524"/>
<text text-anchor="middle" x="183.5" y="-503.5" font-family="Helvetica,sans-Serif" font-size="10.00" fill="#e2e8f0">design&#45;system</text>
</g>
<!-- @md&#45;oss/server -->
<g id="node10" class="node">
<title>@md&#45;oss/server</title>
<path fill="#1e293b" stroke="#38bdf8" d="M87,-219C87,-219 57,-219 57,-219 51,-219 45,-213 45,-207 45,-207 45,-195 45,-195 45,-189 51,-183 57,-183 57,-183 87,-183 87,-183 93,-183 99,-189 99,-195 99,-195 99,-207 99,-207 99,-213 93,-219 87,-219"/>
<text text-anchor="middle" x="72" y="-198.5" font-family="Helvetica,sans-Serif" font-size="10.00" fill="#e2e8f0">server</text>
</g>
<!-- @md&#45;oss/server&#45;&gt;@md&#45;oss/api -->
<g id="edge4" class="edge">
<title>@md&#45;oss/server&#45;&gt;@md&#45;oss/api</title>
<path fill="none" stroke="#94a3b8" stroke-width="1.1" d="M83.53,-219.36C95.38,-239.01 115.99,-270.42 139,-293 142.43,-296.37 146.28,-299.61 150.23,-302.65"/>
<polygon fill="#94a3b8" stroke="#94a3b8" stroke-width="1.1" points="148.97,-304.76 156.06,-306.93 151.87,-300.81 148.97,-304.76"/>
</g>
<!-- @md&#45;oss/server&#45;&gt;@md&#45;oss/auth -->
<g id="edge5" class="edge">
<title>@md&#45;oss/server&#45;&gt;@md&#45;oss/auth</title>
<path fill="none" stroke="#94a3b8" stroke-width="1.1" d="M77.32,-219.24C85.29,-249.82 104.68,-312.18 139,-354 142.28,-358 146.23,-361.69 150.38,-365.02"/>
<polygon fill="#94a3b8" stroke="#94a3b8" stroke-width="1.1" points="149.07,-367.09 156.14,-369.32 152,-363.17 149.07,-367.09"/>
</g>
<!-- @md&#45;oss/server&#45;&gt;@md&#45;oss/cache -->
<g id="edge6" class="edge">
<title>@md&#45;oss/server&#45;&gt;@md&#45;oss/cache</title>
<path fill="none" stroke="#94a3b8" stroke-width="1.1" d="M99.23,-201C114.26,-201 133.28,-201 149.34,-201"/>
<polygon fill="#94a3b8" stroke="#94a3b8" stroke-width="1.1" points="149.49,-203.45 156.49,-201 149.49,-198.55 149.49,-203.45"/>
</g>
<!-- @md&#45;oss/server&#45;&gt;@md&#45;oss/common -->
<g id="edge7" class="edge">
<title>@md&#45;oss/server&#45;&gt;@md&#45;oss/common</title>
<path fill="none" stroke="#94a3b8" stroke-width="1.1" d="M99.23,-215.61C113.62,-223.63 131.67,-233.68 147.27,-242.38"/>
<polygon fill="#94a3b8" stroke="#94a3b8" stroke-width="1.1" points="146.49,-244.74 153.79,-246.01 148.87,-240.46 146.49,-244.74"/>
</g>
<!-- @md&#45;oss/server&#45;&gt;@md&#45;oss/config -->
<g id="edge8" class="edge">
<title>@md&#45;oss/server&#45;&gt;@md&#45;oss/config</title>
<path fill="none" stroke="#94a3b8" stroke-width="1.1" d="M77.32,-182.76C85.29,-152.18 104.68,-89.82 139,-48 142.28,-44 146.23,-40.31 150.38,-36.98"/>
<polygon fill="#94a3b8" stroke="#94a3b8" stroke-width="1.1" points="152,-38.83 156.14,-32.68 149.07,-34.91 152,-38.83"/>
</g>
<!-- @md&#45;oss/server&#45;&gt;@md&#45;oss/db -->
<g id="edge9" class="edge">
<title>@md&#45;oss/server&#45;&gt;@md&#45;oss/db</title>
<path fill="none" stroke="#94a3b8" stroke-width="1.1" d="M99.23,-186.39C114.53,-177.86 133.96,-167.04 150.2,-157.99"/>
<polygon fill="#94a3b8" stroke="#94a3b8" stroke-width="1.1" points="151.56,-160.04 156.49,-154.49 149.18,-155.76 151.56,-160.04"/>
</g>
<!-- @md&#45;oss/server&#45;&gt;@md&#45;oss/utils -->
<g id="edge10" class="edge">
<title>@md&#45;oss/server&#45;&gt;@md&#45;oss/utils</title>
<path fill="none" stroke="#94a3b8" stroke-width="1.1" d="M83.64,-182.92C95.58,-163.55 116.27,-132.54 139,-110 142.45,-106.58 146.31,-103.26 150.27,-100.14"/>
<polygon fill="#94a3b8" stroke="#94a3b8" stroke-width="1.1" points="152,-101.91 156.1,-95.73 149.04,-98 152,-101.91"/>
</g>
<!-- @md&#45;oss/web -->
<g id="node12" class="node">
<title>@md&#45;oss/web</title>
<path fill="#1e293b" stroke="#38bdf8" d="M87,-402C87,-402 57,-402 57,-402 51,-402 45,-396 45,-390 45,-390 45,-378 45,-378 45,-372 51,-366 57,-366 57,-366 87,-366 87,-366 93,-366 99,-372 99,-378 99,-378 99,-390 99,-390 99,-396 93,-402 87,-402"/>
<text text-anchor="middle" x="72" y="-381.5" font-family="Helvetica,sans-Serif" font-size="10.00" fill="#e2e8f0">web</text>
</g>
<!-- @md&#45;oss/web&#45;&gt;@md&#45;oss/api -->
<g id="edge11" class="edge">
<title>@md&#45;oss/web&#45;&gt;@md&#45;oss/api</title>
<path fill="none" stroke="#94a3b8" stroke-width="1.1" d="M99.23,-369.39C114.53,-360.86 133.96,-350.04 150.2,-340.99"/>
<polygon fill="#94a3b8" stroke="#94a3b8" stroke-width="1.1" points="151.56,-343.04 156.49,-337.49 149.18,-338.76 151.56,-343.04"/>
</g>
<!-- @md&#45;oss/web&#45;&gt;@md&#45;oss/auth -->
<g id="edge12" class="edge">
<title>@md&#45;oss/web&#45;&gt;@md&#45;oss/auth</title>
<path fill="none" stroke="#94a3b8" stroke-width="1.1" d="M99.23,-384C114.26,-384 133.28,-384 149.34,-384"/>
<polygon fill="#94a3b8" stroke="#94a3b8" stroke-width="1.1" points="149.49,-386.45 156.49,-384 149.49,-381.55 149.49,-386.45"/>
</g>
<!-- @md&#45;oss/web&#45;&gt;@md&#45;oss/authz -->
<g id="edge13" class="edge">
<title>@md&#45;oss/web&#45;&gt;@md&#45;oss/authz</title>
<path fill="none" stroke="#94a3b8" stroke-width="1.1" d="M99.23,-398.61C114.53,-407.14 133.96,-417.96 150.2,-427.01"/>
<polygon fill="#94a3b8" stroke="#94a3b8" stroke-width="1.1" points="149.18,-429.24 156.49,-430.51 151.56,-424.96 149.18,-429.24"/>
</g>
<!-- @md&#45;oss/web&#45;&gt;@md&#45;oss/common -->
<g id="edge14" class="edge">
<title>@md&#45;oss/web&#45;&gt;@md&#45;oss/common</title>
<path fill="none" stroke="#94a3b8" stroke-width="1.1" d="M83.64,-365.92C95.58,-346.55 116.27,-315.54 139,-293 141.88,-290.14 145.05,-287.36 148.32,-284.7"/>
<polygon fill="#94a3b8" stroke="#94a3b8" stroke-width="1.1" points="150.25,-286.3 154.28,-280.08 147.25,-282.43 150.25,-286.3"/>
</g>
<!-- @md&#45;oss/web&#45;&gt;@md&#45;oss/design&#45;system -->
<g id="edge15" class="edge">
<title>@md&#45;oss/web&#45;&gt;@md&#45;oss/design&#45;system</title>
<path fill="none" stroke="#94a3b8" stroke-width="1.1" d="M83.53,-402.36C95.38,-422.01 115.99,-453.42 139,-476 141.7,-478.65 144.66,-481.23 147.73,-483.68"/>
<polygon fill="#94a3b8" stroke="#94a3b8" stroke-width="1.1" points="146.27,-485.66 153.32,-487.96 149.25,-481.76 146.27,-485.66"/>
</g>
</g>
</svg>
