<?xml version="1.0" encoding="UTF-8" standalone="no"?>
<!DOCTYPE svg PUBLIC "-//W3C//DTD SVG 1.1//EN"
 "http://www.w3.org/Graphics/SVG/1.1/DTD/svg11.dtd">
<!-- Generated by graphviz version 2.43.0 (0)
 -->
<!-- Title: G Pages: 1 -->
<svg width="302pt" height="454pt"
 viewBox="0.00 0.00 301.80 453.80" xmlns="http://www.w3.org/2000/svg" xmlns:xlink="http://www.w3.org/1999/xlink">
<g id="graph0" class="graph" transform="scale(1 1) rotate(0) translate(14.4 439.4)">
<title>G</title>
<polygon fill="#202020" stroke="transparent" points="-14.4,14.4 -14.4,-439.4 287.4,-439.4 287.4,14.4 -14.4,14.4"/>
<text text-anchor="middle" x="136.5" y="-409.8" font-family="Times,serif" font-size="14.00" fill="#eeeeee">Workspace dependency graph: apps</text>
<!-- @md&#45;oss/api -->
<g id="node1" class="node">
<title>@md&#45;oss/api</title>
<path fill="#0f172a" stroke="#64748b" d="M198.5,-280C198.5,-280 168.5,-280 168.5,-280 162.5,-280 156.5,-274 156.5,-268 156.5,-268 156.5,-256 156.5,-256 156.5,-250 162.5,-244 168.5,-244 168.5,-244 198.5,-244 198.5,-244 204.5,-244 210.5,-250 210.5,-256 210.5,-256 210.5,-268 210.5,-268 210.5,-274 204.5,-280 198.5,-280"/>
<text text-anchor="middle" x="183.5" y="-259.5" font-family="Helvetica,sans-Serif" font-size="10.00" fill="#e2e8f0">api</text>
</g>
<!-- @md&#45;oss/auth -->
<g id="node2" class="node">
<title>@md&#45;oss/auth</title>
<path fill="#0f172a" stroke="#64748b" d="M198.5,-341C198.5,-341 168.5,-341 168.5,-341 162.5,-341 156.5,-335 156.5,-329 156.5,-329 156.5,-317 156.5,-317 156.5,-311 162.5,-305 168.5,-305 168.5,-305 198.5,-305 198.5,-305 204.5,-305 210.5,-311 210.5,-317 210.5,-317 210.5,-329 210.5,-329 210.5,-335 204.5,-341 198.5,-341"/>
<text text-anchor="middle" x="183.5" y="-320.5" font-family="Helvetica,sans-Serif" font-size="10.00" fill="#e2e8f0">auth</text>
</g>
<!-- @md&#45;oss/cli -->
<g id="node3" class="node">
<title>@md&#45;oss/cli</title>
<path fill="#1e293b" stroke="#38bdf8" d="M87,-97C87,-97 57,-97 57,-97 51,-97 45,-91 45,-85 45,-85 45,-73 45,-73 45,-67 51,-61 57,-61 57,-61 87,-61 87,-61 93,-61 99,-67 99,-73 99,-73 99,-85 99,-85 99,-91 93,-97 87,-97"/>
<text text-anchor="middle" x="72" y="-76.5" font-family="Helvetica,sans-Serif" font-size="10.00" fill="#e2e8f0">cli</text>
</g>
<!-- @md&#45;oss/common -->
<g id="node4" class="node">
<title>@md&#45;oss/common</title>
<path fill="#0f172a" stroke="#64748b" d="M201,-158C201,-158 166,-158 166,-158 160,-158 154,-152 154,-146 154,-146 154,-134 154,-134 154,-128 160,-122 166,-122 166,-122 201,-122 201,-122 207,-122 213,-128 213,-134 213,-134 213,-146 213,-146 213,-152 207,-158 201,-158"/>
<text text-anchor="middle" x="183.5" y="-137.5" font-family="Helvetica,sans-Serif" font-size="10.00" fill="#e2e8f0">common</text>
</g>
<!-- @md&#45;oss/cli&#45;&gt;@md&#45;oss/common -->
<g id="edge1" class="edge">
<title>@md&#45;oss/cli&#45;&gt;@md&#45;oss/common</title>
<path fill="none" stroke="#94a3b8" stroke-width="1.1" d="M99.23,-93.61C113.62,-101.63 131.67,-111.68 147.27,-120.38"/>
<polygon fill="#94a3b8" stroke="#94a3b8" stroke-width="1.1" points="146.49,-122.74 153.79,-124.01 148.87,-118.46 146.49,-122.74"/>
</g>
<!-- @md&#45;oss/config -->
<g id="node5" class="node">
<title>@md&#45;oss/config</title>
<path fill="#0f172a" stroke="#64748b" d="M198.5,-36C198.5,-36 168.5,-36 168.5,-36 162.5,-36 156.5,-30 156.5,-24 156.5,-24 156.5,-12 156.5,-12 156.5,-6 162.5,0 168.5,0 168.5,0 198.5,0 198.5,0 204.5,0 210.5,-6 210.5,-12 210.5,-12 210.5,-24 210.5,-24 210.5,-30 204.5,-36 198.5,-36"/>
<text text-anchor="middle" x="183.5" y="-15.5" font-family="Helvetica,sans-Serif" font-size="10.00" fill="#e2e8f0">config</text>
</g>
<!-- @md&#45;oss/cli&#45;&gt;@md&#45;oss/config -->
<g id="edge2" class="edge">
<title>@md&#45;oss/cli&#45;&gt;@md&#45;oss/config</title>
<path fill="none" stroke="#94a3b8" stroke-width="1.1" d="M99.23,-64.39C114.53,-55.86 133.96,-45.04 150.2,-35.99"/>
<polygon fill="#94a3b8" stroke="#94a3b8" stroke-width="1.1" points="151.56,-38.04 156.49,-32.49 149.18,-33.76 151.56,-38.04"/>
</g>
<!-- @md&#45;oss/utils -->
<g id="node9" class="node">
<title>@md&#45;oss/utils</title>
<path fill="#0f172a" stroke="#64748b" d="M198.5,-97C198.5,-97 168.5,-97 168.5,-97 162.5,-97 156.5,-91 156.5,-85 156.5,-85 156.5,-73 156.5,-73 156.5,-67 162.5,-61 168.5,-61 168.5,-61 198.5,-61 198.5,-61 204.5,-61 210.5,-67 210.5,-73 210.5,-73 210.5,-85 210.5,-85 210.5,-91 204.5,-97 198.5,-97"/>
<text text-anchor="middle" x="183.5" y="-76.5" font-family="Helvetica,sans-Serif" font-size="10.00" fill="#e2e8f0">utils</text>
</g>
<!-- @md&#45;oss/cli&#45;&gt;@md&#45;oss/utils -->
<g id="edge3" class="edge">
<title>@md&#45;oss/cli&#45;&gt;@md&#45;oss/utils</title>
<path fill="none" stroke="#94a3b8" stroke-width="1.1" d="M99.23,-79C114.26,-79 133.28,-79 149.34,-79"/>
<polygon fill="#94a3b8" stroke="#94a3b8" stroke-width="1.1" points="149.49,-81.45 156.49,-79 149.49,-76.55 149.49,-81.45"/>
</g>
<!-- @md&#45;oss/db -->
<g id="node6" class="node">
<title>@md&#45;oss/db</title>
<path fill="#0f172a" stroke="#64748b" d="M198.5,-219C198.5,-219 168.5,-219 168.5,-219 162.5,-219 156.5,-213 156.5,-207 156.5,-207 156.5,-195 156.5,-195 156.5,-189 162.5,-183 168.5,-183 168.5,-183 198.5,-183 198.5,-183 204.5,-183 210.5,-189 210.5,-195 210.5,-195 210.5,-207 210.5,-207 210.5,-213 204.5,-219 198.5,-219"/>
<text text-anchor="middle" x="183.5" y="-198.5" font-family="Helvetica,sans-Serif" font-size="10.00" fill="#e2e8f0">db</text>
</g>
<!-- @md&#45;oss/design&#45;system -->
<g id="node7" class="node">
<title>@md&#45;oss/design&#45;system</title>
<path fill="#0f172a" stroke="#64748b" d="M216,-402C216,-402 151,-402 151,-402 145,-402 139,-396 139,-390 139,-390 139,-378 139,-378 139,-372 145,-366 151,-366 151,-366 216,-366 216,-366 222,-366 228,-372 228,-378 228,-378 228,-390 228,-390 228,-396 222,-402 216,-402"/>
<text text-anchor="middle" x="183.5" y="-381.5" font-family="Helvetica,sans-Serif" font-size="10.00" fill="#e2e8f0">design&#45;system</text>
</g>
<!-- @md&#45;oss/server -->
<g id="node8" class="node">
<title>@md&#45;oss/server</title>
<path fill="#1e293b" stroke="#38bdf8" d="M87,-219C87,-219 57,-219 57,-219 51,-219 45,-213 45,-207 45,-207 45,-195 45,-195 45,-189 51,-183 57,-183 57,-183 87,-183 87,-183 93,-183 99,-189 99,-195 99,-195 99,-207 99,-207 99,-213 93,-219 87,-219"/>
<text text-anchor="middle" x="72" y="-198.5" font-family="Helvetica,sans-Serif" font-size="10.00" fill="#e2e8f0">server</text>
</g>
<!-- @md&#45;oss/server&#45;&gt;@md&#45;oss/api -->
<g id="edge4" class="edge">
<title>@md&#45;oss/server&#45;&gt;@md&#45;oss/api</title>
<path fill="none" stroke="#94a3b8" stroke-width="1.1" d="M99.23,-215.61C114.53,-224.14 133.96,-234.96 150.2,-244.01"/>
<polygon fill="#94a3b8" stroke="#94a3b8" stroke-width="1.1" points="149.18,-246.24 156.49,-247.51 151.56,-241.96 149.18,-246.24"/>
</g>
<!-- @md&#45;oss/server&#45;&gt;@md&#45;oss/auth -->
<g id="edge5" class="edge">
<title>@md&#45;oss/server&#45;&gt;@md&#45;oss/auth</title>
<path fill="none" stroke="#94a3b8" stroke-width="1.1" d="M83.53,-219.36C95.38,-239.01 115.99,-270.42 139,-293 142.43,-296.37 146.28,-299.61 150.23,-302.65"/>
<polygon fill="#94a3b8" stroke="#94a3b8" stroke-width="1.1" points="148.97,-304.76 156.06,-306.93 151.87,-300.81 148.97,-304.76"/>
</g>
<!-- @md&#45;oss/server&#45;&gt;@md&#45;oss/config -->
<g id="edge6" class="edge">
<title>@md&#45;oss/server&#45;&gt;@md&#45;oss/config</title>
<path fill="none" stroke="#94a3b8" stroke-width="1.1" d="M77.32,-182.76C85.29,-152.18 104.68,-89.82 139,-48 142.28,-44 146.23,-40.31 150.38,-36.98"/>
<polygon fill="#94a3b8" stroke="#94a3b8" stroke-width="1.1" points="152,-38.83 156.14,-32.68 149.07,-34.91 152,-38.83"/>
</g>
<!-- @md&#45;oss/server&#45;&gt;@md&#45;oss/db -->
<g id="edge7" class="edge">
<title>@md&#45;oss/server&#45;&gt;@md&#45;oss/db</title>
<path fill="none" stroke="#94a3b8" stroke-width="1.1" d="M99.23,-201C114.26,-201 133.28,-201 149.34,-201"/>
<polygon fill="#94a3b8" stroke="#94a3b8" stroke-width="1.1" points="149.49,-203.45 156.49,-201 149.49,-198.55 149.49,-203.45"/>
</g>
<!-- @md&#45;oss/server&#45;&gt;@md&#45;oss/utils -->
<g id="edge8" class="edge">
<title>@md&#45;oss/server&#45;&gt;@md&#45;oss/utils</title>
<path fill="none" stroke="#94a3b8" stroke-width="1.1" d="M83.64,-182.92C95.58,-163.55 116.27,-132.54 139,-110 142.45,-106.58 146.31,-103.26 150.27,-100.14"/>
<polygon fill="#94a3b8" stroke="#94a3b8" stroke-width="1.1" points="152,-101.91 156.1,-95.73 149.04,-98 152,-101.91"/>
</g>
<!-- @md&#45;oss/web -->
<g id="node10" class="node">
<title>@md&#45;oss/web</title>
<path fill="#1e293b" stroke="#38bdf8" d="M87,-310C87,-310 57,-310 57,-310 51,-310 45,-304 45,-298 45,-298 45,-286 45,-286 45,-280 51,-274 57,-274 57,-274 87,-274 87,-274 93,-274 99,-280 99,-286 99,-286 99,-298 99,-298 99,-304 93,-310 87,-310"/>
<text text-anchor="middle" x="72" y="-289.5" font-family="Helvetica,sans-Serif" font-size="10.00" fill="#e2e8f0">web</text>
</g>
<!-- @md&#45;oss/web&#45;&gt;@md&#45;oss/api -->
<g id="edge9" class="edge">
<title>@md&#45;oss/web&#45;&gt;@md&#45;oss/api</title>
<path fill="none" stroke="#94a3b8" stroke-width="1.1" d="M99.23,-284.81C114.26,-280.7 133.28,-275.49 149.34,-271.09"/>
<polygon fill="#94a3b8" stroke="#94a3b8" stroke-width="1.1" points="150.38,-273.34 156.49,-269.13 149.09,-268.61 150.38,-273.34"/>
</g>
<!-- @md&#45;oss/web&#45;&gt;@md&#45;oss/auth -->
<g id="edge10" class="edge">
<title>@md&#45;oss/web&#45;&gt;@md&#45;oss/auth</title>
<path fill="none" stroke="#94a3b8" stroke-width="1.1" d="M99.23,-299.43C114.26,-303.68 133.28,-309.06 149.34,-313.61"/>
<polygon fill="#94a3b8" stroke="#94a3b8" stroke-width="1.1" points="149.08,-316.09 156.49,-315.64 150.42,-311.37 149.08,-316.09"/>
</g>
<!-- @md&#45;oss/web&#45;&gt;@md&#45;oss/common -->
<g id="edge11" class="edge">
<title>@md&#45;oss/web&#45;&gt;@md&#45;oss/common</title>
<path fill="none" stroke="#94a3b8" stroke-width="1.1" d="M81.79,-273.54C96.08,-243.98 124.23,-187.65 139,-171 141.69,-167.96 144.73,-165.06 147.93,-162.33"/>
<polygon fill="#94a3b8" stroke="#94a3b8" stroke-width="1.1" points="149.87,-163.91 153.8,-157.62 146.81,-160.09 149.87,-163.91"/>
</g>
<!-- @md&#45;oss/web&#45;&gt;@md&#45;oss/design&#45;system -->
<g id="edge12" class="edge">
<title>@md&#45;oss/web&#45;&gt;@md&#45;oss/design&#45;system</title>
<path fill="none" stroke="#94a3b8" stroke-width="1.1" d="M90.82,-310.14C103.74,-322.93 121.87,-340.18 139,-354 142.2,-356.58 145.62,-359.18 149.07,-361.71"/>
<polygon fill="#94a3b8" stroke="#94a3b8" stroke-width="1.1" points="147.78,-363.8 154.89,-365.89 150.63,-359.82 147.78,-363.8"/>
</g>
</g>
</svg>
