<?xml version="1.0" encoding="UTF-8" standalone="no"?>
<!DOCTYPE svg PUBLIC "-//W3C//DTD SVG 1.1//EN"
 "http://www.w3.org/Graphics/SVG/1.1/DTD/svg11.dtd">
<!-- Generated by graphviz version 2.43.0 (0)
 -->
<!-- Title: G Pages: 1 -->
<svg width="809pt" height="1525pt"
 viewBox="0.00 0.00 808.80 1524.80" xmlns="http://www.w3.org/2000/svg" xmlns:xlink="http://www.w3.org/1999/xlink">
<g id="graph0" class="graph" transform="scale(1 1) rotate(0) translate(14.4 1510.4)">
<title>G</title>
<polygon fill="#202020" stroke="transparent" points="-14.4,14.4 -14.4,-1510.4 794.4,-1510.4 794.4,14.4 -14.4,14.4"/>
<text text-anchor="middle" x="390" y="-1480.8" font-family="Times,serif" font-size="14.00" fill="#eeeeee">Complete workspace dependency graph</text>
<!-- @md&#45;oss/analytics -->
<g id="node1" class="node">
<title>@md&#45;oss/analytics</title>
<path fill="#3a2e1e" stroke="#f59e0b" d="M670,-1473C670,-1473 633,-1473 633,-1473 627,-1473 621,-1467 621,-1461 621,-1461 621,-1449 621,-1449 621,-1443 627,-1437 633,-1437 633,-1437 670,-1437 670,-1437 676,-1437 682,-1443 682,-1449 682,-1449 682,-1461 682,-1461 682,-1467 676,-1473 670,-1473"/>
<text text-anchor="middle" x="651.5" y="-1452.5" font-family="Helvetica,sans-Serif" font-size="10.00" fill="#e2e8f0">analytics</text>
</g>
<!-- @md&#45;oss/config -->
<g id="node8" class="node">
<title>@md&#45;oss/config</title>
<path fill="#3a2e1e" stroke="#f59e0b" d="M768,-790C768,-790 738,-790 738,-790 732,-790 726,-784 726,-778 726,-778 726,-766 726,-766 726,-760 732,-754 738,-754 738,-754 768,-754 768,-754 774,-754 780,-760 780,-766 780,-766 780,-778 780,-778 780,-784 774,-790 768,-790"/>
<text text-anchor="middle" x="753" y="-769.5" font-family="Helvetica,sans-Serif" font-size="10.00" fill="#e2e8f0">config</text>
</g>
<!-- @md&#45;oss/analytics&#45;&gt;@md&#45;oss/config -->
<g id="edge1" class="edge">
<title>@md&#45;oss/analytics&#45;&gt;@md&#45;oss/config</title>
<path fill="none" stroke="#94a3b8" stroke-width="1.1" d="M673.19,-1436.73C678.19,-1431.22 682.97,-1424.81 686,-1418 736.87,-1303.72 749.14,-902.11 751.51,-797.22"/>
<polygon fill="#94a3b8" stroke="#94a3b8" stroke-width="1.1" points="753.96,-797.24 751.66,-790.18 749.06,-797.13 753.96,-797.24"/>
</g>
<!-- @md&#45;oss/api -->
<g id="node2" class="node">
<title>@md&#45;oss/api</title>
<path fill="#1e3a3a" stroke="#14b8a6" d="M136,-1106C136,-1106 106,-1106 106,-1106 100,-1106 94,-1100 94,-1094 94,-1094 94,-1082 94,-1082 94,-1076 100,-1070 106,-1070 106,-1070 136,-1070 136,-1070 142,-1070 148,-1076 148,-1082 148,-1082 148,-1094 148,-1094 148,-1100 142,-1106 136,-1106"/>
<text text-anchor="middle" x="121" y="-1085.5" font-family="Helvetica,sans-Serif" font-size="10.00" fill="#e2e8f0">api</text>
</g>
<!-- @md&#45;oss/auth -->
<g id="node4" class="node">
<title>@md&#45;oss/auth</title>
<path fill="#1e3a3a" stroke="#14b8a6" d="M230,-1213C230,-1213 200,-1213 200,-1213 194,-1213 188,-1207 188,-1201 188,-1201 188,-1189 188,-1189 188,-1183 194,-1177 200,-1177 200,-1177 230,-1177 230,-1177 236,-1177 242,-1183 242,-1189 242,-1189 242,-1201 242,-1201 242,-1207 236,-1213 230,-1213"/>
<text text-anchor="middle" x="215" y="-1192.5" font-family="Helvetica,sans-Serif" font-size="10.00" fill="#e2e8f0">auth</text>
</g>
<!-- @md&#45;oss/api&#45;&gt;@md&#45;oss/auth -->
<g id="edge6" class="edge">
<title>@md&#45;oss/api&#45;&gt;@md&#45;oss/auth</title>
<path fill="none" stroke="#94a3b8" stroke-width="1.1" d="M137.61,-1106.15C153.07,-1124.14 176.83,-1151.77 193.74,-1171.44"/>
<polygon fill="#94a3b8" stroke="#94a3b8" stroke-width="1.1" points="191.9,-1173.05 198.32,-1176.76 195.61,-1169.85 191.9,-1173.05"/>
</g>
<!-- @md&#45;oss/common -->
<g id="node7" class="node">
<title>@md&#45;oss/common</title>
<path fill="#3a2e1e" stroke="#f59e0b" d="M565,-642C565,-642 530,-642 530,-642 524,-642 518,-636 518,-630 518,-630 518,-618 518,-618 518,-612 524,-606 530,-606 530,-606 565,-606 565,-606 571,-606 577,-612 577,-618 577,-618 577,-630 577,-630 577,-636 571,-642 565,-642"/>
<text text-anchor="middle" x="547.5" y="-621.5" font-family="Helvetica,sans-Serif" font-size="10.00" fill="#e2e8f0">common</text>
</g>
<!-- @md&#45;oss/api&#45;&gt;@md&#45;oss/common -->
<g id="edge7" class="edge">
<title>@md&#45;oss/api&#45;&gt;@md&#45;oss/common</title>
<path fill="none" stroke="#94a3b8" stroke-width="1.1" d="M130.47,-1069.77C160.1,-1007.86 265.29,-803.39 411,-692 441.97,-668.32 482.47,-649.28 511.1,-637.43"/>
<polygon fill="#94a3b8" stroke="#94a3b8" stroke-width="1.1" points="512.18,-639.64 517.74,-634.73 510.33,-635.1 512.18,-639.64"/>
</g>
<!-- @md&#45;oss/api&#45;&gt;@md&#45;oss/config -->
<g id="edge8" class="edge">
<title>@md&#45;oss/api&#45;&gt;@md&#45;oss/config</title>
<path fill="none" stroke="#94a3b8" stroke-width="1.1" d="M148.02,-1088C186.72,-1088 261.73,-1088 325.5,-1088 325.5,-1088 325.5,-1088 548.5,-1088 686.34,-1088 735.26,-872.83 748.15,-797.6"/>
<polygon fill="#94a3b8" stroke="#94a3b8" stroke-width="1.1" points="750.63,-797.66 749.36,-790.36 745.79,-796.86 750.63,-797.66"/>
</g>
<!-- @md&#45;oss/db -->
<g id="node10" class="node">
<title>@md&#45;oss/db</title>
<path fill="#1e3a3a" stroke="#14b8a6" d="M341.5,-1203C341.5,-1203 311.5,-1203 311.5,-1203 305.5,-1203 299.5,-1197 299.5,-1191 299.5,-1191 299.5,-1179 299.5,-1179 299.5,-1173 305.5,-1167 311.5,-1167 311.5,-1167 341.5,-1167 341.5,-1167 347.5,-1167 353.5,-1173 353.5,-1179 353.5,-1179 353.5,-1191 353.5,-1191 353.5,-1197 347.5,-1203 341.5,-1203"/>
<text text-anchor="middle" x="326.5" y="-1182.5" font-family="Helvetica,sans-Serif" font-size="10.00" fill="#e2e8f0">db</text>
</g>
<!-- @md&#45;oss/api&#45;&gt;@md&#45;oss/db -->
<g id="edge9" class="edge">
<title>@md&#45;oss/api&#45;&gt;@md&#45;oss/db</title>
<path fill="none" stroke="#94a3b8" stroke-width="1.1" d="M148.19,-1100.48C185.13,-1118.09 252.5,-1150.2 292.72,-1169.37"/>
<polygon fill="#94a3b8" stroke="#94a3b8" stroke-width="1.1" points="292.04,-1171.77 299.41,-1172.57 294.15,-1167.34 292.04,-1171.77"/>
</g>
<!-- @md&#45;oss/email -->
<g id="node13" class="node">
<title>@md&#45;oss/email</title>
<path fill="#1e3a3a" stroke="#14b8a6" d="M230,-463C230,-463 200,-463 200,-463 194,-463 188,-457 188,-451 188,-451 188,-439 188,-439 188,-433 194,-427 200,-427 200,-427 230,-427 230,-427 236,-427 242,-433 242,-439 242,-439 242,-451 242,-451 242,-457 236,-463 230,-463"/>
<text text-anchor="middle" x="215" y="-442.5" font-family="Helvetica,sans-Serif" font-size="10.00" fill="#e2e8f0">email</text>
</g>
<!-- @md&#45;oss/api&#45;&gt;@md&#45;oss/email -->
<g id="edge10" class="edge">
<title>@md&#45;oss/api&#45;&gt;@md&#45;oss/email</title>
<path fill="none" stroke="#94a3b8" stroke-width="1.1" d="M124.61,-1069.79C137.6,-978.98 195.37,-575.23 210.41,-470.09"/>
<polygon fill="#94a3b8" stroke="#94a3b8" stroke-width="1.1" points="212.85,-470.33 211.42,-463.05 208,-469.63 212.85,-470.33"/>
</g>
<!-- @md&#45;oss/api&#45;types -->
<g id="node3" class="node">
<title>@md&#45;oss/api&#45;types</title>
<path fill="#3a2e1e" stroke="#f59e0b" d="M345.5,-884C345.5,-884 307.5,-884 307.5,-884 301.5,-884 295.5,-878 295.5,-872 295.5,-872 295.5,-860 295.5,-860 295.5,-854 301.5,-848 307.5,-848 307.5,-848 345.5,-848 345.5,-848 351.5,-848 357.5,-854 357.5,-860 357.5,-860 357.5,-872 357.5,-872 357.5,-878 351.5,-884 345.5,-884"/>
<text text-anchor="middle" x="326.5" y="-863.5" font-family="Helvetica,sans-Serif" font-size="10.00" fill="#e2e8f0">api&#45;types</text>
</g>
<!-- @md&#45;oss/api&#45;types&#45;&gt;@md&#45;oss/common -->
<g id="edge2" class="edge">
<title>@md&#45;oss/api&#45;types&#45;&gt;@md&#45;oss/common</title>
<path fill="none" stroke="#94a3b8" stroke-width="1.1" d="M339.07,-847.66C354.21,-824.3 382.23,-783.21 411,-752 437.69,-723.04 449.31,-720.99 478,-694 493.96,-678.98 511.22,-661.34 524.41,-647.53"/>
<polygon fill="#94a3b8" stroke="#94a3b8" stroke-width="1.1" points="526.39,-649 529.44,-642.24 522.84,-645.63 526.39,-649"/>
</g>
<!-- @md&#45;oss/api&#45;types&#45;&gt;@md&#45;oss/config -->
<g id="edge3" class="edge">
<title>@md&#45;oss/api&#45;types&#45;&gt;@md&#45;oss/config</title>
<path fill="none" stroke="#94a3b8" stroke-width="1.1" d="M357.84,-858.45C410.44,-845.45 522.08,-818.28 617,-798 651.6,-790.61 691.4,-783.06 718.78,-778.01"/>
<polygon fill="#94a3b8" stroke="#94a3b8" stroke-width="1.1" points="719.36,-780.39 725.8,-776.72 718.48,-775.58 719.36,-780.39"/>
</g>
<!-- @md&#45;oss/http&#45;client -->
<g id="node14" class="node">
<title>@md&#45;oss/http&#45;client</title>
<path fill="#3a2e1e" stroke="#f59e0b" d="M466,-912C466,-912 423,-912 423,-912 417,-912 411,-906 411,-900 411,-900 411,-888 411,-888 411,-882 417,-876 423,-876 423,-876 466,-876 466,-876 472,-876 478,-882 478,-888 478,-888 478,-900 478,-900 478,-906 472,-912 466,-912"/>
<text text-anchor="middle" x="444.5" y="-891.5" font-family="Helvetica,sans-Serif" font-size="10.00" fill="#e2e8f0">http&#45;client</text>
</g>
<!-- @md&#45;oss/api&#45;types&#45;&gt;@md&#45;oss/http&#45;client -->
<g id="edge4" class="edge">
<title>@md&#45;oss/api&#45;types&#45;&gt;@md&#45;oss/http&#45;client</title>
<path fill="none" stroke="#94a3b8" stroke-width="1.1" d="M357.67,-873.28C371.64,-876.65 388.42,-880.7 403.42,-884.33"/>
<polygon fill="#94a3b8" stroke="#94a3b8" stroke-width="1.1" points="403.24,-886.8 410.62,-886.06 404.39,-882.04 403.24,-886.8"/>
</g>
<!-- @md&#45;oss/serdes -->
<g id="node20" class="node">
<title>@md&#45;oss/serdes</title>
<path fill="#3a2e1e" stroke="#f59e0b" d="M666.5,-846C666.5,-846 636.5,-846 636.5,-846 630.5,-846 624.5,-840 624.5,-834 624.5,-834 624.5,-822 624.5,-822 624.5,-816 630.5,-810 636.5,-810 636.5,-810 666.5,-810 666.5,-810 672.5,-810 678.5,-816 678.5,-822 678.5,-822 678.5,-834 678.5,-834 678.5,-840 672.5,-846 666.5,-846"/>
<text text-anchor="middle" x="651.5" y="-825.5" font-family="Helvetica,sans-Serif" font-size="10.00" fill="#e2e8f0">serdes</text>
</g>
<!-- @md&#45;oss/api&#45;types&#45;&gt;@md&#45;oss/serdes -->
<g id="edge5" class="edge">
<title>@md&#45;oss/api&#45;types&#45;&gt;@md&#45;oss/serdes</title>
<path fill="none" stroke="#94a3b8" stroke-width="1.1" d="M345.86,-884.11C361.64,-898.32 385.79,-916.99 411,-925 439.38,-934.01 449.03,-931.9 478,-925 533.53,-911.77 589.65,-874.85 622.19,-850.57"/>
<polygon fill="#94a3b8" stroke="#94a3b8" stroke-width="1.1" points="623.88,-852.36 627.99,-846.19 620.93,-848.45 623.88,-852.36"/>
</g>
<!-- @md&#45;oss/auth&#45;&gt;@md&#45;oss/config -->
<g id="edge11" class="edge">
<title>@md&#45;oss/auth&#45;&gt;@md&#45;oss/config</title>
<path fill="none" stroke="#94a3b8" stroke-width="1.1" d="M242.08,-1204.32C254.11,-1208.36 268.66,-1212.86 282,-1216 352.71,-1232.62 370.87,-1241 443.5,-1241 443.5,-1241 443.5,-1241 548.5,-1241 743.78,-1241 753.71,-894.57 752.64,-797.19"/>
<polygon fill="#94a3b8" stroke="#94a3b8" stroke-width="1.1" points="755.09,-797.06 752.54,-790.1 750.19,-797.13 755.09,-797.06"/>
</g>
<!-- @md&#45;oss/auth&#45;&gt;@md&#45;oss/db -->
<g id="edge12" class="edge">
<title>@md&#45;oss/auth&#45;&gt;@md&#45;oss/db</title>
<path fill="none" stroke="#94a3b8" stroke-width="1.1" d="M242.23,-1192.6C257.26,-1191.23 276.28,-1189.5 292.34,-1188.03"/>
<polygon fill="#94a3b8" stroke="#94a3b8" stroke-width="1.1" points="292.74,-1190.45 299.49,-1187.38 292.29,-1185.57 292.74,-1190.45"/>
</g>
<!-- @md&#45;oss/cache -->
<g id="node5" class="node">
<title>@md&#45;oss/cache</title>
<path fill="#3a2e1e" stroke="#f59e0b" d="M459.5,-1024C459.5,-1024 429.5,-1024 429.5,-1024 423.5,-1024 417.5,-1018 417.5,-1012 417.5,-1012 417.5,-1000 417.5,-1000 417.5,-994 423.5,-988 429.5,-988 429.5,-988 459.5,-988 459.5,-988 465.5,-988 471.5,-994 471.5,-1000 471.5,-1000 471.5,-1012 471.5,-1012 471.5,-1018 465.5,-1024 459.5,-1024"/>
<text text-anchor="middle" x="444.5" y="-1003.5" font-family="Helvetica,sans-Serif" font-size="10.00" fill="#e2e8f0">cache</text>
</g>
<!-- @md&#45;oss/cache&#45;&gt;@md&#45;oss/common -->
<g id="edge13" class="edge">
<title>@md&#45;oss/cache&#45;&gt;@md&#45;oss/common</title>
<path fill="none" stroke="#94a3b8" stroke-width="1.1" d="M453.69,-987.96C460.83,-971.74 471.09,-947.13 478,-925 509.29,-824.8 532.8,-701.73 542.12,-649.44"/>
<polygon fill="#94a3b8" stroke="#94a3b8" stroke-width="1.1" points="544.58,-649.56 543.39,-642.25 539.76,-648.71 544.58,-649.56"/>
</g>
<!-- @md&#45;oss/cache&#45;&gt;@md&#45;oss/config -->
<g id="edge14" class="edge">
<title>@md&#45;oss/cache&#45;&gt;@md&#45;oss/config</title>
<path fill="none" stroke="#94a3b8" stroke-width="1.1" d="M471.72,-1007.13C499.21,-1007.31 543.04,-1004.69 577,-989 662.6,-949.44 719.27,-844.4 741.46,-796.47"/>
<polygon fill="#94a3b8" stroke="#94a3b8" stroke-width="1.1" points="743.69,-797.48 744.37,-790.1 739.23,-795.45 743.69,-797.48"/>
</g>
<!-- @md&#45;oss/cache&#45;&gt;@md&#45;oss/serdes -->
<g id="edge15" class="edge">
<title>@md&#45;oss/cache&#45;&gt;@md&#45;oss/serdes</title>
<path fill="none" stroke="#94a3b8" stroke-width="1.1" d="M471.63,-1001.02C500.25,-994.45 546.18,-980.47 577,-954 609.06,-926.47 630.55,-881.3 641.63,-853.18"/>
<polygon fill="#94a3b8" stroke="#94a3b8" stroke-width="1.1" points="644,-853.83 644.22,-846.42 639.43,-852.08 644,-853.83"/>
</g>
<!-- @md&#45;oss/cli -->
<g id="node6" class="node">
<title>@md&#45;oss/cli</title>
<path fill="#1e293b" stroke="#38bdf8" d="M459.5,-1315C459.5,-1315 429.5,-1315 429.5,-1315 423.5,-1315 417.5,-1309 417.5,-1303 417.5,-1303 417.5,-1291 417.5,-1291 417.5,-1285 423.5,-1279 429.5,-1279 429.5,-1279 459.5,-1279 459.5,-1279 465.5,-1279 471.5,-1285 471.5,-1291 471.5,-1291 471.5,-1303 471.5,-1303 471.5,-1309 465.5,-1315 459.5,-1315"/>
<text text-anchor="middle" x="444.5" y="-1294.5" font-family="Helvetica,sans-Serif" font-size="10.00" fill="#e2e8f0">cli</text>
</g>
<!-- @md&#45;oss/cli&#45;&gt;@md&#45;oss/common -->
<g id="edge16" class="edge">
<title>@md&#45;oss/cli&#45;&gt;@md&#45;oss/common</title>
<path fill="none" stroke="#94a3b8" stroke-width="1.1" d="M448.2,-1279C462.2,-1185.72 526.47,-757.47 542.75,-649.02"/>
<polygon fill="#94a3b8" stroke="#94a3b8" stroke-width="1.1" points="545.17,-649.34 543.79,-642.06 540.33,-648.62 545.17,-649.34"/>
</g>
<!-- @md&#45;oss/cli&#45;&gt;@md&#45;oss/config -->
<g id="edge17" class="edge">
<title>@md&#45;oss/cli&#45;&gt;@md&#45;oss/config</title>
<path fill="none" stroke="#94a3b8" stroke-width="1.1" d="M471.65,-1301.95C521.19,-1309.66 628.88,-1318.17 686,-1260 751.18,-1193.62 753.24,-887.42 752.39,-797.13"/>
<polygon fill="#94a3b8" stroke="#94a3b8" stroke-width="1.1" points="754.84,-797.01 752.31,-790.03 749.94,-797.06 754.84,-797.01"/>
</g>
<!-- @md&#45;oss/utils -->
<g id="node22" class="node">
<title>@md&#45;oss/utils</title>
<path fill="#1e3a3a" stroke="#14b8a6" d="M562.5,-1422C562.5,-1422 532.5,-1422 532.5,-1422 526.5,-1422 520.5,-1416 520.5,-1410 520.5,-1410 520.5,-1398 520.5,-1398 520.5,-1392 526.5,-1386 532.5,-1386 532.5,-1386 562.5,-1386 562.5,-1386 568.5,-1386 574.5,-1392 574.5,-1398 574.5,-1398 574.5,-1410 574.5,-1410 574.5,-1416 568.5,-1422 562.5,-1422"/>
<text text-anchor="middle" x="547.5" y="-1401.5" font-family="Helvetica,sans-Serif" font-size="10.00" fill="#e2e8f0">utils</text>
</g>
<!-- @md&#45;oss/cli&#45;&gt;@md&#45;oss/utils -->
<g id="edge18" class="edge">
<title>@md&#45;oss/cli&#45;&gt;@md&#45;oss/utils</title>
<path fill="none" stroke="#94a3b8" stroke-width="1.1" d="M462.63,-1315.15C479.61,-1333.14 505.69,-1360.77 524.26,-1380.44"/>
<polygon fill="#94a3b8" stroke="#94a3b8" stroke-width="1.1" points="522.7,-1382.35 529.28,-1385.76 526.26,-1378.99 522.7,-1382.35"/>
</g>
<!-- @md&#45;oss/common&#45;&gt;@md&#45;oss/config -->
<g id="edge19" class="edge">
<title>@md&#45;oss/common&#45;&gt;@md&#45;oss/config</title>
<path fill="none" stroke="#94a3b8" stroke-width="1.1" d="M577.04,-625.46C606.92,-628.31 653.89,-636.66 686,-661 714.91,-682.91 733.64,-721.46 743.51,-746.87"/>
<polygon fill="#94a3b8" stroke="#94a3b8" stroke-width="1.1" points="741.3,-747.97 746.06,-753.66 745.89,-746.25 741.3,-747.97"/>
</g>
<!-- @md&#45;oss/common&#45;&gt;@md&#45;oss/serdes -->
<g id="edge20" class="edge">
<title>@md&#45;oss/common&#45;&gt;@md&#45;oss/serdes</title>
<path fill="none" stroke="#94a3b8" stroke-width="1.1" d="M557.55,-642.1C575.93,-678.85 617.6,-762.21 638.33,-803.66"/>
<polygon fill="#94a3b8" stroke="#94a3b8" stroke-width="1.1" points="636.15,-804.77 641.47,-809.94 640.53,-802.58 636.15,-804.77"/>
</g>
<!-- @md&#45;oss/database -->
<g id="node9" class="node">
<title>@md&#45;oss/database</title>
<path fill="#3a2e1e" stroke="#f59e0b" d="M670.5,-158C670.5,-158 632.5,-158 632.5,-158 626.5,-158 620.5,-152 620.5,-146 620.5,-146 620.5,-134 620.5,-134 620.5,-128 626.5,-122 632.5,-122 632.5,-122 670.5,-122 670.5,-122 676.5,-122 682.5,-128 682.5,-134 682.5,-134 682.5,-146 682.5,-146 682.5,-152 676.5,-158 670.5,-158"/>
<text text-anchor="middle" x="651.5" y="-137.5" font-family="Helvetica,sans-Serif" font-size="10.00" fill="#e2e8f0">database</text>
</g>
<!-- @md&#45;oss/database&#45;&gt;@md&#45;oss/config -->
<g id="edge21" class="edge">
<title>@md&#45;oss/database&#45;&gt;@md&#45;oss/config</title>
<path fill="none" stroke="#94a3b8" stroke-width="1.1" d="M673.15,-158.29C678.16,-163.8 682.94,-170.21 686,-177 733,-281.37 747.98,-646.61 751.25,-746.55"/>
<polygon fill="#94a3b8" stroke="#94a3b8" stroke-width="1.1" points="748.81,-746.9 751.48,-753.81 753.71,-746.74 748.81,-746.9"/>
</g>
<!-- @md&#45;oss/db&#45;&gt;@md&#45;oss/config -->
<g id="edge22" class="edge">
<title>@md&#45;oss/db&#45;&gt;@md&#45;oss/config</title>
<path fill="none" stroke="#94a3b8" stroke-width="1.1" d="M353.63,-1188.05C419.69,-1194.17 594.58,-1200.24 686,-1107 729.34,-1062.79 745.9,-867.68 750.52,-797.37"/>
<polygon fill="#94a3b8" stroke="#94a3b8" stroke-width="1.1" points="752.98,-797.33 750.98,-790.19 748.09,-797.02 752.98,-797.33"/>
</g>
<!-- @md&#45;oss/db&#45;&gt;@md&#45;oss/serdes -->
<g id="edge23" class="edge">
<title>@md&#45;oss/db&#45;&gt;@md&#45;oss/serdes</title>
<path fill="none" stroke="#94a3b8" stroke-width="1.1" d="M353.84,-1170.19C403.4,-1141.17 511.44,-1072.34 577,-989 610.35,-946.61 632.52,-886.67 643.16,-853.17"/>
<polygon fill="#94a3b8" stroke="#94a3b8" stroke-width="1.1" points="645.52,-853.85 645.26,-846.43 640.84,-852.39 645.52,-853.85"/>
</g>
<!-- @md&#45;oss/design&#45;system -->
<g id="node11" class="node">
<title>@md&#45;oss/design&#45;system</title>
<path fill="#3a2e1e" stroke="#f59e0b" d="M359,-407C359,-407 294,-407 294,-407 288,-407 282,-401 282,-395 282,-395 282,-383 282,-383 282,-377 288,-371 294,-371 294,-371 359,-371 359,-371 365,-371 371,-377 371,-383 371,-383 371,-395 371,-395 371,-401 365,-407 359,-407"/>
<text text-anchor="middle" x="326.5" y="-386.5" font-family="Helvetica,sans-Serif" font-size="10.00" fill="#e2e8f0">design&#45;system</text>
</g>
<!-- @md&#45;oss/design&#45;system&#45;&gt;@md&#45;oss/common -->
<g id="edge24" class="edge">
<title>@md&#45;oss/design&#45;system&#45;&gt;@md&#45;oss/common</title>
<path fill="none" stroke="#94a3b8" stroke-width="1.1" d="M347.89,-407.03C377.7,-433.78 434.39,-486.1 478,-535 496.66,-555.92 515.96,-581.41 529.3,-599.74"/>
<polygon fill="#94a3b8" stroke="#94a3b8" stroke-width="1.1" points="527.5,-601.43 533.59,-605.66 531.47,-598.55 527.5,-601.43"/>
</g>
<!-- @md&#45;oss/design&#45;system&#45;&gt;@md&#45;oss/config -->
<g id="edge25" class="edge">
<title>@md&#45;oss/design&#45;system&#45;&gt;@md&#45;oss/config</title>
<path fill="none" stroke="#94a3b8" stroke-width="1.1" d="M334.32,-370.69C345.56,-343.53 370.81,-293.59 411,-273 479.24,-238.04 630.61,-251.94 686,-309 747.2,-372.05 752.09,-659.45 752.14,-746.77"/>
<polygon fill="#94a3b8" stroke="#94a3b8" stroke-width="1.1" points="749.69,-746.88 752.14,-753.88 754.59,-746.88 749.69,-746.88"/>
</g>
<!-- @md&#45;oss/scripts -->
<g id="node18" class="node">
<title>@md&#45;oss/scripts</title>
<path fill="#3a2e1e" stroke="#f59e0b" d="M459.5,-382C459.5,-382 429.5,-382 429.5,-382 423.5,-382 417.5,-376 417.5,-370 417.5,-370 417.5,-358 417.5,-358 417.5,-352 423.5,-346 429.5,-346 429.5,-346 459.5,-346 459.5,-346 465.5,-346 471.5,-352 471.5,-358 471.5,-358 471.5,-370 471.5,-370 471.5,-376 465.5,-382 459.5,-382"/>
<text text-anchor="middle" x="444.5" y="-361.5" font-family="Helvetica,sans-Serif" font-size="10.00" fill="#e2e8f0">scripts</text>
</g>
<!-- @md&#45;oss/design&#45;system&#45;&gt;@md&#45;oss/scripts -->
<g id="edge26" class="edge">
<title>@md&#45;oss/design&#45;system&#45;&gt;@md&#45;oss/scripts</title>
<path fill="none" stroke="#94a3b8" stroke-width="1.1" d="M371.02,-379.62C384.03,-376.82 398.07,-373.79 410.3,-371.15"/>
<polygon fill="#94a3b8" stroke="#94a3b8" stroke-width="1.1" points="410.95,-373.52 417.27,-369.65 409.91,-368.73 410.95,-373.52"/>
</g>
<!-- @md&#45;oss/discord -->
<g id="node12" class="node">
<title>@md&#45;oss/discord</title>
<path fill="#3a2e1e" stroke="#f59e0b" d="M459.5,-321C459.5,-321 429.5,-321 429.5,-321 423.5,-321 417.5,-315 417.5,-309 417.5,-309 417.5,-297 417.5,-297 417.5,-291 423.5,-285 429.5,-285 429.5,-285 459.5,-285 459.5,-285 465.5,-285 471.5,-291 471.5,-297 471.5,-297 471.5,-309 471.5,-309 471.5,-315 465.5,-321 459.5,-321"/>
<text text-anchor="middle" x="444.5" y="-300.5" font-family="Helvetica,sans-Serif" font-size="10.00" fill="#e2e8f0">discord</text>
</g>
<!-- @md&#45;oss/discord&#45;&gt;@md&#45;oss/common -->
<g id="edge27" class="edge">
<title>@md&#45;oss/discord&#45;&gt;@md&#45;oss/common</title>
<path fill="none" stroke="#94a3b8" stroke-width="1.1" d="M468.07,-321.16C471.83,-325.06 475.36,-329.4 478,-334 528.51,-422.12 541.84,-545.66 545.3,-598.45"/>
<polygon fill="#94a3b8" stroke="#94a3b8" stroke-width="1.1" points="542.87,-598.88 545.75,-605.71 547.77,-598.58 542.87,-598.88"/>
</g>
<!-- @md&#45;oss/discord&#45;&gt;@md&#45;oss/config -->
<g id="edge28" class="edge">
<title>@md&#45;oss/discord&#45;&gt;@md&#45;oss/config</title>
<path fill="none" stroke="#94a3b8" stroke-width="1.1" d="M471.76,-300.26C521.48,-296.67 629.47,-296.78 686,-357 739.33,-413.81 749.61,-664.75 751.56,-746.3"/>
<polygon fill="#94a3b8" stroke="#94a3b8" stroke-width="1.1" points="749.12,-746.71 751.72,-753.66 754.01,-746.6 749.12,-746.71"/>
</g>
<!-- @md&#45;oss/email&#45;&gt;@md&#45;oss/config -->
<g id="edge29" class="edge">
<title>@md&#45;oss/email&#45;&gt;@md&#45;oss/config</title>
<path fill="none" stroke="#94a3b8" stroke-width="1.1" d="M222.39,-426.69C243.76,-369.19 318.48,-196 443.5,-196 443.5,-196 443.5,-196 548.5,-196 616.68,-196 646.37,-208.53 686,-264 742.32,-342.83 750.58,-655.44 751.79,-746.8"/>
<polygon fill="#94a3b8" stroke="#94a3b8" stroke-width="1.1" points="749.34,-747 751.88,-753.97 754.24,-746.94 749.34,-747"/>
</g>
<!-- @md&#45;oss/email&#45;&gt;@md&#45;oss/design&#45;system -->
<g id="edge30" class="edge">
<title>@md&#45;oss/email&#45;&gt;@md&#45;oss/design&#45;system</title>
<path fill="none" stroke="#94a3b8" stroke-width="1.1" d="M242.23,-431.59C254.63,-425.25 269.74,-417.52 283.66,-410.4"/>
<polygon fill="#94a3b8" stroke="#94a3b8" stroke-width="1.1" points="284.85,-412.54 289.96,-407.17 282.62,-408.18 284.85,-412.54"/>
</g>
<!-- @md&#45;oss/http&#45;client&#45;&gt;@md&#45;oss/common -->
<g id="edge31" class="edge">
<title>@md&#45;oss/http&#45;client&#45;&gt;@md&#45;oss/common</title>
<path fill="none" stroke="#94a3b8" stroke-width="1.1" d="M453.03,-875.73C459.74,-859.36 469.73,-834.66 478,-813 500.34,-754.46 525.04,-685.08 537.8,-648.85"/>
<polygon fill="#94a3b8" stroke="#94a3b8" stroke-width="1.1" points="540.17,-649.47 540.19,-642.06 535.55,-647.85 540.17,-649.47"/>
</g>
<!-- @md&#45;oss/http&#45;client&#45;&gt;@md&#45;oss/config -->
<g id="edge32" class="edge">
<title>@md&#45;oss/http&#45;client&#45;&gt;@md&#45;oss/config</title>
<path fill="none" stroke="#94a3b8" stroke-width="1.1" d="M478.4,-896.74C527.24,-899.24 620.23,-897.82 686,-859 710.75,-844.39 729.33,-816.58 740.37,-796.32"/>
<polygon fill="#94a3b8" stroke="#94a3b8" stroke-width="1.1" points="742.59,-797.37 743.69,-790.03 738.25,-795.08 742.59,-797.37"/>
</g>
<!-- @md&#45;oss/http&#45;client&#45;&gt;@md&#45;oss/serdes -->
<g id="edge33" class="edge">
<title>@md&#45;oss/http&#45;client&#45;&gt;@md&#45;oss/serdes</title>
<path fill="none" stroke="#94a3b8" stroke-width="1.1" d="M478.06,-880.1C490.45,-875.05 504.77,-869.48 518,-865 551.43,-853.68 590.43,-843.1 617.41,-836.18"/>
<polygon fill="#94a3b8" stroke="#94a3b8" stroke-width="1.1" points="618.17,-838.51 624.35,-834.41 616.96,-833.76 618.17,-838.51"/>
</g>
<!-- @md&#45;oss/migrations -->
<g id="node15" class="node">
<title>@md&#45;oss/migrations</title>
<path fill="#3a2e1e" stroke="#f59e0b" d="M674,-97C674,-97 629,-97 629,-97 623,-97 617,-91 617,-85 617,-85 617,-73 617,-73 617,-67 623,-61 629,-61 629,-61 674,-61 674,-61 680,-61 686,-67 686,-73 686,-73 686,-85 686,-85 686,-91 680,-97 674,-97"/>
<text text-anchor="middle" x="651.5" y="-76.5" font-family="Helvetica,sans-Serif" font-size="10.00" fill="#e2e8f0">migrations</text>
</g>
<!-- @md&#45;oss/migrations&#45;&gt;@md&#45;oss/config -->
<g id="edge34" class="edge">
<title>@md&#45;oss/migrations&#45;&gt;@md&#45;oss/config</title>
<path fill="none" stroke="#94a3b8" stroke-width="1.1" d="M676.62,-97.14C680.31,-100.99 683.67,-105.32 686,-110 743.22,-224.99 750.83,-639.86 751.84,-746.74"/>
<polygon fill="#94a3b8" stroke="#94a3b8" stroke-width="1.1" points="749.4,-746.92 751.91,-753.9 754.3,-746.88 749.4,-746.92"/>
</g>
<!-- @md&#45;oss/mutex -->
<g id="node16" class="node">
<title>@md&#45;oss/mutex</title>
<path fill="#3a2e1e" stroke="#f59e0b" d="M666.5,-36C666.5,-36 636.5,-36 636.5,-36 630.5,-36 624.5,-30 624.5,-24 624.5,-24 624.5,-12 624.5,-12 624.5,-6 630.5,0 636.5,0 636.5,0 666.5,0 666.5,0 672.5,0 678.5,-6 678.5,-12 678.5,-12 678.5,-24 678.5,-24 678.5,-30 672.5,-36 666.5,-36"/>
<text text-anchor="middle" x="651.5" y="-15.5" font-family="Helvetica,sans-Serif" font-size="10.00" fill="#e2e8f0">mutex</text>
</g>
<!-- @md&#45;oss/mutex&#45;&gt;@md&#45;oss/config -->
<g id="edge35" class="edge">
<title>@md&#45;oss/mutex&#45;&gt;@md&#45;oss/config</title>
<path fill="none" stroke="#94a3b8" stroke-width="1.1" d="M676.65,-36.13C680.34,-39.98 683.69,-44.31 686,-49 748.33,-175.56 752.12,-633.62 752.09,-746.65"/>
<polygon fill="#94a3b8" stroke="#94a3b8" stroke-width="1.1" points="749.64,-746.89 752.08,-753.89 754.54,-746.89 749.64,-746.89"/>
</g>
<!-- @md&#45;oss/observability -->
<g id="node17" class="node">
<title>@md&#45;oss/observability</title>
<path fill="#3a2e1e" stroke="#f59e0b" d="M354.5,-492C354.5,-492 298.5,-492 298.5,-492 292.5,-492 286.5,-486 286.5,-480 286.5,-480 286.5,-468 286.5,-468 286.5,-462 292.5,-456 298.5,-456 298.5,-456 354.5,-456 354.5,-456 360.5,-456 366.5,-462 366.5,-468 366.5,-468 366.5,-480 366.5,-480 366.5,-486 360.5,-492 354.5,-492"/>
<text text-anchor="middle" x="326.5" y="-471.5" font-family="Helvetica,sans-Serif" font-size="10.00" fill="#e2e8f0">observability</text>
</g>
<!-- @md&#45;oss/observability&#45;&gt;@md&#45;oss/common -->
<g id="edge36" class="edge">
<title>@md&#45;oss/observability&#45;&gt;@md&#45;oss/common</title>
<path fill="none" stroke="#94a3b8" stroke-width="1.1" d="M348.55,-492.12C365.09,-506.06 388.96,-525.5 411,-541 444.15,-564.31 483.87,-588.2 511.7,-604.32"/>
<polygon fill="#94a3b8" stroke="#94a3b8" stroke-width="1.1" points="510.52,-606.47 517.81,-607.85 512.97,-602.22 510.52,-606.47"/>
</g>
<!-- @md&#45;oss/observability&#45;&gt;@md&#45;oss/config -->
<g id="edge37" class="edge">
<title>@md&#45;oss/observability&#45;&gt;@md&#45;oss/config</title>
<path fill="none" stroke="#94a3b8" stroke-width="1.1" d="M366.57,-474.07C397.38,-475.03 441.15,-478.43 478,-489 525.19,-502.54 535.65,-511.53 577,-538 629.44,-571.57 647.92,-576.74 686,-626 715.14,-663.69 734.83,-716.3 744.67,-746.99"/>
<polygon fill="#94a3b8" stroke="#94a3b8" stroke-width="1.1" points="742.42,-747.99 746.85,-753.93 747.09,-746.52 742.42,-747.99"/>
</g>
<!-- @md&#45;oss/observability&#45;&gt;@md&#45;oss/scripts -->
<g id="edge38" class="edge">
<title>@md&#45;oss/observability&#45;&gt;@md&#45;oss/scripts</title>
<path fill="none" stroke="#94a3b8" stroke-width="1.1" d="M346.66,-455.84C366.47,-437.05 397.48,-407.64 419.05,-387.19"/>
<polygon fill="#94a3b8" stroke="#94a3b8" stroke-width="1.1" points="420.92,-388.79 424.32,-382.19 417.55,-385.23 420.92,-388.79"/>
</g>
<!-- @md&#45;oss/observability&#45;&gt;@md&#45;oss/serdes -->
<g id="edge39" class="edge">
<title>@md&#45;oss/observability&#45;&gt;@md&#45;oss/serdes</title>
<path fill="none" stroke="#94a3b8" stroke-width="1.1" d="M366.88,-481.94C422.31,-495.22 522.63,-527.32 577,-594 628.36,-656.99 643.99,-756.14 648.62,-802.5"/>
<polygon fill="#94a3b8" stroke="#94a3b8" stroke-width="1.1" points="646.21,-803 649.3,-809.74 651.09,-802.54 646.21,-803"/>
</g>
<!-- @md&#45;oss/scripts&#45;&gt;@md&#45;oss/common -->
<g id="edge40" class="edge">
<title>@md&#45;oss/scripts&#45;&gt;@md&#45;oss/common</title>
<path fill="none" stroke="#94a3b8" stroke-width="1.1" d="M452.6,-382.28C470.35,-427.97 516.65,-547.17 536.85,-599.15"/>
<polygon fill="#94a3b8" stroke="#94a3b8" stroke-width="1.1" points="534.59,-600.1 539.41,-605.74 539.15,-598.33 534.59,-600.1"/>
</g>
<!-- @md&#45;oss/scripts&#45;&gt;@md&#45;oss/config -->
<g id="edge41" class="edge">
<title>@md&#45;oss/scripts&#45;&gt;@md&#45;oss/config</title>
<path fill="none" stroke="#94a3b8" stroke-width="1.1" d="M471.81,-359.21C521.15,-351.89 627.83,-344.17 686,-401 735.43,-449.29 748.22,-670.5 751.19,-746.37"/>
<polygon fill="#94a3b8" stroke="#94a3b8" stroke-width="1.1" points="748.75,-746.76 751.46,-753.66 753.65,-746.58 748.75,-746.76"/>
</g>
<!-- @md&#45;oss/security -->
<g id="node19" class="node">
<title>@md&#45;oss/security</title>
<path fill="#3a2e1e" stroke="#f59e0b" d="M460.5,-800C460.5,-800 428.5,-800 428.5,-800 422.5,-800 416.5,-794 416.5,-788 416.5,-788 416.5,-776 416.5,-776 416.5,-770 422.5,-764 428.5,-764 428.5,-764 460.5,-764 460.5,-764 466.5,-764 472.5,-770 472.5,-776 472.5,-776 472.5,-788 472.5,-788 472.5,-794 466.5,-800 460.5,-800"/>
<text text-anchor="middle" x="444.5" y="-779.5" font-family="Helvetica,sans-Serif" font-size="10.00" fill="#e2e8f0">security</text>
</g>
<!-- @md&#45;oss/security&#45;&gt;@md&#45;oss/common -->
<g id="edge42" class="edge">
<title>@md&#45;oss/security&#45;&gt;@md&#45;oss/common</title>
<path fill="none" stroke="#94a3b8" stroke-width="1.1" d="M463.1,-763.99C468.26,-758.19 473.67,-751.57 478,-745 500.75,-710.47 496.37,-696.24 518,-661 520.68,-656.63 523.78,-652.16 526.92,-647.91"/>
<polygon fill="#94a3b8" stroke="#94a3b8" stroke-width="1.1" points="528.92,-649.33 531.2,-642.27 525.02,-646.36 528.92,-649.33"/>
</g>
<!-- @md&#45;oss/security&#45;&gt;@md&#45;oss/config -->
<g id="edge43" class="edge">
<title>@md&#45;oss/security&#45;&gt;@md&#45;oss/config</title>
<path fill="none" stroke="#94a3b8" stroke-width="1.1" d="M472.6,-774.13C517.18,-762.22 608.75,-742.1 686,-753 696.84,-754.53 708.39,-757.41 718.76,-760.47"/>
<polygon fill="#94a3b8" stroke="#94a3b8" stroke-width="1.1" points="718.3,-762.89 725.71,-762.6 719.74,-758.21 718.3,-762.89"/>
</g>
<!-- @md&#45;oss/security&#45;&gt;@md&#45;oss/serdes -->
<g id="edge44" class="edge">
<title>@md&#45;oss/security&#45;&gt;@md&#45;oss/serdes</title>
<path fill="none" stroke="#94a3b8" stroke-width="1.1" d="M472.72,-788.11C510.04,-796.48 577.04,-811.52 617.27,-820.54"/>
<polygon fill="#94a3b8" stroke="#94a3b8" stroke-width="1.1" points="617.1,-823.02 624.46,-822.16 618.17,-818.23 617.1,-823.02"/>
</g>
<!-- @md&#45;oss/serdes&#45;&gt;@md&#45;oss/config -->
<g id="edge45" class="edge">
<title>@md&#45;oss/serdes&#45;&gt;@md&#45;oss/config</title>
<path fill="none" stroke="#94a3b8" stroke-width="1.1" d="M678.64,-813.29C691.11,-806.27 706.16,-797.8 719.37,-790.37"/>
<polygon fill="#94a3b8" stroke="#94a3b8" stroke-width="1.1" points="720.79,-792.38 725.69,-786.81 718.38,-788.11 720.79,-792.38"/>
</g>
<!-- @md&#45;oss/server -->
<g id="node21" class="node">
<title>@md&#45;oss/server</title>
<path fill="#1e293b" stroke="#38bdf8" d="M42,-1269C42,-1269 12,-1269 12,-1269 6,-1269 0,-1263 0,-1257 0,-1257 0,-1245 0,-1245 0,-1239 6,-1233 12,-1233 12,-1233 42,-1233 42,-1233 48,-1233 54,-1239 54,-1245 54,-1245 54,-1257 54,-1257 54,-1263 48,-1269 42,-1269"/>
<text text-anchor="middle" x="27" y="-1248.5" font-family="Helvetica,sans-Serif" font-size="10.00" fill="#e2e8f0">server</text>
</g>
<!-- @md&#45;oss/server&#45;&gt;@md&#45;oss/api -->
<g id="edge46" class="edge">
<title>@md&#45;oss/server&#45;&gt;@md&#45;oss/api</title>
<path fill="none" stroke="#94a3b8" stroke-width="1.1" d="M38.2,-1232.93C54.78,-1203.56 87.59,-1145.42 106.23,-1112.4"/>
<polygon fill="#94a3b8" stroke="#94a3b8" stroke-width="1.1" points="108.45,-1113.45 109.76,-1106.15 104.18,-1111.04 108.45,-1113.45"/>
</g>
<!-- @md&#45;oss/server&#45;&gt;@md&#45;oss/auth -->
<g id="edge47" class="edge">
<title>@md&#45;oss/server&#45;&gt;@md&#45;oss/auth</title>
<path fill="none" stroke="#94a3b8" stroke-width="1.1" d="M54.25,-1243.1C87.49,-1233.09 144.76,-1215.85 180.94,-1204.95"/>
<polygon fill="#94a3b8" stroke="#94a3b8" stroke-width="1.1" points="181.88,-1207.23 187.88,-1202.86 180.47,-1202.54 181.88,-1207.23"/>
</g>
<!-- @md&#45;oss/server&#45;&gt;@md&#45;oss/config -->
<g id="edge48" class="edge">
<title>@md&#45;oss/server&#45;&gt;@md&#45;oss/config</title>
<path fill="none" stroke="#94a3b8" stroke-width="1.1" d="M45.99,-1269C77.27,-1298.28 144.95,-1353 214,-1353 214,-1353 214,-1353 327.5,-1353 488.77,-1353 579.4,-1418.01 686,-1297 752.44,-1221.58 753.52,-891.5 752.43,-797.23"/>
<polygon fill="#94a3b8" stroke="#94a3b8" stroke-width="1.1" points="754.88,-797.06 752.34,-790.1 749.98,-797.13 754.88,-797.06"/>
</g>
<!-- @md&#45;oss/server&#45;&gt;@md&#45;oss/db -->
<g id="edge49" class="edge">
<title>@md&#45;oss/server&#45;&gt;@md&#45;oss/db</title>
<path fill="none" stroke="#94a3b8" stroke-width="1.1" d="M54.26,-1250.78C95.2,-1249.8 176.34,-1245.34 242,-1226 259.62,-1220.81 278.07,-1212.14 293.13,-1204.1"/>
<polygon fill="#94a3b8" stroke="#94a3b8" stroke-width="1.1" points="294.39,-1206.21 299.36,-1200.71 292.05,-1201.9 294.39,-1206.21"/>
</g>
<!-- @md&#45;oss/server&#45;&gt;@md&#45;oss/utils -->
<g id="edge50" class="edge">
<title>@md&#45;oss/server&#45;&gt;@md&#45;oss/utils</title>
<path fill="none" stroke="#94a3b8" stroke-width="1.1" d="M32.91,-1269.18C41.05,-1295.83 59.95,-1345.24 94,-1372 137.4,-1406.1 158.8,-1404 214,-1404 214,-1404 214,-1404 327.5,-1404 393.27,-1404 470.16,-1404 513.1,-1404"/>
<polygon fill="#94a3b8" stroke="#94a3b8" stroke-width="1.1" points="513.21,-1406.45 520.21,-1404 513.21,-1401.55 513.21,-1406.45"/>
</g>
<!-- @md&#45;oss/utils&#45;&gt;@md&#45;oss/config -->
<g id="edge51" class="edge">
<title>@md&#45;oss/utils&#45;&gt;@md&#45;oss/config</title>
<path fill="none" stroke="#94a3b8" stroke-width="1.1" d="M574.53,-1405.08C606.06,-1404.84 658.39,-1399.17 686,-1367 723.68,-1323.1 745.74,-905.47 750.85,-797.42"/>
<polygon fill="#94a3b8" stroke="#94a3b8" stroke-width="1.1" points="753.31,-797.29 751.19,-790.18 748.41,-797.06 753.31,-797.29"/>
</g>
<!-- @md&#45;oss/web -->
<g id="node23" class="node">
<title>@md&#45;oss/web</title>
<path fill="#1e293b" stroke="#38bdf8" d="M42,-874C42,-874 12,-874 12,-874 6,-874 0,-868 0,-862 0,-862 0,-850 0,-850 0,-844 6,-838 12,-838 12,-838 42,-838 42,-838 48,-838 54,-844 54,-850 54,-850 54,-862 54,-862 54,-868 48,-874 42,-874"/>
<text text-anchor="middle" x="27" y="-853.5" font-family="Helvetica,sans-Serif" font-size="10.00" fill="#e2e8f0">web</text>
</g>
<!-- @md&#45;oss/web&#45;&gt;@md&#45;oss/api -->
<g id="edge52" class="edge">
<title>@md&#45;oss/web&#45;&gt;@md&#45;oss/api</title>
<path fill="none" stroke="#94a3b8" stroke-width="1.1" d="M35.22,-874.2C51.58,-915.46 91.49,-1016.11 110.12,-1063.08"/>
<polygon fill="#94a3b8" stroke="#94a3b8" stroke-width="1.1" points="107.96,-1064.28 112.81,-1069.88 112.51,-1062.47 107.96,-1064.28"/>
</g>
<!-- @md&#45;oss/web&#45;&gt;@md&#45;oss/auth -->
<g id="edge53" class="edge">
<title>@md&#45;oss/web&#45;&gt;@md&#45;oss/auth</title>
<path fill="none" stroke="#94a3b8" stroke-width="1.1" d="M28.09,-874.18C29.19,-919.79 37.59,-1040.99 94,-1119 115.85,-1149.21 153.74,-1170.25 181.11,-1182.41"/>
<polygon fill="#94a3b8" stroke="#94a3b8" stroke-width="1.1" points="180.43,-1184.78 187.83,-1185.31 182.37,-1180.28 180.43,-1184.78"/>
</g>
<!-- @md&#45;oss/web&#45;&gt;@md&#45;oss/common -->
<g id="edge54" class="edge">
<title>@md&#45;oss/web&#45;&gt;@md&#45;oss/common</title>
<path fill="none" stroke="#94a3b8" stroke-width="1.1" d="M32.9,-837.8C48.82,-783.1 104.56,-624 214,-624 214,-624 214,-624 327.5,-624 392.02,-624 467.22,-624 510.6,-624"/>
<polygon fill="#94a3b8" stroke="#94a3b8" stroke-width="1.1" points="510.8,-626.45 517.8,-624 510.8,-621.55 510.8,-626.45"/>
</g>
<!-- @md&#45;oss/web&#45;&gt;@md&#45;oss/design&#45;system -->
<g id="edge55" class="edge">
<title>@md&#45;oss/web&#45;&gt;@md&#45;oss/design&#45;system</title>
<path fill="none" stroke="#94a3b8" stroke-width="1.1" d="M28.16,-837.78C29.84,-768.9 45.91,-522.82 188,-415 212.62,-396.32 246.73,-389.78 274.81,-387.94"/>
<polygon fill="#94a3b8" stroke="#94a3b8" stroke-width="1.1" points="274.95,-390.38 281.81,-387.56 274.69,-385.49 274.95,-390.38"/>
</g>
</g>
</svg>
