<?xml version="1.0" encoding="UTF-8" standalone="no"?>
<!DOCTYPE svg PUBLIC "-//W3C//DTD SVG 1.1//EN"
 "http://www.w3.org/Graphics/SVG/1.1/DTD/svg11.dtd">
<!-- Generated by graphviz version 2.43.0 (0)
 -->
<!-- Title: G Pages: 1 -->
<svg width="804pt" height="1851pt"
 viewBox="0.00 0.00 803.80 1850.80" xmlns="http://www.w3.org/2000/svg" xmlns:xlink="http://www.w3.org/1999/xlink">
<g id="graph0" class="graph" transform="scale(1 1) rotate(0) translate(14.4 1836.4)">
<title>G</title>
<polygon fill="#202020" stroke="transparent" points="-14.4,14.4 -14.4,-1836.4 789.4,-1836.4 789.4,14.4 -14.4,14.4"/>
<text text-anchor="middle" x="387.5" y="-1806.8" font-family="Times,serif" font-size="14.00" fill="#eeeeee">Complete workspace dependency graph</text>
<!-- @md&#45;oss/analytics -->
<g id="node1" class="node">
<title>@md&#45;oss/analytics</title>
<path fill="#3a2e1e" stroke="#f59e0b" d="M571,-1521C571,-1521 534,-1521 534,-1521 528,-1521 522,-1515 522,-1509 522,-1509 522,-1497 522,-1497 522,-1491 528,-1485 534,-1485 534,-1485 571,-1485 571,-1485 577,-1485 583,-1491 583,-1497 583,-1497 583,-1509 583,-1509 583,-1515 577,-1521 571,-1521"/>
<text text-anchor="middle" x="552.5" y="-1500.5" font-family="Helvetica,sans-Serif" font-size="10.00" fill="#e2e8f0">analytics</text>
</g>
<!-- @md&#45;oss/config -->
<g id="node8" class="node">
<title>@md&#45;oss/config</title>
<path fill="#3a2e1e" stroke="#f59e0b" d="M763,-578C763,-578 733,-578 733,-578 727,-578 721,-572 721,-566 721,-566 721,-554 721,-554 721,-548 727,-542 733,-542 733,-542 763,-542 763,-542 769,-542 775,-548 775,-554 775,-554 775,-566 775,-566 775,-572 769,-578 763,-578"/>
<text text-anchor="middle" x="748" y="-557.5" font-family="Helvetica,sans-Serif" font-size="10.00" fill="#e2e8f0">config</text>
</g>
<!-- @md&#45;oss/analytics&#45;&gt;@md&#45;oss/config -->
<g id="edge1" class="edge">
<title>@md&#45;oss/analytics&#45;&gt;@md&#45;oss/config</title>
<path fill="none" stroke="#94a3b8" stroke-width="1.1" d="M571.44,-1484.9C576.76,-1479.1 582.38,-1472.5 587,-1466 637.47,-1395 655.68,-1377.35 681,-1294 722.62,-1156.98 741.92,-698.34 746.11,-585.33"/>
<polygon fill="#94a3b8" stroke="#94a3b8" stroke-width="1.1" points="748.57,-585.18 746.37,-578.09 743.67,-585 748.57,-585.18"/>
</g>
<!-- @md&#45;oss/scripts -->
<g id="node18" class="node">
<title>@md&#45;oss/scripts</title>
<path fill="#3a2e1e" stroke="#f59e0b" d="M669,-889C669,-889 639,-889 639,-889 633,-889 627,-883 627,-877 627,-877 627,-865 627,-865 627,-859 633,-853 639,-853 639,-853 669,-853 669,-853 675,-853 681,-859 681,-865 681,-865 681,-877 681,-877 681,-883 675,-889 669,-889"/>
<text text-anchor="middle" x="654" y="-868.5" font-family="Helvetica,sans-Serif" font-size="10.00" fill="#e2e8f0">scripts</text>
</g>
<!-- @md&#45;oss/analytics&#45;&gt;@md&#45;oss/scripts -->
<g id="edge2" class="edge">
<title>@md&#45;oss/analytics&#45;&gt;@md&#45;oss/scripts</title>
<path fill="none" stroke="#94a3b8" stroke-width="1.1" d="M574.15,-1484.71C579.16,-1479.2 583.94,-1472.79 587,-1466 634,-1361.63 648.98,-996.39 652.25,-896.45"/>
<polygon fill="#94a3b8" stroke="#94a3b8" stroke-width="1.1" points="654.71,-896.26 652.48,-889.19 649.81,-896.1 654.71,-896.26"/>
</g>
<!-- @md&#45;oss/api -->
<g id="node2" class="node">
<title>@md&#45;oss/api</title>
<path fill="#1e3a3a" stroke="#14b8a6" d="M136,-659C136,-659 106,-659 106,-659 100,-659 94,-653 94,-647 94,-647 94,-635 94,-635 94,-629 100,-623 106,-623 106,-623 136,-623 136,-623 142,-623 148,-629 148,-635 148,-635 148,-647 148,-647 148,-653 142,-659 136,-659"/>
<text text-anchor="middle" x="121" y="-638.5" font-family="Helvetica,sans-Serif" font-size="10.00" fill="#e2e8f0">api</text>
</g>
<!-- @md&#45;oss/auth -->
<g id="node4" class="node">
<title>@md&#45;oss/auth</title>
<path fill="#1e3a3a" stroke="#14b8a6" d="M234,-555C234,-555 204,-555 204,-555 198,-555 192,-549 192,-543 192,-543 192,-531 192,-531 192,-525 198,-519 204,-519 204,-519 234,-519 234,-519 240,-519 246,-525 246,-531 246,-531 246,-543 246,-543 246,-549 240,-555 234,-555"/>
<text text-anchor="middle" x="219" y="-534.5" font-family="Helvetica,sans-Serif" font-size="10.00" fill="#e2e8f0">auth</text>
</g>
<!-- @md&#45;oss/api&#45;&gt;@md&#45;oss/auth -->
<g id="edge8" class="edge">
<title>@md&#45;oss/api&#45;&gt;@md&#45;oss/auth</title>
<path fill="none" stroke="#94a3b8" stroke-width="1.1" d="M138.72,-622.88C154.59,-605.69 178.54,-579.74 195.97,-560.87"/>
<polygon fill="#94a3b8" stroke="#94a3b8" stroke-width="1.1" points="198.2,-562.06 201.15,-555.26 194.6,-558.74 198.2,-562.06"/>
</g>
<!-- @md&#45;oss/common -->
<g id="node7" class="node">
<title>@md&#45;oss/common</title>
<path fill="#3a2e1e" stroke="#f59e0b" d="M466,-1251C466,-1251 431,-1251 431,-1251 425,-1251 419,-1245 419,-1239 419,-1239 419,-1227 419,-1227 419,-1221 425,-1215 431,-1215 431,-1215 466,-1215 466,-1215 472,-1215 478,-1221 478,-1227 478,-1227 478,-1239 478,-1239 478,-1245 472,-1251 466,-1251"/>
<text text-anchor="middle" x="448.5" y="-1230.5" font-family="Helvetica,sans-Serif" font-size="10.00" fill="#e2e8f0">common</text>
</g>
<!-- @md&#45;oss/api&#45;&gt;@md&#45;oss/common -->
<g id="edge9" class="edge">
<title>@md&#45;oss/api&#45;&gt;@md&#45;oss/common</title>
<path fill="none" stroke="#94a3b8" stroke-width="1.1" d="M123.12,-659.2C128.41,-730.67 156.59,-995.75 290,-1152 307.02,-1171.94 371.24,-1201.25 412.23,-1218.6"/>
<polygon fill="#94a3b8" stroke="#94a3b8" stroke-width="1.1" points="411.45,-1220.93 418.85,-1221.39 413.35,-1216.41 411.45,-1220.93"/>
</g>
<!-- @md&#45;oss/api&#45;&gt;@md&#45;oss/config -->
<g id="edge10" class="edge">
<title>@md&#45;oss/api&#45;&gt;@md&#45;oss/config</title>
<path fill="none" stroke="#94a3b8" stroke-width="1.1" d="M121.29,-622.96C119.4,-547.46 123.37,-255.25 290,-135 430.92,-33.3 550.15,-24.63 681,-139 740.75,-191.22 746.71,-451.56 747.07,-534.54"/>
<polygon fill="#94a3b8" stroke="#94a3b8" stroke-width="1.1" points="744.62,-534.57 747.09,-541.56 749.52,-534.55 744.62,-534.57"/>
</g>
<!-- @md&#45;oss/db -->
<g id="node10" class="node">
<title>@md&#45;oss/db</title>
<path fill="#1e3a3a" stroke="#14b8a6" d="M463.5,-611C463.5,-611 433.5,-611 433.5,-611 427.5,-611 421.5,-605 421.5,-599 421.5,-599 421.5,-587 421.5,-587 421.5,-581 427.5,-575 433.5,-575 433.5,-575 463.5,-575 463.5,-575 469.5,-575 475.5,-581 475.5,-587 475.5,-587 475.5,-599 475.5,-599 475.5,-605 469.5,-611 463.5,-611"/>
<text text-anchor="middle" x="448.5" y="-590.5" font-family="Helvetica,sans-Serif" font-size="10.00" fill="#e2e8f0">db</text>
</g>
<!-- @md&#45;oss/api&#45;&gt;@md&#45;oss/db -->
<g id="edge11" class="edge">
<title>@md&#45;oss/api&#45;&gt;@md&#45;oss/db</title>
<path fill="none" stroke="#94a3b8" stroke-width="1.1" d="M148.09,-637.15C206.77,-628.5 349.12,-607.51 414.13,-597.92"/>
<polygon fill="#94a3b8" stroke="#94a3b8" stroke-width="1.1" points="414.72,-600.31 421.29,-596.87 414.01,-595.46 414.72,-600.31"/>
</g>
<!-- @md&#45;oss/email -->
<g id="node13" class="node">
<title>@md&#45;oss/email</title>
<path fill="#1e3a3a" stroke="#14b8a6" d="M234,-753C234,-753 204,-753 204,-753 198,-753 192,-747 192,-741 192,-741 192,-729 192,-729 192,-723 198,-717 204,-717 204,-717 234,-717 234,-717 240,-717 246,-723 246,-729 246,-729 246,-741 246,-741 246,-747 240,-753 234,-753"/>
<text text-anchor="middle" x="219" y="-732.5" font-family="Helvetica,sans-Serif" font-size="10.00" fill="#e2e8f0">email</text>
</g>
<!-- @md&#45;oss/api&#45;&gt;@md&#45;oss/email -->
<g id="edge12" class="edge">
<title>@md&#45;oss/api&#45;&gt;@md&#45;oss/email</title>
<path fill="none" stroke="#94a3b8" stroke-width="1.1" d="M140.51,-659.12C155.78,-674.08 177.56,-695.4 194.14,-711.64"/>
<polygon fill="#94a3b8" stroke="#94a3b8" stroke-width="1.1" points="192.83,-713.78 199.55,-716.93 196.26,-710.28 192.83,-713.78"/>
</g>
<!-- @md&#45;oss/api&#45;&gt;@md&#45;oss/scripts -->
<g id="edge13" class="edge">
<title>@md&#45;oss/api&#45;&gt;@md&#45;oss/scripts</title>
<path fill="none" stroke="#94a3b8" stroke-width="1.1" d="M148.16,-647.99C220.89,-668.05 430.46,-730.11 587,-819 601.39,-827.17 615.99,-838.31 627.78,-848.18"/>
<polygon fill="#94a3b8" stroke="#94a3b8" stroke-width="1.1" points="626.41,-850.24 633.33,-852.91 629.59,-846.51 626.41,-850.24"/>
</g>
<!-- @md&#45;oss/api&#45;types -->
<g id="node3" class="node">
<title>@md&#45;oss/api&#45;types</title>
<path fill="#3a2e1e" stroke="#f59e0b" d="M238,-1409C238,-1409 200,-1409 200,-1409 194,-1409 188,-1403 188,-1397 188,-1397 188,-1385 188,-1385 188,-1379 194,-1373 200,-1373 200,-1373 238,-1373 238,-1373 244,-1373 250,-1379 250,-1385 250,-1385 250,-1397 250,-1397 250,-1403 244,-1409 238,-1409"/>
<text text-anchor="middle" x="219" y="-1388.5" font-family="Helvetica,sans-Serif" font-size="10.00" fill="#e2e8f0">api&#45;types</text>
</g>
<!-- @md&#45;oss/api&#45;types&#45;&gt;@md&#45;oss/common -->
<g id="edge3" class="edge">
<title>@md&#45;oss/api&#45;types&#45;&gt;@md&#45;oss/common</title>
<path fill="none" stroke="#94a3b8" stroke-width="1.1" d="M231.17,-1372.8C243.58,-1353.81 265.18,-1324.19 290,-1305 327.42,-1276.07 378.32,-1255.51 412.01,-1243.95"/>
<polygon fill="#94a3b8" stroke="#94a3b8" stroke-width="1.1" points="413.07,-1246.18 418.92,-1241.62 411.51,-1241.54 413.07,-1246.18"/>
</g>
<!-- @md&#45;oss/api&#45;types&#45;&gt;@md&#45;oss/config -->
<g id="edge4" class="edge">
<title>@md&#45;oss/api&#45;types&#45;&gt;@md&#45;oss/config</title>
<path fill="none" stroke="#94a3b8" stroke-width="1.1" d="M221.3,-1409.06C228.07,-1488.02 266.24,-1799 447.5,-1799 447.5,-1799 447.5,-1799 553.5,-1799 673.89,-1799 647.96,-1675.77 681,-1560 735.59,-1368.7 745.32,-721.24 746.77,-585.21"/>
<polygon fill="#94a3b8" stroke="#94a3b8" stroke-width="1.1" points="749.22,-585.07 746.84,-578.05 744.32,-585.02 749.22,-585.07"/>
</g>
<!-- @md&#45;oss/http&#45;client -->
<g id="node14" class="node">
<title>@md&#45;oss/http&#45;client</title>
<path fill="#3a2e1e" stroke="#f59e0b" d="M356,-1465C356,-1465 313,-1465 313,-1465 307,-1465 301,-1459 301,-1453 301,-1453 301,-1441 301,-1441 301,-1435 307,-1429 313,-1429 313,-1429 356,-1429 356,-1429 362,-1429 368,-1435 368,-1441 368,-1441 368,-1453 368,-1453 368,-1459 362,-1465 356,-1465"/>
<text text-anchor="middle" x="334.5" y="-1444.5" font-family="Helvetica,sans-Serif" font-size="10.00" fill="#e2e8f0">http&#45;client</text>
</g>
<!-- @md&#45;oss/api&#45;types&#45;&gt;@md&#45;oss/http&#45;client -->
<g id="edge5" class="edge">
<title>@md&#45;oss/api&#45;types&#45;&gt;@md&#45;oss/http&#45;client</title>
<path fill="none" stroke="#94a3b8" stroke-width="1.1" d="M250.12,-1405.86C263.67,-1412.55 279.85,-1420.53 294.33,-1427.67"/>
<polygon fill="#94a3b8" stroke="#94a3b8" stroke-width="1.1" points="293.49,-1429.99 300.85,-1430.89 295.65,-1425.6 293.49,-1429.99"/>
</g>
<!-- @md&#45;oss/api&#45;types&#45;&gt;@md&#45;oss/scripts -->
<g id="edge6" class="edge">
<title>@md&#45;oss/api&#45;types&#45;&gt;@md&#45;oss/scripts</title>
<path fill="none" stroke="#94a3b8" stroke-width="1.1" d="M220.81,-1372.64C224.27,-1302.48 239.97,-1052.28 290,-994 334.28,-942.41 539.13,-894.82 620.02,-877.7"/>
<polygon fill="#94a3b8" stroke="#94a3b8" stroke-width="1.1" points="620.65,-880.08 627,-876.24 619.64,-875.28 620.65,-880.08"/>
</g>
<!-- @md&#45;oss/serdes -->
<g id="node20" class="node">
<title>@md&#45;oss/serdes</title>
<path fill="#3a2e1e" stroke="#f59e0b" d="M567.5,-1358C567.5,-1358 537.5,-1358 537.5,-1358 531.5,-1358 525.5,-1352 525.5,-1346 525.5,-1346 525.5,-1334 525.5,-1334 525.5,-1328 531.5,-1322 537.5,-1322 537.5,-1322 567.5,-1322 567.5,-1322 573.5,-1322 579.5,-1328 579.5,-1334 579.5,-1334 579.5,-1346 579.5,-1346 579.5,-1352 573.5,-1358 567.5,-1358"/>
<text text-anchor="middle" x="552.5" y="-1337.5" font-family="Helvetica,sans-Serif" font-size="10.00" fill="#e2e8f0">serdes</text>
</g>
<!-- @md&#45;oss/api&#45;types&#45;&gt;@md&#45;oss/serdes -->
<g id="edge7" class="edge">
<title>@md&#45;oss/api&#45;types&#45;&gt;@md&#45;oss/serdes</title>
<path fill="none" stroke="#94a3b8" stroke-width="1.1" d="M250.31,-1387.68C298.64,-1382.21 396.09,-1370.45 478,-1356 491.22,-1353.67 505.68,-1350.63 518.25,-1347.82"/>
<polygon fill="#94a3b8" stroke="#94a3b8" stroke-width="1.1" points="519.12,-1350.14 525.41,-1346.21 518.04,-1345.36 519.12,-1350.14"/>
</g>
<!-- @md&#45;oss/auth&#45;&gt;@md&#45;oss/config -->
<g id="edge14" class="edge">
<title>@md&#45;oss/auth&#45;&gt;@md&#45;oss/config</title>
<path fill="none" stroke="#94a3b8" stroke-width="1.1" d="M222.95,-518.92C234.65,-447.78 277.66,-190.41 290,-178 349.46,-118.17 393.78,-147.38 478,-152 568.66,-156.98 615.11,-112.53 681,-175 733.32,-224.61 744.26,-457.43 746.46,-534.88"/>
<polygon fill="#94a3b8" stroke="#94a3b8" stroke-width="1.1" points="744.02,-534.94 746.65,-541.88 748.91,-534.81 744.02,-534.94"/>
</g>
<!-- @md&#45;oss/auth&#45;&gt;@md&#45;oss/db -->
<g id="edge15" class="edge">
<title>@md&#45;oss/auth&#45;&gt;@md&#45;oss/db</title>
<path fill="none" stroke="#94a3b8" stroke-width="1.1" d="M246.1,-543.42C287.64,-553.65 368.77,-573.62 414.36,-584.84"/>
<polygon fill="#94a3b8" stroke="#94a3b8" stroke-width="1.1" points="413.98,-587.27 421.36,-586.56 415.15,-582.51 413.98,-587.27"/>
</g>
<!-- @md&#45;oss/auth&#45;&gt;@md&#45;oss/scripts -->
<g id="edge16" class="edge">
<title>@md&#45;oss/auth&#45;&gt;@md&#45;oss/scripts</title>
<path fill="none" stroke="#94a3b8" stroke-width="1.1" d="M246.25,-531.9C296.32,-523.7 406.82,-513.18 478,-563 508.95,-584.66 492.63,-610.01 518,-638 542.75,-665.31 564.37,-654.91 587,-684 625.54,-733.55 642.66,-807.39 649.32,-845.77"/>
<polygon fill="#94a3b8" stroke="#94a3b8" stroke-width="1.1" points="646.95,-846.46 650.52,-852.96 651.79,-845.65 646.95,-846.46"/>
</g>
<!-- @md&#45;oss/cache -->
<g id="node5" class="node">
<title>@md&#45;oss/cache</title>
<path fill="#3a2e1e" stroke="#f59e0b" d="M349.5,-1139C349.5,-1139 319.5,-1139 319.5,-1139 313.5,-1139 307.5,-1133 307.5,-1127 307.5,-1127 307.5,-1115 307.5,-1115 307.5,-1109 313.5,-1103 319.5,-1103 319.5,-1103 349.5,-1103 349.5,-1103 355.5,-1103 361.5,-1109 361.5,-1115 361.5,-1115 361.5,-1127 361.5,-1127 361.5,-1133 355.5,-1139 349.5,-1139"/>
<text text-anchor="middle" x="334.5" y="-1118.5" font-family="Helvetica,sans-Serif" font-size="10.00" fill="#e2e8f0">cache</text>
</g>
<!-- @md&#45;oss/cache&#45;&gt;@md&#45;oss/common -->
<g id="edge17" class="edge">
<title>@md&#45;oss/cache&#45;&gt;@md&#45;oss/common</title>
<path fill="none" stroke="#94a3b8" stroke-width="1.1" d="M358.1,-1139.3C364.97,-1145.1 372.44,-1151.67 379,-1158 396.06,-1174.47 414.1,-1194.33 427.38,-1209.48"/>
<polygon fill="#94a3b8" stroke="#94a3b8" stroke-width="1.1" points="425.6,-1211.17 432.05,-1214.83 429.3,-1207.95 425.6,-1211.17"/>
</g>
<!-- @md&#45;oss/cache&#45;&gt;@md&#45;oss/config -->
<g id="edge18" class="edge">
<title>@md&#45;oss/cache&#45;&gt;@md&#45;oss/config</title>
<path fill="none" stroke="#94a3b8" stroke-width="1.1" d="M361.68,-1117.29C429.24,-1106.15 609.22,-1066.08 681,-948 718.49,-886.33 739.05,-662.24 745.09,-585.77"/>
<polygon fill="#94a3b8" stroke="#94a3b8" stroke-width="1.1" points="747.56,-585.6 745.66,-578.43 742.68,-585.22 747.56,-585.6"/>
</g>
<!-- @md&#45;oss/cache&#45;&gt;@md&#45;oss/scripts -->
<g id="edge19" class="edge">
<title>@md&#45;oss/cache&#45;&gt;@md&#45;oss/scripts</title>
<path fill="none" stroke="#94a3b8" stroke-width="1.1" d="M361.66,-1110.64C410.5,-1090.31 516.95,-1041.24 587,-974 610.85,-951.11 630.09,-917.98 641.52,-895.53"/>
<polygon fill="#94a3b8" stroke="#94a3b8" stroke-width="1.1" points="643.74,-896.56 644.67,-889.21 639.35,-894.38 643.74,-896.56"/>
</g>
<!-- @md&#45;oss/cache&#45;&gt;@md&#45;oss/serdes -->
<g id="edge20" class="edge">
<title>@md&#45;oss/cache&#45;&gt;@md&#45;oss/serdes</title>
<path fill="none" stroke="#94a3b8" stroke-width="1.1" d="M361.77,-1130.87C392.76,-1143.59 444.3,-1168.28 478,-1203 509.85,-1235.81 531.73,-1285.2 542.89,-1314.85"/>
<polygon fill="#94a3b8" stroke="#94a3b8" stroke-width="1.1" points="540.65,-1315.86 545.37,-1321.58 545.25,-1314.16 540.65,-1315.86"/>
</g>
<!-- @md&#45;oss/cli -->
<g id="node6" class="node">
<title>@md&#45;oss/cli</title>
<path fill="#1e293b" stroke="#38bdf8" d="M349.5,-227C349.5,-227 319.5,-227 319.5,-227 313.5,-227 307.5,-221 307.5,-215 307.5,-215 307.5,-203 307.5,-203 307.5,-197 313.5,-191 319.5,-191 319.5,-191 349.5,-191 349.5,-191 355.5,-191 361.5,-197 361.5,-203 361.5,-203 361.5,-215 361.5,-215 361.5,-221 355.5,-227 349.5,-227"/>
<text text-anchor="middle" x="334.5" y="-206.5" font-family="Helvetica,sans-Serif" font-size="10.00" fill="#e2e8f0">cli</text>
</g>
<!-- @md&#45;oss/cli&#45;&gt;@md&#45;oss/common -->
<g id="edge21" class="edge">
<title>@md&#45;oss/cli&#45;&gt;@md&#45;oss/common</title>
<path fill="none" stroke="#94a3b8" stroke-width="1.1" d="M337.49,-227.21C350.99,-350.58 428.95,-1063.44 444.72,-1207.59"/>
<polygon fill="#94a3b8" stroke="#94a3b8" stroke-width="1.1" points="442.31,-1208.08 445.51,-1214.77 447.18,-1207.55 442.31,-1208.08"/>
</g>
<!-- @md&#45;oss/cli&#45;&gt;@md&#45;oss/config -->
<g id="edge22" class="edge">
<title>@md&#45;oss/cli&#45;&gt;@md&#45;oss/config</title>
<path fill="none" stroke="#94a3b8" stroke-width="1.1" d="M361.52,-210.63C433.85,-215.69 635.07,-233.55 681,-278 717.98,-313.78 738.02,-472.62 744.56,-534.86"/>
<polygon fill="#94a3b8" stroke="#94a3b8" stroke-width="1.1" points="742.14,-535.24 745.3,-541.96 747.02,-534.74 742.14,-535.24"/>
</g>
<!-- @md&#45;oss/utils -->
<g id="node22" class="node">
<title>@md&#45;oss/utils</title>
<path fill="#1e3a3a" stroke="#14b8a6" d="M463.5,-201C463.5,-201 433.5,-201 433.5,-201 427.5,-201 421.5,-195 421.5,-189 421.5,-189 421.5,-177 421.5,-177 421.5,-171 427.5,-165 433.5,-165 433.5,-165 463.5,-165 463.5,-165 469.5,-165 475.5,-171 475.5,-177 475.5,-177 475.5,-189 475.5,-189 475.5,-195 469.5,-201 463.5,-201"/>
<text text-anchor="middle" x="448.5" y="-180.5" font-family="Helvetica,sans-Serif" font-size="10.00" fill="#e2e8f0">utils</text>
</g>
<!-- @md&#45;oss/cli&#45;&gt;@md&#45;oss/utils -->
<g id="edge23" class="edge">
<title>@md&#45;oss/cli&#45;&gt;@md&#45;oss/utils</title>
<path fill="none" stroke="#94a3b8" stroke-width="1.1" d="M361.76,-202.9C377.49,-199.25 397.62,-194.58 414.43,-190.68"/>
<polygon fill="#94a3b8" stroke="#94a3b8" stroke-width="1.1" points="415.14,-193.03 421.41,-189.06 414.03,-188.25 415.14,-193.03"/>
</g>
<!-- @md&#45;oss/common&#45;&gt;@md&#45;oss/config -->
<g id="edge24" class="edge">
<title>@md&#45;oss/common&#45;&gt;@md&#45;oss/config</title>
<path fill="none" stroke="#94a3b8" stroke-width="1.1" d="M478.3,-1238.26C527.68,-1245.45 628.26,-1251.72 681,-1196 723.7,-1150.88 742.19,-698.36 746.16,-585.43"/>
<polygon fill="#94a3b8" stroke="#94a3b8" stroke-width="1.1" points="748.62,-585.27 746.41,-578.19 743.72,-585.1 748.62,-585.27"/>
</g>
<!-- @md&#45;oss/common&#45;&gt;@md&#45;oss/scripts -->
<g id="edge25" class="edge">
<title>@md&#45;oss/common&#45;&gt;@md&#45;oss/scripts</title>
<path fill="none" stroke="#94a3b8" stroke-width="1.1" d="M473.8,-1214.79C504.53,-1190.52 557.03,-1144.7 587,-1094 625.55,-1028.78 643.05,-939.36 649.64,-896.26"/>
<polygon fill="#94a3b8" stroke="#94a3b8" stroke-width="1.1" points="652.08,-896.54 650.68,-889.25 647.23,-895.82 652.08,-896.54"/>
</g>
<!-- @md&#45;oss/common&#45;&gt;@md&#45;oss/serdes -->
<g id="edge26" class="edge">
<title>@md&#45;oss/common&#45;&gt;@md&#45;oss/serdes</title>
<path fill="none" stroke="#94a3b8" stroke-width="1.1" d="M466.8,-1251.15C484.02,-1269.21 510.51,-1297 529.28,-1316.69"/>
<polygon fill="#94a3b8" stroke="#94a3b8" stroke-width="1.1" points="527.51,-1318.38 534.11,-1321.76 531.06,-1315 527.51,-1318.38"/>
</g>
<!-- @md&#45;oss/database -->
<g id="node9" class="node">
<title>@md&#45;oss/database</title>
<path fill="#3a2e1e" stroke="#f59e0b" d="M571.5,-578C571.5,-578 533.5,-578 533.5,-578 527.5,-578 521.5,-572 521.5,-566 521.5,-566 521.5,-554 521.5,-554 521.5,-548 527.5,-542 533.5,-542 533.5,-542 571.5,-542 571.5,-542 577.5,-542 583.5,-548 583.5,-554 583.5,-554 583.5,-566 583.5,-566 583.5,-572 577.5,-578 571.5,-578"/>
<text text-anchor="middle" x="552.5" y="-557.5" font-family="Helvetica,sans-Serif" font-size="10.00" fill="#e2e8f0">database</text>
</g>
<!-- @md&#45;oss/database&#45;&gt;@md&#45;oss/config -->
<g id="edge27" class="edge">
<title>@md&#45;oss/database&#45;&gt;@md&#45;oss/config</title>
<path fill="none" stroke="#94a3b8" stroke-width="1.1" d="M583.73,-560C619.01,-560 677.15,-560 713.69,-560"/>
<polygon fill="#94a3b8" stroke="#94a3b8" stroke-width="1.1" points="713.7,-562.45 720.7,-560 713.7,-557.55 713.7,-562.45"/>
</g>
<!-- @md&#45;oss/database&#45;&gt;@md&#45;oss/scripts -->
<g id="edge28" class="edge">
<title>@md&#45;oss/database&#45;&gt;@md&#45;oss/scripts</title>
<path fill="none" stroke="#94a3b8" stroke-width="1.1" d="M573.24,-578.18C578.37,-583.78 583.44,-590.26 587,-597 631.46,-681.15 646.46,-795.61 651.1,-845.74"/>
<polygon fill="#94a3b8" stroke="#94a3b8" stroke-width="1.1" points="648.68,-846.18 651.74,-852.94 653.56,-845.75 648.68,-846.18"/>
</g>
<!-- @md&#45;oss/db&#45;&gt;@md&#45;oss/config -->
<g id="edge29" class="edge">
<title>@md&#45;oss/db&#45;&gt;@md&#45;oss/config</title>
<path fill="none" stroke="#94a3b8" stroke-width="1.1" d="M451.09,-574.68C456.45,-517.63 475.95,-345.03 518,-312 574.97,-267.25 623.56,-267.85 681,-312 716.58,-339.35 737.03,-477.23 744.13,-534.75"/>
<polygon fill="#94a3b8" stroke="#94a3b8" stroke-width="1.1" points="741.74,-535.34 745.01,-541.99 746.6,-534.75 741.74,-535.34"/>
</g>
<!-- @md&#45;oss/db&#45;&gt;@md&#45;oss/scripts -->
<g id="edge30" class="edge">
<title>@md&#45;oss/db&#45;&gt;@md&#45;oss/scripts</title>
<path fill="none" stroke="#94a3b8" stroke-width="1.1" d="M461.43,-611.25C474.41,-630.58 496.23,-661.62 518,-686 545.86,-717.2 561.32,-716.99 587,-750 610.74,-780.51 630.8,-820.71 642.37,-846.21"/>
<polygon fill="#94a3b8" stroke="#94a3b8" stroke-width="1.1" points="640.17,-847.29 645.27,-852.67 644.64,-845.28 640.17,-847.29"/>
</g>
<!-- @md&#45;oss/db&#45;&gt;@md&#45;oss/serdes -->
<g id="edge31" class="edge">
<title>@md&#45;oss/db&#45;&gt;@md&#45;oss/serdes</title>
<path fill="none" stroke="#94a3b8" stroke-width="1.1" d="M451.97,-611.1C465.65,-711.28 532.06,-1197.63 548.04,-1314.64"/>
<polygon fill="#94a3b8" stroke="#94a3b8" stroke-width="1.1" points="545.64,-1315.21 549.02,-1321.81 550.5,-1314.54 545.64,-1315.21"/>
</g>
<!-- @md&#45;oss/design&#45;system -->
<g id="node11" class="node">
<title>@md&#45;oss/design&#45;system</title>
<path fill="#3a2e1e" stroke="#f59e0b" d="M367,-843C367,-843 302,-843 302,-843 296,-843 290,-837 290,-831 290,-831 290,-819 290,-819 290,-813 296,-807 302,-807 302,-807 367,-807 367,-807 373,-807 379,-813 379,-819 379,-819 379,-831 379,-831 379,-837 373,-843 367,-843"/>
<text text-anchor="middle" x="334.5" y="-822.5" font-family="Helvetica,sans-Serif" font-size="10.00" fill="#e2e8f0">design&#45;system</text>
</g>
<!-- @md&#45;oss/design&#45;system&#45;&gt;@md&#45;oss/common -->
<g id="edge32" class="edge">
<title>@md&#45;oss/design&#45;system&#45;&gt;@md&#45;oss/common</title>
<path fill="none" stroke="#94a3b8" stroke-width="1.1" d="M340.46,-843.06C358.38,-908.35 419.85,-1132.26 440.6,-1207.85"/>
<polygon fill="#94a3b8" stroke="#94a3b8" stroke-width="1.1" points="438.26,-1208.59 442.47,-1214.69 442.98,-1207.29 438.26,-1208.59"/>
</g>
<!-- @md&#45;oss/design&#45;system&#45;&gt;@md&#45;oss/config -->
<g id="edge33" class="edge">
<title>@md&#45;oss/design&#45;system&#45;&gt;@md&#45;oss/config</title>
<path fill="none" stroke="#94a3b8" stroke-width="1.1" d="M361,-806.92C393.99,-781.99 450.47,-733.78 478,-678 531.69,-569.22 426.15,-487.24 518,-408 591.73,-344.39 693.42,-478.77 731.65,-535.92"/>
<polygon fill="#94a3b8" stroke="#94a3b8" stroke-width="1.1" points="729.67,-537.36 735.57,-541.84 733.75,-534.65 729.67,-537.36"/>
</g>
<!-- @md&#45;oss/design&#45;system&#45;&gt;@md&#45;oss/scripts -->
<g id="edge34" class="edge">
<title>@md&#45;oss/design&#45;system&#45;&gt;@md&#45;oss/scripts</title>
<path fill="none" stroke="#94a3b8" stroke-width="1.1" d="M379.23,-832.59C392.03,-834.74 406.07,-837.03 419,-839 490.42,-849.87 574.37,-860.93 619.78,-866.78"/>
<polygon fill="#94a3b8" stroke="#94a3b8" stroke-width="1.1" points="619.74,-869.24 626.99,-867.7 620.36,-864.38 619.74,-869.24"/>
</g>
<!-- @md&#45;oss/discord -->
<g id="node12" class="node">
<title>@md&#45;oss/discord</title>
<path fill="#3a2e1e" stroke="#f59e0b" d="M349.5,-1042C349.5,-1042 319.5,-1042 319.5,-1042 313.5,-1042 307.5,-1036 307.5,-1030 307.5,-1030 307.5,-1018 307.5,-1018 307.5,-1012 313.5,-1006 319.5,-1006 319.5,-1006 349.5,-1006 349.5,-1006 355.5,-1006 361.5,-1012 361.5,-1018 361.5,-1018 361.5,-1030 361.5,-1030 361.5,-1036 355.5,-1042 349.5,-1042"/>
<text text-anchor="middle" x="334.5" y="-1021.5" font-family="Helvetica,sans-Serif" font-size="10.00" fill="#e2e8f0">discord</text>
</g>
<!-- @md&#45;oss/discord&#45;&gt;@md&#45;oss/common -->
<g id="edge35" class="edge">
<title>@md&#45;oss/discord&#45;&gt;@md&#45;oss/common</title>
<path fill="none" stroke="#94a3b8" stroke-width="1.1" d="M348.14,-1042.1C357.19,-1055.36 369.41,-1073.96 379,-1091 401.5,-1130.97 423.89,-1179.45 436.68,-1208.18"/>
<polygon fill="#94a3b8" stroke="#94a3b8" stroke-width="1.1" points="434.49,-1209.29 439.56,-1214.69 438.97,-1207.3 434.49,-1209.29"/>
</g>
<!-- @md&#45;oss/discord&#45;&gt;@md&#45;oss/config -->
<g id="edge36" class="edge">
<title>@md&#45;oss/discord&#45;&gt;@md&#45;oss/config</title>
<path fill="none" stroke="#94a3b8" stroke-width="1.1" d="M361.51,-1024.61C429.47,-1024.59 611.9,-1013.72 681,-902 714.14,-848.41 737.06,-655.42 744.44,-585.51"/>
<polygon fill="#94a3b8" stroke="#94a3b8" stroke-width="1.1" points="746.9,-585.59 745.19,-578.37 742.02,-585.08 746.9,-585.59"/>
</g>
<!-- @md&#45;oss/discord&#45;&gt;@md&#45;oss/scripts -->
<g id="edge37" class="edge">
<title>@md&#45;oss/discord&#45;&gt;@md&#45;oss/scripts</title>
<path fill="none" stroke="#94a3b8" stroke-width="1.1" d="M361.61,-1017.14C417.84,-1002.09 548.4,-965.56 587,-941 606.03,-928.89 623.35,-910.07 635.47,-894.99"/>
<polygon fill="#94a3b8" stroke="#94a3b8" stroke-width="1.1" points="637.62,-896.23 640.02,-889.21 633.76,-893.2 637.62,-896.23"/>
</g>
<!-- @md&#45;oss/email&#45;&gt;@md&#45;oss/config -->
<g id="edge38" class="edge">
<title>@md&#45;oss/email&#45;&gt;@md&#45;oss/config</title>
<path fill="none" stroke="#94a3b8" stroke-width="1.1" d="M246.15,-731.96C299.12,-724.32 419.01,-699.2 478,-624 544.47,-539.26 435.8,-454.59 518,-385 574.1,-337.51 625.7,-364.58 681,-413 717.79,-445.21 735.11,-501.96 742.39,-534.73"/>
<polygon fill="#94a3b8" stroke="#94a3b8" stroke-width="1.1" points="740.03,-535.39 743.88,-541.73 744.82,-534.37 740.03,-535.39"/>
</g>
<!-- @md&#45;oss/email&#45;&gt;@md&#45;oss/design&#45;system -->
<g id="edge39" class="edge">
<title>@md&#45;oss/email&#45;&gt;@md&#45;oss/design&#45;system</title>
<path fill="none" stroke="#94a3b8" stroke-width="1.1" d="M242.97,-753.21C260.81,-767.36 285.67,-787.07 304.82,-802.26"/>
<polygon fill="#94a3b8" stroke="#94a3b8" stroke-width="1.1" points="303.56,-804.38 310.57,-806.81 306.6,-800.55 303.56,-804.38"/>
</g>
<!-- @md&#45;oss/email&#45;&gt;@md&#45;oss/scripts -->
<g id="edge40" class="edge">
<title>@md&#45;oss/email&#45;&gt;@md&#45;oss/scripts</title>
<path fill="none" stroke="#94a3b8" stroke-width="1.1" d="M246.41,-742.54C306.95,-759.94 460.32,-804.67 587,-847 597.81,-850.61 609.53,-854.79 620.06,-858.64"/>
<polygon fill="#94a3b8" stroke="#94a3b8" stroke-width="1.1" points="619.36,-860.99 626.78,-861.11 621.05,-856.39 619.36,-860.99"/>
</g>
<!-- @md&#45;oss/http&#45;client&#45;&gt;@md&#45;oss/common -->
<g id="edge41" class="edge">
<title>@md&#45;oss/http&#45;client&#45;&gt;@md&#45;oss/common</title>
<path fill="none" stroke="#94a3b8" stroke-width="1.1" d="M345.44,-1428.71C354.31,-1412.33 367.63,-1387.61 379,-1366 398.84,-1328.28 421.39,-1284.27 435.02,-1257.53"/>
<polygon fill="#94a3b8" stroke="#94a3b8" stroke-width="1.1" points="437.3,-1258.47 438.29,-1251.12 432.93,-1256.25 437.3,-1258.47"/>
</g>
<!-- @md&#45;oss/http&#45;client&#45;&gt;@md&#45;oss/config -->
<g id="edge42" class="edge">
<title>@md&#45;oss/http&#45;client&#45;&gt;@md&#45;oss/config</title>
<path fill="none" stroke="#94a3b8" stroke-width="1.1" d="M354.84,-1465.09C386.15,-1492.84 451.21,-1544.24 518,-1559 547.94,-1565.62 559,-1571.51 587,-1559 644.18,-1533.44 656.5,-1511.64 681,-1454 750.17,-1291.28 748.55,-713.11 747.31,-585.18"/>
<polygon fill="#94a3b8" stroke="#94a3b8" stroke-width="1.1" points="749.76,-585.05 747.23,-578.08 744.86,-585.1 749.76,-585.05"/>
</g>
<!-- @md&#45;oss/http&#45;client&#45;&gt;@md&#45;oss/scripts -->
<g id="edge43" class="edge">
<title>@md&#45;oss/http&#45;client&#45;&gt;@md&#45;oss/scripts</title>
<path fill="none" stroke="#94a3b8" stroke-width="1.1" d="M368.02,-1450.04C397.45,-1451.71 441.64,-1451.52 478,-1440 532.66,-1422.69 556.12,-1419.31 587,-1371 638.26,-1290.82 650.06,-986.26 652.45,-896.22"/>
<polygon fill="#94a3b8" stroke="#94a3b8" stroke-width="1.1" points="654.9,-896.2 652.63,-889.14 650,-896.08 654.9,-896.2"/>
</g>
<!-- @md&#45;oss/http&#45;client&#45;&gt;@md&#45;oss/serdes -->
<g id="edge44" class="edge">
<title>@md&#45;oss/http&#45;client&#45;&gt;@md&#45;oss/serdes</title>
<path fill="none" stroke="#94a3b8" stroke-width="1.1" d="M368.08,-1443.3C398.15,-1438.82 443.26,-1429.32 478,-1410 489.37,-1403.67 512.09,-1381.34 529.28,-1363.58"/>
<polygon fill="#94a3b8" stroke="#94a3b8" stroke-width="1.1" points="531.33,-1364.98 534.42,-1358.24 527.8,-1361.59 531.33,-1364.98"/>
</g>
<!-- @md&#45;oss/migrations -->
<g id="node15" class="node">
<title>@md&#45;oss/migrations</title>
<path fill="#3a2e1e" stroke="#f59e0b" d="M575,-517C575,-517 530,-517 530,-517 524,-517 518,-511 518,-505 518,-505 518,-493 518,-493 518,-487 524,-481 530,-481 530,-481 575,-481 575,-481 581,-481 587,-487 587,-493 587,-493 587,-505 587,-505 587,-511 581,-517 575,-517"/>
<text text-anchor="middle" x="552.5" y="-496.5" font-family="Helvetica,sans-Serif" font-size="10.00" fill="#e2e8f0">migrations</text>
</g>
<!-- @md&#45;oss/migrations&#45;&gt;@md&#45;oss/config -->
<g id="edge45" class="edge">
<title>@md&#45;oss/migrations&#45;&gt;@md&#45;oss/config</title>
<path fill="none" stroke="#94a3b8" stroke-width="1.1" d="M587.21,-509.63C622.84,-520.86 678.67,-538.46 714.02,-549.6"/>
<polygon fill="#94a3b8" stroke="#94a3b8" stroke-width="1.1" points="713.4,-551.98 720.81,-551.74 714.87,-547.3 713.4,-551.98"/>
</g>
<!-- @md&#45;oss/migrations&#45;&gt;@md&#45;oss/scripts -->
<g id="edge46" class="edge">
<title>@md&#45;oss/migrations&#45;&gt;@md&#45;oss/scripts</title>
<path fill="none" stroke="#94a3b8" stroke-width="1.1" d="M577.27,-517.33C581,-521.16 584.46,-525.43 587,-530 646.03,-636.12 653.03,-786.3 653.33,-845.55"/>
<polygon fill="#94a3b8" stroke="#94a3b8" stroke-width="1.1" points="650.88,-845.65 653.34,-852.65 655.78,-845.64 650.88,-845.65"/>
</g>
<!-- @md&#45;oss/mutex -->
<g id="node16" class="node">
<title>@md&#45;oss/mutex</title>
<path fill="#3a2e1e" stroke="#f59e0b" d="M567.5,-456C567.5,-456 537.5,-456 537.5,-456 531.5,-456 525.5,-450 525.5,-444 525.5,-444 525.5,-432 525.5,-432 525.5,-426 531.5,-420 537.5,-420 537.5,-420 567.5,-420 567.5,-420 573.5,-420 579.5,-426 579.5,-432 579.5,-432 579.5,-444 579.5,-444 579.5,-450 573.5,-456 567.5,-456"/>
<text text-anchor="middle" x="552.5" y="-435.5" font-family="Helvetica,sans-Serif" font-size="10.00" fill="#e2e8f0">mutex</text>
</g>
<!-- @md&#45;oss/mutex&#45;&gt;@md&#45;oss/config -->
<g id="edge47" class="edge">
<title>@md&#45;oss/mutex&#45;&gt;@md&#45;oss/config</title>
<path fill="none" stroke="#94a3b8" stroke-width="1.1" d="M579.57,-453.54C605.47,-469.08 646.23,-493.79 681,-516 692.16,-523.13 704.25,-531.12 715,-538.3"/>
<polygon fill="#94a3b8" stroke="#94a3b8" stroke-width="1.1" points="713.64,-540.34 720.82,-542.21 716.37,-536.27 713.64,-540.34"/>
</g>
<!-- @md&#45;oss/mutex&#45;&gt;@md&#45;oss/scripts -->
<g id="edge48" class="edge">
<title>@md&#45;oss/mutex&#45;&gt;@md&#45;oss/scripts</title>
<path fill="none" stroke="#94a3b8" stroke-width="1.1" d="M577.37,-456.27C581.1,-460.1 584.52,-464.39 587,-469 622.54,-535.09 644.51,-767.85 650.99,-845.54"/>
<polygon fill="#94a3b8" stroke="#94a3b8" stroke-width="1.1" points="648.58,-846.21 651.6,-852.98 653.47,-845.81 648.58,-846.21"/>
</g>
<!-- @md&#45;oss/observability -->
<g id="node17" class="node">
<title>@md&#45;oss/observability</title>
<path fill="#3a2e1e" stroke="#f59e0b" d="M362.5,-1639C362.5,-1639 306.5,-1639 306.5,-1639 300.5,-1639 294.5,-1633 294.5,-1627 294.5,-1627 294.5,-1615 294.5,-1615 294.5,-1609 300.5,-1603 306.5,-1603 306.5,-1603 362.5,-1603 362.5,-1603 368.5,-1603 374.5,-1609 374.5,-1615 374.5,-1615 374.5,-1627 374.5,-1627 374.5,-1633 368.5,-1639 362.5,-1639"/>
<text text-anchor="middle" x="334.5" y="-1618.5" font-family="Helvetica,sans-Serif" font-size="10.00" fill="#e2e8f0">observability</text>
</g>
<!-- @md&#45;oss/observability&#45;&gt;@md&#45;oss/common -->
<g id="edge49" class="edge">
<title>@md&#45;oss/observability&#45;&gt;@md&#45;oss/common</title>
<path fill="none" stroke="#94a3b8" stroke-width="1.1" d="M341.12,-1602.98C349.54,-1575.9 365.84,-1523.09 379,-1478 402.38,-1397.88 428.57,-1302.54 440.68,-1258.11"/>
<polygon fill="#94a3b8" stroke="#94a3b8" stroke-width="1.1" points="443.09,-1258.57 442.57,-1251.17 438.37,-1257.28 443.09,-1258.57"/>
</g>
<!-- @md&#45;oss/observability&#45;&gt;@md&#45;oss/config -->
<g id="edge50" class="edge">
<title>@md&#45;oss/observability&#45;&gt;@md&#45;oss/config</title>
<path fill="none" stroke="#94a3b8" stroke-width="1.1" d="M374.57,-1623.76C451.75,-1626.74 621.44,-1620.28 681,-1513 727.27,-1429.67 743.66,-727.5 746.52,-585.12"/>
<polygon fill="#94a3b8" stroke="#94a3b8" stroke-width="1.1" points="748.98,-585.07 746.66,-578.03 744.08,-584.98 748.98,-585.07"/>
</g>
<!-- @md&#45;oss/observability&#45;&gt;@md&#45;oss/scripts -->
<g id="edge51" class="edge">
<title>@md&#45;oss/observability&#45;&gt;@md&#45;oss/scripts</title>
<path fill="none" stroke="#94a3b8" stroke-width="1.1" d="M357.64,-1602.94C391.93,-1575 459.98,-1519.65 518,-1473 548.56,-1448.43 567.89,-1452.25 587,-1418 638,-1326.61 650.03,-991.79 652.45,-896.47"/>
<polygon fill="#94a3b8" stroke="#94a3b8" stroke-width="1.1" points="654.91,-896.32 652.63,-889.27 650.01,-896.2 654.91,-896.32"/>
</g>
<!-- @md&#45;oss/observability&#45;&gt;@md&#45;oss/serdes -->
<g id="edge52" class="edge">
<title>@md&#45;oss/observability&#45;&gt;@md&#45;oss/serdes</title>
<path fill="none" stroke="#94a3b8" stroke-width="1.1" d="M350.06,-1602.91C376.08,-1570.51 432.11,-1500.32 478,-1440 497.59,-1414.25 519.49,-1384.3 534.25,-1363.94"/>
<polygon fill="#94a3b8" stroke="#94a3b8" stroke-width="1.1" points="536.28,-1365.31 538.4,-1358.2 532.31,-1362.43 536.28,-1365.31"/>
</g>
<!-- @md&#45;oss/scripts&#45;&gt;@md&#45;oss/config -->
<g id="edge53" class="edge">
<title>@md&#45;oss/scripts&#45;&gt;@md&#45;oss/config</title>
<path fill="none" stroke="#94a3b8" stroke-width="1.1" d="M660.34,-852.94C675.97,-800.12 721.6,-645.86 739.59,-585.05"/>
<polygon fill="#94a3b8" stroke="#94a3b8" stroke-width="1.1" points="742,-585.52 741.64,-578.11 737.31,-584.13 742,-585.52"/>
</g>
<!-- @md&#45;oss/security -->
<g id="node19" class="node">
<title>@md&#45;oss/security</title>
<path fill="#3a2e1e" stroke="#f59e0b" d="M350.5,-1353C350.5,-1353 318.5,-1353 318.5,-1353 312.5,-1353 306.5,-1347 306.5,-1341 306.5,-1341 306.5,-1329 306.5,-1329 306.5,-1323 312.5,-1317 318.5,-1317 318.5,-1317 350.5,-1317 350.5,-1317 356.5,-1317 362.5,-1323 362.5,-1329 362.5,-1329 362.5,-1341 362.5,-1341 362.5,-1347 356.5,-1353 350.5,-1353"/>
<text text-anchor="middle" x="334.5" y="-1332.5" font-family="Helvetica,sans-Serif" font-size="10.00" fill="#e2e8f0">security</text>
</g>
<!-- @md&#45;oss/security&#45;&gt;@md&#45;oss/common -->
<g id="edge54" class="edge">
<title>@md&#45;oss/security&#45;&gt;@md&#45;oss/common</title>
<path fill="none" stroke="#94a3b8" stroke-width="1.1" d="M357.38,-1316.79C364.36,-1310.87 372.07,-1304.23 379,-1298 394.05,-1284.48 410.5,-1268.9 423.51,-1256.38"/>
<polygon fill="#94a3b8" stroke="#94a3b8" stroke-width="1.1" points="425.52,-1257.84 428.86,-1251.21 422.12,-1254.31 425.52,-1257.84"/>
</g>
<!-- @md&#45;oss/security&#45;&gt;@md&#45;oss/config -->
<g id="edge55" class="edge">
<title>@md&#45;oss/security&#45;&gt;@md&#45;oss/config</title>
<path fill="none" stroke="#94a3b8" stroke-width="1.1" d="M344.82,-1353.31C376.46,-1412.91 483.5,-1594.15 587,-1534 659.97,-1491.59 656.09,-1449.64 681,-1369 727.9,-1217.17 743.39,-704.99 746.41,-585.2"/>
<polygon fill="#94a3b8" stroke="#94a3b8" stroke-width="1.1" points="748.86,-585.26 746.58,-578.2 743.96,-585.14 748.86,-585.26"/>
</g>
<!-- @md&#45;oss/security&#45;&gt;@md&#45;oss/scripts -->
<g id="edge56" class="edge">
<title>@md&#45;oss/security&#45;&gt;@md&#45;oss/scripts</title>
<path fill="none" stroke="#94a3b8" stroke-width="1.1" d="M362.73,-1324.63C392.57,-1312.55 441.1,-1290.81 478,-1264 533.94,-1223.36 553.66,-1213.57 587,-1153 634.48,-1066.72 647.94,-947.39 651.65,-896.09"/>
<polygon fill="#94a3b8" stroke="#94a3b8" stroke-width="1.1" points="654.1,-896.17 652.12,-889.02 649.21,-895.84 654.1,-896.17"/>
</g>
<!-- @md&#45;oss/security&#45;&gt;@md&#45;oss/serdes -->
<g id="edge57" class="edge">
<title>@md&#45;oss/security&#45;&gt;@md&#45;oss/serdes</title>
<path fill="none" stroke="#94a3b8" stroke-width="1.1" d="M362.86,-1335.63C402.45,-1336.55 475.66,-1338.24 518.3,-1339.23"/>
<polygon fill="#94a3b8" stroke="#94a3b8" stroke-width="1.1" points="518.32,-1341.68 525.38,-1339.4 518.44,-1336.78 518.32,-1341.68"/>
</g>
<!-- @md&#45;oss/serdes&#45;&gt;@md&#45;oss/config -->
<g id="edge58" class="edge">
<title>@md&#45;oss/serdes&#45;&gt;@md&#45;oss/config</title>
<path fill="none" stroke="#94a3b8" stroke-width="1.1" d="M579.71,-1329.41C609.83,-1315.72 658.04,-1288.81 681,-1249 748.06,-1132.75 748.34,-694.82 747.32,-585.06"/>
<polygon fill="#94a3b8" stroke="#94a3b8" stroke-width="1.1" points="749.77,-585 747.25,-578.03 744.87,-585.05 749.77,-585"/>
</g>
<!-- @md&#45;oss/serdes&#45;&gt;@md&#45;oss/scripts -->
<g id="edge59" class="edge">
<title>@md&#45;oss/serdes&#45;&gt;@md&#45;oss/scripts</title>
<path fill="none" stroke="#94a3b8" stroke-width="1.1" d="M573.97,-1321.63C578.97,-1316.11 583.8,-1309.73 587,-1303 621.79,-1229.81 644.47,-977.99 651.03,-896.59"/>
<polygon fill="#94a3b8" stroke="#94a3b8" stroke-width="1.1" points="653.5,-896.43 651.62,-889.26 648.62,-896.04 653.5,-896.43"/>
</g>
<!-- @md&#45;oss/server -->
<g id="node21" class="node">
<title>@md&#45;oss/server</title>
<path fill="#1e293b" stroke="#38bdf8" d="M42,-283C42,-283 12,-283 12,-283 6,-283 0,-277 0,-271 0,-271 0,-259 0,-259 0,-253 6,-247 12,-247 12,-247 42,-247 42,-247 48,-247 54,-253 54,-259 54,-259 54,-271 54,-271 54,-277 48,-283 42,-283"/>
<text text-anchor="middle" x="27" y="-262.5" font-family="Helvetica,sans-Serif" font-size="10.00" fill="#e2e8f0">server</text>
</g>
<!-- @md&#45;oss/server&#45;&gt;@md&#45;oss/api -->
<g id="edge60" class="edge">
<title>@md&#45;oss/server&#45;&gt;@md&#45;oss/api</title>
<path fill="none" stroke="#94a3b8" stroke-width="1.1" d="M32.44,-283.14C47.46,-344.54 96.45,-544.77 113.82,-615.76"/>
<polygon fill="#94a3b8" stroke="#94a3b8" stroke-width="1.1" points="111.46,-616.39 115.5,-622.61 116.22,-615.22 111.46,-616.39"/>
</g>
<!-- @md&#45;oss/server&#45;&gt;@md&#45;oss/auth -->
<g id="edge61" class="edge">
<title>@md&#45;oss/server&#45;&gt;@md&#45;oss/auth</title>
<path fill="none" stroke="#94a3b8" stroke-width="1.1" d="M40.76,-283.27C74.09,-330.98 163.75,-459.34 201.2,-512.95"/>
<polygon fill="#94a3b8" stroke="#94a3b8" stroke-width="1.1" points="199.28,-514.47 205.29,-518.81 203.29,-511.67 199.28,-514.47"/>
</g>
<!-- @md&#45;oss/server&#45;&gt;@md&#45;oss/config -->
<g id="edge62" class="edge">
<title>@md&#45;oss/server&#45;&gt;@md&#45;oss/config</title>
<path fill="none" stroke="#94a3b8" stroke-width="1.1" d="M31.69,-246.79C45,-186.91 96.29,0 218,0 218,0 218,0 553.5,0 623.64,0 644.91,-32.86 681,-93 726.5,-168.81 742.2,-449.05 746,-534.86"/>
<polygon fill="#94a3b8" stroke="#94a3b8" stroke-width="1.1" points="743.55,-534.97 746.3,-541.86 748.45,-534.76 743.55,-534.97"/>
</g>
<!-- @md&#45;oss/server&#45;&gt;@md&#45;oss/db -->
<g id="edge63" class="edge">
<title>@md&#45;oss/server&#45;&gt;@md&#45;oss/db</title>
<path fill="none" stroke="#94a3b8" stroke-width="1.1" d="M53.01,-283.15C77.42,-300.96 115.52,-329.01 148,-354 249.23,-431.89 367.09,-527.39 419.69,-570.26"/>
<polygon fill="#94a3b8" stroke="#94a3b8" stroke-width="1.1" points="418.2,-572.21 425.17,-574.74 421.3,-568.41 418.2,-572.21"/>
</g>
<!-- @md&#45;oss/server&#45;&gt;@md&#45;oss/utils -->
<g id="edge64" class="edge">
<title>@md&#45;oss/server&#45;&gt;@md&#45;oss/utils</title>
<path fill="none" stroke="#94a3b8" stroke-width="1.1" d="M54.07,-253.21C100.39,-232.99 200.58,-192.46 290,-178 332.56,-171.12 382.4,-174.6 414.43,-178.3"/>
<polygon fill="#94a3b8" stroke="#94a3b8" stroke-width="1.1" points="414.14,-180.73 421.39,-179.14 414.73,-175.87 414.14,-180.73"/>
</g>
<!-- @md&#45;oss/utils&#45;&gt;@md&#45;oss/config -->
<g id="edge65" class="edge">
<title>@md&#45;oss/utils&#45;&gt;@md&#45;oss/config</title>
<path fill="none" stroke="#94a3b8" stroke-width="1.1" d="M475.76,-177.15C523.43,-168.21 624.47,-157.3 681,-210 728.56,-254.33 742.52,-461.98 745.99,-534.74"/>
<polygon fill="#94a3b8" stroke="#94a3b8" stroke-width="1.1" points="743.54,-534.86 746.31,-541.74 748.44,-534.64 743.54,-534.86"/>
</g>
<!-- @md&#45;oss/utils&#45;&gt;@md&#45;oss/scripts -->
<g id="edge66" class="edge">
<title>@md&#45;oss/utils&#45;&gt;@md&#45;oss/scripts</title>
<path fill="none" stroke="#94a3b8" stroke-width="1.1" d="M450.88,-201.35C456.41,-271.58 478.6,-522.72 518,-591 537.88,-625.45 565.07,-614.82 587,-648 628.88,-711.36 644.85,-802.02 650.37,-845.64"/>
<polygon fill="#94a3b8" stroke="#94a3b8" stroke-width="1.1" points="647.96,-846.07 651.23,-852.73 652.82,-845.48 647.96,-846.07"/>
</g>
<!-- @md&#45;oss/web -->
<g id="node23" class="node">
<title>@md&#45;oss/web</title>
<path fill="#1e293b" stroke="#38bdf8" d="M42,-763C42,-763 12,-763 12,-763 6,-763 0,-757 0,-751 0,-751 0,-739 0,-739 0,-733 6,-727 12,-727 12,-727 42,-727 42,-727 48,-727 54,-733 54,-739 54,-739 54,-751 54,-751 54,-757 48,-763 42,-763"/>
<text text-anchor="middle" x="27" y="-742.5" font-family="Helvetica,sans-Serif" font-size="10.00" fill="#e2e8f0">web</text>
</g>
<!-- @md&#45;oss/web&#45;&gt;@md&#45;oss/api -->
<g id="edge67" class="edge">
<title>@md&#45;oss/web&#45;&gt;@md&#45;oss/api</title>
<path fill="none" stroke="#94a3b8" stroke-width="1.1" d="M44.03,-726.88C59.23,-709.69 82.19,-683.74 98.88,-664.87"/>
<polygon fill="#94a3b8" stroke="#94a3b8" stroke-width="1.1" points="101.05,-666.12 103.85,-659.26 97.38,-662.88 101.05,-666.12"/>
</g>
<!-- @md&#45;oss/web&#45;&gt;@md&#45;oss/auth -->
<g id="edge68" class="edge">
<title>@md&#45;oss/web&#45;&gt;@md&#45;oss/auth</title>
<path fill="none" stroke="#94a3b8" stroke-width="1.1" d="M33.33,-726.58C42.14,-698.78 61.99,-645.69 94,-611 119.55,-583.31 157.83,-562.63 185.09,-550.27"/>
<polygon fill="#94a3b8" stroke="#94a3b8" stroke-width="1.1" points="186.36,-552.39 191.77,-547.31 184.37,-547.91 186.36,-552.39"/>
</g>
<!-- @md&#45;oss/web&#45;&gt;@md&#45;oss/common -->
<g id="edge69" class="edge">
<title>@md&#45;oss/web&#45;&gt;@md&#45;oss/common</title>
<path fill="none" stroke="#94a3b8" stroke-width="1.1" d="M32.42,-763.1C50.42,-832.7 125.31,-1084.72 290,-1196 326.57,-1220.71 377.57,-1229.02 411.52,-1231.76"/>
<polygon fill="#94a3b8" stroke="#94a3b8" stroke-width="1.1" points="411.76,-1234.24 418.92,-1232.29 412.11,-1229.35 411.76,-1234.24"/>
</g>
<!-- @md&#45;oss/web&#45;&gt;@md&#45;oss/design&#45;system -->
<g id="edge70" class="edge">
<title>@md&#45;oss/web&#45;&gt;@md&#45;oss/design&#45;system</title>
<path fill="none" stroke="#94a3b8" stroke-width="1.1" d="M54.05,-751.82C104.65,-765.07 217.06,-794.51 282.85,-811.74"/>
<polygon fill="#94a3b8" stroke="#94a3b8" stroke-width="1.1" points="282.46,-814.17 289.85,-813.57 283.7,-809.43 282.46,-814.17"/>
</g>
</g>
</svg>
