<?xml version="1.0" encoding="UTF-8" standalone="no"?>
<!DOCTYPE svg PUBLIC "-//W3C//DTD SVG 1.1//EN"
 "http://www.w3.org/Graphics/SVG/1.1/DTD/svg11.dtd">
<!-- Generated by graphviz version 2.43.0 (0)
 -->
<!-- Title: G Pages: 1 -->
<svg width="405pt" height="434pt"
 viewBox="0.00 0.00 404.80 434.46" xmlns="http://www.w3.org/2000/svg" xmlns:xlink="http://www.w3.org/1999/xlink">
<g id="graph0" class="graph" transform="scale(1 1) rotate(0) translate(14.4 420.06)">
<title>G</title>
<polygon fill="#202020" stroke="transparent" points="-14.4,14.4 -14.4,-420.06 390.4,-420.06 390.4,14.4 -14.4,14.4"/>
<text text-anchor="middle" x="188" y="-390.46" font-family="Times,serif" font-size="14.00" fill="#eeeeee">Workspace dependency graph: packages</text>
<!-- @md&#45;oss/api -->
<g id="node1" class="node">
<title>@md&#45;oss/api</title>
<path fill="#1e293b" stroke="#38bdf8" d="M42,-184C42,-184 12,-184 12,-184 6,-184 0,-178 0,-172 0,-172 0,-160 0,-160 0,-154 6,-148 12,-148 12,-148 42,-148 42,-148 48,-148 54,-154 54,-160 54,-160 54,-172 54,-172 54,-178 48,-184 42,-184"/>
<text text-anchor="middle" x="27" y="-163.5" font-family="Helvetica,sans-Serif" font-size="10.00" fill="#e2e8f0">api</text>
</g>
<!-- @md&#45;oss/auth -->
<g id="node2" class="node">
<title>@md&#45;oss/auth</title>
<path fill="#1e293b" stroke="#38bdf8" d="M138.5,-226C138.5,-226 108.5,-226 108.5,-226 102.5,-226 96.5,-220 96.5,-214 96.5,-214 96.5,-202 96.5,-202 96.5,-196 102.5,-190 108.5,-190 108.5,-190 138.5,-190 138.5,-190 144.5,-190 150.5,-196 150.5,-202 150.5,-202 150.5,-214 150.5,-214 150.5,-220 144.5,-226 138.5,-226"/>
<text text-anchor="middle" x="123.5" y="-205.5" font-family="Helvetica,sans-Serif" font-size="10.00" fill="#e2e8f0">auth</text>
</g>
<!-- @md&#45;oss/api&#45;&gt;@md&#45;oss/auth -->
<g id="edge1" class="edge">
<title>@md&#45;oss/api&#45;&gt;@md&#45;oss/auth</title>
<path fill="none" stroke="#94a3b8" stroke-width="1.1" d="M54.07,-177.59C65.03,-182.46 77.91,-188.18 89.52,-193.34"/>
<polygon fill="#94a3b8" stroke="#94a3b8" stroke-width="1.1" points="88.79,-195.7 96.18,-196.3 90.78,-191.22 88.79,-195.7"/>
</g>
<!-- @md&#45;oss/common -->
<g id="node3" class="node">
<title>@md&#45;oss/common</title>
<path fill="#0f172a" stroke="#64748b" d="M141,-36C141,-36 106,-36 106,-36 100,-36 94,-30 94,-24 94,-24 94,-12 94,-12 94,-6 100,0 106,0 106,0 141,0 141,0 147,0 153,-6 153,-12 153,-12 153,-24 153,-24 153,-30 147,-36 141,-36"/>
<text text-anchor="middle" x="123.5" y="-15.5" font-family="Helvetica,sans-Serif" font-size="10.00" fill="#e2e8f0">common</text>
</g>
<!-- @md&#45;oss/api&#45;&gt;@md&#45;oss/common -->
<g id="edge2" class="edge">
<title>@md&#45;oss/api&#45;&gt;@md&#45;oss/common</title>
<path fill="none" stroke="#94a3b8" stroke-width="1.1" d="M37.87,-147.91C50.25,-125.59 72.47,-86.72 94,-55 96.94,-50.66 100.22,-46.16 103.47,-41.85"/>
<polygon fill="#94a3b8" stroke="#94a3b8" stroke-width="1.1" points="105.54,-43.17 107.85,-36.12 101.65,-40.19 105.54,-43.17"/>
</g>
<!-- @md&#45;oss/config -->
<g id="node4" class="node">
<title>@md&#45;oss/config</title>
<path fill="#0f172a" stroke="#64748b" d="M346.5,-303C346.5,-303 316.5,-303 316.5,-303 310.5,-303 304.5,-297 304.5,-291 304.5,-291 304.5,-279 304.5,-279 304.5,-273 310.5,-267 316.5,-267 316.5,-267 346.5,-267 346.5,-267 352.5,-267 358.5,-273 358.5,-279 358.5,-279 358.5,-291 358.5,-291 358.5,-297 352.5,-303 346.5,-303"/>
<text text-anchor="middle" x="331.5" y="-282.5" font-family="Helvetica,sans-Serif" font-size="10.00" fill="#e2e8f0">config</text>
</g>
<!-- @md&#45;oss/api&#45;&gt;@md&#45;oss/config -->
<g id="edge3" class="edge">
<title>@md&#45;oss/api&#45;&gt;@md&#45;oss/config</title>
<path fill="none" stroke="#94a3b8" stroke-width="1.1" d="M34.79,-184.1C52.56,-228.27 105.22,-340.51 193,-375 215.34,-383.78 225.8,-386.24 247,-375 274.99,-360.16 264.86,-338.66 287,-316 290.56,-312.35 294.6,-308.84 298.75,-305.57"/>
<polygon fill="#94a3b8" stroke="#94a3b8" stroke-width="1.1" points="300.33,-307.46 304.44,-301.29 297.38,-303.54 300.33,-307.46"/>
</g>
<!-- @md&#45;oss/db -->
<g id="node5" class="node">
<title>@md&#45;oss/db</title>
<path fill="#1e293b" stroke="#38bdf8" d="M235,-362C235,-362 205,-362 205,-362 199,-362 193,-356 193,-350 193,-350 193,-338 193,-338 193,-332 199,-326 205,-326 205,-326 235,-326 235,-326 241,-326 247,-332 247,-338 247,-338 247,-350 247,-350 247,-356 241,-362 235,-362"/>
<text text-anchor="middle" x="220" y="-341.5" font-family="Helvetica,sans-Serif" font-size="10.00" fill="#e2e8f0">db</text>
</g>
<!-- @md&#45;oss/api&#45;&gt;@md&#45;oss/db -->
<g id="edge4" class="edge">
<title>@md&#45;oss/api&#45;&gt;@md&#45;oss/db</title>
<path fill="none" stroke="#94a3b8" stroke-width="1.1" d="M43.09,-184.03C56.06,-199.21 75.55,-221.21 94,-239 125.3,-269.18 163.97,-300.89 189.94,-321.46"/>
<polygon fill="#94a3b8" stroke="#94a3b8" stroke-width="1.1" points="188.59,-323.52 195.61,-325.93 191.63,-319.67 188.59,-323.52"/>
</g>
<!-- @md&#45;oss/email -->
<g id="node7" class="node">
<title>@md&#45;oss/email</title>
<path fill="#1e293b" stroke="#38bdf8" d="M235,-87C235,-87 205,-87 205,-87 199,-87 193,-81 193,-75 193,-75 193,-63 193,-63 193,-57 199,-51 205,-51 205,-51 235,-51 235,-51 241,-51 247,-57 247,-63 247,-63 247,-75 247,-75 247,-81 241,-87 235,-87"/>
<text text-anchor="middle" x="220" y="-66.5" font-family="Helvetica,sans-Serif" font-size="10.00" fill="#e2e8f0">email</text>
</g>
<!-- @md&#45;oss/api&#45;&gt;@md&#45;oss/email -->
<g id="edge5" class="edge">
<title>@md&#45;oss/api&#45;&gt;@md&#45;oss/email</title>
<path fill="none" stroke="#94a3b8" stroke-width="1.1" d="M43.69,-147.88C56.12,-134.56 74.57,-116.94 94,-106 122.84,-89.76 159.53,-80 185.68,-74.62"/>
<polygon fill="#94a3b8" stroke="#94a3b8" stroke-width="1.1" points="186.37,-76.98 192.76,-73.21 185.42,-72.17 186.37,-76.98"/>
</g>
<!-- @md&#45;oss/scripts -->
<g id="node8" class="node">
<title>@md&#45;oss/scripts</title>
<path fill="#0f172a" stroke="#64748b" d="M346.5,-194C346.5,-194 316.5,-194 316.5,-194 310.5,-194 304.5,-188 304.5,-182 304.5,-182 304.5,-170 304.5,-170 304.5,-164 310.5,-158 316.5,-158 316.5,-158 346.5,-158 346.5,-158 352.5,-158 358.5,-164 358.5,-170 358.5,-170 358.5,-182 358.5,-182 358.5,-188 352.5,-194 346.5,-194"/>
<text text-anchor="middle" x="331.5" y="-173.5" font-family="Helvetica,sans-Serif" font-size="10.00" fill="#e2e8f0">scripts</text>
</g>
<!-- @md&#45;oss/api&#45;&gt;@md&#45;oss/scripts -->
<g id="edge6" class="edge">
<title>@md&#45;oss/api&#45;&gt;@md&#45;oss/scripts</title>
<path fill="none" stroke="#94a3b8" stroke-width="1.1" d="M54.05,-166.86C109,-168.68 236.68,-172.9 297.35,-174.9"/>
<polygon fill="#94a3b8" stroke="#94a3b8" stroke-width="1.1" points="297.33,-177.35 304.4,-175.14 297.49,-172.46 297.33,-177.35"/>
</g>
<!-- @md&#45;oss/auth&#45;&gt;@md&#45;oss/config -->
<g id="edge7" class="edge">
<title>@md&#45;oss/auth&#45;&gt;@md&#45;oss/config</title>
<path fill="none" stroke="#94a3b8" stroke-width="1.1" d="M141.65,-226.05C154.56,-238.48 173.34,-254.28 193,-263 226.51,-277.87 268.57,-282.84 297.29,-284.43"/>
<polygon fill="#94a3b8" stroke="#94a3b8" stroke-width="1.1" points="297.18,-286.87 304.29,-284.76 297.42,-281.98 297.18,-286.87"/>
</g>
<!-- @md&#45;oss/auth&#45;&gt;@md&#45;oss/db -->
<g id="edge8" class="edge">
<title>@md&#45;oss/auth&#45;&gt;@md&#45;oss/db</title>
<path fill="none" stroke="#94a3b8" stroke-width="1.1" d="M137.09,-226.27C150.8,-246.16 173.39,-278.88 193,-307 195.96,-311.25 199.13,-315.77 202.19,-320.13"/>
<polygon fill="#94a3b8" stroke="#94a3b8" stroke-width="1.1" points="200.25,-321.63 206.28,-325.95 204.26,-318.82 200.25,-321.63"/>
</g>
<!-- @md&#45;oss/auth&#45;&gt;@md&#45;oss/scripts -->
<g id="edge9" class="edge">
<title>@md&#45;oss/auth&#45;&gt;@md&#45;oss/scripts</title>
<path fill="none" stroke="#94a3b8" stroke-width="1.1" d="M150.59,-203.95C187.87,-198.16 256.37,-187.51 297.25,-181.17"/>
<polygon fill="#94a3b8" stroke="#94a3b8" stroke-width="1.1" points="297.76,-183.57 304.3,-180.07 297,-178.72 297.76,-183.57"/>
</g>
<!-- @md&#45;oss/db&#45;&gt;@md&#45;oss/config -->
<g id="edge10" class="edge">
<title>@md&#45;oss/db&#45;&gt;@md&#45;oss/config</title>
<path fill="none" stroke="#94a3b8" stroke-width="1.1" d="M247.23,-329.87C262.53,-321.62 281.96,-311.15 298.2,-302.4"/>
<polygon fill="#94a3b8" stroke="#94a3b8" stroke-width="1.1" points="299.49,-304.49 304.49,-299.02 297.16,-300.18 299.49,-304.49"/>
</g>
<!-- @md&#45;oss/db&#45;&gt;@md&#45;oss/scripts -->
<g id="edge11" class="edge">
<title>@md&#45;oss/db&#45;&gt;@md&#45;oss/scripts</title>
<path fill="none" stroke="#94a3b8" stroke-width="1.1" d="M232.93,-325.7C252.81,-295.2 292.72,-233.97 314.84,-200.03"/>
<polygon fill="#94a3b8" stroke="#94a3b8" stroke-width="1.1" points="316.98,-201.22 318.75,-194.02 312.88,-198.55 316.98,-201.22"/>
</g>
<!-- @md&#45;oss/serdes -->
<g id="node9" class="node">
<title>@md&#45;oss/serdes</title>
<path fill="#0f172a" stroke="#64748b" d="M346.5,-364C346.5,-364 316.5,-364 316.5,-364 310.5,-364 304.5,-358 304.5,-352 304.5,-352 304.5,-340 304.5,-340 304.5,-334 310.5,-328 316.5,-328 316.5,-328 346.5,-328 346.5,-328 352.5,-328 358.5,-334 358.5,-340 358.5,-340 358.5,-352 358.5,-352 358.5,-358 352.5,-364 346.5,-364"/>
<text text-anchor="middle" x="331.5" y="-343.5" font-family="Helvetica,sans-Serif" font-size="10.00" fill="#e2e8f0">serdes</text>
</g>
<!-- @md&#45;oss/db&#45;&gt;@md&#45;oss/serdes -->
<g id="edge12" class="edge">
<title>@md&#45;oss/db&#45;&gt;@md&#45;oss/serdes</title>
<path fill="none" stroke="#94a3b8" stroke-width="1.1" d="M247.23,-344.48C262.26,-344.75 281.28,-345.1 297.34,-345.39"/>
<polygon fill="#94a3b8" stroke="#94a3b8" stroke-width="1.1" points="297.44,-347.85 304.49,-345.52 297.53,-342.95 297.44,-347.85"/>
</g>
<!-- @md&#45;oss/design&#45;system -->
<g id="node6" class="node">
<title>@md&#45;oss/design&#45;system</title>
<path fill="#0f172a" stroke="#64748b" d="M364,-87C364,-87 299,-87 299,-87 293,-87 287,-81 287,-75 287,-75 287,-63 287,-63 287,-57 293,-51 299,-51 299,-51 364,-51 364,-51 370,-51 376,-57 376,-63 376,-63 376,-75 376,-75 376,-81 370,-87 364,-87"/>
<text text-anchor="middle" x="331.5" y="-66.5" font-family="Helvetica,sans-Serif" font-size="10.00" fill="#e2e8f0">design&#45;system</text>
</g>
<!-- @md&#45;oss/email&#45;&gt;@md&#45;oss/config -->
<g id="edge13" class="edge">
<title>@md&#45;oss/email&#45;&gt;@md&#45;oss/config</title>
<path fill="none" stroke="#94a3b8" stroke-width="1.1" d="M229.19,-87.04C241.33,-113.57 265.03,-164.54 287,-207 296.41,-225.2 307.7,-245.39 316.41,-260.67"/>
<polygon fill="#94a3b8" stroke="#94a3b8" stroke-width="1.1" points="314.37,-262.04 319.98,-266.89 318.63,-259.6 314.37,-262.04"/>
</g>
<!-- @md&#45;oss/email&#45;&gt;@md&#45;oss/design&#45;system -->
<g id="edge14" class="edge">
<title>@md&#45;oss/email&#45;&gt;@md&#45;oss/design&#45;system</title>
<path fill="none" stroke="#94a3b8" stroke-width="1.1" d="M247.23,-69C256.99,-69 268.42,-69 279.64,-69"/>
<polygon fill="#94a3b8" stroke="#94a3b8" stroke-width="1.1" points="279.95,-71.45 286.95,-69 279.95,-66.55 279.95,-71.45"/>
</g>
<!-- @md&#45;oss/email&#45;&gt;@md&#45;oss/scripts -->
<g id="edge15" class="edge">
<title>@md&#45;oss/email&#45;&gt;@md&#45;oss/scripts</title>
<path fill="none" stroke="#94a3b8" stroke-width="1.1" d="M239.58,-87.15C258.06,-105.21 286.5,-133 306.64,-152.69"/>
<polygon fill="#94a3b8" stroke="#94a3b8" stroke-width="1.1" points="305.11,-154.62 311.83,-157.76 308.54,-151.12 305.11,-154.62"/>
</g>
<!-- @md&#45;oss/utils -->
<g id="node10" class="node">
<title>@md&#45;oss/utils</title>
<path fill="#1e293b" stroke="#38bdf8" d="M235,-250C235,-250 205,-250 205,-250 199,-250 193,-244 193,-238 193,-238 193,-226 193,-226 193,-220 199,-214 205,-214 205,-214 235,-214 235,-214 241,-214 247,-220 247,-226 247,-226 247,-238 247,-238 247,-244 241,-250 235,-250"/>
<text text-anchor="middle" x="220" y="-229.5" font-family="Helvetica,sans-Serif" font-size="10.00" fill="#e2e8f0">utils</text>
</g>
<!-- @md&#45;oss/utils&#45;&gt;@md&#45;oss/config -->
<g id="edge16" class="edge">
<title>@md&#45;oss/utils&#45;&gt;@md&#45;oss/config</title>
<path fill="none" stroke="#94a3b8" stroke-width="1.1" d="M247.23,-244.69C262.4,-252.04 281.62,-261.34 297.77,-269.16"/>
<polygon fill="#94a3b8" stroke="#94a3b8" stroke-width="1.1" points="297.12,-271.56 304.49,-272.41 299.25,-267.15 297.12,-271.56"/>
</g>
<!-- @md&#45;oss/utils&#45;&gt;@md&#45;oss/scripts -->
<g id="edge17" class="edge">
<title>@md&#45;oss/utils&#45;&gt;@md&#45;oss/scripts</title>
<path fill="none" stroke="#94a3b8" stroke-width="1.1" d="M247.23,-218.59C262.53,-210.76 281.96,-200.82 298.2,-192.52"/>
<polygon fill="#94a3b8" stroke="#94a3b8" stroke-width="1.1" points="299.37,-194.67 304.49,-189.3 297.14,-190.31 299.37,-194.67"/>
</g>
</g>
</svg>
