<?xml version="1.0" encoding="UTF-8" standalone="no"?>
<!DOCTYPE svg PUBLIC "-//W3C//DTD SVG 1.1//EN"
 "http://www.w3.org/Graphics/SVG/1.1/DTD/svg11.dtd">
<!-- Generated by graphviz version 2.43.0 (0)
 -->
<!-- Title: G Pages: 1 -->
<svg width="405pt" height="338pt"
 viewBox="0.00 0.00 404.80 338.20" xmlns="http://www.w3.org/2000/svg" xmlns:xlink="http://www.w3.org/1999/xlink">
<g id="graph0" class="graph" transform="scale(1 1) rotate(0) translate(14.4 323.8)">
<title>G</title>
<polygon fill="#202020" stroke="transparent" points="-14.4,14.4 -14.4,-323.8 390.4,-323.8 390.4,14.4 -14.4,14.4"/>
<text text-anchor="middle" x="188" y="-294.2" font-family="Times,serif" font-size="14.00" fill="#eeeeee">Workspace dependency graph: packages</text>
<!-- @md&#45;oss/api -->
<g id="node1" class="node">
<title>@md&#45;oss/api</title>
<path fill="#1e293b" stroke="#38bdf8" d="M42,-199.4C42,-199.4 12,-199.4 12,-199.4 6,-199.4 0,-193.4 0,-187.4 0,-187.4 0,-175.4 0,-175.4 0,-169.4 6,-163.4 12,-163.4 12,-163.4 42,-163.4 42,-163.4 48,-163.4 54,-169.4 54,-175.4 54,-175.4 54,-187.4 54,-187.4 54,-193.4 48,-199.4 42,-199.4"/>
<text text-anchor="middle" x="27" y="-178.9" font-family="Helvetica,sans-Serif" font-size="10.00" fill="#e2e8f0">api</text>
</g>
<!-- @md&#45;oss/auth -->
<g id="node2" class="node">
<title>@md&#45;oss/auth</title>
<path fill="#1e293b" stroke="#38bdf8" d="M138.5,-199.4C138.5,-199.4 108.5,-199.4 108.5,-199.4 102.5,-199.4 96.5,-193.4 96.5,-187.4 96.5,-187.4 96.5,-175.4 96.5,-175.4 96.5,-169.4 102.5,-163.4 108.5,-163.4 108.5,-163.4 138.5,-163.4 138.5,-163.4 144.5,-163.4 150.5,-169.4 150.5,-175.4 150.5,-175.4 150.5,-187.4 150.5,-187.4 150.5,-193.4 144.5,-199.4 138.5,-199.4"/>
<text text-anchor="middle" x="123.5" y="-178.9" font-family="Helvetica,sans-Serif" font-size="10.00" fill="#e2e8f0">auth</text>
</g>
<!-- @md&#45;oss/api&#45;&gt;@md&#45;oss/auth -->
<g id="edge1" class="edge">
<title>@md&#45;oss/api&#45;&gt;@md&#45;oss/auth</title>
<path fill="none" stroke="#94a3b8" stroke-width="1.1" d="M54.07,-181.4C64.83,-181.4 77.43,-181.4 88.87,-181.4"/>
<polygon fill="#94a3b8" stroke="#94a3b8" stroke-width="1.1" points="89.18,-183.85 96.18,-181.4 89.18,-178.95 89.18,-183.85"/>
</g>
<!-- @md&#45;oss/common -->
<g id="node3" class="node">
<title>@md&#45;oss/common</title>
<path fill="#0f172a" stroke="#64748b" d="M141,-260.4C141,-260.4 106,-260.4 106,-260.4 100,-260.4 94,-254.4 94,-248.4 94,-248.4 94,-236.4 94,-236.4 94,-230.4 100,-224.4 106,-224.4 106,-224.4 141,-224.4 141,-224.4 147,-224.4 153,-230.4 153,-236.4 153,-236.4 153,-248.4 153,-248.4 153,-254.4 147,-260.4 141,-260.4"/>
<text text-anchor="middle" x="123.5" y="-239.9" font-family="Helvetica,sans-Serif" font-size="10.00" fill="#e2e8f0">common</text>
</g>
<!-- @md&#45;oss/api&#45;&gt;@md&#45;oss/common -->
<g id="edge2" class="edge">
<title>@md&#45;oss/api&#45;&gt;@md&#45;oss/common</title>
<path fill="none" stroke="#94a3b8" stroke-width="1.1" d="M54.07,-198.23C64.67,-205.07 77.07,-213.07 88.38,-220.37"/>
<polygon fill="#94a3b8" stroke="#94a3b8" stroke-width="1.1" points="87.32,-222.6 94.53,-224.34 89.98,-218.48 87.32,-222.6"/>
</g>
<!-- @md&#45;oss/config -->
<g id="node4" class="node">
<title>@md&#45;oss/config</title>
<path fill="#0f172a" stroke="#64748b" d="M364,-179.4C364,-179.4 334,-179.4 334,-179.4 328,-179.4 322,-173.4 322,-167.4 322,-167.4 322,-155.4 322,-155.4 322,-149.4 328,-143.4 334,-143.4 334,-143.4 364,-143.4 364,-143.4 370,-143.4 376,-149.4 376,-155.4 376,-155.4 376,-167.4 376,-167.4 376,-173.4 370,-179.4 364,-179.4"/>
<text text-anchor="middle" x="349" y="-158.9" font-family="Helvetica,sans-Serif" font-size="10.00" fill="#e2e8f0">config</text>
</g>
<!-- @md&#45;oss/api&#45;&gt;@md&#45;oss/config -->
<g id="edge3" class="edge">
<title>@md&#45;oss/api&#45;&gt;@md&#45;oss/config</title>
<path fill="none" stroke="#94a3b8" stroke-width="1.1" d="M37.93,-163.15C59.85,-125.25 116.55,-39.36 193,-13.4 230.45,-0.68 248.82,8.14 282,-13.4 324.08,-40.71 339.56,-101.78 345.08,-136.33"/>
<polygon fill="#94a3b8" stroke="#94a3b8" stroke-width="1.1" points="342.66,-136.71 346.11,-143.27 347.51,-135.99 342.66,-136.71"/>
</g>
<!-- @md&#45;oss/db -->
<g id="node5" class="node">
<title>@md&#45;oss/db</title>
<path fill="#1e293b" stroke="#38bdf8" d="M252.5,-286.4C252.5,-286.4 222.5,-286.4 222.5,-286.4 216.5,-286.4 210.5,-280.4 210.5,-274.4 210.5,-274.4 210.5,-262.4 210.5,-262.4 210.5,-256.4 216.5,-250.4 222.5,-250.4 222.5,-250.4 252.5,-250.4 252.5,-250.4 258.5,-250.4 264.5,-256.4 264.5,-262.4 264.5,-262.4 264.5,-274.4 264.5,-274.4 264.5,-280.4 258.5,-286.4 252.5,-286.4"/>
<text text-anchor="middle" x="237.5" y="-265.9" font-family="Helvetica,sans-Serif" font-size="10.00" fill="#e2e8f0">db</text>
</g>
<!-- @md&#45;oss/api&#45;&gt;@md&#45;oss/db -->
<g id="edge4" class="edge">
<title>@md&#45;oss/api&#45;&gt;@md&#45;oss/db</title>
<path fill="none" stroke="#94a3b8" stroke-width="1.1" d="M34.94,-199.62C44.47,-221.73 63.92,-257.96 94,-273.4 128.15,-290.93 173.21,-285.38 203.44,-278.29"/>
<polygon fill="#94a3b8" stroke="#94a3b8" stroke-width="1.1" points="204.2,-280.62 210.41,-276.56 203.03,-275.87 204.2,-280.62"/>
</g>
<!-- @md&#45;oss/email -->
<g id="node7" class="node">
<title>@md&#45;oss/email</title>
<path fill="#1e293b" stroke="#38bdf8" d="M138.5,-138.4C138.5,-138.4 108.5,-138.4 108.5,-138.4 102.5,-138.4 96.5,-132.4 96.5,-126.4 96.5,-126.4 96.5,-114.4 96.5,-114.4 96.5,-108.4 102.5,-102.4 108.5,-102.4 108.5,-102.4 138.5,-102.4 138.5,-102.4 144.5,-102.4 150.5,-108.4 150.5,-114.4 150.5,-114.4 150.5,-126.4 150.5,-126.4 150.5,-132.4 144.5,-138.4 138.5,-138.4"/>
<text text-anchor="middle" x="123.5" y="-117.9" font-family="Helvetica,sans-Serif" font-size="10.00" fill="#e2e8f0">email</text>
</g>
<!-- @md&#45;oss/api&#45;&gt;@md&#45;oss/email -->
<g id="edge5" class="edge">
<title>@md&#45;oss/api&#45;&gt;@md&#45;oss/email</title>
<path fill="none" stroke="#94a3b8" stroke-width="1.1" d="M54.07,-164.57C65.24,-157.36 78.39,-148.87 90.17,-141.27"/>
<polygon fill="#94a3b8" stroke="#94a3b8" stroke-width="1.1" points="91.63,-143.24 96.18,-137.38 88.97,-139.12 91.63,-143.24"/>
</g>
<!-- @md&#45;oss/auth&#45;&gt;@md&#45;oss/config -->
<g id="edge6" class="edge">
<title>@md&#45;oss/auth&#45;&gt;@md&#45;oss/config</title>
<path fill="none" stroke="#94a3b8" stroke-width="1.1" d="M150.58,-183.4C181.95,-185.31 236.13,-187.02 282,-180.4 292.84,-178.83 304.39,-175.95 314.75,-172.89"/>
<polygon fill="#94a3b8" stroke="#94a3b8" stroke-width="1.1" points="315.73,-175.15 321.71,-170.76 314.3,-170.46 315.73,-175.15"/>
</g>
<!-- @md&#45;oss/auth&#45;&gt;@md&#45;oss/db -->
<g id="edge7" class="edge">
<title>@md&#45;oss/auth&#45;&gt;@md&#45;oss/db</title>
<path fill="none" stroke="#94a3b8" stroke-width="1.1" d="M147.71,-199.42C165.13,-212.95 189.08,-231.56 207.72,-246.04"/>
<polygon fill="#94a3b8" stroke="#94a3b8" stroke-width="1.1" points="206.29,-248.03 213.32,-250.39 209.3,-244.16 206.29,-248.03"/>
</g>
<!-- @md&#45;oss/db&#45;&gt;@md&#45;oss/config -->
<g id="edge8" class="edge">
<title>@md&#45;oss/db&#45;&gt;@md&#45;oss/config</title>
<path fill="none" stroke="#94a3b8" stroke-width="1.1" d="M261.04,-250.03C267.91,-244.22 275.39,-237.68 282,-231.4 297.71,-216.47 314.46,-198.68 327.15,-184.78"/>
<polygon fill="#94a3b8" stroke="#94a3b8" stroke-width="1.1" points="329.08,-186.29 331.97,-179.46 325.46,-183 329.08,-186.29"/>
</g>
<!-- @md&#45;oss/serdes -->
<g id="node8" class="node">
<title>@md&#45;oss/serdes</title>
<path fill="#0f172a" stroke="#64748b" d="M364,-286.4C364,-286.4 334,-286.4 334,-286.4 328,-286.4 322,-280.4 322,-274.4 322,-274.4 322,-262.4 322,-262.4 322,-256.4 328,-250.4 334,-250.4 334,-250.4 364,-250.4 364,-250.4 370,-250.4 376,-256.4 376,-262.4 376,-262.4 376,-274.4 376,-274.4 376,-280.4 370,-286.4 364,-286.4"/>
<text text-anchor="middle" x="349" y="-265.9" font-family="Helvetica,sans-Serif" font-size="10.00" fill="#e2e8f0">serdes</text>
</g>
<!-- @md&#45;oss/db&#45;&gt;@md&#45;oss/serdes -->
<g id="edge9" class="edge">
<title>@md&#45;oss/db&#45;&gt;@md&#45;oss/serdes</title>
<path fill="none" stroke="#94a3b8" stroke-width="1.1" d="M264.73,-268.4C279.76,-268.4 298.78,-268.4 314.84,-268.4"/>
<polygon fill="#94a3b8" stroke="#94a3b8" stroke-width="1.1" points="314.99,-270.85 321.99,-268.4 314.99,-265.95 314.99,-270.85"/>
</g>
<!-- @md&#45;oss/design&#45;system -->
<g id="node6" class="node">
<title>@md&#45;oss/design&#45;system</title>
<path fill="#0f172a" stroke="#64748b" d="M270,-62.4C270,-62.4 205,-62.4 205,-62.4 199,-62.4 193,-56.4 193,-50.4 193,-50.4 193,-38.4 193,-38.4 193,-32.4 199,-26.4 205,-26.4 205,-26.4 270,-26.4 270,-26.4 276,-26.4 282,-32.4 282,-38.4 282,-38.4 282,-50.4 282,-50.4 282,-56.4 276,-62.4 270,-62.4"/>
<text text-anchor="middle" x="237.5" y="-41.9" font-family="Helvetica,sans-Serif" font-size="10.00" fill="#e2e8f0">design&#45;system</text>
</g>
<!-- @md&#45;oss/email&#45;&gt;@md&#45;oss/config -->
<g id="edge10" class="edge">
<title>@md&#45;oss/email&#45;&gt;@md&#45;oss/config</title>
<path fill="none" stroke="#94a3b8" stroke-width="1.1" d="M150.76,-126.98C163.47,-130.05 178.98,-133.63 193,-136.4 234.72,-144.62 283.15,-152.11 314.62,-156.7"/>
<polygon fill="#94a3b8" stroke="#94a3b8" stroke-width="1.1" points="314.57,-159.17 321.85,-157.74 315.27,-154.32 314.57,-159.17"/>
</g>
<!-- @md&#45;oss/email&#45;&gt;@md&#45;oss/design&#45;system -->
<g id="edge11" class="edge">
<title>@md&#45;oss/email&#45;&gt;@md&#45;oss/design&#45;system</title>
<path fill="none" stroke="#94a3b8" stroke-width="1.1" d="M150.76,-102.58C166.54,-91.87 186.75,-78.15 203.59,-66.73"/>
<polygon fill="#94a3b8" stroke="#94a3b8" stroke-width="1.1" points="205.21,-68.59 209.63,-62.63 202.46,-64.53 205.21,-68.59"/>
</g>
<!-- @md&#45;oss/utils -->
<g id="node9" class="node">
<title>@md&#45;oss/utils</title>
<path fill="#1e293b" stroke="#38bdf8" d="M252.5,-123.4C252.5,-123.4 222.5,-123.4 222.5,-123.4 216.5,-123.4 210.5,-117.4 210.5,-111.4 210.5,-111.4 210.5,-99.4 210.5,-99.4 210.5,-93.4 216.5,-87.4 222.5,-87.4 222.5,-87.4 252.5,-87.4 252.5,-87.4 258.5,-87.4 264.5,-93.4 264.5,-99.4 264.5,-99.4 264.5,-111.4 264.5,-111.4 264.5,-117.4 258.5,-123.4 252.5,-123.4"/>
<text text-anchor="middle" x="237.5" y="-102.9" font-family="Helvetica,sans-Serif" font-size="10.00" fill="#e2e8f0">utils</text>
</g>
<!-- @md&#45;oss/utils&#45;&gt;@md&#45;oss/config -->
<g id="edge12" class="edge">
<title>@md&#45;oss/utils&#45;&gt;@md&#45;oss/config</title>
<path fill="none" stroke="#94a3b8" stroke-width="1.1" d="M264.73,-118.81C280.03,-126.64 299.46,-136.57 315.7,-144.88"/>
<polygon fill="#94a3b8" stroke="#94a3b8" stroke-width="1.1" points="314.64,-147.09 321.99,-148.09 316.87,-142.72 314.64,-147.09"/>
</g>
</g>
</svg>
