<?xml version="1.0" encoding="UTF-8" standalone="no"?>
<!DOCTYPE svg PUBLIC "-//W3C//DTD SVG 1.1//EN"
 "http://www.w3.org/Graphics/SVG/1.1/DTD/svg11.dtd">
<!-- Generated by graphviz version 2.43.0 (0)
 -->
<!-- Title: G Pages: 1 -->
<svg width="616pt" height="1162pt"
 viewBox="0.00 0.00 615.80 1162.14" xmlns="http://www.w3.org/2000/svg" xmlns:xlink="http://www.w3.org/1999/xlink">
<g id="graph0" class="graph" transform="scale(1 1) rotate(0) translate(14.4 1147.74)">
<title>G</title>
<polygon fill="#202020" stroke="transparent" points="-14.4,14.4 -14.4,-1147.74 601.4,-1147.74 601.4,14.4 -14.4,14.4"/>
<text text-anchor="middle" x="293.5" y="-1118.14" font-family="Times,serif" font-size="14.00" fill="#eeeeee">Workspace dependency graph: vendor</text>
<!-- @md&#45;oss/analytics -->
<g id="node1" class="node">
<title>@md&#45;oss/analytics</title>
<path fill="#1e293b" stroke="#38bdf8" d="M383,-832.34C383,-832.34 346,-832.34 346,-832.34 340,-832.34 334,-826.34 334,-820.34 334,-820.34 334,-808.34 334,-808.34 334,-802.34 340,-796.34 346,-796.34 346,-796.34 383,-796.34 383,-796.34 389,-796.34 395,-802.34 395,-808.34 395,-808.34 395,-820.34 395,-820.34 395,-826.34 389,-832.34 383,-832.34"/>
<text text-anchor="middle" x="364.5" y="-811.84" font-family="Helvetica,sans-Serif" font-size="10.00" fill="#e2e8f0">analytics</text>
</g>
<!-- @md&#45;oss/config -->
<g id="node5" class="node">
<title>@md&#45;oss/config</title>
<path fill="#1e293b" stroke="#38bdf8" d="M575,-560.34C575,-560.34 545,-560.34 545,-560.34 539,-560.34 533,-554.34 533,-548.34 533,-548.34 533,-536.34 533,-536.34 533,-530.34 539,-524.34 545,-524.34 545,-524.34 575,-524.34 575,-524.34 581,-524.34 587,-530.34 587,-536.34 587,-536.34 587,-548.34 587,-548.34 587,-554.34 581,-560.34 575,-560.34"/>
<text text-anchor="middle" x="560" y="-539.84" font-family="Helvetica,sans-Serif" font-size="10.00" fill="#e2e8f0">config</text>
</g>
<!-- @md&#45;oss/analytics&#45;&gt;@md&#45;oss/config -->
<g id="edge1" class="edge">
<title>@md&#45;oss/analytics&#45;&gt;@md&#45;oss/config</title>
<path fill="none" stroke="#94a3b8" stroke-width="1.1" d="M382.65,-796.28C388.04,-790.37 393.91,-783.7 399,-777.34 457.69,-704.1 517.46,-610.01 544.34,-566.45"/>
<polygon fill="#94a3b8" stroke="#94a3b8" stroke-width="1.1" points="546.48,-567.65 548.06,-560.4 542.3,-565.08 546.48,-567.65"/>
</g>
<!-- @md&#45;oss/scripts -->
<g id="node13" class="node">
<title>@md&#45;oss/scripts</title>
<path fill="#1e293b" stroke="#38bdf8" d="M481,-484.34C481,-484.34 451,-484.34 451,-484.34 445,-484.34 439,-478.34 439,-472.34 439,-472.34 439,-460.34 439,-460.34 439,-454.34 445,-448.34 451,-448.34 451,-448.34 481,-448.34 481,-448.34 487,-448.34 493,-454.34 493,-460.34 493,-460.34 493,-472.34 493,-472.34 493,-478.34 487,-484.34 481,-484.34"/>
<text text-anchor="middle" x="466" y="-463.84" font-family="Helvetica,sans-Serif" font-size="10.00" fill="#e2e8f0">scripts</text>
</g>
<!-- @md&#45;oss/analytics&#45;&gt;@md&#45;oss/scripts -->
<g id="edge2" class="edge">
<title>@md&#45;oss/analytics&#45;&gt;@md&#45;oss/scripts</title>
<path fill="none" stroke="#94a3b8" stroke-width="1.1" d="M385.36,-796.22C390.49,-790.63 395.53,-784.13 399,-777.34 448.78,-679.94 461.04,-546.96 464.04,-491.86"/>
<polygon fill="#94a3b8" stroke="#94a3b8" stroke-width="1.1" points="466.5,-491.73 464.4,-484.62 461.6,-491.49 466.5,-491.73"/>
</g>
<!-- @md&#45;oss/api&#45;types -->
<g id="node2" class="node">
<title>@md&#45;oss/api&#45;types</title>
<path fill="#1e293b" stroke="#38bdf8" d="M50,-720.34C50,-720.34 12,-720.34 12,-720.34 6,-720.34 0,-714.34 0,-708.34 0,-708.34 0,-696.34 0,-696.34 0,-690.34 6,-684.34 12,-684.34 12,-684.34 50,-684.34 50,-684.34 56,-684.34 62,-690.34 62,-696.34 62,-696.34 62,-708.34 62,-708.34 62,-714.34 56,-720.34 50,-720.34"/>
<text text-anchor="middle" x="31" y="-699.84" font-family="Helvetica,sans-Serif" font-size="10.00" fill="#e2e8f0">api&#45;types</text>
</g>
<!-- @md&#45;oss/common -->
<g id="node4" class="node">
<title>@md&#45;oss/common</title>
<path fill="#1e293b" stroke="#38bdf8" d="M278,-613.34C278,-613.34 243,-613.34 243,-613.34 237,-613.34 231,-607.34 231,-601.34 231,-601.34 231,-589.34 231,-589.34 231,-583.34 237,-577.34 243,-577.34 243,-577.34 278,-577.34 278,-577.34 284,-577.34 290,-583.34 290,-589.34 290,-589.34 290,-601.34 290,-601.34 290,-607.34 284,-613.34 278,-613.34"/>
<text text-anchor="middle" x="260.5" y="-592.84" font-family="Helvetica,sans-Serif" font-size="10.00" fill="#e2e8f0">common</text>
</g>
<!-- @md&#45;oss/api&#45;types&#45;&gt;@md&#45;oss/common -->
<g id="edge3" class="edge">
<title>@md&#45;oss/api&#45;types&#45;&gt;@md&#45;oss/common</title>
<path fill="none" stroke="#94a3b8" stroke-width="1.1" d="M41.33,-684.08C52.7,-663.85 73.94,-632.04 102,-616.34 139.6,-595.31 189.95,-592.12 223.49,-592.84"/>
<polygon fill="#94a3b8" stroke="#94a3b8" stroke-width="1.1" points="223.73,-595.29 230.8,-593.06 223.88,-590.4 223.73,-595.29"/>
</g>
<!-- @md&#45;oss/api&#45;types&#45;&gt;@md&#45;oss/config -->
<g id="edge4" class="edge">
<title>@md&#45;oss/api&#45;types&#45;&gt;@md&#45;oss/config</title>
<path fill="none" stroke="#94a3b8" stroke-width="1.1" d="M33.3,-720.4C40.07,-799.36 78.24,-1110.34 259.5,-1110.34 259.5,-1110.34 259.5,-1110.34 365.5,-1110.34 481.85,-1110.34 542.47,-677.92 556.04,-567.68"/>
<polygon fill="#94a3b8" stroke="#94a3b8" stroke-width="1.1" points="558.49,-567.84 556.9,-560.6 553.62,-567.25 558.49,-567.84"/>
</g>
<!-- @md&#45;oss/http&#45;client -->
<g id="node9" class="node">
<title>@md&#45;oss/http&#45;client</title>
<path fill="#1e293b" stroke="#38bdf8" d="M168,-822.34C168,-822.34 125,-822.34 125,-822.34 119,-822.34 113,-816.34 113,-810.34 113,-810.34 113,-798.34 113,-798.34 113,-792.34 119,-786.34 125,-786.34 125,-786.34 168,-786.34 168,-786.34 174,-786.34 180,-792.34 180,-798.34 180,-798.34 180,-810.34 180,-810.34 180,-816.34 174,-822.34 168,-822.34"/>
<text text-anchor="middle" x="146.5" y="-801.84" font-family="Helvetica,sans-Serif" font-size="10.00" fill="#e2e8f0">http&#45;client</text>
</g>
<!-- @md&#45;oss/api&#45;types&#45;&gt;@md&#45;oss/http&#45;client -->
<g id="edge5" class="edge">
<title>@md&#45;oss/api&#45;types&#45;&gt;@md&#45;oss/http&#45;client</title>
<path fill="none" stroke="#94a3b8" stroke-width="1.1" d="M52.03,-720.34C70.96,-737.35 99.44,-762.95 119.98,-781.41"/>
<polygon fill="#94a3b8" stroke="#94a3b8" stroke-width="1.1" points="118.44,-783.32 125.29,-786.18 121.72,-779.68 118.44,-783.32"/>
</g>
<!-- @md&#45;oss/api&#45;types&#45;&gt;@md&#45;oss/scripts -->
<g id="edge6" class="edge">
<title>@md&#45;oss/api&#45;types&#45;&gt;@md&#45;oss/scripts</title>
<path fill="none" stroke="#94a3b8" stroke-width="1.1" d="M32.3,-684.16C33.9,-613.57 43.69,-359.16 102,-310.34 211.76,-218.44 383.82,-380.06 443.65,-442.92"/>
<polygon fill="#94a3b8" stroke="#94a3b8" stroke-width="1.1" points="442.17,-444.92 448.75,-448.33 445.73,-441.56 442.17,-444.92"/>
</g>
<!-- @md&#45;oss/serdes -->
<g id="node15" class="node">
<title>@md&#45;oss/serdes</title>
<path fill="#1e293b" stroke="#38bdf8" d="M379.5,-669.34C379.5,-669.34 349.5,-669.34 349.5,-669.34 343.5,-669.34 337.5,-663.34 337.5,-657.34 337.5,-657.34 337.5,-645.34 337.5,-645.34 337.5,-639.34 343.5,-633.34 349.5,-633.34 349.5,-633.34 379.5,-633.34 379.5,-633.34 385.5,-633.34 391.5,-639.34 391.5,-645.34 391.5,-645.34 391.5,-657.34 391.5,-657.34 391.5,-663.34 385.5,-669.34 379.5,-669.34"/>
<text text-anchor="middle" x="364.5" y="-648.84" font-family="Helvetica,sans-Serif" font-size="10.00" fill="#e2e8f0">serdes</text>
</g>
<!-- @md&#45;oss/api&#45;types&#45;&gt;@md&#45;oss/serdes -->
<g id="edge7" class="edge">
<title>@md&#45;oss/api&#45;types&#45;&gt;@md&#45;oss/serdes</title>
<path fill="none" stroke="#94a3b8" stroke-width="1.1" d="M62.31,-699.02C110.64,-693.55 208.09,-681.79 290,-667.34 303.22,-665.01 317.68,-661.97 330.25,-659.17"/>
<polygon fill="#94a3b8" stroke="#94a3b8" stroke-width="1.1" points="331.12,-661.48 337.41,-657.55 330.04,-656.7 331.12,-661.48"/>
</g>
<!-- @md&#45;oss/cache -->
<g id="node3" class="node">
<title>@md&#45;oss/cache</title>
<path fill="#1e293b" stroke="#38bdf8" d="M161.5,-664.34C161.5,-664.34 131.5,-664.34 131.5,-664.34 125.5,-664.34 119.5,-658.34 119.5,-652.34 119.5,-652.34 119.5,-640.34 119.5,-640.34 119.5,-634.34 125.5,-628.34 131.5,-628.34 131.5,-628.34 161.5,-628.34 161.5,-628.34 167.5,-628.34 173.5,-634.34 173.5,-640.34 173.5,-640.34 173.5,-652.34 173.5,-652.34 173.5,-658.34 167.5,-664.34 161.5,-664.34"/>
<text text-anchor="middle" x="146.5" y="-643.84" font-family="Helvetica,sans-Serif" font-size="10.00" fill="#e2e8f0">cache</text>
</g>
<!-- @md&#45;oss/cache&#45;&gt;@md&#45;oss/common -->
<g id="edge8" class="edge">
<title>@md&#45;oss/cache&#45;&gt;@md&#45;oss/common</title>
<path fill="none" stroke="#94a3b8" stroke-width="1.1" d="M173.76,-634.38C188.69,-627.58 207.61,-618.97 223.87,-611.57"/>
<polygon fill="#94a3b8" stroke="#94a3b8" stroke-width="1.1" points="225.3,-613.61 230.65,-608.48 223.27,-609.15 225.3,-613.61"/>
</g>
<!-- @md&#45;oss/cache&#45;&gt;@md&#45;oss/config -->
<g id="edge9" class="edge">
<title>@md&#45;oss/cache&#45;&gt;@md&#45;oss/config</title>
<path fill="none" stroke="#94a3b8" stroke-width="1.1" d="M156.66,-664.35C187.77,-723.02 293.36,-901.65 399,-845.34 506.19,-788.2 544.18,-629.43 555.16,-567.52"/>
<polygon fill="#94a3b8" stroke="#94a3b8" stroke-width="1.1" points="557.61,-567.78 556.37,-560.46 552.78,-566.95 557.61,-567.78"/>
</g>
<!-- @md&#45;oss/cache&#45;&gt;@md&#45;oss/scripts -->
<g id="edge10" class="edge">
<title>@md&#45;oss/cache&#45;&gt;@md&#45;oss/scripts</title>
<path fill="none" stroke="#94a3b8" stroke-width="1.1" d="M163.58,-628.18C179.58,-610.76 205.38,-584.36 231,-565.34 271.41,-535.34 283.86,-530.46 330,-510.34 363.85,-495.58 404.31,-483.03 432.06,-475.16"/>
<polygon fill="#94a3b8" stroke="#94a3b8" stroke-width="1.1" points="432.75,-477.51 438.82,-473.26 431.42,-472.79 432.75,-477.51"/>
</g>
<!-- @md&#45;oss/cache&#45;&gt;@md&#45;oss/serdes -->
<g id="edge11" class="edge">
<title>@md&#45;oss/cache&#45;&gt;@md&#45;oss/serdes</title>
<path fill="none" stroke="#94a3b8" stroke-width="1.1" d="M173.55,-646.94C212.8,-647.85 287.07,-649.57 330.19,-650.57"/>
<polygon fill="#94a3b8" stroke="#94a3b8" stroke-width="1.1" points="330.3,-653.02 337.35,-650.74 330.41,-648.12 330.3,-653.02"/>
</g>
<!-- @md&#45;oss/common&#45;&gt;@md&#45;oss/config -->
<g id="edge12" class="edge">
<title>@md&#45;oss/common&#45;&gt;@md&#45;oss/config</title>
<path fill="none" stroke="#94a3b8" stroke-width="1.1" d="M290.03,-590.26C345.25,-580.42 466.53,-558.82 525.49,-548.31"/>
<polygon fill="#94a3b8" stroke="#94a3b8" stroke-width="1.1" points="526.24,-550.67 532.7,-547.03 525.38,-545.84 526.24,-550.67"/>
</g>
<!-- @md&#45;oss/common&#45;&gt;@md&#45;oss/scripts -->
<g id="edge13" class="edge">
<title>@md&#45;oss/common&#45;&gt;@md&#45;oss/scripts</title>
<path fill="none" stroke="#94a3b8" stroke-width="1.1" d="M290.01,-578.87C318.06,-562.49 361.93,-536.41 399,-512.34 410.56,-504.83 423.02,-496.27 433.97,-488.59"/>
<polygon fill="#94a3b8" stroke="#94a3b8" stroke-width="1.1" points="435.57,-490.46 439.88,-484.43 432.75,-486.46 435.57,-490.46"/>
</g>
<!-- @md&#45;oss/common&#45;&gt;@md&#45;oss/serdes -->
<g id="edge14" class="edge">
<title>@md&#45;oss/common&#45;&gt;@md&#45;oss/serdes</title>
<path fill="none" stroke="#94a3b8" stroke-width="1.1" d="M290.18,-611.09C302.94,-618.1 318.03,-626.38 331.18,-633.6"/>
<polygon fill="#94a3b8" stroke="#94a3b8" stroke-width="1.1" points="330.16,-635.83 337.47,-637.05 332.51,-631.53 330.16,-635.83"/>
</g>
<!-- @md&#45;oss/database -->
<g id="node6" class="node">
<title>@md&#45;oss/database</title>
<path fill="#1e293b" stroke="#38bdf8" d="M383.5,-249.34C383.5,-249.34 345.5,-249.34 345.5,-249.34 339.5,-249.34 333.5,-243.34 333.5,-237.34 333.5,-237.34 333.5,-225.34 333.5,-225.34 333.5,-219.34 339.5,-213.34 345.5,-213.34 345.5,-213.34 383.5,-213.34 383.5,-213.34 389.5,-213.34 395.5,-219.34 395.5,-225.34 395.5,-225.34 395.5,-237.34 395.5,-237.34 395.5,-243.34 389.5,-249.34 383.5,-249.34"/>
<text text-anchor="middle" x="364.5" y="-228.84" font-family="Helvetica,sans-Serif" font-size="10.00" fill="#e2e8f0">database</text>
</g>
<!-- @md&#45;oss/database&#45;&gt;@md&#45;oss/config -->
<g id="edge15" class="edge">
<title>@md&#45;oss/database&#45;&gt;@md&#45;oss/config</title>
<path fill="none" stroke="#94a3b8" stroke-width="1.1" d="M383.33,-249.52C388.64,-255.32 394.29,-261.91 399,-268.34 462.42,-354.93 521.98,-468.43 546.82,-517.72"/>
<polygon fill="#94a3b8" stroke="#94a3b8" stroke-width="1.1" points="544.77,-519.08 550.1,-524.24 549.15,-516.89 544.77,-519.08"/>
</g>
<!-- @md&#45;oss/database&#45;&gt;@md&#45;oss/scripts -->
<g id="edge16" class="edge">
<title>@md&#45;oss/database&#45;&gt;@md&#45;oss/scripts</title>
<path fill="none" stroke="#94a3b8" stroke-width="1.1" d="M384.53,-249.34C389.76,-255.04 395.07,-261.61 399,-268.34 432.33,-325.39 451.66,-401.62 460.03,-440.77"/>
<polygon fill="#94a3b8" stroke="#94a3b8" stroke-width="1.1" points="457.73,-441.73 461.56,-448.09 462.53,-440.73 457.73,-441.73"/>
</g>
<!-- @md&#45;oss/design&#45;system -->
<g id="node7" class="node">
<title>@md&#45;oss/design&#45;system</title>
<path fill="#1e293b" stroke="#38bdf8" d="M179,-419.34C179,-419.34 114,-419.34 114,-419.34 108,-419.34 102,-413.34 102,-407.34 102,-407.34 102,-395.34 102,-395.34 102,-389.34 108,-383.34 114,-383.34 114,-383.34 179,-383.34 179,-383.34 185,-383.34 191,-389.34 191,-395.34 191,-395.34 191,-407.34 191,-407.34 191,-413.34 185,-419.34 179,-419.34"/>
<text text-anchor="middle" x="146.5" y="-398.84" font-family="Helvetica,sans-Serif" font-size="10.00" fill="#e2e8f0">design&#45;system</text>
</g>
<!-- @md&#45;oss/design&#45;system&#45;&gt;@md&#45;oss/common -->
<g id="edge17" class="edge">
<title>@md&#45;oss/design&#45;system&#45;&gt;@md&#45;oss/common</title>
<path fill="none" stroke="#94a3b8" stroke-width="1.1" d="M168.58,-419.73C176.29,-427.16 184.65,-436.15 191,-445.34 218.97,-485.87 240.27,-539.65 251.25,-570.58"/>
<polygon fill="#94a3b8" stroke="#94a3b8" stroke-width="1.1" points="248.93,-571.39 253.56,-577.19 253.56,-569.77 248.93,-571.39"/>
</g>
<!-- @md&#45;oss/design&#45;system&#45;&gt;@md&#45;oss/config -->
<g id="edge18" class="edge">
<title>@md&#45;oss/design&#45;system&#45;&gt;@md&#45;oss/config</title>
<path fill="none" stroke="#94a3b8" stroke-width="1.1" d="M180.68,-383C184.66,-379.58 188.28,-375.7 191,-371.34 253.7,-271.1 160.07,-202.94 231,-108.34 277.44,-46.4 322.56,-50.06 399,-62.34 442.43,-69.32 464.69,-59.67 493,-93.34 547.63,-158.32 557.05,-432.06 558.67,-517.06"/>
<polygon fill="#94a3b8" stroke="#94a3b8" stroke-width="1.1" points="556.22,-517.27 558.79,-524.23 561.12,-517.19 556.22,-517.27"/>
</g>
<!-- @md&#45;oss/design&#45;system&#45;&gt;@md&#45;oss/scripts -->
<g id="edge19" class="edge">
<title>@md&#45;oss/design&#45;system&#45;&gt;@md&#45;oss/scripts</title>
<path fill="none" stroke="#94a3b8" stroke-width="1.1" d="M191.31,-410.31C255.59,-423.47 374.05,-447.72 431.71,-459.53"/>
<polygon fill="#94a3b8" stroke="#94a3b8" stroke-width="1.1" points="431.42,-461.97 438.77,-460.97 432.4,-457.17 431.42,-461.97"/>
</g>
<!-- @md&#45;oss/discord -->
<g id="node8" class="node">
<title>@md&#45;oss/discord</title>
<path fill="#1e293b" stroke="#38bdf8" d="M161.5,-358.34C161.5,-358.34 131.5,-358.34 131.5,-358.34 125.5,-358.34 119.5,-352.34 119.5,-346.34 119.5,-346.34 119.5,-334.34 119.5,-334.34 119.5,-328.34 125.5,-322.34 131.5,-322.34 131.5,-322.34 161.5,-322.34 161.5,-322.34 167.5,-322.34 173.5,-328.34 173.5,-334.34 173.5,-334.34 173.5,-346.34 173.5,-346.34 173.5,-352.34 167.5,-358.34 161.5,-358.34"/>
<text text-anchor="middle" x="146.5" y="-337.84" font-family="Helvetica,sans-Serif" font-size="10.00" fill="#e2e8f0">discord</text>
</g>
<!-- @md&#45;oss/discord&#45;&gt;@md&#45;oss/common -->
<g id="edge20" class="edge">
<title>@md&#45;oss/discord&#45;&gt;@md&#45;oss/common</title>
<path fill="none" stroke="#94a3b8" stroke-width="1.1" d="M173.86,-354.96C180.2,-359.51 186.45,-365.02 191,-371.34 235.82,-433.57 251.78,-525.68 257.08,-569.87"/>
<polygon fill="#94a3b8" stroke="#94a3b8" stroke-width="1.1" points="254.67,-570.37 257.89,-577.04 259.54,-569.81 254.67,-570.37"/>
</g>
<!-- @md&#45;oss/discord&#45;&gt;@md&#45;oss/config -->
<g id="edge21" class="edge">
<title>@md&#45;oss/discord&#45;&gt;@md&#45;oss/config</title>
<path fill="none" stroke="#94a3b8" stroke-width="1.1" d="M150.08,-322.22C158.64,-264.96 187.97,-89.66 231,-55.34 322.06,17.27 409.84,21.2 493,-60.34 558.55,-124.62 560.37,-427.3 559.42,-517.14"/>
<polygon fill="#94a3b8" stroke="#94a3b8" stroke-width="1.1" points="556.97,-517.17 559.34,-524.2 561.87,-517.23 556.97,-517.17"/>
</g>
<!-- @md&#45;oss/discord&#45;&gt;@md&#45;oss/scripts -->
<g id="edge22" class="edge">
<title>@md&#45;oss/discord&#45;&gt;@md&#45;oss/scripts</title>
<path fill="none" stroke="#94a3b8" stroke-width="1.1" d="M173.57,-348.93C219.66,-364.34 318.27,-398.36 399,-433.34 410.1,-438.15 421.99,-443.9 432.57,-449.24"/>
<polygon fill="#94a3b8" stroke="#94a3b8" stroke-width="1.1" points="431.63,-451.51 438.98,-452.51 433.85,-447.15 431.63,-451.51"/>
</g>
<!-- @md&#45;oss/http&#45;client&#45;&gt;@md&#45;oss/common -->
<g id="edge23" class="edge">
<title>@md&#45;oss/http&#45;client&#45;&gt;@md&#45;oss/common</title>
<path fill="none" stroke="#94a3b8" stroke-width="1.1" d="M157.24,-786.16C177.39,-748.56 223.65,-662.24 246.39,-619.81"/>
<polygon fill="#94a3b8" stroke="#94a3b8" stroke-width="1.1" points="248.55,-620.96 249.7,-613.63 244.23,-618.64 248.55,-620.96"/>
</g>
<!-- @md&#45;oss/http&#45;client&#45;&gt;@md&#45;oss/config -->
<g id="edge24" class="edge">
<title>@md&#45;oss/http&#45;client&#45;&gt;@md&#45;oss/config</title>
<path fill="none" stroke="#94a3b8" stroke-width="1.1" d="M176.51,-822.56C223.68,-849.8 319.72,-895.32 399,-869.34 448.25,-853.21 463.99,-843.29 493,-800.34 543.09,-726.18 555.16,-616.67 558.08,-567.66"/>
<polygon fill="#94a3b8" stroke="#94a3b8" stroke-width="1.1" points="560.53,-567.73 558.46,-560.61 555.63,-567.46 560.53,-567.73"/>
</g>
<!-- @md&#45;oss/http&#45;client&#45;&gt;@md&#45;oss/scripts -->
<g id="edge25" class="edge">
<title>@md&#45;oss/http&#45;client&#45;&gt;@md&#45;oss/scripts</title>
<path fill="none" stroke="#94a3b8" stroke-width="1.1" d="M180.26,-796.73C209.85,-789.17 254.14,-776.13 290,-758.34 316.45,-745.22 381.62,-706.21 399,-682.34 442.3,-622.85 457.58,-534.52 462.66,-491.59"/>
<polygon fill="#94a3b8" stroke="#94a3b8" stroke-width="1.1" points="465.1,-491.84 463.44,-484.61 460.23,-491.3 465.1,-491.84"/>
</g>
<!-- @md&#45;oss/http&#45;client&#45;&gt;@md&#45;oss/serdes -->
<g id="edge26" class="edge">
<title>@md&#45;oss/http&#45;client&#45;&gt;@md&#45;oss/serdes</title>
<path fill="none" stroke="#94a3b8" stroke-width="1.1" d="M180.26,-788.07C210.05,-772.64 254.63,-747.91 290,-721.34 308.7,-707.3 327.76,-689 341.79,-674.64"/>
<polygon fill="#94a3b8" stroke="#94a3b8" stroke-width="1.1" points="343.61,-676.28 346.72,-669.54 340.09,-672.87 343.61,-676.28"/>
</g>
<!-- @md&#45;oss/migrations -->
<g id="node10" class="node">
<title>@md&#45;oss/migrations</title>
<path fill="#1e293b" stroke="#38bdf8" d="M387,-188.34C387,-188.34 342,-188.34 342,-188.34 336,-188.34 330,-182.34 330,-176.34 330,-176.34 330,-164.34 330,-164.34 330,-158.34 336,-152.34 342,-152.34 342,-152.34 387,-152.34 387,-152.34 393,-152.34 399,-158.34 399,-164.34 399,-164.34 399,-176.34 399,-176.34 399,-182.34 393,-188.34 387,-188.34"/>
<text text-anchor="middle" x="364.5" y="-167.84" font-family="Helvetica,sans-Serif" font-size="10.00" fill="#e2e8f0">migrations</text>
</g>
<!-- @md&#45;oss/migrations&#45;&gt;@md&#45;oss/config -->
<g id="edge27" class="edge">
<title>@md&#45;oss/migrations&#45;&gt;@md&#45;oss/config</title>
<path fill="none" stroke="#94a3b8" stroke-width="1.1" d="M386.26,-188.47C390.61,-192.56 395.07,-196.99 399,-201.34 445.59,-252.93 461.48,-264.39 493,-326.34 526.05,-391.29 545.89,-475.77 554.29,-517.2"/>
<polygon fill="#94a3b8" stroke="#94a3b8" stroke-width="1.1" points="551.91,-517.79 555.68,-524.18 556.72,-516.84 551.91,-517.79"/>
</g>
<!-- @md&#45;oss/migrations&#45;&gt;@md&#45;oss/scripts -->
<g id="edge28" class="edge">
<title>@md&#45;oss/migrations&#45;&gt;@md&#45;oss/scripts</title>
<path fill="none" stroke="#94a3b8" stroke-width="1.1" d="M388.73,-188.44C392.61,-192.34 396.26,-196.7 399,-201.34 445.83,-280.53 459.59,-391.92 463.5,-441.2"/>
<polygon fill="#94a3b8" stroke="#94a3b8" stroke-width="1.1" points="461.07,-441.49 464.03,-448.29 465.95,-441.12 461.07,-441.49"/>
</g>
<!-- @md&#45;oss/mutex -->
<g id="node11" class="node">
<title>@md&#45;oss/mutex</title>
<path fill="#1e293b" stroke="#38bdf8" d="M379.5,-127.34C379.5,-127.34 349.5,-127.34 349.5,-127.34 343.5,-127.34 337.5,-121.34 337.5,-115.34 337.5,-115.34 337.5,-103.34 337.5,-103.34 337.5,-97.34 343.5,-91.34 349.5,-91.34 349.5,-91.34 379.5,-91.34 379.5,-91.34 385.5,-91.34 391.5,-97.34 391.5,-103.34 391.5,-103.34 391.5,-115.34 391.5,-115.34 391.5,-121.34 385.5,-127.34 379.5,-127.34"/>
<text text-anchor="middle" x="364.5" y="-106.84" font-family="Helvetica,sans-Serif" font-size="10.00" fill="#e2e8f0">mutex</text>
</g>
<!-- @md&#45;oss/mutex&#45;&gt;@md&#45;oss/config -->
<g id="edge29" class="edge">
<title>@md&#45;oss/mutex&#45;&gt;@md&#45;oss/config</title>
<path fill="none" stroke="#94a3b8" stroke-width="1.1" d="M390.48,-127.42C419.88,-150.1 467.85,-191.85 493,-239.34 542.81,-333.41 555.05,-462.89 558.04,-516.99"/>
<polygon fill="#94a3b8" stroke="#94a3b8" stroke-width="1.1" points="555.6,-517.25 558.4,-524.11 560.49,-517 555.6,-517.25"/>
</g>
<!-- @md&#45;oss/mutex&#45;&gt;@md&#45;oss/scripts -->
<g id="edge30" class="edge">
<title>@md&#45;oss/mutex&#45;&gt;@md&#45;oss/scripts</title>
<path fill="none" stroke="#94a3b8" stroke-width="1.1" d="M389.23,-127.69C392.97,-131.51 396.44,-135.78 399,-140.34 455.58,-241.04 464.04,-383.39 465.03,-440.84"/>
<polygon fill="#94a3b8" stroke="#94a3b8" stroke-width="1.1" points="462.58,-441.08 465.12,-448.05 467.48,-441.02 462.58,-441.08"/>
</g>
<!-- @md&#45;oss/observability -->
<g id="node12" class="node">
<title>@md&#45;oss/observability</title>
<path fill="#1e293b" stroke="#38bdf8" d="M174.5,-955.34C174.5,-955.34 118.5,-955.34 118.5,-955.34 112.5,-955.34 106.5,-949.34 106.5,-943.34 106.5,-943.34 106.5,-931.34 106.5,-931.34 106.5,-925.34 112.5,-919.34 118.5,-919.34 118.5,-919.34 174.5,-919.34 174.5,-919.34 180.5,-919.34 186.5,-925.34 186.5,-931.34 186.5,-931.34 186.5,-943.34 186.5,-943.34 186.5,-949.34 180.5,-955.34 174.5,-955.34"/>
<text text-anchor="middle" x="146.5" y="-934.84" font-family="Helvetica,sans-Serif" font-size="10.00" fill="#e2e8f0">observability</text>
</g>
<!-- @md&#45;oss/observability&#45;&gt;@md&#45;oss/common -->
<g id="edge31" class="edge">
<title>@md&#45;oss/observability&#45;&gt;@md&#45;oss/common</title>
<path fill="none" stroke="#94a3b8" stroke-width="1.1" d="M156.06,-919.19C165.39,-899 180.39,-865.28 191,-835.34 218.35,-758.16 242.65,-664.14 253.5,-620.21"/>
<polygon fill="#94a3b8" stroke="#94a3b8" stroke-width="1.1" points="255.89,-620.73 255.18,-613.35 251.13,-619.56 255.89,-620.73"/>
</g>
<!-- @md&#45;oss/observability&#45;&gt;@md&#45;oss/config -->
<g id="edge32" class="edge">
<title>@md&#45;oss/observability&#45;&gt;@md&#45;oss/config</title>
<path fill="none" stroke="#94a3b8" stroke-width="1.1" d="M186.54,-940.5C260.24,-944.03 419.07,-939.61 493,-845.34 527.23,-801.7 549.12,-632 556.35,-567.45"/>
<polygon fill="#94a3b8" stroke="#94a3b8" stroke-width="1.1" points="558.79,-567.7 557.12,-560.47 553.92,-567.16 558.79,-567.7"/>
</g>
<!-- @md&#45;oss/observability&#45;&gt;@md&#45;oss/scripts -->
<g id="edge33" class="edge">
<title>@md&#45;oss/observability&#45;&gt;@md&#45;oss/scripts</title>
<path fill="none" stroke="#94a3b8" stroke-width="1.1" d="M169.09,-919.16C203.2,-890.44 271.68,-832.87 330,-784.34 360.57,-758.9 377.74,-760.96 399,-727.34 447.36,-650.88 460.32,-540.83 463.77,-491.7"/>
<polygon fill="#94a3b8" stroke="#94a3b8" stroke-width="1.1" points="466.22,-491.77 464.23,-484.63 461.33,-491.45 466.22,-491.77"/>
</g>
<!-- @md&#45;oss/observability&#45;&gt;@md&#45;oss/serdes -->
<g id="edge34" class="edge">
<title>@md&#45;oss/observability&#45;&gt;@md&#45;oss/serdes</title>
<path fill="none" stroke="#94a3b8" stroke-width="1.1" d="M162.71,-919.12C189.25,-887.13 245.46,-818.53 290,-758.34 310.71,-730.36 333.19,-697.18 347.76,-675.28"/>
<polygon fill="#94a3b8" stroke="#94a3b8" stroke-width="1.1" points="349.83,-676.6 351.65,-669.41 345.74,-673.89 349.83,-676.6"/>
</g>
<!-- @md&#45;oss/scripts&#45;&gt;@md&#45;oss/config -->
<g id="edge35" class="edge">
<title>@md&#45;oss/scripts&#45;&gt;@md&#45;oss/config</title>
<path fill="none" stroke="#94a3b8" stroke-width="1.1" d="M488.8,-484.35C501.54,-494.88 517.74,-508.26 531.37,-519.52"/>
<polygon fill="#94a3b8" stroke="#94a3b8" stroke-width="1.1" points="530.08,-521.63 537.03,-524.2 533.2,-517.85 530.08,-521.63"/>
</g>
<!-- @md&#45;oss/security -->
<g id="node14" class="node">
<title>@md&#45;oss/security</title>
<path fill="#1e293b" stroke="#38bdf8" d="M162.5,-493.34C162.5,-493.34 130.5,-493.34 130.5,-493.34 124.5,-493.34 118.5,-487.34 118.5,-481.34 118.5,-481.34 118.5,-469.34 118.5,-469.34 118.5,-463.34 124.5,-457.34 130.5,-457.34 130.5,-457.34 162.5,-457.34 162.5,-457.34 168.5,-457.34 174.5,-463.34 174.5,-469.34 174.5,-469.34 174.5,-481.34 174.5,-481.34 174.5,-487.34 168.5,-493.34 162.5,-493.34"/>
<text text-anchor="middle" x="146.5" y="-472.84" font-family="Helvetica,sans-Serif" font-size="10.00" fill="#e2e8f0">security</text>
</g>
<!-- @md&#45;oss/security&#45;&gt;@md&#45;oss/common -->
<g id="edge36" class="edge">
<title>@md&#45;oss/security&#45;&gt;@md&#45;oss/common</title>
<path fill="none" stroke="#94a3b8" stroke-width="1.1" d="M164.51,-493.57C184.11,-514.57 216.37,-549.13 237.77,-572.06"/>
<polygon fill="#94a3b8" stroke="#94a3b8" stroke-width="1.1" points="236.13,-573.89 242.7,-577.34 239.71,-570.55 236.13,-573.89"/>
</g>
<!-- @md&#45;oss/security&#45;&gt;@md&#45;oss/config -->
<g id="edge37" class="edge">
<title>@md&#45;oss/security&#45;&gt;@md&#45;oss/config</title>
<path fill="none" stroke="#94a3b8" stroke-width="1.1" d="M169.32,-457.2C176.92,-450.05 185.04,-441.39 191,-432.34 291.41,-279.97 229.28,-11.3 399,-78.34 452.23,-99.37 465.76,-116.01 493,-166.34 526.24,-227.77 549.48,-442.9 556.66,-517.02"/>
<polygon fill="#94a3b8" stroke="#94a3b8" stroke-width="1.1" points="554.24,-517.41 557.34,-524.15 559.11,-516.94 554.24,-517.41"/>
</g>
<!-- @md&#45;oss/security&#45;&gt;@md&#45;oss/scripts -->
<g id="edge38" class="edge">
<title>@md&#45;oss/security&#45;&gt;@md&#45;oss/scripts</title>
<path fill="none" stroke="#94a3b8" stroke-width="1.1" d="M174.57,-474.57C232.5,-472.93 368.34,-469.08 431.55,-467.29"/>
<polygon fill="#94a3b8" stroke="#94a3b8" stroke-width="1.1" points="431.96,-469.73 438.89,-467.08 431.82,-464.83 431.96,-469.73"/>
</g>
<!-- @md&#45;oss/security&#45;&gt;@md&#45;oss/serdes -->
<g id="edge39" class="edge">
<title>@md&#45;oss/security&#45;&gt;@md&#45;oss/serdes</title>
<path fill="none" stroke="#94a3b8" stroke-width="1.1" d="M174.61,-489.25C204.56,-505.32 253.38,-533.65 290,-565.34 311.48,-583.93 332.15,-608.97 346.07,-627.24"/>
<polygon fill="#94a3b8" stroke="#94a3b8" stroke-width="1.1" points="344.36,-629.03 350.52,-633.15 348.27,-626.09 344.36,-629.03"/>
</g>
<!-- @md&#45;oss/serdes&#45;&gt;@md&#45;oss/config -->
<g id="edge40" class="edge">
<title>@md&#45;oss/serdes&#45;&gt;@md&#45;oss/config</title>
<path fill="none" stroke="#94a3b8" stroke-width="1.1" d="M391.62,-648.01C418.65,-643.62 461.28,-634.04 493,-614.34 512.71,-602.1 530.21,-582.38 542.23,-566.66"/>
<polygon fill="#94a3b8" stroke="#94a3b8" stroke-width="1.1" points="544.49,-567.72 546.71,-560.65 540.56,-564.79 544.49,-567.72"/>
</g>
<!-- @md&#45;oss/serdes&#45;&gt;@md&#45;oss/scripts -->
<g id="edge41" class="edge">
<title>@md&#45;oss/serdes&#45;&gt;@md&#45;oss/scripts</title>
<path fill="none" stroke="#94a3b8" stroke-width="1.1" d="M375.22,-633.27C393.2,-599.83 431.67,-528.32 451.92,-490.67"/>
<polygon fill="#94a3b8" stroke="#94a3b8" stroke-width="1.1" points="454.08,-491.82 455.24,-484.49 449.77,-489.49 454.08,-491.82"/>
</g>
</g>
</svg>
