<?xml version="1.0" encoding="UTF-8" standalone="no"?>
<!DOCTYPE svg PUBLIC "-//W3C//DTD SVG 1.1//EN"
 "http://www.w3.org/Graphics/SVG/1.1/DTD/svg11.dtd">
<!-- Generated by graphviz version 2.43.0 (0)
 -->
<!-- Title: G Pages: 1 -->
<svg width="527pt" height="1022pt"
 viewBox="0.00 0.00 526.80 1021.80" xmlns="http://www.w3.org/2000/svg" xmlns:xlink="http://www.w3.org/1999/xlink">
<g id="graph0" class="graph" transform="scale(1 1) rotate(0) translate(14.4 1007.4)">
<title>G</title>
<polygon fill="#202020" stroke="transparent" points="-14.4,14.4 -14.4,-1007.4 512.4,-1007.4 512.4,14.4 -14.4,14.4"/>
<text text-anchor="middle" x="249" y="-977.8" font-family="Times,serif" font-size="14.00" fill="#eeeeee">Workspace dependency graph: vendor</text>
<!-- @md&#45;oss/analytics -->
<g id="node1" class="node">
<title>@md&#45;oss/analytics</title>
<path fill="#1e293b" stroke="#38bdf8" d="M388,-970C388,-970 351,-970 351,-970 345,-970 339,-964 339,-958 339,-958 339,-946 339,-946 339,-940 345,-934 351,-934 351,-934 388,-934 388,-934 394,-934 400,-940 400,-946 400,-946 400,-958 400,-958 400,-964 394,-970 388,-970"/>
<text text-anchor="middle" x="369.5" y="-949.5" font-family="Helvetica,sans-Serif" font-size="10.00" fill="#e2e8f0">analytics</text>
</g>
<!-- @md&#45;oss/config -->
<g id="node5" class="node">
<title>@md&#45;oss/config</title>
<path fill="#1e293b" stroke="#38bdf8" d="M486,-421C486,-421 456,-421 456,-421 450,-421 444,-415 444,-409 444,-409 444,-397 444,-397 444,-391 450,-385 456,-385 456,-385 486,-385 486,-385 492,-385 498,-391 498,-397 498,-397 498,-409 498,-409 498,-415 492,-421 486,-421"/>
<text text-anchor="middle" x="471" y="-400.5" font-family="Helvetica,sans-Serif" font-size="10.00" fill="#e2e8f0">config</text>
</g>
<!-- @md&#45;oss/analytics&#45;&gt;@md&#45;oss/config -->
<g id="edge1" class="edge">
<title>@md&#45;oss/analytics&#45;&gt;@md&#45;oss/config</title>
<path fill="none" stroke="#94a3b8" stroke-width="1.1" d="M391.07,-933.67C396.08,-928.16 400.88,-921.77 404,-915 444.79,-826.53 463.9,-519.11 468.73,-428.39"/>
<polygon fill="#94a3b8" stroke="#94a3b8" stroke-width="1.1" points="471.19,-428.38 469.11,-421.26 466.29,-428.12 471.19,-428.38"/>
</g>
<!-- @md&#45;oss/api&#45;types -->
<g id="node2" class="node">
<title>@md&#45;oss/api&#45;types</title>
<path fill="#1e293b" stroke="#38bdf8" d="M63.5,-789C63.5,-789 25.5,-789 25.5,-789 19.5,-789 13.5,-783 13.5,-777 13.5,-777 13.5,-765 13.5,-765 13.5,-759 19.5,-753 25.5,-753 25.5,-753 63.5,-753 63.5,-753 69.5,-753 75.5,-759 75.5,-765 75.5,-765 75.5,-777 75.5,-777 75.5,-783 69.5,-789 63.5,-789"/>
<text text-anchor="middle" x="44.5" y="-768.5" font-family="Helvetica,sans-Serif" font-size="10.00" fill="#e2e8f0">api&#45;types</text>
</g>
<!-- @md&#45;oss/common -->
<g id="node4" class="node">
<title>@md&#45;oss/common</title>
<path fill="#1e293b" stroke="#38bdf8" d="M283,-450C283,-450 248,-450 248,-450 242,-450 236,-444 236,-438 236,-438 236,-426 236,-426 236,-420 242,-414 248,-414 248,-414 283,-414 283,-414 289,-414 295,-420 295,-426 295,-426 295,-438 295,-438 295,-444 289,-450 283,-450"/>
<text text-anchor="middle" x="265.5" y="-429.5" font-family="Helvetica,sans-Serif" font-size="10.00" fill="#e2e8f0">common</text>
</g>
<!-- @md&#45;oss/api&#45;types&#45;&gt;@md&#45;oss/common -->
<g id="edge2" class="edge">
<title>@md&#45;oss/api&#45;types&#45;&gt;@md&#45;oss/common</title>
<path fill="none" stroke="#94a3b8" stroke-width="1.1" d="M48.87,-752.8C57.04,-712.34 80.87,-613.17 129,-545 156.16,-506.53 199.58,-473.51 229.92,-453.27"/>
<polygon fill="#94a3b8" stroke="#94a3b8" stroke-width="1.1" points="231.31,-455.29 235.8,-449.39 228.61,-451.2 231.31,-455.29"/>
</g>
<!-- @md&#45;oss/api&#45;types&#45;&gt;@md&#45;oss/config -->
<g id="edge3" class="edge">
<title>@md&#45;oss/api&#45;types&#45;&gt;@md&#45;oss/config</title>
<path fill="none" stroke="#94a3b8" stroke-width="1.1" d="M63.86,-789.11C79.64,-803.32 103.79,-821.99 129,-830 251.18,-868.81 334.09,-850.45 404,-743 438.17,-690.48 460.45,-498.14 467.55,-428.44"/>
<polygon fill="#94a3b8" stroke="#94a3b8" stroke-width="1.1" points="470,-428.53 468.26,-421.32 465.13,-428.04 470,-428.53"/>
</g>
<!-- @md&#45;oss/http&#45;client -->
<g id="node9" class="node">
<title>@md&#45;oss/http&#45;client</title>
<path fill="#1e293b" stroke="#38bdf8" d="M184,-817C184,-817 141,-817 141,-817 135,-817 129,-811 129,-805 129,-805 129,-793 129,-793 129,-787 135,-781 141,-781 141,-781 184,-781 184,-781 190,-781 196,-787 196,-793 196,-793 196,-805 196,-805 196,-811 190,-817 184,-817"/>
<text text-anchor="middle" x="162.5" y="-796.5" font-family="Helvetica,sans-Serif" font-size="10.00" fill="#e2e8f0">http&#45;client</text>
</g>
<!-- @md&#45;oss/api&#45;types&#45;&gt;@md&#45;oss/http&#45;client -->
<g id="edge4" class="edge">
<title>@md&#45;oss/api&#45;types&#45;&gt;@md&#45;oss/http&#45;client</title>
<path fill="none" stroke="#94a3b8" stroke-width="1.1" d="M75.67,-778.28C89.64,-781.65 106.42,-785.7 121.42,-789.33"/>
<polygon fill="#94a3b8" stroke="#94a3b8" stroke-width="1.1" points="121.24,-791.8 128.62,-791.06 122.39,-787.04 121.24,-791.8"/>
</g>
<!-- @md&#45;oss/serdes -->
<g id="node15" class="node">
<title>@md&#45;oss/serdes</title>
<path fill="#1e293b" stroke="#38bdf8" d="M384.5,-664C384.5,-664 354.5,-664 354.5,-664 348.5,-664 342.5,-658 342.5,-652 342.5,-652 342.5,-640 342.5,-640 342.5,-634 348.5,-628 354.5,-628 354.5,-628 384.5,-628 384.5,-628 390.5,-628 396.5,-634 396.5,-640 396.5,-640 396.5,-652 396.5,-652 396.5,-658 390.5,-664 384.5,-664"/>
<text text-anchor="middle" x="369.5" y="-643.5" font-family="Helvetica,sans-Serif" font-size="10.00" fill="#e2e8f0">serdes</text>
</g>
<!-- @md&#45;oss/api&#45;types&#45;&gt;@md&#45;oss/serdes -->
<g id="edge5" class="edge">
<title>@md&#45;oss/api&#45;types&#45;&gt;@md&#45;oss/serdes</title>
<path fill="none" stroke="#94a3b8" stroke-width="1.1" d="M75.56,-768.5C124.15,-763.45 221.9,-749.06 295,-711 315.01,-700.58 333.98,-683.55 347.64,-669.53"/>
<polygon fill="#94a3b8" stroke="#94a3b8" stroke-width="1.1" points="349.73,-670.89 352.79,-664.13 346.18,-667.51 349.73,-670.89"/>
</g>
<!-- @md&#45;oss/cache -->
<g id="node3" class="node">
<title>@md&#45;oss/cache</title>
<path fill="#1e293b" stroke="#38bdf8" d="M177.5,-654C177.5,-654 147.5,-654 147.5,-654 141.5,-654 135.5,-648 135.5,-642 135.5,-642 135.5,-630 135.5,-630 135.5,-624 141.5,-618 147.5,-618 147.5,-618 177.5,-618 177.5,-618 183.5,-618 189.5,-624 189.5,-630 189.5,-630 189.5,-642 189.5,-642 189.5,-648 183.5,-654 177.5,-654"/>
<text text-anchor="middle" x="162.5" y="-633.5" font-family="Helvetica,sans-Serif" font-size="10.00" fill="#e2e8f0">cache</text>
</g>
<!-- @md&#45;oss/cache&#45;&gt;@md&#45;oss/common -->
<g id="edge6" class="edge">
<title>@md&#45;oss/cache&#45;&gt;@md&#45;oss/common</title>
<path fill="none" stroke="#94a3b8" stroke-width="1.1" d="M185.9,-617.87C189.59,-614.2 193.14,-610.18 196,-606 228.7,-558.23 249.08,-492.59 258.44,-457.15"/>
<polygon fill="#94a3b8" stroke="#94a3b8" stroke-width="1.1" points="260.89,-457.45 260.27,-450.06 256.15,-456.22 260.89,-457.45"/>
</g>
<!-- @md&#45;oss/cache&#45;&gt;@md&#45;oss/config -->
<g id="edge7" class="edge">
<title>@md&#45;oss/cache&#45;&gt;@md&#45;oss/config</title>
<path fill="none" stroke="#94a3b8" stroke-width="1.1" d="M189.65,-621.92C235.6,-596.53 332.72,-539.92 404,-478 421.84,-462.5 439.39,-442.25 451.9,-426.7"/>
<polygon fill="#94a3b8" stroke="#94a3b8" stroke-width="1.1" points="453.84,-428.21 456.27,-421.2 450,-425.16 453.84,-428.21"/>
</g>
<!-- @md&#45;oss/cache&#45;&gt;@md&#45;oss/serdes -->
<g id="edge8" class="edge">
<title>@md&#45;oss/cache&#45;&gt;@md&#45;oss/serdes</title>
<path fill="none" stroke="#94a3b8" stroke-width="1.1" d="M189.88,-637.29C227.01,-639.1 294.68,-642.4 335.22,-644.38"/>
<polygon fill="#94a3b8" stroke="#94a3b8" stroke-width="1.1" points="335.11,-646.82 342.22,-644.72 335.35,-641.93 335.11,-646.82"/>
</g>
<!-- @md&#45;oss/common&#45;&gt;@md&#45;oss/config -->
<g id="edge9" class="edge">
<title>@md&#45;oss/common&#45;&gt;@md&#45;oss/config</title>
<path fill="none" stroke="#94a3b8" stroke-width="1.1" d="M295.22,-427.91C332.56,-422.59 397.63,-413.31 436.97,-407.71"/>
<polygon fill="#94a3b8" stroke="#94a3b8" stroke-width="1.1" points="437.41,-410.12 444,-406.71 436.72,-405.27 437.41,-410.12"/>
</g>
<!-- @md&#45;oss/common&#45;&gt;@md&#45;oss/serdes -->
<g id="edge10" class="edge">
<title>@md&#45;oss/common&#45;&gt;@md&#45;oss/serdes</title>
<path fill="none" stroke="#94a3b8" stroke-width="1.1" d="M275.2,-450.25C293.49,-488.62 335.96,-577.73 356.69,-621.23"/>
<polygon fill="#94a3b8" stroke="#94a3b8" stroke-width="1.1" points="354.6,-622.54 359.83,-627.8 359.03,-620.43 354.6,-622.54"/>
</g>
<!-- @md&#45;oss/database -->
<g id="node6" class="node">
<title>@md&#45;oss/database</title>
<path fill="#1e293b" stroke="#38bdf8" d="M388.5,-158C388.5,-158 350.5,-158 350.5,-158 344.5,-158 338.5,-152 338.5,-146 338.5,-146 338.5,-134 338.5,-134 338.5,-128 344.5,-122 350.5,-122 350.5,-122 388.5,-122 388.5,-122 394.5,-122 400.5,-128 400.5,-134 400.5,-134 400.5,-146 400.5,-146 400.5,-152 394.5,-158 388.5,-158"/>
<text text-anchor="middle" x="369.5" y="-137.5" font-family="Helvetica,sans-Serif" font-size="10.00" fill="#e2e8f0">database</text>
</g>
<!-- @md&#45;oss/database&#45;&gt;@md&#45;oss/config -->
<g id="edge11" class="edge">
<title>@md&#45;oss/database&#45;&gt;@md&#45;oss/config</title>
<path fill="none" stroke="#94a3b8" stroke-width="1.1" d="M390.04,-158.29C395.16,-163.89 400.28,-170.34 404,-177 441.53,-244.11 459.54,-334.63 466.46,-377.91"/>
<polygon fill="#94a3b8" stroke="#94a3b8" stroke-width="1.1" points="464.05,-378.39 467.55,-384.94 468.89,-377.64 464.05,-378.39"/>
</g>
<!-- @md&#45;oss/design&#45;system -->
<g id="node7" class="node">
<title>@md&#45;oss/design&#45;system</title>
<path fill="#1e293b" stroke="#38bdf8" d="M77,-379C77,-379 12,-379 12,-379 6,-379 0,-373 0,-367 0,-367 0,-355 0,-355 0,-349 6,-343 12,-343 12,-343 77,-343 77,-343 83,-343 89,-349 89,-355 89,-355 89,-367 89,-367 89,-373 83,-379 77,-379"/>
<text text-anchor="middle" x="44.5" y="-358.5" font-family="Helvetica,sans-Serif" font-size="10.00" fill="#e2e8f0">design&#45;system</text>
</g>
<!-- @md&#45;oss/design&#45;system&#45;&gt;@md&#45;oss/common -->
<g id="edge12" class="edge">
<title>@md&#45;oss/design&#45;system&#45;&gt;@md&#45;oss/common</title>
<path fill="none" stroke="#94a3b8" stroke-width="1.1" d="M89.07,-377.82C101.87,-382.58 115.94,-387.65 129,-392 162.54,-403.16 201.26,-414.43 228.7,-422.15"/>
<polygon fill="#94a3b8" stroke="#94a3b8" stroke-width="1.1" points="228.37,-424.61 235.77,-424.14 229.69,-419.89 228.37,-424.61"/>
</g>
<!-- @md&#45;oss/design&#45;system&#45;&gt;@md&#45;oss/config -->
<g id="edge13" class="edge">
<title>@md&#45;oss/design&#45;system&#45;&gt;@md&#45;oss/config</title>
<path fill="none" stroke="#94a3b8" stroke-width="1.1" d="M49.88,-342.93C58.68,-311.13 81.83,-245.98 129,-219 154.85,-204.21 166.3,-216.87 196,-219 289.16,-225.68 329.9,-192.14 404,-249 445.15,-280.58 460.99,-342.88 466.82,-377.79"/>
<polygon fill="#94a3b8" stroke="#94a3b8" stroke-width="1.1" points="464.42,-378.26 467.92,-384.8 469.26,-377.5 464.42,-378.26"/>
</g>
<!-- @md&#45;oss/scripts -->
<g id="node13" class="node">
<title>@md&#45;oss/scripts</title>
<path fill="#1e293b" stroke="#38bdf8" d="M177.5,-379C177.5,-379 147.5,-379 147.5,-379 141.5,-379 135.5,-373 135.5,-367 135.5,-367 135.5,-355 135.5,-355 135.5,-349 141.5,-343 147.5,-343 147.5,-343 177.5,-343 177.5,-343 183.5,-343 189.5,-349 189.5,-355 189.5,-355 189.5,-367 189.5,-367 189.5,-373 183.5,-379 177.5,-379"/>
<text text-anchor="middle" x="162.5" y="-358.5" font-family="Helvetica,sans-Serif" font-size="10.00" fill="#e2e8f0">scripts</text>
</g>
<!-- @md&#45;oss/design&#45;system&#45;&gt;@md&#45;oss/scripts -->
<g id="edge14" class="edge">
<title>@md&#45;oss/design&#45;system&#45;&gt;@md&#45;oss/scripts</title>
<path fill="none" stroke="#94a3b8" stroke-width="1.1" d="M89.02,-361C101.91,-361 115.81,-361 127.96,-361"/>
<polygon fill="#94a3b8" stroke="#94a3b8" stroke-width="1.1" points="128.27,-363.45 135.27,-361 128.27,-358.55 128.27,-363.45"/>
</g>
<!-- @md&#45;oss/discord -->
<g id="node8" class="node">
<title>@md&#45;oss/discord</title>
<path fill="#1e293b" stroke="#38bdf8" d="M177.5,-267C177.5,-267 147.5,-267 147.5,-267 141.5,-267 135.5,-261 135.5,-255 135.5,-255 135.5,-243 135.5,-243 135.5,-237 141.5,-231 147.5,-231 147.5,-231 177.5,-231 177.5,-231 183.5,-231 189.5,-237 189.5,-243 189.5,-243 189.5,-255 189.5,-255 189.5,-261 183.5,-267 177.5,-267"/>
<text text-anchor="middle" x="162.5" y="-246.5" font-family="Helvetica,sans-Serif" font-size="10.00" fill="#e2e8f0">discord</text>
</g>
<!-- @md&#45;oss/discord&#45;&gt;@md&#45;oss/common -->
<g id="edge15" class="edge">
<title>@md&#45;oss/discord&#45;&gt;@md&#45;oss/common</title>
<path fill="none" stroke="#94a3b8" stroke-width="1.1" d="M173.55,-267.22C191.78,-300.24 230.29,-370.01 250.86,-407.29"/>
<polygon fill="#94a3b8" stroke="#94a3b8" stroke-width="1.1" points="248.96,-408.91 254.49,-413.86 253.25,-406.55 248.96,-408.91"/>
</g>
<!-- @md&#45;oss/discord&#45;&gt;@md&#45;oss/config -->
<g id="edge16" class="edge">
<title>@md&#45;oss/discord&#45;&gt;@md&#45;oss/config</title>
<path fill="none" stroke="#94a3b8" stroke-width="1.1" d="M189.68,-246.04C236.95,-242.09 337.8,-240.23 404,-286 435.87,-308.04 454.17,-350.75 463.1,-378.02"/>
<polygon fill="#94a3b8" stroke="#94a3b8" stroke-width="1.1" points="460.83,-378.99 465.27,-384.94 465.51,-377.53 460.83,-378.99"/>
</g>
<!-- @md&#45;oss/http&#45;client&#45;&gt;@md&#45;oss/common -->
<g id="edge17" class="edge">
<title>@md&#45;oss/http&#45;client&#45;&gt;@md&#45;oss/common</title>
<path fill="none" stroke="#94a3b8" stroke-width="1.1" d="M168.51,-780.8C185.1,-720.51 238.29,-527.22 257.5,-457.43"/>
<polygon fill="#94a3b8" stroke="#94a3b8" stroke-width="1.1" points="259.97,-457.71 259.46,-450.31 255.24,-456.41 259.97,-457.71"/>
</g>
<!-- @md&#45;oss/http&#45;client&#45;&gt;@md&#45;oss/config -->
<g id="edge18" class="edge">
<title>@md&#45;oss/http&#45;client&#45;&gt;@md&#45;oss/config</title>
<path fill="none" stroke="#94a3b8" stroke-width="1.1" d="M196.16,-804.45C223.78,-807.53 263.74,-808.31 295,-794 359.62,-764.41 370.35,-739.6 404,-677 449.06,-593.17 463.75,-478.54 468.21,-428.32"/>
<polygon fill="#94a3b8" stroke="#94a3b8" stroke-width="1.1" points="470.67,-428.29 468.81,-421.1 465.78,-427.87 470.67,-428.29"/>
</g>
<!-- @md&#45;oss/http&#45;client&#45;&gt;@md&#45;oss/serdes -->
<g id="edge19" class="edge">
<title>@md&#45;oss/http&#45;client&#45;&gt;@md&#45;oss/serdes</title>
<path fill="none" stroke="#94a3b8" stroke-width="1.1" d="M196.1,-796.38C224.61,-792.66 265.9,-783.67 295,-762 326.42,-738.6 347.79,-697.45 359.06,-670.97"/>
<polygon fill="#94a3b8" stroke="#94a3b8" stroke-width="1.1" points="361.43,-671.66 361.84,-664.25 356.9,-669.78 361.43,-671.66"/>
</g>
<!-- @md&#45;oss/migrations -->
<g id="node10" class="node">
<title>@md&#45;oss/migrations</title>
<path fill="#1e293b" stroke="#38bdf8" d="M392,-97C392,-97 347,-97 347,-97 341,-97 335,-91 335,-85 335,-85 335,-73 335,-73 335,-67 341,-61 347,-61 347,-61 392,-61 392,-61 398,-61 404,-67 404,-73 404,-73 404,-85 404,-85 404,-91 398,-97 392,-97"/>
<text text-anchor="middle" x="369.5" y="-76.5" font-family="Helvetica,sans-Serif" font-size="10.00" fill="#e2e8f0">migrations</text>
</g>
<!-- @md&#45;oss/migrations&#45;&gt;@md&#45;oss/config -->
<g id="edge20" class="edge">
<title>@md&#45;oss/migrations&#45;&gt;@md&#45;oss/config</title>
<path fill="none" stroke="#94a3b8" stroke-width="1.1" d="M393.81,-97.05C397.68,-100.96 401.31,-105.33 404,-110 455.25,-198.92 466.71,-324.3 469.27,-377.52"/>
<polygon fill="#94a3b8" stroke="#94a3b8" stroke-width="1.1" points="466.83,-377.95 469.58,-384.84 471.73,-377.74 466.83,-377.95"/>
</g>
<!-- @md&#45;oss/mutex -->
<g id="node11" class="node">
<title>@md&#45;oss/mutex</title>
<path fill="#1e293b" stroke="#38bdf8" d="M384.5,-36C384.5,-36 354.5,-36 354.5,-36 348.5,-36 342.5,-30 342.5,-24 342.5,-24 342.5,-12 342.5,-12 342.5,-6 348.5,0 354.5,0 354.5,0 384.5,0 384.5,0 390.5,0 396.5,-6 396.5,-12 396.5,-12 396.5,-24 396.5,-24 396.5,-30 390.5,-36 384.5,-36"/>
<text text-anchor="middle" x="369.5" y="-15.5" font-family="Helvetica,sans-Serif" font-size="10.00" fill="#e2e8f0">mutex</text>
</g>
<!-- @md&#45;oss/mutex&#45;&gt;@md&#45;oss/config -->
<g id="edge21" class="edge">
<title>@md&#45;oss/mutex&#45;&gt;@md&#45;oss/config</title>
<path fill="none" stroke="#94a3b8" stroke-width="1.1" d="M394.29,-36.31C398.02,-40.14 401.47,-44.42 404,-49 465.12,-159.76 470.85,-316.59 470.57,-377.46"/>
<polygon fill="#94a3b8" stroke="#94a3b8" stroke-width="1.1" points="468.12,-377.72 470.51,-384.74 473.02,-377.76 468.12,-377.72"/>
</g>
<!-- @md&#45;oss/observability -->
<g id="node12" class="node">
<title>@md&#45;oss/observability</title>
<path fill="#1e293b" stroke="#38bdf8" d="M72.5,-463C72.5,-463 16.5,-463 16.5,-463 10.5,-463 4.5,-457 4.5,-451 4.5,-451 4.5,-439 4.5,-439 4.5,-433 10.5,-427 16.5,-427 16.5,-427 72.5,-427 72.5,-427 78.5,-427 84.5,-433 84.5,-439 84.5,-439 84.5,-451 84.5,-451 84.5,-457 78.5,-463 72.5,-463"/>
<text text-anchor="middle" x="44.5" y="-442.5" font-family="Helvetica,sans-Serif" font-size="10.00" fill="#e2e8f0">observability</text>
</g>
<!-- @md&#45;oss/observability&#45;&gt;@md&#45;oss/common -->
<g id="edge22" class="edge">
<title>@md&#45;oss/observability&#45;&gt;@md&#45;oss/common</title>
<path fill="none" stroke="#94a3b8" stroke-width="1.1" d="M84.65,-442.68C125.54,-440.25 189.11,-436.47 228.7,-434.12"/>
<polygon fill="#94a3b8" stroke="#94a3b8" stroke-width="1.1" points="228.96,-436.56 235.8,-433.7 228.67,-431.67 228.96,-436.56"/>
</g>
<!-- @md&#45;oss/observability&#45;&gt;@md&#45;oss/config -->
<g id="edge23" class="edge">
<title>@md&#45;oss/observability&#45;&gt;@md&#45;oss/config</title>
<path fill="none" stroke="#94a3b8" stroke-width="1.1" d="M61.3,-426.74C69.78,-416.7 80.26,-403.89 89,-392 108.2,-365.88 100.47,-346.41 129,-331 232.2,-275.26 374.63,-345.22 437.7,-382.47"/>
<polygon fill="#94a3b8" stroke="#94a3b8" stroke-width="1.1" points="436.65,-384.7 443.92,-386.19 439.17,-380.49 436.65,-384.7"/>
</g>
<!-- @md&#45;oss/observability&#45;&gt;@md&#45;oss/scripts -->
<g id="edge24" class="edge">
<title>@md&#45;oss/observability&#45;&gt;@md&#45;oss/scripts</title>
<path fill="none" stroke="#94a3b8" stroke-width="1.1" d="M70.38,-426.98C88,-414.22 111.75,-397.03 130.58,-383.39"/>
<polygon fill="#94a3b8" stroke="#94a3b8" stroke-width="1.1" points="132.02,-385.37 136.26,-379.28 129.15,-381.4 132.02,-385.37"/>
</g>
<!-- @md&#45;oss/observability&#45;&gt;@md&#45;oss/serdes -->
<g id="edge25" class="edge">
<title>@md&#45;oss/observability&#45;&gt;@md&#45;oss/serdes</title>
<path fill="none" stroke="#94a3b8" stroke-width="1.1" d="M45.9,-463.16C47.98,-507.16 60.1,-619.3 129,-667 191.44,-710.23 286.1,-681.4 335.64,-661.11"/>
<polygon fill="#94a3b8" stroke="#94a3b8" stroke-width="1.1" points="336.82,-663.27 342.33,-658.31 334.92,-658.75 336.82,-663.27"/>
</g>
<!-- @md&#45;oss/scripts&#45;&gt;@md&#45;oss/common -->
<g id="edge26" class="edge">
<title>@md&#45;oss/scripts&#45;&gt;@md&#45;oss/common</title>
<path fill="none" stroke="#94a3b8" stroke-width="1.1" d="M189.25,-379.1C202.54,-388.45 218.88,-399.93 232.93,-409.81"/>
<polygon fill="#94a3b8" stroke="#94a3b8" stroke-width="1.1" points="231.66,-411.91 238.8,-413.93 234.48,-407.9 231.66,-411.91"/>
</g>
<!-- @md&#45;oss/scripts&#45;&gt;@md&#45;oss/config -->
<g id="edge27" class="edge">
<title>@md&#45;oss/scripts&#45;&gt;@md&#45;oss/config</title>
<path fill="none" stroke="#94a3b8" stroke-width="1.1" d="M189.63,-364.58C245.28,-372.21 375.39,-390.04 436.8,-398.45"/>
<polygon fill="#94a3b8" stroke="#94a3b8" stroke-width="1.1" points="436.67,-400.91 443.93,-399.43 437.33,-396.05 436.67,-400.91"/>
</g>
<!-- @md&#45;oss/security -->
<g id="node14" class="node">
<title>@md&#45;oss/security</title>
<path fill="#1e293b" stroke="#38bdf8" d="M178.5,-593C178.5,-593 146.5,-593 146.5,-593 140.5,-593 134.5,-587 134.5,-581 134.5,-581 134.5,-569 134.5,-569 134.5,-563 140.5,-557 146.5,-557 146.5,-557 178.5,-557 178.5,-557 184.5,-557 190.5,-563 190.5,-569 190.5,-569 190.5,-581 190.5,-581 190.5,-587 184.5,-593 178.5,-593"/>
<text text-anchor="middle" x="162.5" y="-572.5" font-family="Helvetica,sans-Serif" font-size="10.00" fill="#e2e8f0">security</text>
</g>
<!-- @md&#45;oss/security&#45;&gt;@md&#45;oss/common -->
<g id="edge28" class="edge">
<title>@md&#45;oss/security&#45;&gt;@md&#45;oss/common</title>
<path fill="none" stroke="#94a3b8" stroke-width="1.1" d="M180.77,-556.77C185.92,-550.96 191.41,-544.39 196,-538 216.68,-509.21 216.25,-498.44 236,-469 238.92,-464.65 242.18,-460.14 245.43,-455.82"/>
<polygon fill="#94a3b8" stroke="#94a3b8" stroke-width="1.1" points="247.5,-457.14 249.81,-450.09 243.61,-454.17 247.5,-457.14"/>
</g>
<!-- @md&#45;oss/security&#45;&gt;@md&#45;oss/config -->
<g id="edge29" class="edge">
<title>@md&#45;oss/security&#45;&gt;@md&#45;oss/config</title>
<path fill="none" stroke="#94a3b8" stroke-width="1.1" d="M190.7,-559.74C247.1,-528.09 376.59,-455.42 437.37,-421.31"/>
<polygon fill="#94a3b8" stroke="#94a3b8" stroke-width="1.1" points="438.83,-423.3 443.73,-417.74 436.43,-419.03 438.83,-423.3"/>
</g>
<!-- @md&#45;oss/security&#45;&gt;@md&#45;oss/serdes -->
<g id="edge30" class="edge">
<title>@md&#45;oss/security&#45;&gt;@md&#45;oss/serdes</title>
<path fill="none" stroke="#94a3b8" stroke-width="1.1" d="M190.72,-584.43C228.2,-597.41 295.6,-620.75 335.77,-634.67"/>
<polygon fill="#94a3b8" stroke="#94a3b8" stroke-width="1.1" points="335.05,-637.01 342.46,-636.98 336.65,-632.38 335.05,-637.01"/>
</g>
<!-- @md&#45;oss/serdes&#45;&gt;@md&#45;oss/config -->
<g id="edge31" class="edge">
<title>@md&#45;oss/serdes&#45;&gt;@md&#45;oss/config</title>
<path fill="none" stroke="#94a3b8" stroke-width="1.1" d="M389.93,-627.65C395.04,-622.04 400.19,-615.61 404,-609 438.61,-548.97 457.61,-468.46 465.53,-428.17"/>
<polygon fill="#94a3b8" stroke="#94a3b8" stroke-width="1.1" points="467.97,-428.47 466.88,-421.13 463.16,-427.55 467.97,-428.47"/>
</g>
</g>
</svg>
