<?xml version="1.0" encoding="UTF-8" standalone="no"?>
<!DOCTYPE svg PUBLIC "-//W3C//DTD SVG 1.1//EN"
 "http://www.w3.org/Graphics/SVG/1.1/DTD/svg11.dtd">
<!-- Generated by graphviz version 2.43.0 (0)
 -->
<!-- Title: G Pages: 1 -->
<svg width="1919pt" height="1319pt"
 viewBox="0.00 0.00 1919.20 1319.42" xmlns="http://www.w3.org/2000/svg" xmlns:xlink="http://www.w3.org/1999/xlink">
<g id="graph0" class="graph" transform="scale(1 1) rotate(0) translate(21.6 1297.82)">
<title>G</title>
<polygon fill="#202020" stroke="transparent" points="-21.6,21.6 -21.6,-1297.82 1897.6,-1297.82 1897.6,21.6 -21.6,21.6"/>
<!-- ../../common/src/constants/bytes.ts -->
<g id="node1" class="node">
<title>../../common/src/constants/bytes.ts</title>
<path fill="none" stroke="#cfffac" d="M1623.83,-483C1623.83,-483 1413.17,-483 1413.17,-483 1409.33,-483 1405.5,-479.17 1405.5,-475.33 1405.5,-475.33 1405.5,-467.67 1405.5,-467.67 1405.5,-463.83 1409.33,-460 1413.17,-460 1413.17,-460 1623.83,-460 1623.83,-460 1627.67,-460 1631.5,-463.83 1631.5,-467.67 1631.5,-467.67 1631.5,-475.33 1631.5,-475.33 1631.5,-479.17 1627.67,-483 1623.83,-483"/>
<text text-anchor="middle" x="1518.5" y="-467.8" font-family="Arial" font-size="14.00" fill="#cfffac">../../common/src/constants/bytes.ts</text>
</g>
<!-- ../../common/src/constants/discord.ts -->
<g id="node2" class="node">
<title>../../common/src/constants/discord.ts</title>
<path fill="none" stroke="#cfffac" d="M1629.33,-524C1629.33,-524 1407.67,-524 1407.67,-524 1403.83,-524 1400,-520.17 1400,-516.33 1400,-516.33 1400,-508.67 1400,-508.67 1400,-504.83 1403.83,-501 1407.67,-501 1407.67,-501 1629.33,-501 1629.33,-501 1633.17,-501 1637,-504.83 1637,-508.67 1637,-508.67 1637,-516.33 1637,-516.33 1637,-520.17 1633.17,-524 1629.33,-524"/>
<text text-anchor="middle" x="1518.5" y="-508.8" font-family="Arial" font-size="14.00" fill="#cfffac">../../common/src/constants/discord.ts</text>
</g>
<!-- ../../common/src/constants/index.ts -->
<g id="node3" class="node">
<title>../../common/src/constants/index.ts</title>
<path fill="none" stroke="#c6c5fe" d="M1354.33,-496C1354.33,-496 1143.67,-496 1143.67,-496 1139.83,-496 1136,-492.17 1136,-488.33 1136,-488.33 1136,-480.67 1136,-480.67 1136,-476.83 1139.83,-473 1143.67,-473 1143.67,-473 1354.33,-473 1354.33,-473 1358.17,-473 1362,-476.83 1362,-480.67 1362,-480.67 1362,-488.33 1362,-488.33 1362,-492.17 1358.17,-496 1354.33,-496"/>
<text text-anchor="middle" x="1249" y="-480.8" font-family="Arial" font-size="14.00" fill="#c6c5fe">../../common/src/constants/index.ts</text>
</g>
<!-- ../../common/src/constants/index.ts&#45;&gt;../../common/src/constants/bytes.ts -->
<g id="edge1" class="edge">
<title>../../common/src/constants/index.ts&#45;&gt;../../common/src/constants/bytes.ts</title>
<path fill="none" stroke="#757575" d="M1362.28,-479.04C1373.12,-478.52 1384.15,-477.98 1395.08,-477.45"/>
<polygon fill="#757575" stroke="#757575" points="1395.26,-480.94 1405.08,-476.96 1394.92,-473.95 1395.26,-480.94"/>
</g>
<!-- ../../common/src/constants/index.ts&#45;&gt;../../common/src/constants/discord.ts -->
<g id="edge2" class="edge">
<title>../../common/src/constants/index.ts&#45;&gt;../../common/src/constants/discord.ts</title>
<path fill="none" stroke="#757575" d="M1359.96,-496.01C1372.35,-497.31 1385.03,-498.63 1397.54,-499.94"/>
<polygon fill="#757575" stroke="#757575" points="1397.22,-503.43 1407.53,-500.99 1397.95,-496.47 1397.22,-503.43"/>
</g>
<!-- ../../common/src/constants/time.ts -->
<g id="node4" class="node">
<title>../../common/src/constants/time.ts</title>
<path fill="none" stroke="#cfffac" d="M1620.83,-432C1620.83,-432 1416.17,-432 1416.17,-432 1412.33,-432 1408.5,-428.17 1408.5,-424.33 1408.5,-424.33 1408.5,-416.67 1408.5,-416.67 1408.5,-412.83 1412.33,-409 1416.17,-409 1416.17,-409 1620.83,-409 1620.83,-409 1624.67,-409 1628.5,-412.83 1628.5,-416.67 1628.5,-416.67 1628.5,-424.33 1628.5,-424.33 1628.5,-428.17 1624.67,-432 1620.83,-432"/>
<text text-anchor="middle" x="1518.5" y="-416.8" font-family="Arial" font-size="14.00" fill="#cfffac">../../common/src/constants/time.ts</text>
</g>
<!-- ../../common/src/constants/index.ts&#45;&gt;../../common/src/constants/time.ts -->
<g id="edge3" class="edge">
<title>../../common/src/constants/index.ts&#45;&gt;../../common/src/constants/time.ts</title>
<path fill="none" stroke="#757575" d="M1298.13,-472.98C1343.35,-462.17 1411.09,-445.96 1459.32,-434.42"/>
<polygon fill="#757575" stroke="#757575" points="1460.39,-437.76 1469.3,-432.03 1458.76,-430.95 1460.39,-437.76"/>
</g>
<!-- ../../common/src/defaults.ts -->
<g id="node5" class="node">
<title>../../common/src/defaults.ts</title>
<path fill="none" stroke="#cfffac" d="M1600.33,-277C1600.33,-277 1436.67,-277 1436.67,-277 1432.83,-277 1429,-273.17 1429,-269.33 1429,-269.33 1429,-261.67 1429,-261.67 1429,-257.83 1432.83,-254 1436.67,-254 1436.67,-254 1600.33,-254 1600.33,-254 1604.17,-254 1608,-257.83 1608,-261.67 1608,-261.67 1608,-269.33 1608,-269.33 1608,-273.17 1604.17,-277 1600.33,-277"/>
<text text-anchor="middle" x="1518.5" y="-261.8" font-family="Arial" font-size="14.00" fill="#cfffac">../../common/src/defaults.ts</text>
</g>
<!-- ../../common/src/errors.ts -->
<g id="node6" class="node">
<title>../../common/src/errors.ts</title>
<path fill="none" stroke="#cfffac" d="M715.33,-266C715.33,-266 563.67,-266 563.67,-266 559.83,-266 556,-262.17 556,-258.33 556,-258.33 556,-250.67 556,-250.67 556,-246.83 559.83,-243 563.67,-243 563.67,-243 715.33,-243 715.33,-243 719.17,-243 723,-246.83 723,-250.67 723,-250.67 723,-258.33 723,-258.33 723,-262.17 719.17,-266 715.33,-266"/>
<text text-anchor="middle" x="639.5" y="-250.8" font-family="Arial" font-size="14.00" fill="#cfffac">../../common/src/errors.ts</text>
</g>
<!-- ../../common/src/http/errors.ts -->
<g id="node7" class="node">
<title>../../common/src/http/errors.ts</title>
<path fill="none" stroke="#c6c5fe" d="M1338.33,-1215C1338.33,-1215 1159.67,-1215 1159.67,-1215 1155.83,-1215 1152,-1211.17 1152,-1207.33 1152,-1207.33 1152,-1199.67 1152,-1199.67 1152,-1195.83 1155.83,-1192 1159.67,-1192 1159.67,-1192 1338.33,-1192 1338.33,-1192 1342.17,-1192 1346,-1195.83 1346,-1199.67 1346,-1199.67 1346,-1207.33 1346,-1207.33 1346,-1211.17 1342.17,-1215 1338.33,-1215"/>
<text text-anchor="middle" x="1249" y="-1199.8" font-family="Arial" font-size="14.00" fill="#c6c5fe">../../common/src/http/errors.ts</text>
</g>
<!-- ../../common/src/http/headers.ts -->
<g id="node8" class="node">
<title>../../common/src/http/headers.ts</title>
<path fill="none" stroke="#cfffac" d="M1614.33,-1159C1614.33,-1159 1422.67,-1159 1422.67,-1159 1418.83,-1159 1415,-1155.17 1415,-1151.33 1415,-1151.33 1415,-1143.67 1415,-1143.67 1415,-1139.83 1418.83,-1136 1422.67,-1136 1422.67,-1136 1614.33,-1136 1614.33,-1136 1618.17,-1136 1622,-1139.83 1622,-1143.67 1622,-1143.67 1622,-1151.33 1622,-1151.33 1622,-1155.17 1618.17,-1159 1614.33,-1159"/>
<text text-anchor="middle" x="1518.5" y="-1143.8" font-family="Arial" font-size="14.00" fill="#cfffac">../../common/src/http/headers.ts</text>
</g>
<!-- ../../common/src/http/errors.ts&#45;&gt;../../common/src/http/headers.ts -->
<g id="edge4" class="edge">
<title>../../common/src/http/errors.ts&#45;&gt;../../common/src/http/headers.ts</title>
<path fill="none" stroke="#757575" d="M1305.1,-1191.96C1347.9,-1183 1407.36,-1170.56 1452.49,-1161.11"/>
<polygon fill="#757575" stroke="#757575" points="1453.4,-1164.5 1462.47,-1159.02 1451.96,-1157.64 1453.4,-1164.5"/>
</g>
<!-- ../../common/src/http/status&#45;codes.ts -->
<g id="node9" class="node">
<title>../../common/src/http/status&#45;codes.ts</title>
<path fill="none" stroke="#cfffac" d="M1628.33,-1244C1628.33,-1244 1408.67,-1244 1408.67,-1244 1404.83,-1244 1401,-1240.17 1401,-1236.33 1401,-1236.33 1401,-1228.67 1401,-1228.67 1401,-1224.83 1404.83,-1221 1408.67,-1221 1408.67,-1221 1628.33,-1221 1628.33,-1221 1632.17,-1221 1636,-1224.83 1636,-1228.67 1636,-1228.67 1636,-1236.33 1636,-1236.33 1636,-1240.17 1632.17,-1244 1628.33,-1244"/>
<text text-anchor="middle" x="1518.5" y="-1228.8" font-family="Arial" font-size="14.00" fill="#cfffac">../../common/src/http/status&#45;codes.ts</text>
</g>
<!-- ../../common/src/http/errors.ts&#45;&gt;../../common/src/http/status&#45;codes.ts -->
<g id="edge5" class="edge">
<title>../../common/src/http/errors.ts&#45;&gt;../../common/src/http/status&#45;codes.ts</title>
<path fill="none" stroke="#757575" d="M1346.2,-1213.93C1364.02,-1215.86 1382.8,-1217.9 1401.15,-1219.89"/>
<polygon fill="#757575" stroke="#757575" points="1400.96,-1223.39 1411.28,-1220.98 1401.72,-1216.43 1400.96,-1223.39"/>
</g>
<!-- ../../common/src/http/guards.ts -->
<g id="node10" class="node">
<title>../../common/src/http/guards.ts</title>
<path fill="none" stroke="#c6c5fe" d="M1034.83,-1196C1034.83,-1196 850.17,-1196 850.17,-1196 846.33,-1196 842.5,-1192.17 842.5,-1188.33 842.5,-1188.33 842.5,-1180.67 842.5,-1180.67 842.5,-1176.83 846.33,-1173 850.17,-1173 850.17,-1173 1034.83,-1173 1034.83,-1173 1038.67,-1173 1042.5,-1176.83 1042.5,-1180.67 1042.5,-1180.67 1042.5,-1188.33 1042.5,-1188.33 1042.5,-1192.17 1038.67,-1196 1034.83,-1196"/>
<text text-anchor="middle" x="942.5" y="-1180.8" font-family="Arial" font-size="14.00" fill="#c6c5fe">../../common/src/http/guards.ts</text>
</g>
<!-- ../../common/src/http/guards.ts&#45;&gt;../../common/src/http/errors.ts -->
<g id="edge6" class="edge">
<title>../../common/src/http/guards.ts&#45;&gt;../../common/src/http/errors.ts</title>
<path fill="none" stroke="#757575" d="M1042.78,-1190.7C1074.42,-1192.67 1109.54,-1194.86 1141.65,-1196.86"/>
<polygon fill="#757575" stroke="#757575" points="1141.76,-1200.38 1151.96,-1197.51 1142.2,-1193.39 1141.76,-1200.38"/>
</g>
<!-- ../../common/src/utils/records.ts -->
<g id="node11" class="node">
<title>../../common/src/utils/records.ts</title>
<path fill="none" stroke="#cfffac" d="M1343.83,-719C1343.83,-719 1154.17,-719 1154.17,-719 1150.33,-719 1146.5,-715.17 1146.5,-711.33 1146.5,-711.33 1146.5,-703.67 1146.5,-703.67 1146.5,-699.83 1150.33,-696 1154.17,-696 1154.17,-696 1343.83,-696 1343.83,-696 1347.67,-696 1351.5,-699.83 1351.5,-703.67 1351.5,-703.67 1351.5,-711.33 1351.5,-711.33 1351.5,-715.17 1347.67,-719 1343.83,-719"/>
<text text-anchor="middle" x="1249" y="-703.8" font-family="Arial" font-size="14.00" fill="#cfffac">../../common/src/utils/records.ts</text>
</g>
<!-- ../../common/src/http/guards.ts&#45;&gt;../../common/src/utils/records.ts -->
<g id="edge7" class="edge">
<title>../../common/src/http/guards.ts&#45;&gt;../../common/src/utils/records.ts</title>
<path fill="none" stroke="#757575" d="M1042.56,-1191.05C1063.38,-1187.56 1083.42,-1179.75 1098,-1164.5 1163.67,-1095.85 1073.18,-811.48 1134,-738.5 1138.88,-732.65 1144.73,-727.85 1151.19,-723.91"/>
<polygon fill="#757575" stroke="#757575" points="1153.13,-726.84 1160.32,-719.05 1149.85,-720.65 1153.13,-726.84"/>
</g>
<!-- ../../common/src/http/index.ts -->
<g id="node12" class="node">
<title>../../common/src/http/index.ts</title>
<path fill="none" stroke="#c6c5fe" d="M727.33,-1135C727.33,-1135 551.67,-1135 551.67,-1135 547.83,-1135 544,-1131.17 544,-1127.33 544,-1127.33 544,-1119.67 544,-1119.67 544,-1115.83 547.83,-1112 551.67,-1112 551.67,-1112 727.33,-1112 727.33,-1112 731.17,-1112 735,-1115.83 735,-1119.67 735,-1119.67 735,-1127.33 735,-1127.33 735,-1131.17 731.17,-1135 727.33,-1135"/>
<text text-anchor="middle" x="639.5" y="-1119.8" font-family="Arial" font-size="14.00" fill="#c6c5fe">../../common/src/http/index.ts</text>
</g>
<!-- ../../common/src/http/index.ts&#45;&gt;../../common/src/http/errors.ts -->
<g id="edge8" class="edge">
<title>../../common/src/http/index.ts&#45;&gt;../../common/src/http/errors.ts</title>
<path fill="none" stroke="#757575" d="M655.2,-1135.16C680.4,-1154.33 734.26,-1191.74 787,-1205.5 916.27,-1239.22 1072.95,-1228.11 1166.34,-1216.31"/>
<polygon fill="#757575" stroke="#757575" points="1166.83,-1219.77 1176.3,-1215.01 1165.93,-1212.83 1166.83,-1219.77"/>
</g>
<!-- ../../common/src/http/index.ts&#45;&gt;../../common/src/http/headers.ts -->
<g id="edge9" class="edge">
<title>../../common/src/http/index.ts&#45;&gt;../../common/src/http/headers.ts</title>
<path fill="none" stroke="#757575" d="M735.15,-1121.92C827.69,-1120.75 972.56,-1119.91 1098,-1123.5 1202.06,-1126.47 1320.45,-1133.59 1404.87,-1139.31"/>
<polygon fill="#757575" stroke="#757575" points="1404.78,-1142.81 1414.99,-1140 1405.25,-1135.82 1404.78,-1142.81"/>
</g>
<!-- ../../common/src/http/index.ts&#45;&gt;../../common/src/http/status&#45;codes.ts -->
<g id="edge10" class="edge">
<title>../../common/src/http/index.ts&#45;&gt;../../common/src/http/status&#45;codes.ts</title>
<path fill="none" stroke="#757575" d="M651.2,-1135.21C673.63,-1158.76 728.34,-1211.27 787,-1230.5 1020.44,-1307.03 1318.84,-1268.89 1450.25,-1245.8"/>
<polygon fill="#757575" stroke="#757575" points="1450.95,-1249.23 1460.18,-1244.03 1449.72,-1242.34 1450.95,-1249.23"/>
</g>
<!-- ../../common/src/http/index.ts&#45;&gt;../../common/src/http/guards.ts -->
<g id="edge11" class="edge">
<title>../../common/src/http/index.ts&#45;&gt;../../common/src/http/guards.ts</title>
<path fill="none" stroke="#757575" d="M676.27,-1135.07C705.72,-1144.22 748.7,-1156.7 787,-1164.5 801.57,-1167.47 817,-1170.08 832.26,-1172.36"/>
<polygon fill="#757575" stroke="#757575" points="831.85,-1175.83 842.24,-1173.8 832.85,-1168.9 831.85,-1175.83"/>
</g>
<!-- ../../common/src/http/requests.ts -->
<g id="node13" class="node">
<title>../../common/src/http/requests.ts</title>
<path fill="none" stroke="#cfffac" d="M1039.83,-1155C1039.83,-1155 845.17,-1155 845.17,-1155 841.33,-1155 837.5,-1151.17 837.5,-1147.33 837.5,-1147.33 837.5,-1139.67 837.5,-1139.67 837.5,-1135.83 841.33,-1132 845.17,-1132 845.17,-1132 1039.83,-1132 1039.83,-1132 1043.67,-1132 1047.5,-1135.83 1047.5,-1139.67 1047.5,-1139.67 1047.5,-1147.33 1047.5,-1147.33 1047.5,-1151.17 1043.67,-1155 1039.83,-1155"/>
<text text-anchor="middle" x="942.5" y="-1139.8" font-family="Arial" font-size="14.00" fill="#cfffac">../../common/src/http/requests.ts</text>
</g>
<!-- ../../common/src/http/index.ts&#45;&gt;../../common/src/http/requests.ts -->
<g id="edge12" class="edge">
<title>../../common/src/http/index.ts&#45;&gt;../../common/src/http/requests.ts</title>
<path fill="none" stroke="#757575" d="M735.33,-1129.8C764.51,-1131.74 796.94,-1133.89 827.29,-1135.91"/>
<polygon fill="#757575" stroke="#757575" points="827.28,-1139.42 837.49,-1136.59 827.74,-1132.43 827.28,-1139.42"/>
</g>
<!-- ../../common/src/http/schemas.ts -->
<g id="node14" class="node">
<title>../../common/src/http/schemas.ts</title>
<path fill="none" stroke="#cfffac" d="M1041.33,-1075C1041.33,-1075 843.67,-1075 843.67,-1075 839.83,-1075 836,-1071.17 836,-1067.33 836,-1067.33 836,-1059.67 836,-1059.67 836,-1055.83 839.83,-1052 843.67,-1052 843.67,-1052 1041.33,-1052 1041.33,-1052 1045.17,-1052 1049,-1055.83 1049,-1059.67 1049,-1059.67 1049,-1067.33 1049,-1067.33 1049,-1071.17 1045.17,-1075 1041.33,-1075"/>
<text text-anchor="middle" x="942.5" y="-1059.8" font-family="Arial" font-size="14.00" fill="#cfffac">../../common/src/http/schemas.ts</text>
</g>
<!-- ../../common/src/http/index.ts&#45;&gt;../../common/src/http/schemas.ts -->
<g id="edge13" class="edge">
<title>../../common/src/http/index.ts&#45;&gt;../../common/src/http/schemas.ts</title>
<path fill="none" stroke="#757575" d="M686.86,-1111.97C715.6,-1105.02 753.33,-1096.23 787,-1089.5 809.77,-1084.95 834.53,-1080.54 857.43,-1076.69"/>
<polygon fill="#757575" stroke="#757575" points="858.17,-1080.11 867.46,-1075.01 857.02,-1073.21 858.17,-1080.11"/>
</g>
<!-- ../../common/src/http/types.ts -->
<g id="node15" class="node">
<title>../../common/src/http/types.ts</title>
<path fill="none" stroke="#cfffac" d="M1030.33,-1034C1030.33,-1034 854.67,-1034 854.67,-1034 850.83,-1034 847,-1030.17 847,-1026.33 847,-1026.33 847,-1018.67 847,-1018.67 847,-1014.83 850.83,-1011 854.67,-1011 854.67,-1011 1030.33,-1011 1030.33,-1011 1034.17,-1011 1038,-1014.83 1038,-1018.67 1038,-1018.67 1038,-1026.33 1038,-1026.33 1038,-1030.17 1034.17,-1034 1030.33,-1034"/>
<text text-anchor="middle" x="942.5" y="-1018.8" font-family="Arial" font-size="14.00" fill="#cfffac">../../common/src/http/types.ts</text>
</g>
<!-- ../../common/src/http/index.ts&#45;&gt;../../common/src/http/types.ts -->
<g id="edge14" class="edge">
<title>../../common/src/http/index.ts&#45;&gt;../../common/src/http/types.ts</title>
<path fill="none" stroke="#757575" d="M657.15,-1111.73C683.4,-1093.82 736.62,-1060.05 787,-1043.5 802.8,-1038.31 819.92,-1034.4 836.81,-1031.46"/>
<polygon fill="#757575" stroke="#757575" points="837.41,-1034.9 846.71,-1029.83 836.28,-1028 837.41,-1034.9"/>
</g>
<!-- ../../common/src/index.ts -->
<g id="node16" class="node">
<title>../../common/src/index.ts</title>
<path fill="none" stroke="#c6c5fe" d="M484.33,-508C484.33,-508 335.67,-508 335.67,-508 331.83,-508 328,-504.17 328,-500.33 328,-500.33 328,-492.67 328,-492.67 328,-488.83 331.83,-485 335.67,-485 335.67,-485 484.33,-485 484.33,-485 488.17,-485 492,-488.83 492,-492.67 492,-492.67 492,-500.33 492,-500.33 492,-504.17 488.17,-508 484.33,-508"/>
<text text-anchor="middle" x="410" y="-492.8" font-family="Arial" font-size="14.00" fill="#c6c5fe">../../common/src/index.ts</text>
</g>
<!-- ../../common/src/index.ts&#45;&gt;../../common/src/constants/index.ts -->
<g id="edge15" class="edge">
<title>../../common/src/index.ts&#45;&gt;../../common/src/constants/index.ts</title>
<path fill="none" stroke="#757575" d="M492.02,-495.34C639.44,-493.22 952.31,-488.74 1125.77,-486.25"/>
<polygon fill="#757575" stroke="#757575" points="1126.02,-489.75 1135.97,-486.11 1125.92,-482.75 1126.02,-489.75"/>
</g>
<!-- ../../common/src/index.ts&#45;&gt;../../common/src/errors.ts -->
<g id="edge16" class="edge">
<title>../../common/src/index.ts&#45;&gt;../../common/src/errors.ts</title>
<path fill="none" stroke="#757575" d="M481.61,-484.9C485.42,-482.55 488.93,-479.78 492,-476.5 554.33,-409.93 463.6,-339.07 528,-274.5 533.35,-269.14 539.62,-264.94 546.4,-261.68"/>
<polygon fill="#757575" stroke="#757575" points="548,-264.81 555.94,-257.8 545.36,-258.33 548,-264.81"/>
</g>
<!-- ../../common/src/index.ts&#45;&gt;../../common/src/http/index.ts -->
<g id="edge17" class="edge">
<title>../../common/src/index.ts&#45;&gt;../../common/src/http/index.ts</title>
<path fill="none" stroke="#757575" d="M415.24,-508.19C442.65,-583.73 594.73,-1002.86 630.82,-1102.32"/>
<polygon fill="#757575" stroke="#757575" points="627.59,-1103.68 634.29,-1111.89 634.17,-1101.3 627.59,-1103.68"/>
</g>
<!-- ../../common/src/schemas/index.ts -->
<g id="node17" class="node">
<title>../../common/src/schemas/index.ts</title>
<path fill="none" stroke="#c6c5fe" d="M743.33,-769C743.33,-769 535.67,-769 535.67,-769 531.83,-769 528,-765.17 528,-761.33 528,-761.33 528,-753.67 528,-753.67 528,-749.83 531.83,-746 535.67,-746 535.67,-746 743.33,-746 743.33,-746 747.17,-746 751,-749.83 751,-753.67 751,-753.67 751,-761.33 751,-761.33 751,-765.17 747.17,-769 743.33,-769"/>
<text text-anchor="middle" x="639.5" y="-753.8" font-family="Arial" font-size="14.00" fill="#c6c5fe">../../common/src/schemas/index.ts</text>
</g>
<!-- ../../common/src/index.ts&#45;&gt;../../common/src/schemas/index.ts -->
<g id="edge18" class="edge">
<title>../../common/src/index.ts&#45;&gt;../../common/src/schemas/index.ts</title>
<path fill="none" stroke="#757575" d="M421.07,-508.05C456.67,-548.89 576.83,-686.75 621.55,-738.05"/>
<polygon fill="#757575" stroke="#757575" points="619.08,-740.55 628.29,-745.79 624.36,-735.95 619.08,-740.55"/>
</g>
<!-- ../../common/src/utils/index.ts -->
<g id="node18" class="node">
<title>../../common/src/utils/index.ts</title>
<path fill="none" stroke="#c6c5fe" d="M727.83,-307C727.83,-307 551.17,-307 551.17,-307 547.33,-307 543.5,-303.17 543.5,-299.33 543.5,-299.33 543.5,-291.67 543.5,-291.67 543.5,-287.83 547.33,-284 551.17,-284 551.17,-284 727.83,-284 727.83,-284 731.67,-284 735.5,-287.83 735.5,-291.67 735.5,-291.67 735.5,-299.33 735.5,-299.33 735.5,-303.17 731.67,-307 727.83,-307"/>
<text text-anchor="middle" x="639.5" y="-291.8" font-family="Arial" font-size="14.00" fill="#c6c5fe">../../common/src/utils/index.ts</text>
</g>
<!-- ../../common/src/index.ts&#45;&gt;../../common/src/utils/index.ts -->
<g id="edge19" class="edge">
<title>../../common/src/index.ts&#45;&gt;../../common/src/utils/index.ts</title>
<path fill="none" stroke="#757575" d="M475,-484.94C480.97,-482.62 486.74,-479.84 492,-476.5 557.14,-435.09 606.61,-354.76 627.54,-316.61"/>
<polygon fill="#757575" stroke="#757575" points="630.82,-317.91 632.46,-307.45 624.65,-314.6 630.82,-317.91"/>
</g>
<!-- ../../common/src/schemas/best&#45;effort.ts -->
<g id="node19" class="node">
<title>../../common/src/schemas/best&#45;effort.ts</title>
<path fill="none" stroke="#cfffac" d="M1060.33,-829C1060.33,-829 824.67,-829 824.67,-829 820.83,-829 817,-825.17 817,-821.33 817,-821.33 817,-813.67 817,-813.67 817,-809.83 820.83,-806 824.67,-806 824.67,-806 1060.33,-806 1060.33,-806 1064.17,-806 1068,-809.83 1068,-813.67 1068,-813.67 1068,-821.33 1068,-821.33 1068,-825.17 1064.17,-829 1060.33,-829"/>
<text text-anchor="middle" x="942.5" y="-813.8" font-family="Arial" font-size="14.00" fill="#cfffac">../../common/src/schemas/best&#45;effort.ts</text>
</g>
<!-- ../../common/src/schemas/index.ts&#45;&gt;../../common/src/schemas/best&#45;effort.ts -->
<g id="edge20" class="edge">
<title>../../common/src/schemas/index.ts&#45;&gt;../../common/src/schemas/best&#45;effort.ts</title>
<path fill="none" stroke="#757575" d="M686.86,-769.03C715.6,-775.98 753.33,-784.77 787,-791.5 809.77,-796.05 834.53,-800.46 857.43,-804.31"/>
<polygon fill="#757575" stroke="#757575" points="857.02,-807.79 867.46,-805.99 858.17,-800.89 857.02,-807.79"/>
</g>
<!-- ../../common/src/schemas/colors.ts -->
<g id="node20" class="node">
<title>../../common/src/schemas/colors.ts</title>
<path fill="none" stroke="#cfffac" d="M1354.83,-770C1354.83,-770 1143.17,-770 1143.17,-770 1139.33,-770 1135.5,-766.17 1135.5,-762.33 1135.5,-762.33 1135.5,-754.67 1135.5,-754.67 1135.5,-750.83 1139.33,-747 1143.17,-747 1143.17,-747 1354.83,-747 1354.83,-747 1358.67,-747 1362.5,-750.83 1362.5,-754.67 1362.5,-754.67 1362.5,-762.33 1362.5,-762.33 1362.5,-766.17 1358.67,-770 1354.83,-770"/>
<text text-anchor="middle" x="1249" y="-754.8" font-family="Arial" font-size="14.00" fill="#cfffac">../../common/src/schemas/colors.ts</text>
</g>
<!-- ../../common/src/schemas/index.ts&#45;&gt;../../common/src/schemas/colors.ts -->
<g id="edge21" class="edge">
<title>../../common/src/schemas/index.ts&#45;&gt;../../common/src/schemas/colors.ts</title>
<path fill="none" stroke="#757575" d="M751.29,-758.34C763.34,-758.4 775.43,-758.46 787,-758.5 901.56,-758.89 1032.13,-758.84 1124.99,-758.73"/>
<polygon fill="#757575" stroke="#757575" points="1125.28,-762.23 1135.27,-758.71 1125.27,-755.23 1125.28,-762.23"/>
</g>
<!-- ../../common/src/schemas/discord.ts -->
<g id="node21" class="node">
<title>../../common/src/schemas/discord.ts</title>
<path fill="none" stroke="#c6c5fe" d="M1051.83,-708C1051.83,-708 833.17,-708 833.17,-708 829.33,-708 825.5,-704.17 825.5,-700.33 825.5,-700.33 825.5,-692.67 825.5,-692.67 825.5,-688.83 829.33,-685 833.17,-685 833.17,-685 1051.83,-685 1051.83,-685 1055.67,-685 1059.5,-688.83 1059.5,-692.67 1059.5,-692.67 1059.5,-700.33 1059.5,-700.33 1059.5,-704.17 1055.67,-708 1051.83,-708"/>
<text text-anchor="middle" x="942.5" y="-692.8" font-family="Arial" font-size="14.00" fill="#c6c5fe">../../common/src/schemas/discord.ts</text>
</g>
<!-- ../../common/src/schemas/index.ts&#45;&gt;../../common/src/schemas/discord.ts -->
<g id="edge22" class="edge">
<title>../../common/src/schemas/index.ts&#45;&gt;../../common/src/schemas/discord.ts</title>
<path fill="none" stroke="#757575" d="M677.51,-745.94C706.93,-737.11 749.28,-725.18 787,-717.5 801.58,-714.53 817.02,-711.87 832.28,-709.52"/>
<polygon fill="#757575" stroke="#757575" points="832.9,-712.97 842.27,-708.02 831.86,-706.04 832.9,-712.97"/>
</g>
<!-- ../../common/src/schemas/ids.ts -->
<g id="node22" class="node">
<title>../../common/src/schemas/ids.ts</title>
<path fill="none" stroke="#c6c5fe" d="M1038.83,-548C1038.83,-548 846.17,-548 846.17,-548 842.33,-548 838.5,-544.17 838.5,-540.33 838.5,-540.33 838.5,-532.67 838.5,-532.67 838.5,-528.83 842.33,-525 846.17,-525 846.17,-525 1038.83,-525 1038.83,-525 1042.67,-525 1046.5,-528.83 1046.5,-532.67 1046.5,-532.67 1046.5,-540.33 1046.5,-540.33 1046.5,-544.17 1042.67,-548 1038.83,-548"/>
<text text-anchor="middle" x="942.5" y="-532.8" font-family="Arial" font-size="14.00" fill="#c6c5fe">../../common/src/schemas/ids.ts</text>
</g>
<!-- ../../common/src/schemas/index.ts&#45;&gt;../../common/src/schemas/ids.ts -->
<g id="edge23" class="edge">
<title>../../common/src/schemas/index.ts&#45;&gt;../../common/src/schemas/ids.ts</title>
<path fill="none" stroke="#757575" d="M648.31,-745.67C668.15,-716.46 723.44,-640.12 787,-596.5 817.19,-575.78 855.53,-560.84 886.47,-551.05"/>
<polygon fill="#757575" stroke="#757575" points="887.7,-554.33 896.23,-548.05 885.64,-547.64 887.7,-554.33"/>
</g>
<!-- ../../common/src/schemas/strings.ts -->
<g id="node23" class="node">
<title>../../common/src/schemas/strings.ts</title>
<path fill="none" stroke="#cfffac" d="M1356.33,-609C1356.33,-609 1141.67,-609 1141.67,-609 1137.83,-609 1134,-605.17 1134,-601.33 1134,-601.33 1134,-593.67 1134,-593.67 1134,-589.83 1137.83,-586 1141.67,-586 1141.67,-586 1356.33,-586 1356.33,-586 1360.17,-586 1364,-589.83 1364,-593.67 1364,-593.67 1364,-601.33 1364,-601.33 1364,-605.17 1360.17,-609 1356.33,-609"/>
<text text-anchor="middle" x="1249" y="-593.8" font-family="Arial" font-size="14.00" fill="#cfffac">../../common/src/schemas/strings.ts</text>
</g>
<!-- ../../common/src/schemas/index.ts&#45;&gt;../../common/src/schemas/strings.ts -->
<g id="edge24" class="edge">
<title>../../common/src/schemas/index.ts&#45;&gt;../../common/src/schemas/strings.ts</title>
<path fill="none" stroke="#757575" d="M656.68,-745.81C682.72,-727.66 736.15,-693.06 787,-676.5 919.45,-633.35 961.27,-664.18 1098,-637.5 1132.67,-630.74 1171.15,-620.42 1200.46,-611.95"/>
<polygon fill="#757575" stroke="#757575" points="1201.8,-615.21 1210.42,-609.04 1199.84,-608.49 1201.8,-615.21"/>
</g>
<!-- ../../common/src/schemas/logging.ts -->
<g id="node24" class="node">
<title>../../common/src/schemas/logging.ts</title>
<path fill="none" stroke="#cfffac" d="M1051.83,-749C1051.83,-749 833.17,-749 833.17,-749 829.33,-749 825.5,-745.17 825.5,-741.33 825.5,-741.33 825.5,-733.67 825.5,-733.67 825.5,-729.83 829.33,-726 833.17,-726 833.17,-726 1051.83,-726 1051.83,-726 1055.67,-726 1059.5,-729.83 1059.5,-733.67 1059.5,-733.67 1059.5,-741.33 1059.5,-741.33 1059.5,-745.17 1055.67,-749 1051.83,-749"/>
<text text-anchor="middle" x="942.5" y="-733.8" font-family="Arial" font-size="14.00" fill="#cfffac">../../common/src/schemas/logging.ts</text>
</g>
<!-- ../../common/src/schemas/index.ts&#45;&gt;../../common/src/schemas/logging.ts -->
<g id="edge25" class="edge">
<title>../../common/src/schemas/index.ts&#45;&gt;../../common/src/schemas/logging.ts</title>
<path fill="none" stroke="#757575" d="M751.3,-750.14C772.14,-748.75 794.07,-747.3 815.33,-745.88"/>
<polygon fill="#757575" stroke="#757575" points="815.64,-749.37 825.38,-745.22 815.17,-742.39 815.64,-749.37"/>
</g>
<!-- ../../common/src/schemas/pagination.ts -->
<g id="node25" class="node">
<title>../../common/src/schemas/pagination.ts</title>
<path fill="none" stroke="#cfffac" d="M1061.33,-628C1061.33,-628 823.67,-628 823.67,-628 819.83,-628 816,-624.17 816,-620.33 816,-620.33 816,-612.67 816,-612.67 816,-608.83 819.83,-605 823.67,-605 823.67,-605 1061.33,-605 1061.33,-605 1065.17,-605 1069,-608.83 1069,-612.67 1069,-612.67 1069,-620.33 1069,-620.33 1069,-624.17 1065.17,-628 1061.33,-628"/>
<text text-anchor="middle" x="942.5" y="-612.8" font-family="Arial" font-size="14.00" fill="#cfffac">../../common/src/schemas/pagination.ts</text>
</g>
<!-- ../../common/src/schemas/index.ts&#45;&gt;../../common/src/schemas/pagination.ts -->
<g id="edge26" class="edge">
<title>../../common/src/schemas/index.ts&#45;&gt;../../common/src/schemas/pagination.ts</title>
<path fill="none" stroke="#757575" d="M651.32,-745.73C673.95,-721.92 729.03,-668.12 787,-642.5 797.88,-637.69 809.56,-633.76 821.44,-630.56"/>
<polygon fill="#757575" stroke="#757575" points="822.61,-633.88 831.46,-628.04 820.9,-627.09 822.61,-633.88"/>
</g>
<!-- ../../common/src/schemas/records.ts -->
<g id="node26" class="node">
<title>../../common/src/schemas/records.ts</title>
<path fill="none" stroke="#cfffac" d="M1052.83,-993C1052.83,-993 832.17,-993 832.17,-993 828.33,-993 824.5,-989.17 824.5,-985.33 824.5,-985.33 824.5,-977.67 824.5,-977.67 824.5,-973.83 828.33,-970 832.17,-970 832.17,-970 1052.83,-970 1052.83,-970 1056.67,-970 1060.5,-973.83 1060.5,-977.67 1060.5,-977.67 1060.5,-985.33 1060.5,-985.33 1060.5,-989.17 1056.67,-993 1052.83,-993"/>
<text text-anchor="middle" x="942.5" y="-977.8" font-family="Arial" font-size="14.00" fill="#cfffac">../../common/src/schemas/records.ts</text>
</g>
<!-- ../../common/src/schemas/index.ts&#45;&gt;../../common/src/schemas/records.ts -->
<g id="edge27" class="edge">
<title>../../common/src/schemas/index.ts&#45;&gt;../../common/src/schemas/records.ts</title>
<path fill="none" stroke="#757575" d="M644.96,-769.31C659.25,-805.31 707.64,-914.1 787,-961.5 795.53,-966.6 804.8,-970.64 814.42,-973.83"/>
<polygon fill="#757575" stroke="#757575" points="813.55,-977.23 824.13,-976.75 815.56,-970.52 813.55,-977.23"/>
</g>
<!-- ../../common/src/schemas/schema&#45;object&#45;form.ts -->
<g id="node27" class="node">
<title>../../common/src/schemas/schema&#45;object&#45;form.ts</title>
<path fill="none" stroke="#cfffac" d="M1090.33,-952C1090.33,-952 794.67,-952 794.67,-952 790.83,-952 787,-948.17 787,-944.33 787,-944.33 787,-936.67 787,-936.67 787,-932.83 790.83,-929 794.67,-929 794.67,-929 1090.33,-929 1090.33,-929 1094.17,-929 1098,-932.83 1098,-936.67 1098,-936.67 1098,-944.33 1098,-944.33 1098,-948.17 1094.17,-952 1090.33,-952"/>
<text text-anchor="middle" x="942.5" y="-936.8" font-family="Arial" font-size="14.00" fill="#cfffac">../../common/src/schemas/schema&#45;object&#45;form.ts</text>
</g>
<!-- ../../common/src/schemas/index.ts&#45;&gt;../../common/src/schemas/schema&#45;object&#45;form.ts -->
<g id="edge28" class="edge">
<title>../../common/src/schemas/index.ts&#45;&gt;../../common/src/schemas/schema&#45;object&#45;form.ts</title>
<path fill="none" stroke="#757575" d="M646.88,-769.1C664.52,-799.91 717.27,-883.87 787,-920.5 790.31,-922.24 793.71,-923.85 797.18,-925.33"/>
<polygon fill="#757575" stroke="#757575" points="795.94,-928.61 806.53,-929 798.5,-922.09 795.94,-928.61"/>
</g>
<!-- ../../common/src/schemas/slugs.ts -->
<g id="node28" class="node">
<title>../../common/src/schemas/slugs.ts</title>
<path fill="none" stroke="#cfffac" d="M1045.83,-911C1045.83,-911 839.17,-911 839.17,-911 835.33,-911 831.5,-907.17 831.5,-903.33 831.5,-903.33 831.5,-895.67 831.5,-895.67 831.5,-891.83 835.33,-888 839.17,-888 839.17,-888 1045.83,-888 1045.83,-888 1049.67,-888 1053.5,-891.83 1053.5,-895.67 1053.5,-895.67 1053.5,-903.33 1053.5,-903.33 1053.5,-907.17 1049.67,-911 1045.83,-911"/>
<text text-anchor="middle" x="942.5" y="-895.8" font-family="Arial" font-size="14.00" fill="#cfffac">../../common/src/schemas/slugs.ts</text>
</g>
<!-- ../../common/src/schemas/index.ts&#45;&gt;../../common/src/schemas/slugs.ts -->
<g id="edge29" class="edge">
<title>../../common/src/schemas/index.ts&#45;&gt;../../common/src/schemas/slugs.ts</title>
<path fill="none" stroke="#757575" d="M650.08,-769.03C671.59,-794.05 726.63,-853.15 787,-879.5 797.84,-884.23 809.5,-887.93 821.36,-890.81"/>
<polygon fill="#757575" stroke="#757575" points="820.84,-894.28 831.36,-893.05 822.36,-887.45 820.84,-894.28"/>
</g>
<!-- ../../common/src/schemas/urls.ts -->
<g id="node29" class="node">
<title>../../common/src/schemas/urls.ts</title>
<path fill="none" stroke="#cfffac" d="M1040.83,-870C1040.83,-870 844.17,-870 844.17,-870 840.33,-870 836.5,-866.17 836.5,-862.33 836.5,-862.33 836.5,-854.67 836.5,-854.67 836.5,-850.83 840.33,-847 844.17,-847 844.17,-847 1040.83,-847 1040.83,-847 1044.67,-847 1048.5,-850.83 1048.5,-854.67 1048.5,-854.67 1048.5,-862.33 1048.5,-862.33 1048.5,-866.17 1044.67,-870 1040.83,-870"/>
<text text-anchor="middle" x="942.5" y="-854.8" font-family="Arial" font-size="14.00" fill="#cfffac">../../common/src/schemas/urls.ts</text>
</g>
<!-- ../../common/src/schemas/index.ts&#45;&gt;../../common/src/schemas/urls.ts -->
<g id="edge30" class="edge">
<title>../../common/src/schemas/index.ts&#45;&gt;../../common/src/schemas/urls.ts</title>
<path fill="none" stroke="#757575" d="M656.69,-769.16C682.74,-787.28 736.19,-821.84 787,-838.5 799.49,-842.6 812.81,-845.86 826.19,-848.46"/>
<polygon fill="#757575" stroke="#757575" points="825.96,-851.97 836.42,-850.31 827.21,-845.08 825.96,-851.97"/>
</g>
<!-- ../../common/src/utils/index.ts&#45;&gt;../../common/src/utils/records.ts -->
<g id="edge31" class="edge">
<title>../../common/src/utils/index.ts&#45;&gt;../../common/src/utils/records.ts</title>
<path fill="none" stroke="#757575" d="M643.07,-307.2C652.98,-349.33 692.99,-494.17 787,-557.5 902.53,-635.33 968.68,-544.71 1098,-596.5 1112.19,-602.18 1186.98,-659.81 1225.31,-689.71"/>
<polygon fill="#757575" stroke="#757575" points="1223.3,-692.58 1233.34,-695.98 1227.61,-687.07 1223.3,-692.58"/>
</g>
<!-- ../../common/src/utils/arrays.ts -->
<g id="node30" class="node">
<title>../../common/src/utils/arrays.ts</title>
<path fill="none" stroke="#c6c5fe" d="M1033.33,-105C1033.33,-105 851.67,-105 851.67,-105 847.83,-105 844,-101.17 844,-97.33 844,-97.33 844,-89.67 844,-89.67 844,-85.83 847.83,-82 851.67,-82 851.67,-82 1033.33,-82 1033.33,-82 1037.17,-82 1041,-85.83 1041,-89.67 1041,-89.67 1041,-97.33 1041,-97.33 1041,-101.17 1037.17,-105 1033.33,-105"/>
<text text-anchor="middle" x="942.5" y="-89.8" font-family="Arial" font-size="14.00" fill="#c6c5fe">../../common/src/utils/arrays.ts</text>
</g>
<!-- ../../common/src/utils/index.ts&#45;&gt;../../common/src/utils/arrays.ts -->
<g id="edge32" class="edge">
<title>../../common/src/utils/index.ts&#45;&gt;../../common/src/utils/arrays.ts</title>
<path fill="none" stroke="#757575" d="M735.68,-285.52C741.26,-282.55 746.44,-278.91 751,-274.5 803.67,-223.49 732.84,-162.93 787,-113.5 800.03,-101.61 816.44,-94.48 833.67,-90.46"/>
<polygon fill="#757575" stroke="#757575" points="834.76,-93.81 843.89,-88.43 833.4,-86.94 834.76,-93.81"/>
</g>
<!-- ../../common/src/utils/strings.ts -->
<g id="node31" class="node">
<title>../../common/src/utils/strings.ts</title>
<path fill="none" stroke="#cfffac" d="M1341.33,-146C1341.33,-146 1156.67,-146 1156.67,-146 1152.83,-146 1149,-142.17 1149,-138.33 1149,-138.33 1149,-130.67 1149,-130.67 1149,-126.83 1152.83,-123 1156.67,-123 1156.67,-123 1341.33,-123 1341.33,-123 1345.17,-123 1349,-126.83 1349,-130.67 1349,-130.67 1349,-138.33 1349,-138.33 1349,-142.17 1345.17,-146 1341.33,-146"/>
<text text-anchor="middle" x="1249" y="-130.8" font-family="Arial" font-size="14.00" fill="#cfffac">../../common/src/utils/strings.ts</text>
</g>
<!-- ../../common/src/utils/index.ts&#45;&gt;../../common/src/utils/strings.ts -->
<g id="edge33" class="edge">
<title>../../common/src/utils/index.ts&#45;&gt;../../common/src/utils/strings.ts</title>
<path fill="none" stroke="#757575" d="M735.54,-284.06C741.04,-281.42 746.26,-278.26 751,-274.5 781.87,-250.03 755.37,-216.98 787,-193.5 842.92,-151.98 1028.92,-163.44 1098,-154.5 1115.59,-152.22 1134.33,-149.76 1152.39,-147.36"/>
<polygon fill="#757575" stroke="#757575" points="1152.89,-150.83 1162.35,-146.04 1151.97,-143.89 1152.89,-150.83"/>
</g>
<!-- ../../common/src/utils/bytes.ts -->
<g id="node32" class="node">
<title>../../common/src/utils/bytes.ts</title>
<path fill="none" stroke="#c6c5fe" d="M1030.83,-468C1030.83,-468 854.17,-468 854.17,-468 850.33,-468 846.5,-464.17 846.5,-460.33 846.5,-460.33 846.5,-452.67 846.5,-452.67 846.5,-448.83 850.33,-445 854.17,-445 854.17,-445 1030.83,-445 1030.83,-445 1034.67,-445 1038.5,-448.83 1038.5,-452.67 1038.5,-452.67 1038.5,-460.33 1038.5,-460.33 1038.5,-464.17 1034.67,-468 1030.83,-468"/>
<text text-anchor="middle" x="942.5" y="-452.8" font-family="Arial" font-size="14.00" fill="#c6c5fe">../../common/src/utils/bytes.ts</text>
</g>
<!-- ../../common/src/utils/index.ts&#45;&gt;../../common/src/utils/bytes.ts -->
<g id="edge34" class="edge">
<title>../../common/src/utils/index.ts&#45;&gt;../../common/src/utils/bytes.ts</title>
<path fill="none" stroke="#757575" d="M648.43,-307.14C668.13,-335 722.4,-405.49 787,-436.5 802.29,-443.84 819.35,-448.78 836.41,-452.06"/>
<polygon fill="#757575" stroke="#757575" points="835.99,-455.54 846.44,-453.81 837.19,-448.64 835.99,-455.54"/>
</g>
<!-- ../../common/src/utils/mime&#45;types.ts -->
<g id="node33" class="node">
<title>../../common/src/utils/mime&#45;types.ts</title>
<path fill="none" stroke="#cfffac" d="M1050.33,-146C1050.33,-146 834.67,-146 834.67,-146 830.83,-146 827,-142.17 827,-138.33 827,-138.33 827,-130.67 827,-130.67 827,-126.83 830.83,-123 834.67,-123 834.67,-123 1050.33,-123 1050.33,-123 1054.17,-123 1058,-126.83 1058,-130.67 1058,-130.67 1058,-138.33 1058,-138.33 1058,-142.17 1054.17,-146 1050.33,-146"/>
<text text-anchor="middle" x="942.5" y="-130.8" font-family="Arial" font-size="14.00" fill="#cfffac">../../common/src/utils/mime&#45;types.ts</text>
</g>
<!-- ../../common/src/utils/index.ts&#45;&gt;../../common/src/utils/mime&#45;types.ts -->
<g id="edge35" class="edge">
<title>../../common/src/utils/index.ts&#45;&gt;../../common/src/utils/mime&#45;types.ts</title>
<path fill="none" stroke="#757575" d="M735.52,-284.93C741.1,-282.09 746.33,-278.65 751,-274.5 790.72,-239.21 746.91,-195.37 787,-160.5 795.98,-152.69 806.4,-146.79 817.51,-142.38"/>
<polygon fill="#757575" stroke="#757575" points="818.74,-145.66 826.99,-139.01 816.4,-139.06 818.74,-145.66"/>
</g>
<!-- ../../common/src/utils/numbers.ts -->
<g id="node34" class="node">
<title>../../common/src/utils/numbers.ts</title>
<path fill="none" stroke="#c6c5fe" d="M1347.83,-372C1347.83,-372 1150.17,-372 1150.17,-372 1146.33,-372 1142.5,-368.17 1142.5,-364.33 1142.5,-364.33 1142.5,-356.67 1142.5,-356.67 1142.5,-352.83 1146.33,-349 1150.17,-349 1150.17,-349 1347.83,-349 1347.83,-349 1351.67,-349 1355.5,-352.83 1355.5,-356.67 1355.5,-356.67 1355.5,-364.33 1355.5,-364.33 1355.5,-368.17 1351.67,-372 1347.83,-372"/>
<text text-anchor="middle" x="1249" y="-356.8" font-family="Arial" font-size="14.00" fill="#c6c5fe">../../common/src/utils/numbers.ts</text>
</g>
<!-- ../../common/src/utils/index.ts&#45;&gt;../../common/src/utils/numbers.ts -->
<g id="edge36" class="edge">
<title>../../common/src/utils/index.ts&#45;&gt;../../common/src/utils/numbers.ts</title>
<path fill="none" stroke="#757575" d="M661.03,-307.06C688.65,-321.88 739.76,-346.85 787,-356.5 902.76,-380.16 1038.31,-377.86 1132.33,-371.68"/>
<polygon fill="#757575" stroke="#757575" points="1132.7,-375.16 1142.44,-370.99 1132.22,-368.18 1132.7,-375.16"/>
</g>
<!-- ../../common/src/utils/objects.ts -->
<g id="node35" class="node">
<title>../../common/src/utils/objects.ts</title>
<path fill="none" stroke="#cfffac" d="M1036.33,-64C1036.33,-64 848.67,-64 848.67,-64 844.83,-64 841,-60.17 841,-56.33 841,-56.33 841,-48.67 841,-48.67 841,-44.83 844.83,-41 848.67,-41 848.67,-41 1036.33,-41 1036.33,-41 1040.17,-41 1044,-44.83 1044,-48.67 1044,-48.67 1044,-56.33 1044,-56.33 1044,-60.17 1040.17,-64 1036.33,-64"/>
<text text-anchor="middle" x="942.5" y="-48.8" font-family="Arial" font-size="14.00" fill="#cfffac">../../common/src/utils/objects.ts</text>
</g>
<!-- ../../common/src/utils/index.ts&#45;&gt;../../common/src/utils/objects.ts -->
<g id="edge37" class="edge">
<title>../../common/src/utils/index.ts&#45;&gt;../../common/src/utils/objects.ts</title>
<path fill="none" stroke="#757575" d="M735.65,-285.89C741.27,-282.83 746.47,-279.08 751,-274.5 815.11,-209.65 721,-135.43 787,-72.5 799.08,-60.99 814.31,-53.86 830.47,-49.67"/>
<polygon fill="#757575" stroke="#757575" points="831.62,-53.01 840.63,-47.44 830.11,-46.17 831.62,-53.01"/>
</g>
<!-- ../../common/src/utils/payments.ts -->
<g id="node36" class="node">
<title>../../common/src/utils/payments.ts</title>
<path fill="none" stroke="#c6c5fe" d="M1044.33,-226C1044.33,-226 840.67,-226 840.67,-226 836.83,-226 833,-222.17 833,-218.33 833,-218.33 833,-210.67 833,-210.67 833,-206.83 836.83,-203 840.67,-203 840.67,-203 1044.33,-203 1044.33,-203 1048.17,-203 1052,-206.83 1052,-210.67 1052,-210.67 1052,-218.33 1052,-218.33 1052,-222.17 1048.17,-226 1044.33,-226"/>
<text text-anchor="middle" x="942.5" y="-210.8" font-family="Arial" font-size="14.00" fill="#c6c5fe">../../common/src/utils/payments.ts</text>
</g>
<!-- ../../common/src/utils/index.ts&#45;&gt;../../common/src/utils/payments.ts -->
<g id="edge38" class="edge">
<title>../../common/src/utils/index.ts&#45;&gt;../../common/src/utils/payments.ts</title>
<path fill="none" stroke="#757575" d="M729.5,-283.97C737,-281.4 744.28,-278.28 751,-274.5 771.84,-262.76 765.82,-245.62 787,-234.5 798.15,-228.65 810.35,-224.26 822.86,-221.01"/>
<polygon fill="#757575" stroke="#757575" points="824.01,-224.33 832.94,-218.63 822.4,-217.52 824.01,-224.33"/>
</g>
<!-- ../../common/src/utils/performance.ts -->
<g id="node37" class="node">
<title>../../common/src/utils/performance.ts</title>
<path fill="none" stroke="#cfffac" d="M1052.83,-23C1052.83,-23 832.17,-23 832.17,-23 828.33,-23 824.5,-19.17 824.5,-15.33 824.5,-15.33 824.5,-7.67 824.5,-7.67 824.5,-3.83 828.33,0 832.17,0 832.17,0 1052.83,0 1052.83,0 1056.67,0 1060.5,-3.83 1060.5,-7.67 1060.5,-7.67 1060.5,-15.33 1060.5,-15.33 1060.5,-19.17 1056.67,-23 1052.83,-23"/>
<text text-anchor="middle" x="942.5" y="-7.8" font-family="Arial" font-size="14.00" fill="#cfffac">../../common/src/utils/performance.ts</text>
</g>
<!-- ../../common/src/utils/index.ts&#45;&gt;../../common/src/utils/performance.ts -->
<g id="edge39" class="edge">
<title>../../common/src/utils/index.ts&#45;&gt;../../common/src/utils/performance.ts</title>
<path fill="none" stroke="#757575" d="M735.55,-286.18C741.23,-283.06 746.47,-279.22 751,-274.5 826.61,-195.74 709.09,-107.99 787,-31.5 794.98,-23.67 804.41,-17.84 814.62,-13.58"/>
<polygon fill="#757575" stroke="#757575" points="815.99,-16.8 824.19,-10.09 813.6,-10.23 815.99,-16.8"/>
</g>
<!-- ../../common/src/utils/random.ts -->
<g id="node38" class="node">
<title>../../common/src/utils/random.ts</title>
<path fill="none" stroke="#cfffac" d="M1037.83,-427C1037.83,-427 847.17,-427 847.17,-427 843.33,-427 839.5,-423.17 839.5,-419.33 839.5,-419.33 839.5,-411.67 839.5,-411.67 839.5,-407.83 843.33,-404 847.17,-404 847.17,-404 1037.83,-404 1037.83,-404 1041.67,-404 1045.5,-407.83 1045.5,-411.67 1045.5,-411.67 1045.5,-419.33 1045.5,-419.33 1045.5,-423.17 1041.67,-427 1037.83,-427"/>
<text text-anchor="middle" x="942.5" y="-411.8" font-family="Arial" font-size="14.00" fill="#cfffac">../../common/src/utils/random.ts</text>
</g>
<!-- ../../common/src/utils/index.ts&#45;&gt;../../common/src/utils/random.ts -->
<g id="edge40" class="edge">
<title>../../common/src/utils/index.ts&#45;&gt;../../common/src/utils/random.ts</title>
<path fill="none" stroke="#757575" d="M654.4,-307.22C679.26,-327.49 733.72,-368.92 787,-389.5 800.4,-394.68 814.85,-398.82 829.34,-402.14"/>
<polygon fill="#757575" stroke="#757575" points="828.85,-405.62 839.37,-404.32 830.33,-398.78 828.85,-405.62"/>
</g>
<!-- ../../common/src/utils/runtime.ts -->
<g id="node39" class="node">
<title>../../common/src/utils/runtime.ts</title>
<path fill="none" stroke="#c6c5fe" d="M1037.83,-347C1037.83,-347 847.17,-347 847.17,-347 843.33,-347 839.5,-343.17 839.5,-339.33 839.5,-339.33 839.5,-331.67 839.5,-331.67 839.5,-327.83 843.33,-324 847.17,-324 847.17,-324 1037.83,-324 1037.83,-324 1041.67,-324 1045.5,-327.83 1045.5,-331.67 1045.5,-331.67 1045.5,-339.33 1045.5,-339.33 1045.5,-343.17 1041.67,-347 1037.83,-347"/>
<text text-anchor="middle" x="942.5" y="-331.8" font-family="Arial" font-size="14.00" fill="#c6c5fe">../../common/src/utils/runtime.ts</text>
</g>
<!-- ../../common/src/utils/index.ts&#45;&gt;../../common/src/utils/runtime.ts -->
<g id="edge41" class="edge">
<title>../../common/src/utils/index.ts&#45;&gt;../../common/src/utils/runtime.ts</title>
<path fill="none" stroke="#757575" d="M727.16,-307.02C763.99,-311.91 807.07,-317.64 844.92,-322.67"/>
<polygon fill="#757575" stroke="#757575" points="844.56,-326.15 854.93,-324 845.48,-319.21 844.56,-326.15"/>
</g>
<!-- ../../common/src/utils/time.ts -->
<g id="node40" class="node">
<title>../../common/src/utils/time.ts</title>
<path fill="none" stroke="#c6c5fe" d="M1334.33,-307C1334.33,-307 1163.67,-307 1163.67,-307 1159.83,-307 1156,-303.17 1156,-299.33 1156,-299.33 1156,-291.67 1156,-291.67 1156,-287.83 1159.83,-284 1163.67,-284 1163.67,-284 1334.33,-284 1334.33,-284 1338.17,-284 1342,-287.83 1342,-291.67 1342,-291.67 1342,-299.33 1342,-299.33 1342,-303.17 1338.17,-307 1334.33,-307"/>
<text text-anchor="middle" x="1249" y="-291.8" font-family="Arial" font-size="14.00" fill="#c6c5fe">../../common/src/utils/time.ts</text>
</g>
<!-- ../../common/src/utils/index.ts&#45;&gt;../../common/src/utils/time.ts -->
<g id="edge42" class="edge">
<title>../../common/src/utils/index.ts&#45;&gt;../../common/src/utils/time.ts</title>
<path fill="none" stroke="#757575" d="M735.76,-295.5C847.26,-295.5 1031.21,-295.5 1145.67,-295.5"/>
<polygon fill="#757575" stroke="#757575" points="1145.84,-299 1155.84,-295.5 1145.84,-292 1145.84,-299"/>
</g>
<!-- ../../common/src/utils/urls.ts -->
<g id="node41" class="node">
<title>../../common/src/utils/urls.ts</title>
<path fill="none" stroke="#cfffac" d="M1025.83,-267C1025.83,-267 859.17,-267 859.17,-267 855.33,-267 851.5,-263.17 851.5,-259.33 851.5,-259.33 851.5,-251.67 851.5,-251.67 851.5,-247.83 855.33,-244 859.17,-244 859.17,-244 1025.83,-244 1025.83,-244 1029.67,-244 1033.5,-247.83 1033.5,-251.67 1033.5,-251.67 1033.5,-259.33 1033.5,-259.33 1033.5,-263.17 1029.67,-267 1025.83,-267"/>
<text text-anchor="middle" x="942.5" y="-251.8" font-family="Arial" font-size="14.00" fill="#cfffac">../../common/src/utils/urls.ts</text>
</g>
<!-- ../../common/src/utils/index.ts&#45;&gt;../../common/src/utils/urls.ts -->
<g id="edge43" class="edge">
<title>../../common/src/utils/index.ts&#45;&gt;../../common/src/utils/urls.ts</title>
<path fill="none" stroke="#757575" d="M727.16,-283.98C763.99,-279.09 807.07,-273.36 844.92,-268.33"/>
<polygon fill="#757575" stroke="#757575" points="845.48,-271.79 854.93,-267 844.56,-264.85 845.48,-271.79"/>
</g>
<!-- ../../common/src/schemas/discord.ts&#45;&gt;../../common/src/constants/index.ts -->
<g id="edge44" class="edge">
<title>../../common/src/schemas/discord.ts&#45;&gt;../../common/src/constants/index.ts</title>
<path fill="none" stroke="#757575" d="M998.89,-684.91C1030.6,-676.09 1069.61,-661.29 1098,-637.5 1121.83,-617.52 1113.65,-601.01 1134,-577.5 1160.2,-547.23 1197.06,-519.16 1221.7,-501.95"/>
<polygon fill="#757575" stroke="#757575" points="1223.92,-504.66 1230.18,-496.11 1219.96,-498.9 1223.92,-504.66"/>
</g>
<!-- ../../common/src/schemas/discord.ts&#45;&gt;../../common/src/schemas/colors.ts -->
<g id="edge45" class="edge">
<title>../../common/src/schemas/discord.ts&#45;&gt;../../common/src/schemas/colors.ts</title>
<path fill="none" stroke="#757575" d="M1045.72,-708.02C1063.24,-710.67 1081.21,-713.82 1098,-717.5 1114.34,-721.08 1117.91,-723.93 1134,-728.5 1153.02,-733.91 1173.93,-739.51 1192.58,-744.38"/>
<polygon fill="#757575" stroke="#757575" points="1191.84,-747.81 1202.4,-746.94 1193.6,-741.03 1191.84,-747.81"/>
</g>
<!-- ../../common/src/schemas/ids.ts&#45;&gt;../../common/src/schemas/strings.ts -->
<g id="edge46" class="edge">
<title>../../common/src/schemas/ids.ts&#45;&gt;../../common/src/schemas/strings.ts</title>
<path fill="none" stroke="#757575" d="M1017.94,-548.06C1043.39,-552.27 1072,-557.28 1098,-562.5 1129.17,-568.75 1163.75,-576.75 1191.84,-583.52"/>
<polygon fill="#757575" stroke="#757575" points="1191.33,-587 1201.88,-585.95 1192.98,-580.19 1191.33,-587"/>
</g>
<!-- ../../common/src/utils/arrays.ts&#45;&gt;../../common/src/utils/strings.ts -->
<g id="edge47" class="edge">
<title>../../common/src/utils/arrays.ts&#45;&gt;../../common/src/utils/strings.ts</title>
<path fill="none" stroke="#757575" d="M1033.8,-105.03C1054.87,-107.76 1077.23,-110.7 1098,-113.5 1116.97,-116.06 1137.29,-118.86 1156.65,-121.56"/>
<polygon fill="#757575" stroke="#757575" points="1156.28,-125.04 1166.67,-122.96 1157.25,-118.11 1156.28,-125.04"/>
</g>
<!-- ../../common/src/utils/bytes.ts&#45;&gt;../../common/src/constants/index.ts -->
<g id="edge48" class="edge">
<title>../../common/src/utils/bytes.ts&#45;&gt;../../common/src/constants/index.ts</title>
<path fill="none" stroke="#757575" d="M1038.59,-465.24C1066.14,-467.78 1096.62,-470.58 1125.59,-473.24"/>
<polygon fill="#757575" stroke="#757575" points="1125.49,-476.75 1135.77,-474.18 1126.13,-469.78 1125.49,-476.75"/>
</g>
<!-- ../../serdes/src/index.ts -->
<g id="node42" class="node">
<title>../../serdes/src/index.ts</title>
<path fill="none" stroke="#c6c5fe" d="M1586.83,-372C1586.83,-372 1450.17,-372 1450.17,-372 1446.33,-372 1442.5,-368.17 1442.5,-364.33 1442.5,-364.33 1442.5,-356.67 1442.5,-356.67 1442.5,-352.83 1446.33,-349 1450.17,-349 1450.17,-349 1586.83,-349 1586.83,-349 1590.67,-349 1594.5,-352.83 1594.5,-356.67 1594.5,-356.67 1594.5,-364.33 1594.5,-364.33 1594.5,-368.17 1590.67,-372 1586.83,-372"/>
<text text-anchor="middle" x="1518.5" y="-356.8" font-family="Arial" font-size="14.00" fill="#c6c5fe">../../serdes/src/index.ts</text>
</g>
<!-- ../../common/src/utils/numbers.ts&#45;&gt;../../serdes/src/index.ts -->
<g id="edge49" class="edge">
<title>../../common/src/utils/numbers.ts&#45;&gt;../../serdes/src/index.ts</title>
<path fill="none" stroke="#757575" d="M1355.72,-360.5C1381.02,-360.5 1407.73,-360.5 1431.98,-360.5"/>
<polygon fill="#757575" stroke="#757575" points="1432.22,-364 1442.22,-360.5 1432.22,-357 1432.22,-364"/>
</g>
<!-- ../../common/src/utils/payments.ts&#45;&gt;../../common/src/defaults.ts -->
<g id="edge50" class="edge">
<title>../../common/src/utils/payments.ts&#45;&gt;../../common/src/defaults.ts</title>
<path fill="none" stroke="#757575" d="M1052.14,-224.15C1157.67,-233.53 1316.5,-247.64 1418.59,-256.71"/>
<polygon fill="#757575" stroke="#757575" points="1418.33,-260.2 1428.6,-257.6 1418.95,-253.23 1418.33,-260.2"/>
</g>
<!-- ../../common/src/utils/payments.ts&#45;&gt;../../common/src/utils/time.ts -->
<g id="edge51" class="edge">
<title>../../common/src/utils/payments.ts&#45;&gt;../../common/src/utils/time.ts</title>
<path fill="none" stroke="#757575" d="M1052.24,-224.99C1067.72,-227.52 1083.35,-230.64 1098,-234.5 1103.79,-236.02 1168.21,-262.5 1210.72,-280.06"/>
<polygon fill="#757575" stroke="#757575" points="1209.64,-283.4 1220.22,-283.99 1212.32,-276.93 1209.64,-283.4"/>
</g>
<!-- ../../common/src/utils/runtime.ts&#45;&gt;../../common/src/utils/numbers.ts -->
<g id="edge52" class="edge">
<title>../../common/src/utils/runtime.ts&#45;&gt;../../common/src/utils/numbers.ts</title>
<path fill="none" stroke="#757575" d="M1045.74,-343.89C1073.56,-346.18 1103.89,-348.67 1132.39,-351.01"/>
<polygon fill="#757575" stroke="#757575" points="1132.14,-354.5 1142.39,-351.83 1132.71,-347.52 1132.14,-354.5"/>
</g>
<!-- ../../common/src/utils/runtime.ts&#45;&gt;../../common/src/utils/time.ts -->
<g id="edge53" class="edge">
<title>../../common/src/utils/runtime.ts&#45;&gt;../../common/src/utils/time.ts</title>
<path fill="none" stroke="#757575" d="M1031.17,-323.98C1068.42,-319.09 1112.01,-313.36 1150.3,-308.33"/>
<polygon fill="#757575" stroke="#757575" points="1150.97,-311.78 1160.43,-307 1150.06,-304.84 1150.97,-311.78"/>
</g>
<!-- ../../common/src/utils/time.ts&#45;&gt;../../common/src/constants/time.ts -->
<g id="edge54" class="edge">
<title>../../common/src/utils/time.ts&#45;&gt;../../common/src/constants/time.ts</title>
<path fill="none" stroke="#757575" d="M1292.73,-307.03C1315.22,-314.37 1342.51,-325.38 1364,-340.5 1383.83,-354.45 1379.79,-368.1 1400,-381.5 1416.1,-392.17 1435.37,-400.15 1453.6,-406.02"/>
<polygon fill="#757575" stroke="#757575" points="1452.73,-409.42 1463.31,-408.99 1454.77,-402.72 1452.73,-409.42"/>
</g>
<!-- ../../common/src/utils/time.ts&#45;&gt;../../common/src/defaults.ts -->
<g id="edge55" class="edge">
<title>../../common/src/utils/time.ts&#45;&gt;../../common/src/defaults.ts</title>
<path fill="none" stroke="#757575" d="M1342.06,-285.18C1366.76,-282.4 1393.58,-279.4 1418.64,-276.59"/>
<polygon fill="#757575" stroke="#757575" points="1419.34,-280.03 1428.88,-275.44 1418.56,-273.07 1419.34,-280.03"/>
</g>
<!-- ../../serdes/src/cbor.ts -->
<g id="node43" class="node">
<title>../../serdes/src/cbor.ts</title>
<path fill="none" stroke="#cfffac" d="M1839.33,-454C1839.33,-454 1709.67,-454 1709.67,-454 1705.83,-454 1702,-450.17 1702,-446.33 1702,-446.33 1702,-438.67 1702,-438.67 1702,-434.83 1705.83,-431 1709.67,-431 1709.67,-431 1839.33,-431 1839.33,-431 1843.17,-431 1847,-434.83 1847,-438.67 1847,-438.67 1847,-446.33 1847,-446.33 1847,-450.17 1843.17,-454 1839.33,-454"/>
<text text-anchor="middle" x="1774.5" y="-438.8" font-family="Arial" font-size="14.00" fill="#cfffac">../../serdes/src/cbor.ts</text>
</g>
<!-- ../../serdes/src/index.ts&#45;&gt;../../serdes/src/cbor.ts -->
<g id="edge56" class="edge">
<title>../../serdes/src/index.ts&#45;&gt;../../serdes/src/cbor.ts</title>
<path fill="none" stroke="#757575" d="M1560.61,-372.05C1583.57,-379.11 1612.42,-388.98 1637,-400.5 1653.98,-408.46 1655.53,-415.68 1673,-422.5 1678.98,-424.84 1685.27,-426.91 1691.67,-428.75"/>
<polygon fill="#757575" stroke="#757575" points="1691.21,-432.25 1701.78,-431.46 1693.02,-425.49 1691.21,-432.25"/>
</g>
<!-- ../../serdes/src/json.ts -->
<g id="node44" class="node">
<title>../../serdes/src/json.ts</title>
<path fill="none" stroke="#cfffac" d="M1838.83,-413C1838.83,-413 1710.17,-413 1710.17,-413 1706.33,-413 1702.5,-409.17 1702.5,-405.33 1702.5,-405.33 1702.5,-397.67 1702.5,-397.67 1702.5,-393.83 1706.33,-390 1710.17,-390 1710.17,-390 1838.83,-390 1838.83,-390 1842.67,-390 1846.5,-393.83 1846.5,-397.67 1846.5,-397.67 1846.5,-405.33 1846.5,-405.33 1846.5,-409.17 1842.67,-413 1838.83,-413"/>
<text text-anchor="middle" x="1774.5" y="-397.8" font-family="Arial" font-size="14.00" fill="#cfffac">../../serdes/src/json.ts</text>
</g>
<!-- ../../serdes/src/index.ts&#45;&gt;../../serdes/src/json.ts -->
<g id="edge57" class="edge">
<title>../../serdes/src/index.ts&#45;&gt;../../serdes/src/json.ts</title>
<path fill="none" stroke="#757575" d="M1590.93,-372.03C1622.44,-377.12 1659.65,-383.12 1692.22,-388.38"/>
<polygon fill="#757575" stroke="#757575" points="1691.74,-391.85 1702.17,-389.99 1692.85,-384.94 1691.74,-391.85"/>
</g>
<!-- ../../serdes/src/messagepack.ts -->
<g id="node45" class="node">
<title>../../serdes/src/messagepack.ts</title>
<path fill="none" stroke="#cfffac" d="M1868.33,-372C1868.33,-372 1680.67,-372 1680.67,-372 1676.83,-372 1673,-368.17 1673,-364.33 1673,-364.33 1673,-356.67 1673,-356.67 1673,-352.83 1676.83,-349 1680.67,-349 1680.67,-349 1868.33,-349 1868.33,-349 1872.17,-349 1876,-352.83 1876,-356.67 1876,-356.67 1876,-364.33 1876,-364.33 1876,-368.17 1872.17,-372 1868.33,-372"/>
<text text-anchor="middle" x="1774.5" y="-356.8" font-family="Arial" font-size="14.00" fill="#cfffac">../../serdes/src/messagepack.ts</text>
</g>
<!-- ../../serdes/src/index.ts&#45;&gt;../../serdes/src/messagepack.ts -->
<g id="edge58" class="edge">
<title>../../serdes/src/index.ts&#45;&gt;../../serdes/src/messagepack.ts</title>
<path fill="none" stroke="#757575" d="M1594.68,-360.5C1615.96,-360.5 1639.58,-360.5 1662.5,-360.5"/>
<polygon fill="#757575" stroke="#757575" points="1662.62,-364 1672.62,-360.5 1662.62,-357 1662.62,-364"/>
</g>
<!-- ../../serdes/src/toml.ts -->
<g id="node46" class="node">
<title>../../serdes/src/toml.ts</title>
<path fill="none" stroke="#cfffac" d="M1839.83,-331C1839.83,-331 1709.17,-331 1709.17,-331 1705.33,-331 1701.5,-327.17 1701.5,-323.33 1701.5,-323.33 1701.5,-315.67 1701.5,-315.67 1701.5,-311.83 1705.33,-308 1709.17,-308 1709.17,-308 1839.83,-308 1839.83,-308 1843.67,-308 1847.5,-311.83 1847.5,-315.67 1847.5,-315.67 1847.5,-323.33 1847.5,-323.33 1847.5,-327.17 1843.67,-331 1839.83,-331"/>
<text text-anchor="middle" x="1774.5" y="-315.8" font-family="Arial" font-size="14.00" fill="#cfffac">../../serdes/src/toml.ts</text>
</g>
<!-- ../../serdes/src/index.ts&#45;&gt;../../serdes/src/toml.ts -->
<g id="edge59" class="edge">
<title>../../serdes/src/index.ts&#45;&gt;../../serdes/src/toml.ts</title>
<path fill="none" stroke="#757575" d="M1590.93,-348.97C1622.44,-343.88 1659.65,-337.88 1692.22,-332.62"/>
<polygon fill="#757575" stroke="#757575" points="1692.85,-336.06 1702.17,-331.01 1691.74,-329.15 1692.85,-336.06"/>
</g>
<!-- ../../serdes/src/yaml.ts -->
<g id="node47" class="node">
<title>../../serdes/src/yaml.ts</title>
<path fill="none" stroke="#cfffac" d="M1841.33,-290C1841.33,-290 1707.67,-290 1707.67,-290 1703.83,-290 1700,-286.17 1700,-282.33 1700,-282.33 1700,-274.67 1700,-274.67 1700,-270.83 1703.83,-267 1707.67,-267 1707.67,-267 1841.33,-267 1841.33,-267 1845.17,-267 1849,-270.83 1849,-274.67 1849,-274.67 1849,-282.33 1849,-282.33 1849,-286.17 1845.17,-290 1841.33,-290"/>
<text text-anchor="middle" x="1774.5" y="-274.8" font-family="Arial" font-size="14.00" fill="#cfffac">../../serdes/src/yaml.ts</text>
</g>
<!-- ../../serdes/src/index.ts&#45;&gt;../../serdes/src/yaml.ts -->
<g id="edge60" class="edge">
<title>../../serdes/src/index.ts&#45;&gt;../../serdes/src/yaml.ts</title>
<path fill="none" stroke="#757575" d="M1544.55,-348.99C1574.56,-335.57 1626.59,-313.46 1673,-299.5 1681.71,-296.88 1690.95,-294.47 1700.15,-292.29"/>
<polygon fill="#757575" stroke="#757575" points="1701.12,-295.66 1710.09,-290.02 1699.56,-288.83 1701.12,-295.66"/>
</g>
<!-- client.ts -->
<g id="node48" class="node">
<title>client.ts</title>
<path fill="none" stroke="#c6c5fe" d="M218.83,-467C218.83,-467 172.17,-467 172.17,-467 168.33,-467 164.5,-463.17 164.5,-459.33 164.5,-459.33 164.5,-451.67 164.5,-451.67 164.5,-447.83 168.33,-444 172.17,-444 172.17,-444 218.83,-444 218.83,-444 222.67,-444 226.5,-447.83 226.5,-451.67 226.5,-451.67 226.5,-459.33 226.5,-459.33 226.5,-463.17 222.67,-467 218.83,-467"/>
<text text-anchor="middle" x="195.5" y="-451.8" font-family="Arial" font-size="14.00" fill="#c6c5fe">client.ts</text>
</g>
<!-- client.ts&#45;&gt;../../common/src/index.ts -->
<g id="edge61" class="edge">
<title>client.ts&#45;&gt;../../common/src/index.ts</title>
<path fill="none" stroke="#757575" d="M226.95,-461.37C256.13,-467 301.23,-475.71 339.24,-483.04"/>
<polygon fill="#757575" stroke="#757575" points="338.76,-486.51 349.24,-484.97 340.08,-479.64 338.76,-486.51"/>
</g>
<!-- cooldown.ts -->
<g id="node49" class="node">
<title>cooldown.ts</title>
<path fill="none" stroke="#cfffac" d="M446.33,-467C446.33,-467 373.67,-467 373.67,-467 369.83,-467 366,-463.17 366,-459.33 366,-459.33 366,-451.67 366,-451.67 366,-447.83 369.83,-444 373.67,-444 373.67,-444 446.33,-444 446.33,-444 450.17,-444 454,-447.83 454,-451.67 454,-451.67 454,-459.33 454,-459.33 454,-463.17 450.17,-467 446.33,-467"/>
<text text-anchor="middle" x="410" y="-451.8" font-family="Arial" font-size="14.00" fill="#cfffac">cooldown.ts</text>
</g>
<!-- client.ts&#45;&gt;cooldown.ts -->
<g id="edge62" class="edge">
<title>client.ts&#45;&gt;cooldown.ts</title>
<path fill="none" stroke="#757575" d="M226.95,-455.5C260.48,-455.5 315.05,-455.5 355.71,-455.5"/>
<polygon fill="#757575" stroke="#757575" points="355.72,-459 365.72,-455.5 355.72,-452 355.72,-459"/>
</g>
<!-- events.ts -->
<g id="node50" class="node">
<title>events.ts</title>
<path fill="none" stroke="#cfffac" d="M437.83,-426C437.83,-426 382.17,-426 382.17,-426 378.33,-426 374.5,-422.17 374.5,-418.33 374.5,-418.33 374.5,-410.67 374.5,-410.67 374.5,-406.83 378.33,-403 382.17,-403 382.17,-403 437.83,-403 437.83,-403 441.67,-403 445.5,-406.83 445.5,-410.67 445.5,-410.67 445.5,-418.33 445.5,-418.33 445.5,-422.17 441.67,-426 437.83,-426"/>
<text text-anchor="middle" x="410" y="-410.8" font-family="Arial" font-size="14.00" fill="#cfffac">events.ts</text>
</g>
<!-- client.ts&#45;&gt;events.ts -->
<g id="edge63" class="edge">
<title>client.ts&#45;&gt;events.ts</title>
<path fill="none" stroke="#757575" d="M226.95,-449.63C262.92,-442.69 323.07,-431.08 364.32,-423.12"/>
<polygon fill="#757575" stroke="#757575" points="365.22,-426.51 374.38,-421.18 363.9,-419.64 365.22,-426.51"/>
</g>
<!-- component.ts -->
<g id="node51" class="node">
<title>component.ts</title>
<path fill="none" stroke="#cfffac" d="M236.83,-387C236.83,-387 154.17,-387 154.17,-387 150.33,-387 146.5,-383.17 146.5,-379.33 146.5,-379.33 146.5,-371.67 146.5,-371.67 146.5,-367.83 150.33,-364 154.17,-364 154.17,-364 236.83,-364 236.83,-364 240.67,-364 244.5,-367.83 244.5,-371.67 244.5,-371.67 244.5,-379.33 244.5,-379.33 244.5,-383.17 240.67,-387 236.83,-387"/>
<text text-anchor="middle" x="195.5" y="-371.8" font-family="Arial" font-size="14.00" fill="#cfffac">component.ts</text>
</g>
<!-- embeds.ts -->
<g id="node52" class="node">
<title>embeds.ts</title>
<path fill="none" stroke="#cfffac" d="M227.83,-346C227.83,-346 163.17,-346 163.17,-346 159.33,-346 155.5,-342.17 155.5,-338.33 155.5,-338.33 155.5,-330.67 155.5,-330.67 155.5,-326.83 159.33,-323 163.17,-323 163.17,-323 227.83,-323 227.83,-323 231.67,-323 235.5,-326.83 235.5,-330.67 235.5,-330.67 235.5,-338.33 235.5,-338.33 235.5,-342.17 231.67,-346 227.83,-346"/>
<text text-anchor="middle" x="195.5" y="-330.8" font-family="Arial" font-size="14.00" fill="#cfffac">embeds.ts</text>
</g>
<!-- index.ts -->
<g id="node53" class="node">
<title>index.ts</title>
<path fill="none" stroke="#c6c5fe" d="M55.33,-407C55.33,-407 7.67,-407 7.67,-407 3.83,-407 0,-403.17 0,-399.33 0,-399.33 0,-391.67 0,-391.67 0,-387.83 3.83,-384 7.67,-384 7.67,-384 55.33,-384 55.33,-384 59.17,-384 63,-387.83 63,-391.67 63,-391.67 63,-399.33 63,-399.33 63,-403.17 59.17,-407 55.33,-407"/>
<text text-anchor="middle" x="31.5" y="-391.8" font-family="Arial" font-size="14.00" fill="#c6c5fe">index.ts</text>
</g>
<!-- index.ts&#45;&gt;client.ts -->
<g id="edge64" class="edge">
<title>index.ts&#45;&gt;client.ts</title>
<path fill="none" stroke="#757575" d="M52.37,-407.03C65.34,-414.21 82.8,-423.23 99,-429.5 116.82,-436.39 137.17,-442.2 154.5,-446.57"/>
<polygon fill="#757575" stroke="#757575" points="153.76,-449.99 164.31,-448.97 155.43,-443.2 153.76,-449.99"/>
</g>
<!-- index.ts&#45;&gt;events.ts -->
<g id="edge65" class="edge">
<title>index.ts&#45;&gt;events.ts</title>
<path fill="none" stroke="#757575" d="M63.31,-397.05C129.65,-400.4 286.26,-408.31 363.84,-412.22"/>
<polygon fill="#757575" stroke="#757575" points="364.08,-415.74 374.24,-412.75 364.43,-408.75 364.08,-415.74"/>
</g>
<!-- index.ts&#45;&gt;component.ts -->
<g id="edge66" class="edge">
<title>index.ts&#45;&gt;component.ts</title>
<path fill="none" stroke="#757575" d="M63.35,-391.69C83.93,-389.15 111.62,-385.73 136.25,-382.69"/>
<polygon fill="#757575" stroke="#757575" points="136.74,-386.16 146.24,-381.46 135.88,-379.21 136.74,-386.16"/>
</g>
<!-- index.ts&#45;&gt;embeds.ts -->
<g id="edge67" class="edge">
<title>index.ts&#45;&gt;embeds.ts</title>
<path fill="none" stroke="#757575" d="M48.39,-383.91C61.4,-374.93 80.6,-362.83 99,-355.5 113.48,-349.73 129.86,-345.4 144.91,-342.22"/>
<polygon fill="#757575" stroke="#757575" points="145.95,-345.58 155.08,-340.19 144.59,-338.71 145.95,-345.58"/>
</g>
<!-- overflow&#45;message&#45;payload.ts -->
<g id="node54" class="node">
<title>overflow&#45;message&#45;payload.ts</title>
<path fill="none" stroke="#cfffac" d="M284.33,-305C284.33,-305 106.67,-305 106.67,-305 102.83,-305 99,-301.17 99,-297.33 99,-297.33 99,-289.67 99,-289.67 99,-285.83 102.83,-282 106.67,-282 106.67,-282 284.33,-282 284.33,-282 288.17,-282 292,-285.83 292,-289.67 292,-289.67 292,-297.33 292,-297.33 292,-301.17 288.17,-305 284.33,-305"/>
<text text-anchor="middle" x="195.5" y="-289.8" font-family="Arial" font-size="14.00" fill="#cfffac">overflow&#45;message&#45;payload.ts</text>
</g>
<!-- index.ts&#45;&gt;overflow&#45;message&#45;payload.ts -->
<g id="edge68" class="edge">
<title>index.ts&#45;&gt;overflow&#45;message&#45;payload.ts</title>
<path fill="none" stroke="#757575" d="M38.71,-383.74C48.83,-365.82 70.61,-331.9 99,-314.5 102.23,-312.52 105.62,-310.73 109.12,-309.1"/>
<polygon fill="#757575" stroke="#757575" points="110.71,-312.23 118.61,-305.18 108.03,-305.76 110.71,-312.23"/>
</g>
<!-- pagination.ts -->
<g id="node55" class="node">
<title>pagination.ts</title>
<path fill="none" stroke="#c6c5fe" d="M234.33,-508C234.33,-508 156.67,-508 156.67,-508 152.83,-508 149,-504.17 149,-500.33 149,-500.33 149,-492.67 149,-492.67 149,-488.83 152.83,-485 156.67,-485 156.67,-485 234.33,-485 234.33,-485 238.17,-485 242,-488.83 242,-492.67 242,-492.67 242,-500.33 242,-500.33 242,-504.17 238.17,-508 234.33,-508"/>
<text text-anchor="middle" x="195.5" y="-492.8" font-family="Arial" font-size="14.00" fill="#c6c5fe">pagination.ts</text>
</g>
<!-- index.ts&#45;&gt;pagination.ts -->
<g id="edge69" class="edge">
<title>index.ts&#45;&gt;pagination.ts</title>
<path fill="none" stroke="#757575" d="M52.21,-407.22C56.03,-409.99 59.83,-413.13 63,-416.5 84.29,-439.17 73.66,-458.47 99,-476.5 110.55,-484.72 124.76,-489.7 138.64,-492.69"/>
<polygon fill="#757575" stroke="#757575" points="138.19,-496.16 148.66,-494.52 139.45,-489.28 138.19,-496.16"/>
</g>
<!-- pagination.ts&#45;&gt;../../common/src/index.ts -->
<g id="edge70" class="edge">
<title>pagination.ts&#45;&gt;../../common/src/index.ts</title>
<path fill="none" stroke="#757575" d="M242.09,-496.5C264.16,-496.5 291.48,-496.5 317.58,-496.5"/>
<polygon fill="#757575" stroke="#757575" points="317.9,-500 327.9,-496.5 317.9,-493 317.9,-500"/>
</g>
<!-- types.ts -->
<g id="node56" class="node">
<title>types.ts</title>
<path fill="none" stroke="#cfffac" d="M55.33,-448C55.33,-448 7.67,-448 7.67,-448 3.83,-448 0,-444.17 0,-440.33 0,-440.33 0,-432.67 0,-432.67 0,-428.83 3.83,-425 7.67,-425 7.67,-425 55.33,-425 55.33,-425 59.17,-425 63,-428.83 63,-432.67 63,-432.67 63,-440.33 63,-440.33 63,-444.17 59.17,-448 55.33,-448"/>
<text text-anchor="middle" x="31.5" y="-432.8" font-family="Arial" font-size="14.00" fill="#cfffac">types.ts</text>
</g>
</g>
</svg>
