<?xml version="1.0" encoding="UTF-8" standalone="no"?>
<!DOCTYPE svg PUBLIC "-//W3C//DTD SVG 1.1//EN"
 "http://www.w3.org/Graphics/SVG/1.1/DTD/svg11.dtd">
<!-- Generated by graphviz version 2.43.0 (0)
 -->
<!-- Title: G Pages: 1 -->
<svg width="655pt" height="230pt"
 viewBox="0.00 0.00 655.20 230.20" xmlns="http://www.w3.org/2000/svg" xmlns:xlink="http://www.w3.org/1999/xlink">
<g id="graph0" class="graph" transform="scale(1 1) rotate(0) translate(21.6 208.6)">
<title>G</title>
<polygon fill="#202020" stroke="transparent" points="-21.6,21.6 -21.6,-208.6 633.6,-208.6 633.6,21.6 -21.6,21.6"/>
<!-- ../../serdes/src/cbor.ts -->
<g id="node1" class="node">
<title>../../serdes/src/cbor.ts</title>
<path fill="none" stroke="#cfffac" d="M575.33,-187C575.33,-187 445.67,-187 445.67,-187 441.83,-187 438,-183.17 438,-179.33 438,-179.33 438,-171.67 438,-171.67 438,-167.83 441.83,-164 445.67,-164 445.67,-164 575.33,-164 575.33,-164 579.17,-164 583,-167.83 583,-171.67 583,-171.67 583,-179.33 583,-179.33 583,-183.17 579.17,-187 575.33,-187"/>
<text text-anchor="middle" x="510.5" y="-171.8" font-family="Arial" font-size="14.00" fill="#cfffac">../../serdes/src/cbor.ts</text>
</g>
<!-- ../../serdes/src/index.ts -->
<g id="node2" class="node">
<title>../../serdes/src/index.ts</title>
<path fill="none" stroke="#c6c5fe" d="M365.33,-105C365.33,-105 228.67,-105 228.67,-105 224.83,-105 221,-101.17 221,-97.33 221,-97.33 221,-89.67 221,-89.67 221,-85.83 224.83,-82 228.67,-82 228.67,-82 365.33,-82 365.33,-82 369.17,-82 373,-85.83 373,-89.67 373,-89.67 373,-97.33 373,-97.33 373,-101.17 369.17,-105 365.33,-105"/>
<text text-anchor="middle" x="297" y="-89.8" font-family="Arial" font-size="14.00" fill="#c6c5fe">../../serdes/src/index.ts</text>
</g>
<!-- ../../serdes/src/index.ts&#45;&gt;../../serdes/src/cbor.ts -->
<g id="edge1" class="edge">
<title>../../serdes/src/index.ts&#45;&gt;../../serdes/src/cbor.ts</title>
<path fill="none" stroke="#757575" d="M314.87,-105.15C335.95,-119.17 373.58,-142.45 409,-155.5 415.03,-157.72 421.35,-159.71 427.77,-161.49"/>
<polygon fill="#757575" stroke="#757575" points="427.34,-165 437.9,-164.13 429.11,-158.22 427.34,-165"/>
</g>
<!-- ../../serdes/src/json.ts -->
<g id="node3" class="node">
<title>../../serdes/src/json.ts</title>
<path fill="none" stroke="#cfffac" d="M574.83,-146C574.83,-146 446.17,-146 446.17,-146 442.33,-146 438.5,-142.17 438.5,-138.33 438.5,-138.33 438.5,-130.67 438.5,-130.67 438.5,-126.83 442.33,-123 446.17,-123 446.17,-123 574.83,-123 574.83,-123 578.67,-123 582.5,-126.83 582.5,-130.67 582.5,-130.67 582.5,-138.33 582.5,-138.33 582.5,-142.17 578.67,-146 574.83,-146"/>
<text text-anchor="middle" x="510.5" y="-130.8" font-family="Arial" font-size="14.00" fill="#cfffac">../../serdes/src/json.ts</text>
</g>
<!-- ../../serdes/src/index.ts&#45;&gt;../../serdes/src/json.ts -->
<g id="edge2" class="edge">
<title>../../serdes/src/index.ts&#45;&gt;../../serdes/src/json.ts</title>
<path fill="none" stroke="#757575" d="M357.48,-105.03C383.15,-110.01 413.36,-115.86 440.06,-121.04"/>
<polygon fill="#757575" stroke="#757575" points="439.62,-124.52 450.1,-122.99 440.95,-117.65 439.62,-124.52"/>
</g>
<!-- ../../serdes/src/messagepack.ts -->
<g id="node4" class="node">
<title>../../serdes/src/messagepack.ts</title>
<path fill="none" stroke="#cfffac" d="M604.33,-105C604.33,-105 416.67,-105 416.67,-105 412.83,-105 409,-101.17 409,-97.33 409,-97.33 409,-89.67 409,-89.67 409,-85.83 412.83,-82 416.67,-82 416.67,-82 604.33,-82 604.33,-82 608.17,-82 612,-85.83 612,-89.67 612,-89.67 612,-97.33 612,-97.33 612,-101.17 608.17,-105 604.33,-105"/>
<text text-anchor="middle" x="510.5" y="-89.8" font-family="Arial" font-size="14.00" fill="#cfffac">../../serdes/src/messagepack.ts</text>
</g>
<!-- ../../serdes/src/index.ts&#45;&gt;../../serdes/src/messagepack.ts -->
<g id="edge3" class="edge">
<title>../../serdes/src/index.ts&#45;&gt;../../serdes/src/messagepack.ts</title>
<path fill="none" stroke="#757575" d="M373.16,-93.5C381.44,-93.5 389.99,-93.5 398.59,-93.5"/>
<polygon fill="#757575" stroke="#757575" points="398.69,-97 408.69,-93.5 398.69,-90 398.69,-97"/>
</g>
<!-- ../../serdes/src/toml.ts -->
<g id="node5" class="node">
<title>../../serdes/src/toml.ts</title>
<path fill="none" stroke="#cfffac" d="M575.83,-64C575.83,-64 445.17,-64 445.17,-64 441.33,-64 437.5,-60.17 437.5,-56.33 437.5,-56.33 437.5,-48.67 437.5,-48.67 437.5,-44.83 441.33,-41 445.17,-41 445.17,-41 575.83,-41 575.83,-41 579.67,-41 583.5,-44.83 583.5,-48.67 583.5,-48.67 583.5,-56.33 583.5,-56.33 583.5,-60.17 579.67,-64 575.83,-64"/>
<text text-anchor="middle" x="510.5" y="-48.8" font-family="Arial" font-size="14.00" fill="#cfffac">../../serdes/src/toml.ts</text>
</g>
<!-- ../../serdes/src/index.ts&#45;&gt;../../serdes/src/toml.ts -->
<g id="edge4" class="edge">
<title>../../serdes/src/index.ts&#45;&gt;../../serdes/src/toml.ts</title>
<path fill="none" stroke="#757575" d="M357.48,-81.97C383.15,-76.99 413.36,-71.14 440.06,-65.96"/>
<polygon fill="#757575" stroke="#757575" points="440.95,-69.35 450.1,-64.01 439.62,-62.48 440.95,-69.35"/>
</g>
<!-- ../../serdes/src/yaml.ts -->
<g id="node6" class="node">
<title>../../serdes/src/yaml.ts</title>
<path fill="none" stroke="#cfffac" d="M577.33,-23C577.33,-23 443.67,-23 443.67,-23 439.83,-23 436,-19.17 436,-15.33 436,-15.33 436,-7.67 436,-7.67 436,-3.83 439.83,0 443.67,0 443.67,0 577.33,0 577.33,0 581.17,0 585,-3.83 585,-7.67 585,-7.67 585,-15.33 585,-15.33 585,-19.17 581.17,-23 577.33,-23"/>
<text text-anchor="middle" x="510.5" y="-7.8" font-family="Arial" font-size="14.00" fill="#cfffac">../../serdes/src/yaml.ts</text>
</g>
<!-- ../../serdes/src/index.ts&#45;&gt;../../serdes/src/yaml.ts -->
<g id="edge5" class="edge">
<title>../../serdes/src/index.ts&#45;&gt;../../serdes/src/yaml.ts</title>
<path fill="none" stroke="#757575" d="M315.29,-81.86C336.5,-68.11 373.94,-45.47 409,-32.5 415.97,-29.92 423.34,-27.62 430.8,-25.59"/>
<polygon fill="#757575" stroke="#757575" points="431.8,-28.94 440.61,-23.06 430.06,-22.16 431.8,-28.94"/>
</g>
<!-- index.ts -->
<g id="node7" class="node">
<title>index.ts</title>
<path fill="none" stroke="#c6c5fe" d="M55.33,-85C55.33,-85 7.67,-85 7.67,-85 3.83,-85 0,-81.17 0,-77.33 0,-77.33 0,-69.67 0,-69.67 0,-65.83 3.83,-62 7.67,-62 7.67,-62 55.33,-62 55.33,-62 59.17,-62 63,-65.83 63,-69.67 63,-69.67 63,-77.33 63,-77.33 63,-81.17 59.17,-85 55.33,-85"/>
<text text-anchor="middle" x="31.5" y="-69.8" font-family="Arial" font-size="14.00" fill="#c6c5fe">index.ts</text>
</g>
<!-- index.ts&#45;&gt;../../serdes/src/index.ts -->
<g id="edge6" class="edge">
<title>index.ts&#45;&gt;../../serdes/src/index.ts</title>
<path fill="none" stroke="#757575" d="M62.16,-85C73.5,-88.83 86.68,-92.6 99,-94.5 135.3,-100.1 175.82,-100.82 210.62,-99.78"/>
<polygon fill="#757575" stroke="#757575" points="210.88,-103.27 220.75,-99.42 210.64,-96.27 210.88,-103.27"/>
</g>
<!-- resolvers.ts -->
<g id="node8" class="node">
<title>resolvers.ts</title>
<path fill="none" stroke="#c6c5fe" d="M177.33,-85C177.33,-85 106.67,-85 106.67,-85 102.83,-85 99,-81.17 99,-77.33 99,-77.33 99,-69.67 99,-69.67 99,-65.83 102.83,-62 106.67,-62 106.67,-62 177.33,-62 177.33,-62 181.17,-62 185,-65.83 185,-69.67 185,-69.67 185,-77.33 185,-77.33 185,-81.17 181.17,-85 177.33,-85"/>
<text text-anchor="middle" x="142" y="-69.8" font-family="Arial" font-size="14.00" fill="#c6c5fe">resolvers.ts</text>
</g>
<!-- index.ts&#45;&gt;resolvers.ts -->
<g id="edge7" class="edge">
<title>index.ts&#45;&gt;resolvers.ts</title>
<path fill="none" stroke="#757575" d="M63.01,-73.5C71.03,-73.5 79.91,-73.5 88.72,-73.5"/>
<polygon fill="#757575" stroke="#757575" points="88.98,-77 98.98,-73.5 88.98,-70 88.98,-77"/>
</g>
<!-- retry.ts -->
<g id="node9" class="node">
<title>retry.ts</title>
<path fill="none" stroke="#cfffac" d="M162.83,-44C162.83,-44 121.17,-44 121.17,-44 117.33,-44 113.5,-40.17 113.5,-36.33 113.5,-36.33 113.5,-28.67 113.5,-28.67 113.5,-24.83 117.33,-21 121.17,-21 121.17,-21 162.83,-21 162.83,-21 166.67,-21 170.5,-24.83 170.5,-28.67 170.5,-28.67 170.5,-36.33 170.5,-36.33 170.5,-40.17 166.67,-44 162.83,-44"/>
<text text-anchor="middle" x="142" y="-28.8" font-family="Arial" font-size="14.00" fill="#cfffac">retry.ts</text>
</g>
<!-- index.ts&#45;&gt;retry.ts -->
<g id="edge8" class="edge">
<title>index.ts&#45;&gt;retry.ts</title>
<path fill="none" stroke="#757575" d="M63.01,-61.97C75.72,-57.17 90.6,-51.55 103.93,-46.51"/>
<polygon fill="#757575" stroke="#757575" points="105.19,-49.77 113.31,-42.96 102.72,-43.22 105.19,-49.77"/>
</g>
<!-- resolvers.ts&#45;&gt;../../serdes/src/index.ts -->
<g id="edge9" class="edge">
<title>resolvers.ts&#45;&gt;../../serdes/src/index.ts</title>
<path fill="none" stroke="#757575" d="M185.21,-79.02C193.25,-80.07 201.92,-81.2 210.74,-82.36"/>
<polygon fill="#757575" stroke="#757575" points="210.38,-85.84 220.75,-83.66 211.29,-78.9 210.38,-85.84"/>
</g>
<!-- types.ts -->
<g id="node10" class="node">
<title>types.ts</title>
<path fill="none" stroke="#cfffac" d="M55.33,-126C55.33,-126 7.67,-126 7.67,-126 3.83,-126 0,-122.17 0,-118.33 0,-118.33 0,-110.67 0,-110.67 0,-106.83 3.83,-103 7.67,-103 7.67,-103 55.33,-103 55.33,-103 59.17,-103 63,-106.83 63,-110.67 63,-110.67 63,-118.33 63,-118.33 63,-122.17 59.17,-126 55.33,-126"/>
<text text-anchor="middle" x="31.5" y="-110.8" font-family="Arial" font-size="14.00" fill="#cfffac">types.ts</text>
</g>
</g>
</svg>
