<?xml version="1.0" encoding="UTF-8" standalone="no"?>
<!DOCTYPE svg PUBLIC "-//W3C//DTD SVG 1.1//EN"
 "http://www.w3.org/Graphics/SVG/1.1/DTD/svg11.dtd">
<!-- Generated by graphviz version 2.43.0 (0)
 -->
<!-- Title: G Pages: 1 -->
<svg width="327pt" height="211pt"
 viewBox="0.00 0.00 327.20 211.10" xmlns="http://www.w3.org/2000/svg" xmlns:xlink="http://www.w3.org/1999/xlink">
<g id="graph0" class="graph" transform="scale(1 1) rotate(0) translate(21.6 189.5)">
<title>G</title>
<polygon fill="#202020" stroke="transparent" points="-21.6,21.6 -21.6,-189.5 305.6,-189.5 305.6,21.6 -21.6,21.6"/>
<!-- errors.ts -->
<g id="node1" class="node">
<title>errors.ts</title>
<path fill="none" stroke="#cfffac" d="M276.33,-64C276.33,-64 225.67,-64 225.67,-64 221.83,-64 218,-60.17 218,-56.33 218,-56.33 218,-48.67 218,-48.67 218,-44.83 221.83,-41 225.67,-41 225.67,-41 276.33,-41 276.33,-41 280.17,-41 284,-44.83 284,-48.67 284,-48.67 284,-56.33 284,-56.33 284,-60.17 280.17,-64 276.33,-64"/>
<text text-anchor="middle" x="251" y="-48.8" font-family="Arial" font-size="14.00" fill="#cfffac">errors.ts</text>
</g>
<!-- index.ts -->
<g id="node2" class="node">
<title>index.ts</title>
<path fill="none" stroke="#c6c5fe" d="M55.33,-105C55.33,-105 7.67,-105 7.67,-105 3.83,-105 0,-101.17 0,-97.33 0,-97.33 0,-89.67 0,-89.67 0,-85.83 3.83,-82 7.67,-82 7.67,-82 55.33,-82 55.33,-82 59.17,-82 63,-85.83 63,-89.67 63,-89.67 63,-97.33 63,-97.33 63,-101.17 59.17,-105 55.33,-105"/>
<text text-anchor="middle" x="31.5" y="-89.8" font-family="Arial" font-size="14.00" fill="#c6c5fe">index.ts</text>
</g>
<!-- index.ts&#45;&gt;errors.ts -->
<g id="edge1" class="edge">
<title>index.ts&#45;&gt;errors.ts</title>
<path fill="none" stroke="#757575" d="M50.8,-105.01C54.96,-107.92 59.25,-111.17 63,-114.5 81.12,-130.61 76.91,-145.5 99,-155.5 132.61,-170.71 149.52,-172.98 182,-155.5 214.03,-138.27 233.48,-98.6 242.95,-73.83"/>
<polygon fill="#757575" stroke="#757575" points="246.31,-74.83 246.41,-64.23 239.73,-72.45 246.31,-74.83"/>
</g>
<!-- logger.ts -->
<g id="node3" class="node">
<title>logger.ts</title>
<path fill="none" stroke="#cfffac" d="M166.83,-146C166.83,-146 114.17,-146 114.17,-146 110.33,-146 106.5,-142.17 106.5,-138.33 106.5,-138.33 106.5,-130.67 106.5,-130.67 106.5,-126.83 110.33,-123 114.17,-123 114.17,-123 166.83,-123 166.83,-123 170.67,-123 174.5,-126.83 174.5,-130.67 174.5,-130.67 174.5,-138.33 174.5,-138.33 174.5,-142.17 170.67,-146 166.83,-146"/>
<text text-anchor="middle" x="140.5" y="-130.8" font-family="Arial" font-size="14.00" fill="#cfffac">logger.ts</text>
</g>
<!-- index.ts&#45;&gt;logger.ts -->
<g id="edge2" class="edge">
<title>index.ts&#45;&gt;logger.ts</title>
<path fill="none" stroke="#757575" d="M62.59,-105.03C74.1,-109.44 87.41,-114.54 99.69,-119.25"/>
<polygon fill="#757575" stroke="#757575" points="98.67,-122.6 109.26,-122.91 101.18,-116.07 98.67,-122.6"/>
</g>
<!-- progress.ts -->
<g id="node4" class="node">
<title>progress.ts</title>
<path fill="none" stroke="#cfffac" d="M174.33,-105C174.33,-105 106.67,-105 106.67,-105 102.83,-105 99,-101.17 99,-97.33 99,-97.33 99,-89.67 99,-89.67 99,-85.83 102.83,-82 106.67,-82 106.67,-82 174.33,-82 174.33,-82 178.17,-82 182,-85.83 182,-89.67 182,-89.67 182,-97.33 182,-97.33 182,-101.17 178.17,-105 174.33,-105"/>
<text text-anchor="middle" x="140.5" y="-89.8" font-family="Arial" font-size="14.00" fill="#cfffac">progress.ts</text>
</g>
<!-- index.ts&#45;&gt;progress.ts -->
<g id="edge3" class="edge">
<title>index.ts&#45;&gt;progress.ts</title>
<path fill="none" stroke="#757575" d="M63.16,-93.5C71.15,-93.5 79.98,-93.5 88.71,-93.5"/>
<polygon fill="#757575" stroke="#757575" points="88.85,-97 98.85,-93.5 88.85,-90 88.85,-97"/>
</g>
<!-- registry.ts -->
<g id="node5" class="node">
<title>registry.ts</title>
<path fill="none" stroke="#c6c5fe" d="M169.83,-64C169.83,-64 111.17,-64 111.17,-64 107.33,-64 103.5,-60.17 103.5,-56.33 103.5,-56.33 103.5,-48.67 103.5,-48.67 103.5,-44.83 107.33,-41 111.17,-41 111.17,-41 169.83,-41 169.83,-41 173.67,-41 177.5,-44.83 177.5,-48.67 177.5,-48.67 177.5,-56.33 177.5,-56.33 177.5,-60.17 173.67,-64 169.83,-64"/>
<text text-anchor="middle" x="140.5" y="-48.8" font-family="Arial" font-size="14.00" fill="#c6c5fe">registry.ts</text>
</g>
<!-- index.ts&#45;&gt;registry.ts -->
<g id="edge4" class="edge">
<title>index.ts&#45;&gt;registry.ts</title>
<path fill="none" stroke="#757575" d="M62.59,-81.97C74.1,-77.56 87.41,-72.46 99.69,-67.75"/>
<polygon fill="#757575" stroke="#757575" points="101.18,-70.93 109.26,-64.09 98.67,-64.4 101.18,-70.93"/>
</g>
<!-- runner.ts -->
<g id="node6" class="node">
<title>runner.ts</title>
<path fill="none" stroke="#c6c5fe" d="M167.33,-23C167.33,-23 113.67,-23 113.67,-23 109.83,-23 106,-19.17 106,-15.33 106,-15.33 106,-7.67 106,-7.67 106,-3.83 109.83,0 113.67,0 113.67,0 167.33,0 167.33,0 171.17,0 175,-3.83 175,-7.67 175,-7.67 175,-15.33 175,-15.33 175,-19.17 171.17,-23 167.33,-23"/>
<text text-anchor="middle" x="140.5" y="-7.8" font-family="Arial" font-size="14.00" fill="#c6c5fe">runner.ts</text>
</g>
<!-- index.ts&#45;&gt;runner.ts -->
<g id="edge5" class="edge">
<title>index.ts&#45;&gt;runner.ts</title>
<path fill="none" stroke="#757575" d="M43.48,-81.71C56.05,-68.63 77.69,-47.41 99,-32.5 101.1,-31.03 103.32,-29.6 105.59,-28.21"/>
<polygon fill="#757575" stroke="#757575" points="107.52,-31.14 114.48,-23.16 104.06,-25.06 107.52,-31.14"/>
</g>
<!-- registry.ts&#45;&gt;errors.ts -->
<g id="edge6" class="edge">
<title>registry.ts&#45;&gt;errors.ts</title>
<path fill="none" stroke="#757575" d="M177.63,-52.5C187.24,-52.5 197.7,-52.5 207.61,-52.5"/>
<polygon fill="#757575" stroke="#757575" points="207.68,-56 217.68,-52.5 207.68,-49 207.68,-56"/>
</g>
<!-- runner.ts&#45;&gt;errors.ts -->
<g id="edge7" class="edge">
<title>runner.ts&#45;&gt;errors.ts</title>
<path fill="none" stroke="#757575" d="M172.01,-23.03C183.68,-27.44 197.18,-32.54 209.63,-37.25"/>
<polygon fill="#757575" stroke="#757575" points="208.75,-40.65 219.34,-40.91 211.22,-34.11 208.75,-40.65"/>
</g>
<!-- types.ts -->
<g id="node7" class="node">
<title>types.ts</title>
<path fill="none" stroke="#cfffac" d="M55.33,-146C55.33,-146 7.67,-146 7.67,-146 3.83,-146 0,-142.17 0,-138.33 0,-138.33 0,-130.67 0,-130.67 0,-126.83 3.83,-123 7.67,-123 7.67,-123 55.33,-123 55.33,-123 59.17,-123 63,-126.83 63,-130.67 63,-130.67 63,-138.33 63,-138.33 63,-142.17 59.17,-146 55.33,-146"/>
<text text-anchor="middle" x="31.5" y="-130.8" font-family="Arial" font-size="14.00" fill="#cfffac">types.ts</text>
</g>
</g>
</svg>
