<?xml version="1.0" encoding="UTF-8" standalone="no"?>
<!DOCTYPE svg PUBLIC "-//W3C//DTD SVG 1.1//EN"
 "http://www.w3.org/Graphics/SVG/1.1/DTD/svg11.dtd">
<!-- Generated by graphviz version 2.43.0 (0)
 -->
<!-- Title: G Pages: 1 -->
<svg width="974pt" height="266pt"
 viewBox="0.00 0.00 974.20 266.20" xmlns="http://www.w3.org/2000/svg" xmlns:xlink="http://www.w3.org/1999/xlink">
<g id="graph0" class="graph" transform="scale(1 1) rotate(0) translate(21.6 244.6)">
<title>G</title>
<polygon fill="#202020" stroke="transparent" points="-21.6,21.6 -21.6,-244.6 952.6,-244.6 952.6,21.6 -21.6,21.6"/>
<!-- add&#45;module&#45;directives&#45;cli.ts -->
<g id="node1" class="node">
<title>add&#45;module&#45;directives&#45;cli.ts</title>
<path fill="none" stroke="#c6c5fe" d="M174.33,-162C174.33,-162 7.67,-162 7.67,-162 3.83,-162 0,-158.17 0,-154.33 0,-154.33 0,-146.67 0,-146.67 0,-142.83 3.83,-139 7.67,-139 7.67,-139 174.33,-139 174.33,-139 178.17,-139 182,-142.83 182,-146.67 182,-146.67 182,-154.33 182,-154.33 182,-158.17 178.17,-162 174.33,-162"/>
<text text-anchor="middle" x="91" y="-146.8" font-family="Arial" font-size="14.00" fill="#c6c5fe">add&#45;module&#45;directives&#45;cli.ts</text>
</g>
<!-- add&#45;module&#45;directives.ts -->
<g id="node2" class="node">
<title>add&#45;module&#45;directives.ts</title>
<path fill="none" stroke="#c6c5fe" d="M395.33,-182C395.33,-182 246.67,-182 246.67,-182 242.83,-182 239,-178.17 239,-174.33 239,-174.33 239,-166.67 239,-166.67 239,-162.83 242.83,-159 246.67,-159 246.67,-159 395.33,-159 395.33,-159 399.17,-159 403,-162.83 403,-166.67 403,-166.67 403,-174.33 403,-174.33 403,-178.17 399.17,-182 395.33,-182"/>
<text text-anchor="middle" x="321" y="-166.8" font-family="Arial" font-size="14.00" fill="#c6c5fe">add&#45;module&#45;directives.ts</text>
</g>
<!-- add&#45;module&#45;directives&#45;cli.ts&#45;&gt;add&#45;module&#45;directives.ts -->
<g id="edge1" class="edge">
<title>add&#45;module&#45;directives&#45;cli.ts&#45;&gt;add&#45;module&#45;directives.ts</title>
<path fill="none" stroke="#757575" d="M182.11,-158.4C197.43,-159.75 213.35,-161.14 228.69,-162.49"/>
<polygon fill="#757575" stroke="#757575" points="228.41,-165.98 238.68,-163.37 229.03,-159.01 228.41,-165.98"/>
</g>
<!-- helpers.ts -->
<g id="node3" class="node">
<title>helpers.ts</title>
<path fill="none" stroke="#cfffac" d="M856.33,-121C856.33,-121 796.67,-121 796.67,-121 792.83,-121 789,-117.17 789,-113.33 789,-113.33 789,-105.67 789,-105.67 789,-101.83 792.83,-98 796.67,-98 796.67,-98 856.33,-98 856.33,-98 860.17,-98 864,-101.83 864,-105.67 864,-105.67 864,-113.33 864,-113.33 864,-117.17 860.17,-121 856.33,-121"/>
<text text-anchor="middle" x="826.5" y="-105.8" font-family="Arial" font-size="14.00" fill="#cfffac">helpers.ts</text>
</g>
<!-- add&#45;module&#45;directives&#45;cli.ts&#45;&gt;helpers.ts -->
<g id="edge2" class="edge">
<title>add&#45;module&#45;directives&#45;cli.ts&#45;&gt;helpers.ts</title>
<path fill="none" stroke="#757575" d="M118.4,-138.92C143.47,-128.6 182.49,-114.26 218,-108.5 424.84,-74.94 676.53,-94.07 778.87,-104.32"/>
<polygon fill="#757575" stroke="#757575" points="778.58,-107.81 788.88,-105.35 779.29,-100.85 778.58,-107.81"/>
</g>
<!-- package&#45;json.ts -->
<g id="node4" class="node">
<title>package&#45;json.ts</title>
<path fill="none" stroke="#c6c5fe" d="M620.83,-182C620.83,-182 525.17,-182 525.17,-182 521.33,-182 517.5,-178.17 517.5,-174.33 517.5,-174.33 517.5,-166.67 517.5,-166.67 517.5,-162.83 521.33,-159 525.17,-159 525.17,-159 620.83,-159 620.83,-159 624.67,-159 628.5,-162.83 628.5,-166.67 628.5,-166.67 628.5,-174.33 628.5,-174.33 628.5,-178.17 624.67,-182 620.83,-182"/>
<text text-anchor="middle" x="573" y="-166.8" font-family="Arial" font-size="14.00" fill="#c6c5fe">package&#45;json.ts</text>
</g>
<!-- add&#45;module&#45;directives.ts&#45;&gt;package&#45;json.ts -->
<g id="edge3" class="edge">
<title>add&#45;module&#45;directives.ts&#45;&gt;package&#45;json.ts</title>
<path fill="none" stroke="#757575" d="M403.17,-170.5C436.87,-170.5 475.45,-170.5 507.21,-170.5"/>
<polygon fill="#757575" stroke="#757575" points="507.27,-174 517.27,-170.5 507.27,-167 507.27,-174"/>
</g>
<!-- package&#45;json.ts&#45;&gt;helpers.ts -->
<g id="edge4" class="edge">
<title>package&#45;json.ts&#45;&gt;helpers.ts</title>
<path fill="none" stroke="#757575" d="M621.6,-158.95C666.75,-148 734.16,-131.65 778.95,-120.79"/>
<polygon fill="#757575" stroke="#757575" points="779.82,-124.18 788.71,-118.42 778.17,-117.38 779.82,-124.18"/>
</g>
<!-- apply&#45;package&#45;publish&#45;config.ts -->
<g id="node5" class="node">
<title>apply&#45;package&#45;publish&#45;config.ts</title>
<path fill="none" stroke="#c6c5fe" d="M416.33,-223C416.33,-223 225.67,-223 225.67,-223 221.83,-223 218,-219.17 218,-215.33 218,-215.33 218,-207.67 218,-207.67 218,-203.83 221.83,-200 225.67,-200 225.67,-200 416.33,-200 416.33,-200 420.17,-200 424,-203.83 424,-207.67 424,-207.67 424,-215.33 424,-215.33 424,-219.17 420.17,-223 416.33,-223"/>
<text text-anchor="middle" x="321" y="-207.8" font-family="Arial" font-size="14.00" fill="#c6c5fe">apply&#45;package&#45;publish&#45;config.ts</text>
</g>
<!-- apply&#45;package&#45;publish&#45;config.ts&#45;&gt;helpers.ts -->
<g id="edge5" class="edge">
<title>apply&#45;package&#45;publish&#45;config.ts&#45;&gt;helpers.ts</title>
<path fill="none" stroke="#757575" d="M424.25,-218.62C498.46,-220.75 600.42,-217.33 686,-191.5 730.94,-177.93 776.65,-147.14 802.98,-127.39"/>
<polygon fill="#757575" stroke="#757575" points="805.31,-130.01 811.13,-121.15 801.06,-124.45 805.31,-130.01"/>
</g>
<!-- apply&#45;package&#45;publish&#45;config.ts&#45;&gt;package&#45;json.ts -->
<g id="edge6" class="edge">
<title>apply&#45;package&#45;publish&#45;config.ts&#45;&gt;package&#45;json.ts</title>
<path fill="none" stroke="#757575" d="M392.3,-199.97C428.32,-194.06 471.88,-186.92 507.1,-181.14"/>
<polygon fill="#757575" stroke="#757575" points="507.96,-184.55 517.26,-179.48 506.83,-177.64 507.96,-184.55"/>
</g>
<!-- find&#45;dependency&#45;mismatches&#45;cli.ts -->
<g id="node6" class="node">
<title>find&#45;dependency&#45;mismatches&#45;cli.ts</title>
<path fill="none" stroke="#c6c5fe" d="M678.33,-23C678.33,-23 467.67,-23 467.67,-23 463.83,-23 460,-19.17 460,-15.33 460,-15.33 460,-7.67 460,-7.67 460,-3.83 463.83,0 467.67,0 467.67,0 678.33,0 678.33,0 682.17,0 686,-3.83 686,-7.67 686,-7.67 686,-15.33 686,-15.33 686,-19.17 682.17,-23 678.33,-23"/>
<text text-anchor="middle" x="573" y="-7.8" font-family="Arial" font-size="14.00" fill="#c6c5fe">find&#45;dependency&#45;mismatches&#45;cli.ts</text>
</g>
<!-- find&#45;dependency&#45;mismatches&#45;cli.ts&#45;&gt;helpers.ts -->
<g id="edge7" class="edge">
<title>find&#45;dependency&#45;mismatches&#45;cli.ts&#45;&gt;helpers.ts</title>
<path fill="none" stroke="#757575" d="M636.13,-23.04C652.59,-26.87 670.17,-31.68 686,-37.5 726.68,-52.45 770.65,-76.61 798.12,-92.77"/>
<polygon fill="#757575" stroke="#757575" points="796.4,-95.81 806.78,-97.92 799.97,-89.8 796.4,-95.81"/>
</g>
<!-- find&#45;dependency&#45;mismatches.ts -->
<g id="node7" class="node">
<title>find&#45;dependency&#45;mismatches.ts</title>
<path fill="none" stroke="#cfffac" d="M923.33,-23C923.33,-23 729.67,-23 729.67,-23 725.83,-23 722,-19.17 722,-15.33 722,-15.33 722,-7.67 722,-7.67 722,-3.83 725.83,0 729.67,0 729.67,0 923.33,0 923.33,0 927.17,0 931,-3.83 931,-7.67 931,-7.67 931,-15.33 931,-15.33 931,-19.17 927.17,-23 923.33,-23"/>
<text text-anchor="middle" x="826.5" y="-7.8" font-family="Arial" font-size="14.00" fill="#cfffac">find&#45;dependency&#45;mismatches.ts</text>
</g>
<!-- find&#45;dependency&#45;mismatches&#45;cli.ts&#45;&gt;find&#45;dependency&#45;mismatches.ts -->
<g id="edge8" class="edge">
<title>find&#45;dependency&#45;mismatches&#45;cli.ts&#45;&gt;find&#45;dependency&#45;mismatches.ts</title>
<path fill="none" stroke="#757575" d="M686.14,-11.5C694.71,-11.5 703.36,-11.5 711.94,-11.5"/>
<polygon fill="#757575" stroke="#757575" points="711.96,-15 721.96,-11.5 711.96,-8 711.96,-15"/>
</g>
<!-- sync&#45;package&#45;exports&#45;cli.ts -->
<g id="node8" class="node">
<title>sync&#45;package&#45;exports&#45;cli.ts</title>
<path fill="none" stroke="#c6c5fe" d="M173.33,-102C173.33,-102 8.67,-102 8.67,-102 4.83,-102 1,-98.17 1,-94.33 1,-94.33 1,-86.67 1,-86.67 1,-82.83 4.83,-79 8.67,-79 8.67,-79 173.33,-79 173.33,-79 177.17,-79 181,-82.83 181,-86.67 181,-86.67 181,-94.33 181,-94.33 181,-98.17 177.17,-102 173.33,-102"/>
<text text-anchor="middle" x="91" y="-86.8" font-family="Arial" font-size="14.00" fill="#c6c5fe">sync&#45;package&#45;exports&#45;cli.ts</text>
</g>
<!-- sync&#45;package&#45;exports&#45;cli.ts&#45;&gt;helpers.ts -->
<g id="edge9" class="edge">
<title>sync&#45;package&#45;exports&#45;cli.ts&#45;&gt;helpers.ts</title>
<path fill="none" stroke="#757575" d="M176.94,-79C190.64,-77.54 204.7,-76.29 218,-75.5 425.64,-63.18 479.48,-50.7 686,-75.5 717.49,-79.28 752.14,-87.7 779.03,-95.22"/>
<polygon fill="#757575" stroke="#757575" points="778.36,-98.67 788.93,-98.04 780.28,-91.94 778.36,-98.67"/>
</g>
<!-- sync&#45;package&#45;exports.ts -->
<g id="node9" class="node">
<title>sync&#45;package&#45;exports.ts</title>
<path fill="none" stroke="#c6c5fe" d="M394.83,-141C394.83,-141 247.17,-141 247.17,-141 243.33,-141 239.5,-137.17 239.5,-133.33 239.5,-133.33 239.5,-125.67 239.5,-125.67 239.5,-121.83 243.33,-118 247.17,-118 247.17,-118 394.83,-118 394.83,-118 398.67,-118 402.5,-121.83 402.5,-125.67 402.5,-125.67 402.5,-133.33 402.5,-133.33 402.5,-137.17 398.67,-141 394.83,-141"/>
<text text-anchor="middle" x="321" y="-125.8" font-family="Arial" font-size="14.00" fill="#c6c5fe">sync&#45;package&#45;exports.ts</text>
</g>
<!-- sync&#45;package&#45;exports&#45;cli.ts&#45;&gt;sync&#45;package&#45;exports.ts -->
<g id="edge10" class="edge">
<title>sync&#45;package&#45;exports&#45;cli.ts&#45;&gt;sync&#45;package&#45;exports.ts</title>
<path fill="none" stroke="#757575" d="M159.48,-102.04C185.56,-106.5 215.57,-111.64 242.52,-116.25"/>
<polygon fill="#757575" stroke="#757575" points="242.24,-119.75 252.69,-117.99 243.42,-112.85 242.24,-119.75"/>
</g>
<!-- sync&#45;package&#45;exports.ts&#45;&gt;helpers.ts -->
<g id="edge11" class="edge">
<title>sync&#45;package&#45;exports.ts&#45;&gt;helpers.ts</title>
<path fill="none" stroke="#757575" d="M402.62,-126.3C509.03,-122.07 692.89,-114.77 778.77,-111.36"/>
<polygon fill="#757575" stroke="#757575" points="779.14,-114.84 788.99,-110.95 778.86,-107.85 779.14,-114.84"/>
</g>
<!-- sync&#45;package&#45;exports.ts&#45;&gt;package&#45;json.ts -->
<g id="edge12" class="edge">
<title>sync&#45;package&#45;exports.ts&#45;&gt;package&#45;json.ts</title>
<path fill="none" stroke="#757575" d="M392.3,-141.03C428.32,-146.94 471.88,-154.08 507.1,-159.86"/>
<polygon fill="#757575" stroke="#757575" points="506.83,-163.36 517.26,-161.52 507.96,-156.45 506.83,-163.36"/>
</g>
</g>
</svg>
